<svg width="707" height="267" viewBox="0 0 707 267" fill="none" xmlns="http://www.w3.org/2000/svg">
<g filter="url(#filter0_d_132_141)">
<path d="M5.5 10C5.5 4.7533 9.7533 0.5 15 0.5H693C698.247 0.5 702.5 4.75329 702.5 10V249C702.5 254.247 698.247 258.5 693 258.5H15C9.75328 258.5 5.5 254.247 5.5 249V10Z" fill="white" stroke="#EA8D45"/>
<rect x="62.2417" y="203.699" width="50" height="50" transform="rotate(179.846 62.2417 203.699)" fill="#EA8D45" fill-opacity="0.5"/>
<rect x="58.9458" y="93.7071" width="50" height="50" transform="rotate(179.846 58.9458 93.7071)" fill="#EA8D45"/>
<rect x="93.8301" y="50.6131" width="50" height="50" transform="rotate(179.846 93.8301 50.6131)" fill="#EA8D45"/>
<rect x="34.0889" y="146.922" width="29.0891" height="53.1477" transform="rotate(179.846 34.0889 146.922)" fill="#EA8D45" fill-opacity="0.75"/>
<rect x="185.792" y="36.3657" width="50" height="36" transform="rotate(179.846 185.792 36.3657)" fill="#EA8D45"/>
<rect x="143.927" y="86.4785" width="50" height="50" transform="rotate(179.846 143.927 86.4785)" fill="#EA8D45"/>
<rect x="109.053" y="133.572" width="50" height="50" transform="rotate(179.846 109.053 133.572)" fill="#EA8D45" fill-opacity="0.5"/>
<rect x="163.5" y="113.5" width="381" height="42" rx="9.5" fill="white" stroke="#EA8D45"/>
<path d="M279.981 95H276.048L269.47 85.041V95H265.537V78.854H269.47L276.048 88.859V78.854H279.981V95ZM282.05 88.56C282.05 87.2413 282.296 86.0837 282.786 85.087C283.292 84.0903 283.975 83.3237 284.833 82.787C285.692 82.2503 286.65 81.982 287.708 81.982C288.613 81.982 289.403 82.166 290.077 82.534C290.767 82.902 291.296 83.385 291.664 83.983V82.166H295.597V95H291.664V93.183C291.281 93.781 290.744 94.264 290.054 94.632C289.38 95 288.59 95.184 287.685 95.184C286.643 95.184 285.692 94.9157 284.833 94.379C283.975 93.827 283.292 93.0527 282.786 92.056C282.296 91.044 282.05 89.8787 282.05 88.56ZM291.664 88.583C291.664 87.6017 291.388 86.8273 290.836 86.26C290.3 85.6927 289.64 85.409 288.858 85.409C288.076 85.409 287.409 85.6927 286.857 86.26C286.321 86.812 286.052 87.5787 286.052 88.56C286.052 89.5413 286.321 90.3233 286.857 90.906C287.409 91.4733 288.076 91.757 288.858 91.757C289.64 91.757 290.3 91.4733 290.836 90.906C291.388 90.3387 291.664 89.5643 291.664 88.583ZM314.819 82.028C316.413 82.028 317.678 82.511 318.614 83.477C319.564 84.443 320.04 85.7847 320.04 87.502V95H316.13V88.031C316.13 87.203 315.907 86.5667 315.463 86.122C315.033 85.662 314.435 85.432 313.669 85.432C312.902 85.432 312.296 85.662 311.852 86.122C311.422 86.5667 311.208 87.203 311.208 88.031V95H307.298V88.031C307.298 87.203 307.075 86.5667 306.631 86.122C306.201 85.662 305.603 85.432 304.837 85.432C304.07 85.432 303.464 85.662 303.02 86.122C302.59 86.5667 302.376 87.203 302.376 88.031V95H298.443V82.166H302.376V83.776C302.774 83.2393 303.296 82.8177 303.94 82.511C304.584 82.189 305.312 82.028 306.125 82.028C307.091 82.028 307.949 82.235 308.701 82.649C309.467 83.063 310.065 83.6533 310.495 84.42C310.939 83.7147 311.545 83.1397 312.312 82.695C313.078 82.2503 313.914 82.028 314.819 82.028ZM322.008 88.56C322.008 87.2413 322.254 86.0837 322.744 85.087C323.25 84.0903 323.933 83.3237 324.791 82.787C325.65 82.2503 326.608 81.982 327.666 81.982C328.571 81.982 329.361 82.166 330.035 82.534C330.725 82.902 331.254 83.385 331.622 83.983V82.166H335.555V95H331.622V93.183C331.239 93.781 330.702 94.264 330.012 94.632C329.338 95 328.548 95.184 327.643 95.184C326.601 95.184 325.65 94.9157 324.791 94.379C323.933 93.827 323.25 93.0527 322.744 92.056C322.254 91.044 322.008 89.8787 322.008 88.56ZM331.622 88.583C331.622 87.6017 331.346 86.8273 330.794 86.26C330.258 85.6927 329.598 85.409 328.816 85.409C328.034 85.409 327.367 85.6927 326.815 86.26C326.279 86.812 326.01 87.5787 326.01 88.56C326.01 89.5413 326.279 90.3233 326.815 90.906C327.367 91.4733 328.034 91.757 328.816 91.757C329.598 91.757 330.258 91.4733 330.794 90.906C331.346 90.3387 331.622 89.5643 331.622 88.583ZM352.636 95L347.208 87.87V95H343.275V78.854H347.208V85.938L352.59 78.854H357.213L350.957 86.766L357.443 95H352.636ZM358.53 88.56C358.53 87.2413 358.775 86.0837 359.266 85.087C359.772 84.0903 360.454 83.3237 361.313 82.787C362.171 82.2503 363.13 81.982 364.188 81.982C365.092 81.982 365.882 82.166 366.557 82.534C367.247 82.902 367.776 83.385 368.144 83.983V82.166H372.077V95H368.144V93.183C367.76 93.781 367.224 94.264 366.534 94.632C365.859 95 365.069 95.184 364.165 95.184C363.122 95.184 362.171 94.9157 361.313 94.379C360.454 93.827 359.772 93.0527 359.266 92.056C358.775 91.044 358.53 89.8787 358.53 88.56ZM368.144 88.583C368.144 87.6017 367.868 86.8273 367.316 86.26C366.779 85.6927 366.12 85.409 365.338 85.409C364.556 85.409 363.889 85.6927 363.337 86.26C362.8 86.812 362.532 87.5787 362.532 88.56C362.532 89.5413 362.8 90.3233 363.337 90.906C363.889 91.4733 364.556 91.757 365.338 91.757C366.12 91.757 366.779 91.4733 367.316 90.906C367.868 90.3387 368.144 89.5643 368.144 88.583ZM382.075 91.665V95H380.074C378.648 95 377.536 94.655 376.739 93.965C375.942 93.2597 375.543 92.1173 375.543 90.538V85.432H373.979V82.166H375.543V79.038H379.476V82.166H382.052V85.432H379.476V90.584C379.476 90.9673 379.568 91.2433 379.752 91.412C379.936 91.5807 380.243 91.665 380.672 91.665H382.075ZM396.364 88.376C396.364 88.744 396.341 89.1273 396.295 89.526H387.394C387.455 90.3233 387.708 90.9367 388.153 91.366C388.613 91.78 389.173 91.987 389.832 91.987C390.813 91.987 391.496 91.573 391.879 90.745H396.065C395.85 91.5883 395.459 92.3473 394.892 93.022C394.34 93.6967 393.642 94.2257 392.799 94.609C391.956 94.9923 391.013 95.184 389.97 95.184C388.713 95.184 387.593 94.9157 386.612 94.379C385.631 93.8423 384.864 93.0757 384.312 92.079C383.76 91.0823 383.484 89.917 383.484 88.583C383.484 87.249 383.752 86.0837 384.289 85.087C384.841 84.0903 385.608 83.3237 386.589 82.787C387.57 82.2503 388.697 81.982 389.97 81.982C391.212 81.982 392.316 82.2427 393.282 82.764C394.248 83.2853 394.999 84.029 395.536 84.995C396.088 85.961 396.364 87.088 396.364 88.376ZM392.339 87.341C392.339 86.6663 392.109 86.1297 391.649 85.731C391.189 85.3323 390.614 85.133 389.924 85.133C389.265 85.133 388.705 85.3247 388.245 85.708C387.8 86.0913 387.524 86.6357 387.417 87.341H392.339ZM403.315 81.982C404.219 81.982 405.009 82.166 405.684 82.534C406.374 82.902 406.903 83.385 407.271 83.983V82.166H411.204V94.977C411.204 96.1577 410.966 97.2233 410.491 98.174C410.031 99.14 409.318 99.9067 408.352 100.474C407.401 101.041 406.213 101.325 404.787 101.325C402.885 101.325 401.344 100.873 400.164 99.968C398.983 99.0787 398.308 97.8673 398.14 96.334H402.027C402.149 96.8247 402.441 97.208 402.901 97.484C403.361 97.7753 403.928 97.921 404.603 97.921C405.415 97.921 406.059 97.6833 406.535 97.208C407.025 96.748 407.271 96.0043 407.271 94.977V93.16C406.887 93.758 406.358 94.2487 405.684 94.632C405.009 95 404.219 95.184 403.315 95.184C402.257 95.184 401.298 94.9157 400.44 94.379C399.581 93.827 398.899 93.0527 398.393 92.056C397.902 91.044 397.657 89.8787 397.657 88.56C397.657 87.2413 397.902 86.0837 398.393 85.087C398.899 84.0903 399.581 83.3237 400.44 82.787C401.298 82.2503 402.257 81.982 403.315 81.982ZM407.271 88.583C407.271 87.6017 406.995 86.8273 406.443 86.26C405.906 85.6927 405.247 85.409 404.465 85.409C403.683 85.409 403.016 85.6927 402.464 86.26C401.927 86.812 401.659 87.5787 401.659 88.56C401.659 89.5413 401.927 90.3233 402.464 90.906C403.016 91.4733 403.683 91.757 404.465 91.757C405.247 91.757 405.906 91.4733 406.443 90.906C406.995 90.3387 407.271 89.5643 407.271 88.583ZM419.891 95.184C418.634 95.184 417.499 94.9157 416.487 94.379C415.49 93.8423 414.701 93.0757 414.118 92.079C413.551 91.0823 413.267 89.917 413.267 88.583C413.267 87.2643 413.558 86.1067 414.141 85.11C414.724 84.098 415.521 83.3237 416.533 82.787C417.545 82.2503 418.68 81.982 419.937 81.982C421.194 81.982 422.329 82.2503 423.341 82.787C424.353 83.3237 425.15 84.098 425.733 85.11C426.316 86.1067 426.607 87.2643 426.607 88.583C426.607 89.9017 426.308 91.067 425.71 92.079C425.127 93.0757 424.322 93.8423 423.295 94.379C422.283 94.9157 421.148 95.184 419.891 95.184ZM419.891 91.78C420.642 91.78 421.279 91.504 421.8 90.952C422.337 90.4 422.605 89.6103 422.605 88.583C422.605 87.5557 422.344 86.766 421.823 86.214C421.317 85.662 420.688 85.386 419.937 85.386C419.17 85.386 418.534 85.662 418.028 86.214C417.522 86.7507 417.269 87.5403 417.269 88.583C417.269 89.6103 417.514 90.4 418.005 90.952C418.511 91.504 419.14 91.78 419.891 91.78ZM432.627 84.305C433.087 83.5997 433.662 83.0477 434.352 82.649C435.042 82.235 435.808 82.028 436.652 82.028V86.191H435.571C434.589 86.191 433.853 86.4057 433.363 86.835C432.872 87.249 432.627 87.985 432.627 89.043V95H428.694V82.166H432.627V84.305ZM440.509 80.832C439.819 80.832 439.252 80.6327 438.807 80.234C438.378 79.82 438.163 79.314 438.163 78.716C438.163 78.1027 438.378 77.5967 438.807 77.198C439.252 76.784 439.819 76.577 440.509 76.577C441.184 76.577 441.736 76.784 442.165 77.198C442.61 77.5967 442.832 78.1027 442.832 78.716C442.832 79.314 442.61 79.82 442.165 80.234C441.736 80.6327 441.184 80.832 440.509 80.832ZM442.464 82.166V95H438.531V82.166H442.464Z" fill="#EA8D45"/>
<path d="M264.76 129.62V140H263.395V132.26L259.945 140H258.985L255.52 132.245V140H254.155V129.62H255.625L259.465 138.2L263.305 129.62H264.76ZM266.565 135.86C266.565 135.02 266.735 134.285 267.075 133.655C267.415 133.015 267.88 132.52 268.47 132.17C269.07 131.82 269.735 131.645 270.465 131.645C271.185 131.645 271.81 131.8 272.34 132.11C272.87 132.42 273.265 132.81 273.525 133.28V131.78H274.905V140H273.525V138.47C273.255 138.95 272.85 139.35 272.31 139.67C271.78 139.98 271.16 140.135 270.45 140.135C269.72 140.135 269.06 139.955 268.47 139.595C267.88 139.235 267.415 138.73 267.075 138.08C266.735 137.43 266.565 136.69 266.565 135.86ZM273.525 135.875C273.525 135.255 273.4 134.715 273.15 134.255C272.9 133.795 272.56 133.445 272.13 133.205C271.71 132.955 271.245 132.83 270.735 132.83C270.225 132.83 269.76 132.95 269.34 133.19C268.92 133.43 268.585 133.78 268.335 134.24C268.085 134.7 267.96 135.24 267.96 135.86C267.96 136.49 268.085 137.04 268.335 137.51C268.585 137.97 268.92 138.325 269.34 138.575C269.76 138.815 270.225 138.935 270.735 138.935C271.245 138.935 271.71 138.815 272.13 138.575C272.56 138.325 272.9 137.97 273.15 137.51C273.4 137.04 273.525 136.495 273.525 135.875ZM280.122 140.135C279.492 140.135 278.927 140.03 278.427 139.82C277.927 139.6 277.532 139.3 277.242 138.92C276.952 138.53 276.792 138.085 276.762 137.585H278.172C278.212 137.995 278.402 138.33 278.742 138.59C279.092 138.85 279.547 138.98 280.107 138.98C280.627 138.98 281.037 138.865 281.337 138.635C281.637 138.405 281.787 138.115 281.787 137.765C281.787 137.405 281.627 137.14 281.307 136.97C280.987 136.79 280.492 136.615 279.822 136.445C279.212 136.285 278.712 136.125 278.322 135.965C277.942 135.795 277.612 135.55 277.332 135.23C277.062 134.9 276.927 134.47 276.927 133.94C276.927 133.52 277.052 133.135 277.302 132.785C277.552 132.435 277.907 132.16 278.367 131.96C278.827 131.75 279.352 131.645 279.942 131.645C280.852 131.645 281.587 131.875 282.147 132.335C282.707 132.795 283.007 133.425 283.047 134.225H281.682C281.652 133.795 281.477 133.45 281.157 133.19C280.847 132.93 280.427 132.8 279.897 132.8C279.407 132.8 279.017 132.905 278.727 133.115C278.437 133.325 278.292 133.6 278.292 133.94C278.292 134.21 278.377 134.435 278.547 134.615C278.727 134.785 278.947 134.925 279.207 135.035C279.477 135.135 279.847 135.25 280.317 135.38C280.907 135.54 281.387 135.7 281.757 135.86C282.127 136.01 282.442 136.24 282.702 136.55C282.972 136.86 283.112 137.265 283.122 137.765C283.122 138.215 282.997 138.62 282.747 138.98C282.497 139.34 282.142 139.625 281.682 139.835C281.232 140.035 280.712 140.135 280.122 140.135ZM292.339 131.78V140H290.974V138.785C290.714 139.205 290.349 139.535 289.879 139.775C289.419 140.005 288.909 140.12 288.349 140.12C287.709 140.12 287.134 139.99 286.624 139.73C286.114 139.46 285.709 139.06 285.409 138.53C285.119 138 284.974 137.355 284.974 136.595V131.78H286.324V136.415C286.324 137.225 286.529 137.85 286.939 138.29C287.349 138.72 287.909 138.935 288.619 138.935C289.349 138.935 289.924 138.71 290.344 138.26C290.764 137.81 290.974 137.155 290.974 136.295V131.78H292.339ZM299.233 140L296.008 136.37V140H294.643V128.9H296.008V135.425L299.173 131.78H301.078L297.208 135.875L301.093 140H299.233ZM306.953 140L303.728 136.37V140H302.363V128.9H303.728V135.425L306.893 131.78H308.798L304.928 135.875L308.813 140H306.953ZM309.573 135.86C309.573 135.02 309.743 134.285 310.083 133.655C310.423 133.015 310.888 132.52 311.478 132.17C312.078 131.82 312.743 131.645 313.473 131.645C314.193 131.645 314.818 131.8 315.348 132.11C315.878 132.42 316.273 132.81 316.533 133.28V131.78H317.913V140H316.533V138.47C316.263 138.95 315.858 139.35 315.318 139.67C314.788 139.98 314.168 140.135 313.458 140.135C312.728 140.135 312.068 139.955 311.478 139.595C310.888 139.235 310.423 138.73 310.083 138.08C309.743 137.43 309.573 136.69 309.573 135.86ZM316.533 135.875C316.533 135.255 316.408 134.715 316.158 134.255C315.908 133.795 315.568 133.445 315.138 133.205C314.718 132.955 314.253 132.83 313.743 132.83C313.233 132.83 312.768 132.95 312.348 133.19C311.928 133.43 311.593 133.78 311.343 134.24C311.093 134.7 310.968 135.24 310.968 135.86C310.968 136.49 311.093 137.04 311.343 137.51C311.593 137.97 311.928 138.325 312.348 138.575C312.768 138.815 313.233 138.935 313.743 138.935C314.253 138.935 314.718 138.815 315.138 138.575C315.568 138.325 315.908 137.97 316.158 137.51C316.408 137.04 316.533 136.495 316.533 135.875ZM324.224 131.63C325.224 131.63 326.034 131.935 326.654 132.545C327.274 133.145 327.584 134.015 327.584 135.155V140H326.234V135.35C326.234 134.53 326.029 133.905 325.619 133.475C325.209 133.035 324.649 132.815 323.939 132.815C323.219 132.815 322.644 133.04 322.214 133.49C321.794 133.94 321.584 134.595 321.584 135.455V140H320.219V131.78H321.584V132.95C321.854 132.53 322.219 132.205 322.679 131.975C323.149 131.745 323.664 131.63 324.224 131.63ZM337.818 131.63C338.818 131.63 339.628 131.935 340.248 132.545C340.868 133.145 341.178 134.015 341.178 135.155V140H339.828V135.35C339.828 134.53 339.623 133.905 339.213 133.475C338.803 133.035 338.243 132.815 337.533 132.815C336.813 132.815 336.238 133.04 335.808 133.49C335.388 133.94 335.178 134.595 335.178 135.455V140H333.813V131.78H335.178V132.95C335.448 132.53 335.813 132.205 336.273 131.975C336.743 131.745 337.258 131.63 337.818 131.63ZM342.898 135.86C342.898 135.02 343.068 134.285 343.408 133.655C343.748 133.015 344.213 132.52 344.803 132.17C345.403 131.82 346.068 131.645 346.798 131.645C347.518 131.645 348.143 131.8 348.673 132.11C349.203 132.42 349.598 132.81 349.858 133.28V131.78H351.238V140H349.858V138.47C349.588 138.95 349.183 139.35 348.643 139.67C348.113 139.98 347.493 140.135 346.783 140.135C346.053 140.135 345.393 139.955 344.803 139.595C344.213 139.235 343.748 138.73 343.408 138.08C343.068 137.43 342.898 136.69 342.898 135.86ZM349.858 135.875C349.858 135.255 349.733 134.715 349.483 134.255C349.233 133.795 348.893 133.445 348.463 133.205C348.043 132.955 347.578 132.83 347.068 132.83C346.558 132.83 346.093 132.95 345.673 133.19C345.253 133.43 344.918 133.78 344.668 134.24C344.418 134.7 344.293 135.24 344.293 135.86C344.293 136.49 344.418 137.04 344.668 137.51C344.918 137.97 345.253 138.325 345.673 138.575C346.093 138.815 346.558 138.935 347.068 138.935C347.578 138.935 348.043 138.815 348.463 138.575C348.893 138.325 349.233 137.97 349.483 137.51C349.733 137.04 349.858 136.495 349.858 135.875ZM363.43 131.63C364.07 131.63 364.64 131.765 365.14 132.035C365.64 132.295 366.035 132.69 366.325 133.22C366.615 133.75 366.76 134.395 366.76 135.155V140H365.41V135.35C365.41 134.53 365.205 133.905 364.795 133.475C364.395 133.035 363.85 132.815 363.16 132.815C362.45 132.815 361.885 133.045 361.465 133.505C361.045 133.955 360.835 134.61 360.835 135.47V140H359.485V135.35C359.485 134.53 359.28 133.905 358.87 133.475C358.47 133.035 357.925 132.815 357.235 132.815C356.525 132.815 355.96 133.045 355.54 133.505C355.12 133.955 354.91 134.61 354.91 135.47V140H353.545V131.78H354.91V132.965C355.18 132.535 355.54 132.205 355.99 131.975C356.45 131.745 356.955 131.63 357.505 131.63C358.195 131.63 358.805 131.785 359.335 132.095C359.865 132.405 360.26 132.86 360.52 133.46C360.75 132.88 361.13 132.43 361.66 132.11C362.19 131.79 362.78 131.63 363.43 131.63ZM368.489 135.86C368.489 135.02 368.659 134.285 368.999 133.655C369.339 133.015 369.804 132.52 370.394 132.17C370.994 131.82 371.659 131.645 372.389 131.645C373.109 131.645 373.734 131.8 374.264 132.11C374.794 132.42 375.189 132.81 375.449 133.28V131.78H376.829V140H375.449V138.47C375.179 138.95 374.774 139.35 374.234 139.67C373.704 139.98 373.084 140.135 372.374 140.135C371.644 140.135 370.984 139.955 370.394 139.595C369.804 139.235 369.339 138.73 368.999 138.08C368.659 137.43 368.489 136.69 368.489 135.86ZM375.449 135.875C375.449 135.255 375.324 134.715 375.074 134.255C374.824 133.795 374.484 133.445 374.054 133.205C373.634 132.955 373.169 132.83 372.659 132.83C372.149 132.83 371.684 132.95 371.264 133.19C370.844 133.43 370.509 133.78 370.259 134.24C370.009 134.7 369.884 135.24 369.884 135.86C369.884 136.49 370.009 137.04 370.259 137.51C370.509 137.97 370.844 138.325 371.264 138.575C371.684 138.815 372.149 138.935 372.659 138.935C373.169 138.935 373.634 138.815 374.054 138.575C374.484 138.325 374.824 137.97 375.074 137.51C375.324 137.04 375.449 136.495 375.449 135.875ZM387.724 140L384.499 136.37V140H383.134V128.9H384.499V135.425L387.664 131.78H389.569L385.699 135.875L389.584 140H387.724ZM390.344 135.86C390.344 135.02 390.514 134.285 390.854 133.655C391.194 133.015 391.659 132.52 392.249 132.17C392.849 131.82 393.514 131.645 394.244 131.645C394.964 131.645 395.589 131.8 396.119 132.11C396.649 132.42 397.044 132.81 397.304 133.28V131.78H398.684V140H397.304V138.47C397.034 138.95 396.629 139.35 396.089 139.67C395.559 139.98 394.939 140.135 394.229 140.135C393.499 140.135 392.839 139.955 392.249 139.595C391.659 139.235 391.194 138.73 390.854 138.08C390.514 137.43 390.344 136.69 390.344 135.86ZM397.304 135.875C397.304 135.255 397.179 134.715 396.929 134.255C396.679 133.795 396.339 133.445 395.909 133.205C395.489 132.955 395.024 132.83 394.514 132.83C394.004 132.83 393.539 132.95 393.119 133.19C392.699 133.43 392.364 133.78 392.114 134.24C391.864 134.7 391.739 135.24 391.739 135.86C391.739 136.49 391.864 137.04 392.114 137.51C392.364 137.97 392.699 138.325 393.119 138.575C393.539 138.815 394.004 138.935 394.514 138.935C395.024 138.935 395.489 138.815 395.909 138.575C396.339 138.325 396.679 137.97 396.929 137.51C397.179 137.04 397.304 136.495 397.304 135.875ZM402.656 132.905V137.75C402.656 138.15 402.741 138.435 402.911 138.605C403.081 138.765 403.376 138.845 403.796 138.845H404.801V140H403.571C402.811 140 402.241 139.825 401.861 139.475C401.481 139.125 401.291 138.55 401.291 137.75V132.905H400.226V131.78H401.291V129.71H402.656V131.78H404.801V132.905H402.656ZM413.955 135.575C413.955 135.835 413.94 136.11 413.91 136.4H407.34C407.39 137.21 407.665 137.845 408.165 138.305C408.675 138.755 409.29 138.98 410.01 138.98C410.6 138.98 411.09 138.845 411.48 138.575C411.88 138.295 412.16 137.925 412.32 137.465H413.79C413.57 138.255 413.13 138.9 412.47 139.4C411.81 139.89 410.99 140.135 410.01 140.135C409.23 140.135 408.53 139.96 407.91 139.61C407.3 139.26 406.82 138.765 406.47 138.125C406.12 137.475 405.945 136.725 405.945 135.875C405.945 135.025 406.115 134.28 406.455 133.64C406.795 133 407.27 132.51 407.88 132.17C408.5 131.82 409.21 131.645 410.01 131.645C410.79 131.645 411.48 131.815 412.08 132.155C412.68 132.495 413.14 132.965 413.46 133.565C413.79 134.155 413.955 134.825 413.955 135.575ZM412.545 135.29C412.545 134.77 412.43 134.325 412.2 133.955C411.97 133.575 411.655 133.29 411.255 133.1C410.865 132.9 410.43 132.8 409.95 132.8C409.26 132.8 408.67 133.02 408.18 133.46C407.7 133.9 407.425 134.51 407.355 135.29H412.545ZM419.147 131.645C419.857 131.645 420.477 131.8 421.007 132.11C421.547 132.42 421.947 132.81 422.207 133.28V131.78H423.587V140.18C423.587 140.93 423.427 141.595 423.107 142.175C422.787 142.765 422.327 143.225 421.727 143.555C421.137 143.885 420.447 144.05 419.657 144.05C418.577 144.05 417.677 143.795 416.957 143.285C416.237 142.775 415.812 142.08 415.682 141.2H417.032C417.182 141.7 417.492 142.1 417.962 142.4C418.432 142.71 418.997 142.865 419.657 142.865C420.407 142.865 421.017 142.63 421.487 142.16C421.967 141.69 422.207 141.03 422.207 140.18V138.455C421.937 138.935 421.537 139.335 421.007 139.655C420.477 139.975 419.857 140.135 419.147 140.135C418.417 140.135 417.752 139.955 417.152 139.595C416.562 139.235 416.097 138.73 415.757 138.08C415.417 137.43 415.247 136.69 415.247 135.86C415.247 135.02 415.417 134.285 415.757 133.655C416.097 133.015 416.562 132.52 417.152 132.17C417.752 131.82 418.417 131.645 419.147 131.645ZM422.207 135.875C422.207 135.255 422.082 134.715 421.832 134.255C421.582 133.795 421.242 133.445 420.812 133.205C420.392 132.955 419.927 132.83 419.417 132.83C418.907 132.83 418.442 132.95 418.022 133.19C417.602 133.43 417.267 133.78 417.017 134.24C416.767 134.7 416.642 135.24 416.642 135.86C416.642 136.49 416.767 137.04 417.017 137.51C417.267 137.97 417.602 138.325 418.022 138.575C418.442 138.815 418.907 138.935 419.417 138.935C419.927 138.935 420.392 138.815 420.812 138.575C421.242 138.325 421.582 137.97 421.832 137.51C422.082 137.04 422.207 136.495 422.207 135.875ZM429.478 140.135C428.708 140.135 428.008 139.96 427.378 139.61C426.758 139.26 426.268 138.765 425.908 138.125C425.558 137.475 425.383 136.725 425.383 135.875C425.383 135.035 425.563 134.295 425.923 133.655C426.293 133.005 426.793 132.51 427.423 132.17C428.053 131.82 428.758 131.645 429.538 131.645C430.318 131.645 431.023 131.82 431.653 132.17C432.283 132.51 432.778 133 433.138 133.64C433.508 134.28 433.693 135.025 433.693 135.875C433.693 136.725 433.503 137.475 433.123 138.125C432.753 138.765 432.248 139.26 431.608 139.61C430.968 139.96 430.258 140.135 429.478 140.135ZM429.478 138.935C429.968 138.935 430.428 138.82 430.858 138.59C431.288 138.36 431.633 138.015 431.893 137.555C432.163 137.095 432.298 136.535 432.298 135.875C432.298 135.215 432.168 134.655 431.908 134.195C431.648 133.735 431.308 133.395 430.888 133.175C430.468 132.945 430.013 132.83 429.523 132.83C429.023 132.83 428.563 132.945 428.143 133.175C427.733 133.395 427.403 133.735 427.153 134.195C426.903 134.655 426.778 135.215 426.778 135.875C426.778 136.545 426.898 137.11 427.138 137.57C427.388 138.03 427.718 138.375 428.128 138.605C428.538 138.825 428.988 138.935 429.478 138.935ZM436.853 133.115C437.093 132.645 437.433 132.28 437.873 132.02C438.323 131.76 438.868 131.63 439.508 131.63V133.04H439.148C437.618 133.04 436.853 133.87 436.853 135.53V140H435.488V131.78H436.853V133.115ZM441.789 130.445C441.529 130.445 441.309 130.355 441.129 130.175C440.949 129.995 440.859 129.775 440.859 129.515C440.859 129.255 440.949 129.035 441.129 128.855C441.309 128.675 441.529 128.585 441.789 128.585C442.039 128.585 442.249 128.675 442.419 128.855C442.599 129.035 442.689 129.255 442.689 129.515C442.689 129.775 442.599 129.995 442.419 130.175C442.249 130.355 442.039 130.445 441.789 130.445ZM442.449 131.78V140H441.084V131.78H442.449ZM445.21 140.09C444.95 140.09 444.73 140 444.55 139.82C444.37 139.64 444.28 139.42 444.28 139.16C444.28 138.9 444.37 138.68 444.55 138.5C444.73 138.32 444.95 138.23 445.21 138.23C445.46 138.23 445.67 138.32 445.84 138.5C446.02 138.68 446.11 138.9 446.11 139.16C446.11 139.42 446.02 139.64 445.84 139.82C445.67 140 445.46 140.09 445.21 140.09ZM448.36 140.09C448.1 140.09 447.88 140 447.7 139.82C447.52 139.64 447.43 139.42 447.43 139.16C447.43 138.9 447.52 138.68 447.7 138.5C447.88 138.32 448.1 138.23 448.36 138.23C448.61 138.23 448.82 138.32 448.99 138.5C449.17 138.68 449.26 138.9 449.26 139.16C449.26 139.42 449.17 139.64 448.99 139.82C448.82 140 448.61 140.09 448.36 140.09ZM451.509 140.09C451.249 140.09 451.029 140 450.849 139.82C450.669 139.64 450.579 139.42 450.579 139.16C450.579 138.9 450.669 138.68 450.849 138.5C451.029 138.32 451.249 138.23 451.509 138.23C451.759 138.23 451.969 138.32 452.139 138.5C452.319 138.68 452.409 138.9 452.409 139.16C452.409 139.42 452.319 139.64 452.139 139.82C451.969 140 451.759 140.09 451.509 140.09Z" fill="#C6C6C6"/>
<g filter="url(#filter1_d_132_141)">
<rect x="372" y="197" width="91" height="26" rx="10" fill="#EA8D45"/>
<path d="M393.009 215.105C392.279 215.105 391.619 214.98 391.029 214.73C390.449 214.48 389.989 214.12 389.649 213.65C389.309 213.18 389.134 212.625 389.124 211.985H391.374C391.404 212.415 391.554 212.755 391.824 213.005C392.104 213.255 392.484 213.38 392.964 213.38C393.454 213.38 393.839 213.265 394.119 213.035C394.399 212.795 394.539 212.485 394.539 212.105C394.539 211.795 394.444 211.54 394.254 211.34C394.064 211.14 393.824 210.985 393.534 210.875C393.254 210.755 392.864 210.625 392.364 210.485C391.684 210.285 391.129 210.09 390.699 209.9C390.279 209.7 389.914 209.405 389.604 209.015C389.304 208.615 389.154 208.085 389.154 207.425C389.154 206.805 389.309 206.265 389.619 205.805C389.929 205.345 390.364 204.995 390.924 204.755C391.484 204.505 392.124 204.38 392.844 204.38C393.924 204.38 394.799 204.645 395.469 205.175C396.149 205.695 396.524 206.425 396.594 207.365H394.284C394.264 207.005 394.109 206.71 393.819 206.48C393.539 206.24 393.164 206.12 392.694 206.12C392.284 206.12 391.954 206.225 391.704 206.435C391.464 206.645 391.344 206.95 391.344 207.35C391.344 207.63 391.434 207.865 391.614 208.055C391.804 208.235 392.034 208.385 392.304 208.505C392.584 208.615 392.974 208.745 393.474 208.895C394.154 209.095 394.709 209.295 395.139 209.495C395.569 209.695 395.939 209.995 396.249 210.395C396.559 210.795 396.714 211.32 396.714 211.97C396.714 212.53 396.569 213.05 396.279 213.53C395.989 214.01 395.564 214.395 395.004 214.685C394.444 214.965 393.779 215.105 393.009 215.105ZM399.6 205.7C399.23 205.7 398.92 205.585 398.67 205.355C398.43 205.115 398.31 204.82 398.31 204.47C398.31 204.12 398.43 203.83 398.67 203.6C398.92 203.36 399.23 203.24 399.6 203.24C399.97 203.24 400.275 203.36 400.515 203.6C400.765 203.83 400.89 204.12 400.89 204.47C400.89 204.82 400.765 205.115 400.515 205.355C400.275 205.585 399.97 205.7 399.6 205.7ZM400.635 206.69V215H398.535V206.69H400.635ZM413.029 206.57C414.049 206.57 414.869 206.885 415.489 207.515C416.119 208.135 416.434 209.005 416.434 210.125V215H414.334V210.41C414.334 209.76 414.169 209.265 413.839 208.925C413.509 208.575 413.059 208.4 412.489 208.4C411.919 208.4 411.464 208.575 411.124 208.925C410.794 209.265 410.629 209.76 410.629 210.41V215H408.529V210.41C408.529 209.76 408.364 209.265 408.034 208.925C407.704 208.575 407.254 208.4 406.684 208.4C406.104 208.4 405.644 208.575 405.304 208.925C404.974 209.265 404.809 209.76 404.809 210.41V215H402.709V206.69H404.809V207.695C405.079 207.345 405.424 207.07 405.844 206.87C406.274 206.67 406.744 206.57 407.254 206.57C407.904 206.57 408.484 206.71 408.994 206.99C409.504 207.26 409.899 207.65 410.179 208.16C410.449 207.68 410.839 207.295 411.349 207.005C411.869 206.715 412.429 206.57 413.029 206.57ZM420.527 207.89C420.797 207.51 421.167 207.195 421.637 206.945C422.117 206.685 422.662 206.555 423.272 206.555C423.982 206.555 424.622 206.73 425.192 207.08C425.772 207.43 426.227 207.93 426.557 208.58C426.897 209.22 427.067 209.965 427.067 210.815C427.067 211.665 426.897 212.42 426.557 213.08C426.227 213.73 425.772 214.235 425.192 214.595C424.622 214.955 423.982 215.135 423.272 215.135C422.662 215.135 422.122 215.01 421.652 214.76C421.192 214.51 420.817 214.195 420.527 213.815V218.96H418.427V206.69H420.527V207.89ZM424.922 210.815C424.922 210.315 424.817 209.885 424.607 209.525C424.407 209.155 424.137 208.875 423.797 208.685C423.467 208.495 423.107 208.4 422.717 208.4C422.337 208.4 421.977 208.5 421.637 208.7C421.307 208.89 421.037 209.17 420.827 209.54C420.627 209.91 420.527 210.345 420.527 210.845C420.527 211.345 420.627 211.78 420.827 212.15C421.037 212.52 421.307 212.805 421.637 213.005C421.977 213.195 422.337 213.29 422.717 213.29C423.107 213.29 423.467 213.19 423.797 212.99C424.137 212.79 424.407 212.505 424.607 212.135C424.817 211.765 424.922 211.325 424.922 210.815ZM428.053 210.815C428.053 209.975 428.218 209.23 428.548 208.58C428.888 207.93 429.343 207.43 429.913 207.08C430.493 206.73 431.138 206.555 431.848 206.555C432.468 206.555 433.008 206.68 433.468 206.93C433.938 207.18 434.313 207.495 434.593 207.875V206.69H436.708V215H434.593V213.785C434.323 214.175 433.948 214.5 433.468 214.76C432.998 215.01 432.453 215.135 431.833 215.135C431.133 215.135 430.493 214.955 429.913 214.595C429.343 214.235 428.888 213.73 428.548 213.08C428.218 212.42 428.053 211.665 428.053 210.815ZM434.593 210.845C434.593 210.335 434.493 209.9 434.293 209.54C434.093 209.17 433.823 208.89 433.483 208.7C433.143 208.5 432.778 208.4 432.388 208.4C431.998 208.4 431.638 208.495 431.308 208.685C430.978 208.875 430.708 209.155 430.498 209.525C430.298 209.885 430.198 210.315 430.198 210.815C430.198 211.315 430.298 211.755 430.498 212.135C430.708 212.505 430.978 212.79 431.308 212.99C431.648 213.19 432.008 213.29 432.388 213.29C432.778 213.29 433.143 213.195 433.483 213.005C433.823 212.805 434.093 212.525 434.293 212.165C434.493 211.795 434.593 211.355 434.593 210.845ZM443.364 206.57C444.354 206.57 445.154 206.885 445.764 207.515C446.374 208.135 446.679 209.005 446.679 210.125V215H444.579V210.41C444.579 209.75 444.414 209.245 444.084 208.895C443.754 208.535 443.304 208.355 442.734 208.355C442.154 208.355 441.694 208.535 441.354 208.895C441.024 209.245 440.859 209.75 440.859 210.41V215H438.759V206.69H440.859V207.725C441.139 207.365 441.494 207.085 441.924 206.885C442.364 206.675 442.844 206.57 443.364 206.57Z" fill="white"/>
</g>
<g filter="url(#filter2_d_132_141)">
<rect x="251" y="198" width="90" height="25" rx="10" fill="#EA8D45" fill-opacity="0.5"/>
<path d="M283.047 210.645C283.607 210.745 284.082 211.04 284.472 211.53C284.862 212.02 285.057 212.575 285.057 213.195C285.057 213.725 284.917 214.205 284.637 214.635C284.367 215.055 283.972 215.39 283.452 215.64C282.932 215.88 282.327 216 281.637 216H277.467V205.575H281.442C282.152 205.575 282.762 205.695 283.272 205.935C283.782 206.175 284.167 206.5 284.427 206.91C284.687 207.31 284.817 207.76 284.817 208.26C284.817 208.86 284.657 209.36 284.337 209.76C284.017 210.16 283.587 210.455 283.047 210.645ZM279.177 209.955H281.292C281.852 209.955 282.287 209.83 282.597 209.58C282.917 209.32 283.077 208.95 283.077 208.47C283.077 208 282.917 207.635 282.597 207.375C282.287 207.105 281.852 206.97 281.292 206.97H279.177V209.955ZM281.487 214.605C282.067 214.605 282.522 214.465 282.852 214.185C283.182 213.905 283.347 213.515 283.347 213.015C283.347 212.505 283.172 212.1 282.822 211.8C282.472 211.5 282.007 211.35 281.427 211.35H279.177V214.605H281.487ZM286.345 211.83C286.345 211 286.515 210.265 286.855 209.625C287.205 208.985 287.675 208.49 288.265 208.14C288.865 207.78 289.525 207.6 290.245 207.6C290.895 207.6 291.46 207.73 291.94 207.99C292.43 208.24 292.82 208.555 293.11 208.935V207.735H294.835V216H293.11V214.77C292.82 215.16 292.425 215.485 291.925 215.745C291.425 216.005 290.855 216.135 290.215 216.135C289.505 216.135 288.855 215.955 288.265 215.595C287.675 215.225 287.205 214.715 286.855 214.065C286.515 213.405 286.345 212.66 286.345 211.83ZM293.11 211.86C293.11 211.29 292.99 210.795 292.75 210.375C292.52 209.955 292.215 209.635 291.835 209.415C291.455 209.195 291.045 209.085 290.605 209.085C290.165 209.085 289.755 209.195 289.375 209.415C288.995 209.625 288.685 209.94 288.445 210.36C288.215 210.77 288.1 211.26 288.1 211.83C288.1 212.4 288.215 212.9 288.445 213.33C288.685 213.76 288.995 214.09 289.375 214.32C289.765 214.54 290.175 214.65 290.605 214.65C291.045 214.65 291.455 214.54 291.835 214.32C292.215 214.1 292.52 213.78 292.75 213.36C292.99 212.93 293.11 212.43 293.11 211.86ZM299.076 209.13V213.705C299.076 214.015 299.146 214.24 299.286 214.38C299.436 214.51 299.686 214.575 300.036 214.575H301.086V216H299.736C298.966 216 298.376 215.82 297.966 215.46C297.556 215.1 297.351 214.515 297.351 213.705V209.13H296.376V207.735H297.351V205.68H299.076V207.735H301.086V209.13H299.076ZM302.092 211.83C302.092 211 302.262 210.265 302.602 209.625C302.952 208.985 303.422 208.49 304.012 208.14C304.612 207.78 305.272 207.6 305.992 207.6C306.642 207.6 307.207 207.73 307.687 207.99C308.177 208.24 308.567 208.555 308.857 208.935V207.735H310.582V216H308.857V214.77C308.567 215.16 308.172 215.485 307.672 215.745C307.172 216.005 306.602 216.135 305.962 216.135C305.252 216.135 304.602 215.955 304.012 215.595C303.422 215.225 302.952 214.715 302.602 214.065C302.262 213.405 302.092 212.66 302.092 211.83ZM308.857 211.86C308.857 211.29 308.737 210.795 308.497 210.375C308.267 209.955 307.962 209.635 307.582 209.415C307.202 209.195 306.792 209.085 306.352 209.085C305.912 209.085 305.502 209.195 305.122 209.415C304.742 209.625 304.432 209.94 304.192 210.36C303.962 210.77 303.847 211.26 303.847 211.83C303.847 212.4 303.962 212.9 304.192 213.33C304.432 213.76 304.742 214.09 305.122 214.32C305.512 214.54 305.922 214.65 306.352 214.65C306.792 214.65 307.202 214.54 307.582 214.32C307.962 214.1 308.267 213.78 308.497 213.36C308.737 212.93 308.857 212.43 308.857 211.86ZM314.538 204.9V216H312.828V204.9H314.538Z" fill="white"/>
</g>
</g>
<defs>
<filter id="filter0_d_132_141" x="0.856934" y="0" width="706.143" height="267" filterUnits="userSpaceOnUse" color-interpolation-filters="sRGB">
<feFlood flood-opacity="0" result="BackgroundImageFix"/>
<feColorMatrix in="SourceAlpha" type="matrix" values="0 0 0 0 0 0 0 0 0 0 0 0 0 0 0 0 0 0 127 0" result="hardAlpha"/>
<feOffset dy="4"/>
<feGaussianBlur stdDeviation="2"/>
<feComposite in2="hardAlpha" operator="out"/>
<feColorMatrix type="matrix" values="0 0 0 0 0 0 0 0 0 0 0 0 0 0 0 0 0 0 0.25 0"/>
<feBlend mode="normal" in2="BackgroundImageFix" result="effect1_dropShadow_132_141"/>
<feBlend mode="normal" in="SourceGraphic" in2="effect1_dropShadow_132_141" result="shape"/>
</filter>
<filter id="filter1_d_132_141" x="368" y="197" width="99" height="34" filterUnits="userSpaceOnUse" color-interpolation-filters="sRGB">
<feFlood flood-opacity="0" result="BackgroundImageFix"/>
<feColorMatrix in="SourceAlpha" type="matrix" values="0 0 0 0 0 0 0 0 0 0 0 0 0 0 0 0 0 0 127 0" result="hardAlpha"/>
<feOffset dy="4"/>
<feGaussianBlur stdDeviation="2"/>
<feComposite in2="hardAlpha" operator="out"/>
<feColorMatrix type="matrix" values="0 0 0 0 0 0 0 0 0 0 0 0 0 0 0 0 0 0 0.25 0"/>
<feBlend mode="normal" in2="BackgroundImageFix" result="effect1_dropShadow_132_141"/>
<feBlend mode="normal" in="SourceGraphic" in2="effect1_dropShadow_132_141" result="shape"/>
</filter>
<filter id="filter2_d_132_141" x="247" y="198" width="98" height="33" filterUnits="userSpaceOnUse" color-interpolation-filters="sRGB">
<feFlood flood-opacity="0" result="BackgroundImageFix"/>
<feColorMatrix in="SourceAlpha" type="matrix" values="0 0 0 0 0 0 0 0 0 0 0 0 0 0 0 0 0 0 127 0" result="hardAlpha"/>
<feOffset dy="4"/>
<feGaussianBlur stdDeviation="2"/>
<feComposite in2="hardAlpha" operator="out"/>
<feColorMatrix type="matrix" values="0 0 0 0 0 0 0 0 0 0 0 0 0 0 0 0 0 0 0.25 0"/>
<feBlend mode="normal" in2="BackgroundImageFix" result="effect1_dropShadow_132_141"/>
<feBlend mode="normal" in="SourceGraphic" in2="effect1_dropShadow_132_141" result="shape"/>
</filter>
</defs>
</svg>
