<svg width="50" height="50" viewBox="0 0 50 50" fill="none" xmlns="http://www.w3.org/2000/svg">
<rect width="50" height="50" rx="5" fill="url(#paint0_linear_100_19)" fill-opacity="0.5"/>
<path d="M18.1236 9.62188H9.83989C9.21643 9.56323 8.58932 9.68631 8.03427 9.97625C7.65561 10.2234 7.34889 10.5661 7.1451 10.9697C6.9413 11.3733 6.84767 11.8236 6.87364 12.275V20.8719C6.87364 21.1205 6.97241 21.359 7.14823 21.5348C7.32404 21.7106 7.5625 21.8094 7.81114 21.8094C8.05978 21.8094 8.29824 21.7106 8.47405 21.5348C8.64987 21.359 8.74864 21.1205 8.74864 20.8719V12.8469C8.7105 12.5236 8.71934 12.1964 8.77489 11.8756C8.91927 11.4331 9.37302 11.5006 9.73864 11.5006H18.1236C18.3723 11.5006 18.6107 11.4019 18.7866 11.226C18.9624 11.0502 19.0611 10.8118 19.0611 10.5631C19.0611 10.3145 18.9624 10.076 18.7866 9.90021C18.6107 9.7244 18.3723 9.62563 18.1236 9.62563V9.62188ZM6.86802 28.1319V36.4156C6.80937 37.0391 6.93245 37.6662 7.22239 38.2213C7.46967 38.6002 7.81266 38.9071 8.21665 39.1109C8.62064 39.3147 9.07129 39.4082 9.52302 39.3819H18.118C18.3667 39.3819 18.6051 39.2831 18.7809 39.1073C18.9567 38.9315 19.0555 38.693 19.0555 38.4444C19.0555 38.1957 18.9567 37.9573 18.7809 37.7815C18.6051 37.6056 18.3667 37.5069 18.118 37.5069H10.093C9.76969 37.545 9.44256 37.5362 9.12177 37.4806C8.67927 37.3363 8.74677 36.8825 8.74677 36.5169V28.1319C8.74677 27.8832 8.64799 27.6448 8.47218 27.469C8.29636 27.2931 8.05791 27.1944 7.80927 27.1944C7.56063 27.1944 7.32217 27.2931 7.14635 27.469C6.97054 27.6448 6.87177 27.8832 6.87177 28.1319H6.86802ZM32.8761 39.3781H41.1599C41.7834 39.4368 42.4105 39.3137 42.9655 39.0238C43.3442 38.7766 43.6509 38.4339 43.8547 38.0303C44.0585 37.6267 44.1521 37.1764 44.1261 36.725V28.1281C44.1261 27.8795 44.0274 27.641 43.8516 27.4652C43.6757 27.2894 43.4373 27.1906 43.1886 27.1906C42.94 27.1906 42.7015 27.2894 42.5257 27.4652C42.3499 27.641 42.2511 27.8795 42.2511 28.1281V36.1531C42.2893 36.4764 42.2804 36.8036 42.2249 37.1244C42.0805 37.5669 41.6268 37.4994 41.2611 37.4994H32.8761C32.6275 37.4994 32.389 37.5981 32.2132 37.774C32.0374 37.9498 31.9386 38.1882 31.9386 38.4369C31.9386 38.6855 32.0374 38.924 32.2132 39.0998C32.389 39.2756 32.6275 39.3744 32.8761 39.3744V39.3781ZM44.1318 20.8681V12.5844C44.1904 11.9609 44.0673 11.3338 43.7774 10.7788C43.5301 10.3998 43.1871 10.0929 42.7831 9.8891C42.3791 9.68529 41.9285 9.59181 41.4768 9.61813H32.8818C32.6331 9.61813 32.3947 9.7169 32.2189 9.89271C32.043 10.0685 31.9443 10.307 31.9443 10.5556C31.9443 10.8043 32.043 11.0427 32.2189 11.2185C32.3947 11.3944 32.6331 11.4931 32.8818 11.4931H40.9068C41.2301 11.455 41.5572 11.4638 41.878 11.5194C42.3205 11.6638 42.253 12.1175 42.253 12.4831V20.8681C42.253 21.1168 42.3518 21.3552 42.5276 21.531C42.7034 21.7069 42.9419 21.8056 43.1905 21.8056C43.4392 21.8056 43.6776 21.7069 43.8534 21.531C44.0292 21.3552 44.128 21.1168 44.128 20.8681H44.1318Z" fill="white"/>
<path d="M25.498 17.2681C25.498 16.7504 25.0783 16.3306 24.5605 16.3306C24.0428 16.3306 23.623 16.7504 23.623 17.2681V31.7225C23.623 32.2403 24.0428 32.66 24.5605 32.66C25.0783 32.66 25.498 32.2403 25.498 31.7225V17.2681Z" fill="white"/>
<path d="M31.5918 17.2681C31.5918 16.7504 31.1721 16.3306 30.6543 16.3306C30.1365 16.3306 29.7168 16.7504 29.7168 17.2681V31.7225C29.7168 32.2403 30.1365 32.66 30.6543 32.66C31.1721 32.66 31.5918 32.2403 31.5918 31.7225V17.2681Z" fill="white"/>
<path d="M35.8105 17.2681C35.8105 16.7504 35.3908 16.3306 34.873 16.3306C34.3553 16.3306 33.9355 16.7504 33.9355 17.2681V31.7225C33.9355 32.2403 34.3553 32.66 34.873 32.66C35.3908 32.66 35.8105 32.2403 35.8105 31.7225V17.2681Z" fill="white"/>
<path d="M17.0605 17.2681C17.0605 16.7504 16.6408 16.3306 16.123 16.3306C15.6053 16.3306 15.1855 16.7504 15.1855 17.2681V31.7225C15.1855 32.2403 15.6053 32.66 16.123 32.66C16.6408 32.66 17.0605 32.2403 17.0605 31.7225V17.2681Z" fill="white"/>
<path d="M21.748 17.7369C21.748 16.9602 21.1184 16.3306 20.3418 16.3306C19.5651 16.3306 18.9355 16.9602 18.9355 17.7369V31.2538C18.9355 32.0304 19.5651 32.66 20.3418 32.66C21.1184 32.66 21.748 32.0304 21.748 31.2538V17.7369Z" fill="white"/>
<defs>
<linearGradient id="paint0_linear_100_19" x1="25" y1="0" x2="25" y2="50" gradientUnits="userSpaceOnUse">
<stop offset="0.257471" stop-color="#FF9F1C"/>
<stop offset="1" stop-color="white"/>
</linearGradient>
</defs>
</svg>
