<svg width="98" height="33" viewBox="0 0 98 33" fill="none" xmlns="http://www.w3.org/2000/svg">
<g filter="url(#filter0_d_132_370)">
<rect x="4" width="90" height="25" rx="10" fill="#EA8D45" fill-opacity="0.5"/>
<path d="M36.3302 7.575V8.97H33.5552V18H31.8452V8.97H29.0552V7.575H36.3302ZM38.932 8.64C38.622 8.64 38.362 8.535 38.152 8.325C37.942 8.115 37.837 7.855 37.837 7.545C37.837 7.235 37.942 6.975 38.152 6.765C38.362 6.555 38.622 6.45 38.932 6.45C39.232 6.45 39.487 6.555 39.697 6.765C39.907 6.975 40.012 7.235 40.012 7.545C40.012 7.855 39.907 8.115 39.697 8.325C39.487 8.535 39.232 8.64 38.932 8.64ZM39.772 9.735V18H38.062V9.735H39.772ZM41.4471 13.83C41.4471 13 41.6171 12.265 41.9571 11.625C42.3071 10.985 42.7771 10.49 43.3671 10.14C43.9671 9.78 44.6321 9.6 45.3621 9.6C45.9021 9.6 46.4321 9.72 46.9521 9.96C47.4821 10.19 47.9021 10.5 48.2121 10.89V6.9H49.9371V18H48.2121V16.755C47.9321 17.155 47.5421 17.485 47.0421 17.745C46.5521 18.005 45.9871 18.135 45.3471 18.135C44.6271 18.135 43.9671 17.955 43.3671 17.595C42.7771 17.225 42.3071 16.715 41.9571 16.065C41.6171 15.405 41.4471 14.66 41.4471 13.83ZM48.2121 13.86C48.2121 13.29 48.0921 12.795 47.8521 12.375C47.6221 11.955 47.3171 11.635 46.9371 11.415C46.5571 11.195 46.1471 11.085 45.7071 11.085C45.2671 11.085 44.8571 11.195 44.4771 11.415C44.0971 11.625 43.7871 11.94 43.5471 12.36C43.3171 12.77 43.2021 13.26 43.2021 13.83C43.2021 14.4 43.3171 14.9 43.5471 15.33C43.7871 15.76 44.0971 16.09 44.4771 16.32C44.8671 16.54 45.2771 16.65 45.7071 16.65C46.1471 16.65 46.5571 16.54 46.9371 16.32C47.3171 16.1 47.6221 15.78 47.8521 15.36C48.0921 14.93 48.2121 14.43 48.2121 13.86ZM51.6131 13.83C51.6131 13 51.7831 12.265 52.1231 11.625C52.4731 10.985 52.9431 10.49 53.5331 10.14C54.1331 9.78 54.7931 9.6 55.5131 9.6C56.1631 9.6 56.7281 9.73 57.2081 9.99C57.6981 10.24 58.0881 10.555 58.3781 10.935V9.735H60.1031V18H58.3781V16.77C58.0881 17.16 57.6931 17.485 57.1931 17.745C56.6931 18.005 56.1231 18.135 55.4831 18.135C54.7731 18.135 54.1231 17.955 53.5331 17.595C52.9431 17.225 52.4731 16.715 52.1231 16.065C51.7831 15.405 51.6131 14.66 51.6131 13.83ZM58.3781 13.86C58.3781 13.29 58.2581 12.795 58.0181 12.375C57.7881 11.955 57.4831 11.635 57.1031 11.415C56.7231 11.195 56.3131 11.085 55.8731 11.085C55.4331 11.085 55.0231 11.195 54.6431 11.415C54.2631 11.625 53.9531 11.94 53.7131 12.36C53.4831 12.77 53.3681 13.26 53.3681 13.83C53.3681 14.4 53.4831 14.9 53.7131 15.33C53.9531 15.76 54.2631 16.09 54.6431 16.32C55.0331 16.54 55.4431 16.65 55.8731 16.65C56.3131 16.65 56.7231 16.54 57.1031 16.32C57.4831 16.1 57.7881 15.78 58.0181 15.36C58.2581 14.93 58.3781 14.43 58.3781 13.86ZM65.6191 13.875L69.4291 18H67.1191L64.0591 14.445V18H62.3491V6.9H64.0591V13.35L67.0591 9.735H69.4291L65.6191 13.875Z" fill="white"/>
</g>
<defs>
<filter id="filter0_d_132_370" x="0" y="0" width="98" height="33" filterUnits="userSpaceOnUse" color-interpolation-filters="sRGB">
<feFlood flood-opacity="0" result="BackgroundImageFix"/>
<feColorMatrix in="SourceAlpha" type="matrix" values="0 0 0 0 0 0 0 0 0 0 0 0 0 0 0 0 0 0 127 0" result="hardAlpha"/>
<feOffset dy="4"/>
<feGaussianBlur stdDeviation="2"/>
<feComposite in2="hardAlpha" operator="out"/>
<feColorMatrix type="matrix" values="0 0 0 0 0 0 0 0 0 0 0 0 0 0 0 0 0 0 0.25 0"/>
<feBlend mode="normal" in2="BackgroundImageFix" result="effect1_dropShadow_132_370"/>
<feBlend mode="normal" in="SourceGraphic" in2="effect1_dropShadow_132_370" result="shape"/>
</filter>
</defs>
</svg>
