<svg width="30" height="30" viewBox="0 0 30 30" fill="none" xmlns="http://www.w3.org/2000/svg">
<path fill-rule="evenodd" clip-rule="evenodd" d="M9.18141 5.02128C13.0488 4.59309 16.9516 4.59309 20.8189 5.02128C22.9602 5.26128 24.6877 6.94753 24.9389 9.09628C25.3972 13.0188 25.3972 16.9813 24.9389 20.9038C24.6877 23.0525 22.9602 24.7388 20.8189 24.9788C16.9516 25.407 13.0488 25.407 9.18141 24.9788C7.04016 24.7388 5.31266 23.0525 5.06141 20.9038C4.60323 16.9817 4.60323 13.0196 5.06141 9.09753C5.18849 8.05362 5.66438 7.08321 6.41195 6.34358C7.15952 5.60396 8.13495 5.13846 9.18016 5.02253M10.5877 10.5875C10.7634 10.412 11.0017 10.3134 11.2502 10.3134C11.4986 10.3134 11.7369 10.412 11.9127 10.5875L15.0002 13.675L18.0877 10.5875C18.1735 10.4954 18.277 10.4215 18.392 10.3703C18.507 10.3191 18.6311 10.2915 18.757 10.2893C18.8829 10.2871 19.0079 10.3102 19.1247 10.3574C19.2414 10.4045 19.3474 10.4747 19.4365 10.5637C19.5255 10.6528 19.5957 10.7588 19.6428 10.8755C19.69 10.9923 19.7131 11.1173 19.7109 11.2432C19.7087 11.3691 19.6811 11.4932 19.6299 11.6082C19.5786 11.7232 19.5048 11.8267 19.4127 11.9125L16.3252 15L19.4127 18.0875C19.5783 18.2652 19.6684 18.5003 19.6641 18.7432C19.6598 18.9861 19.5615 19.2178 19.3897 19.3896C19.2179 19.5613 18.9862 19.6597 18.7433 19.664C18.5004 19.6683 18.2654 19.5781 18.0877 19.4125L15.0002 16.325L11.9127 19.4125C11.8268 19.5046 11.7233 19.5785 11.6083 19.6298C11.4933 19.681 11.3692 19.7085 11.2433 19.7108C11.1174 19.713 10.9924 19.6898 10.8757 19.6427C10.7589 19.5955 10.6529 19.5253 10.5639 19.4363C10.4748 19.3473 10.4047 19.2413 10.3575 19.1245C10.3104 19.0078 10.2872 18.8828 10.2894 18.7569C10.2916 18.631 10.3192 18.5069 10.3704 18.3919C10.4217 18.2769 10.4956 18.1734 10.5877 18.0875L13.6752 15L10.5877 11.9125C10.4121 11.7367 10.3135 11.4985 10.3135 11.25C10.3135 11.0016 10.4121 10.7633 10.5877 10.5875Z" fill="#B9B9B9"/>
</svg>
