<svg width="23" height="23" viewBox="0 0 23 23" fill="none" xmlns="http://www.w3.org/2000/svg">
<path d="M2.87516 18.2084C2.34808 18.2084 1.89702 18.0208 1.522 17.6458C1.14697 17.2708 0.959135 16.8194 0.958496 16.2917V6.70835C0.958496 6.18127 1.14633 5.73021 1.522 5.35519C1.89766 4.98016 2.34872 4.79233 2.87516 4.79169H12.4585C12.9856 4.79169 13.437 4.97952 13.8126 5.35519C14.1883 5.73085 14.3758 6.18191 14.3752 6.70835V16.2917C14.3752 16.8188 14.1876 17.2701 13.8126 17.6458C13.4376 18.0215 12.9862 18.209 12.4585 18.2084H2.87516ZM16.2918 18.2084V4.79169H18.2085V18.2084H16.2918ZM20.1252 18.2084V4.79169H22.0418V18.2084H20.1252Z" fill="#E2DDDD"/>
</svg>
