<svg width="23" height="23" viewBox="0 0 23 23" fill="none" xmlns="http://www.w3.org/2000/svg">
<path d="M2.87492 18.2084C2.34784 18.2084 1.89678 18.0208 1.52175 17.6458C1.14672 17.2708 0.958891 16.8194 0.958252 16.2917V6.70835C0.958252 6.18127 1.14609 5.73021 1.52175 5.35519C1.89742 4.98016 2.34847 4.79233 2.87492 4.79169H12.4583C12.9853 4.79169 13.4367 4.97952 13.8124 5.35519C14.188 5.73085 14.3756 6.18191 14.3749 6.70835V16.2917C14.3749 16.8188 14.1874 17.2701 13.8124 17.6458C13.4373 18.0215 12.986 18.209 12.4583 18.2084H2.87492ZM16.2916 18.2084V4.79169H18.2083V18.2084H16.2916ZM20.1249 18.2084V4.79169H22.0416V18.2084H20.1249Z" fill="#CBF3F0"/>
</svg>
