<svg width="25" height="25" viewBox="0 0 25 25" fill="none" xmlns="http://www.w3.org/2000/svg">
<path d="M9.37492 20.8333C9.04506 20.8333 8.73256 20.7593 8.43742 20.6114C8.14228 20.4635 7.89922 20.2597 7.70825 20L2.08325 12.5L7.70825 4.99996C7.89922 4.73954 8.14228 4.53572 8.43742 4.3885C8.73256 4.24128 9.04506 4.16732 9.37492 4.16663H20.8333C21.4062 4.16663 21.8968 4.37045 22.3051 4.77808C22.7135 5.18572 22.9173 5.67635 22.9166 6.24996V18.75C22.9166 19.3229 22.7128 19.8135 22.3051 20.2218C21.8975 20.6302 21.4069 20.834 20.8333 20.8333H9.37492ZM4.68742 12.5L9.37492 18.75H20.8333V6.24996H9.37492L4.68742 12.5ZM10.4166 13.5416C10.7117 13.5416 10.9593 13.4416 11.1593 13.2416C11.3593 13.0416 11.4589 12.7944 11.4583 12.5C11.4576 12.2055 11.3576 11.9583 11.1583 11.7583C10.9589 11.5583 10.7117 11.4583 10.4166 11.4583C10.1214 11.4583 9.87422 11.5583 9.67492 11.7583C9.47561 11.9583 9.37561 12.2055 9.37492 12.5C9.37422 12.7944 9.47423 13.042 9.67492 13.2427C9.87561 13.4434 10.1228 13.543 10.4166 13.5416ZM14.0624 13.5416C14.3576 13.5416 14.6051 13.4416 14.8051 13.2416C15.0051 13.0416 15.1048 12.7944 15.1041 12.5C15.1034 12.2055 15.0034 11.9583 14.8041 11.7583C14.6048 11.5583 14.3576 11.4583 14.0624 11.4583C13.7673 11.4583 13.5201 11.5583 13.3208 11.7583C13.1214 11.9583 13.0214 12.2055 13.0208 12.5C13.0201 12.7944 13.1201 13.042 13.3208 13.2427C13.5214 13.4434 13.7687 13.543 14.0624 13.5416ZM17.7083 13.5416C18.0034 13.5416 18.251 13.4416 18.451 13.2416C18.651 13.0416 18.7506 12.7944 18.7499 12.5C18.7492 12.2055 18.6492 11.9583 18.4499 11.7583C18.2506 11.5583 18.0034 11.4583 17.7083 11.4583C17.4131 11.4583 17.1659 11.5583 16.9666 11.7583C16.7673 11.9583 16.6673 12.2055 16.6666 12.5C16.6659 12.7944 16.7659 13.042 16.9666 13.2427C17.1673 13.4434 17.4145 13.543 17.7083 13.5416Z" fill="#EA8D45"/>
</svg>
