<svg width="23" height="23" viewBox="0 0 23 23" fill="none" xmlns="http://www.w3.org/2000/svg">
<path d="M11.5001 1.91666C8.99219 1.92364 6.58656 2.91149 4.7975 4.66899V2.87499C4.7975 2.62082 4.69653 2.37707 4.51681 2.19735C4.33709 2.01762 4.09333 1.91666 3.83916 1.91666C3.585 1.91666 3.34124 2.01762 3.16152 2.19735C2.9818 2.37707 2.88083 2.62082 2.88083 2.87499V7.18749C2.88083 7.44166 2.9818 7.68541 3.16152 7.86513C3.34124 8.04486 3.585 8.14582 3.83916 8.14582H8.15166C8.40583 8.14582 8.64959 8.04486 8.82931 7.86513C9.00903 7.68541 9.11 7.44166 9.11 7.18749C9.11 6.93332 9.00903 6.68957 8.82931 6.50985C8.64959 6.33012 8.40583 6.22916 8.15166 6.22916H5.959C7.18851 4.94595 8.82654 4.13102 10.5916 3.92437C12.3568 3.71773 14.1387 4.13227 15.6314 5.09678C17.124 6.06129 18.2342 7.51555 18.7711 9.20967C19.3079 10.9038 19.2381 12.732 18.5734 14.3802C17.9087 16.0284 16.6908 17.3936 15.1288 18.2414C13.5669 19.0891 11.7585 19.3664 10.0143 19.0255C8.27011 18.6847 6.69909 17.7471 5.57114 16.3738C4.4432 15.0004 3.82877 13.2771 3.83341 11.5C3.83341 11.2458 3.73245 11.0021 3.55273 10.8223C3.373 10.6426 3.12925 10.5417 2.87508 10.5417C2.62092 10.5417 2.37716 10.6426 2.19744 10.8223C2.01771 11.0021 1.91675 11.2458 1.91675 11.5C1.91675 13.3954 2.4788 15.2482 3.53183 16.8242C4.58486 18.4002 6.08157 19.6285 7.8327 20.3538C9.58382 21.0792 11.5107 21.269 13.3697 20.8992C15.2287 20.5294 16.9363 19.6167 18.2765 18.2764C19.6168 16.9362 20.5295 15.2286 20.8993 13.3696C21.269 11.5106 21.0793 9.58373 20.3539 7.83261C19.6286 6.08148 18.4003 4.58477 16.8243 3.53174C15.2483 2.47871 13.3955 1.91666 11.5001 1.91666Z" fill="#EA8D45"/>
<path d="M13.4167 12.4583H11.5001C11.2459 12.4583 11.0022 12.3574 10.8224 12.1776C10.6427 11.9979 10.5417 11.7542 10.5417 11.5V8.62499C10.5417 8.37082 10.6427 8.12707 10.8224 7.94735C11.0022 7.76762 11.2459 7.66666 11.5001 7.66666C11.7542 7.66666 11.998 7.76762 12.1777 7.94735C12.3574 8.12707 12.4584 8.37082 12.4584 8.62499V10.5417H13.4167C13.6709 10.5417 13.9147 10.6426 14.0944 10.8223C14.2741 11.0021 14.3751 11.2458 14.3751 11.5C14.3751 11.7542 14.2741 11.9979 14.0944 12.1776C13.9147 12.3574 13.6709 12.4583 13.4167 12.4583Z" fill="#EA8D45"/>
<path opacity="0.5" d="M11.5001 3.83334C10.4624 3.83691 9.43626 4.0511 8.4838 4.46292C7.53134 4.87474 6.6724 5.47563 5.959 6.22918H8.15166C8.40583 6.22918 8.64959 6.33014 8.82931 6.50987C9.00903 6.68959 9.11 6.93334 9.11 7.18751C9.11 7.44168 9.00903 7.68543 8.82931 7.86515C8.64959 8.04488 8.40583 8.14584 8.15166 8.14584H3.83916C3.60543 8.14423 3.38052 8.05639 3.20755 7.89917C3.03459 7.74194 2.92576 7.52641 2.90191 7.29389C2.25445 8.60151 1.91732 10.0409 1.91675 11.5C1.91675 11.2458 2.01771 11.0021 2.19744 10.8224C2.37716 10.6426 2.62092 10.5417 2.87508 10.5417C3.12925 10.5417 3.373 10.6426 3.55273 10.8224C3.73245 11.0021 3.83341 11.2458 3.83341 11.5C3.83341 13.0163 4.28306 14.4986 5.12548 15.7594C5.96791 17.0202 7.16528 18.0028 8.56617 18.5831C9.96708 19.1634 11.5086 19.3152 12.9958 19.0194C14.483 18.7235 15.849 17.9934 16.9212 16.9212C17.9934 15.849 18.7236 14.4829 19.0194 12.9957C19.3153 11.5085 19.1634 9.967 18.5832 8.5661C18.0029 7.1652 17.0202 5.96783 15.7595 5.12541C14.4987 4.28299 13.0164 3.83334 11.5001 3.83334ZM13.4167 12.4583H11.5001C11.2459 12.4583 11.0022 12.3574 10.8224 12.1777C10.6427 11.9979 10.5417 11.7542 10.5417 11.5V8.62501C10.5417 8.37084 10.6427 8.12709 10.8224 7.94737C11.0022 7.76764 11.2459 7.66668 11.5001 7.66668C11.7542 7.66668 11.998 7.76764 12.1777 7.94737C12.3574 8.12709 12.4584 8.37084 12.4584 8.62501V10.5417H13.4167C13.6709 10.5417 13.9147 10.6426 14.0944 10.8224C14.2741 11.0021 14.3751 11.2458 14.3751 11.5C14.3751 11.7542 14.2741 11.9979 14.0944 12.1777C13.9147 12.3574 13.6709 12.4583 13.4167 12.4583Z" fill="#EA8D45"/>
</svg>
