<svg width="140" height="140" viewBox="0 0 140 140" fill="none" xmlns="http://www.w3.org/2000/svg">
<circle cx="70" cy="70" r="70" fill="#EA8D45"/>
<path d="M69.5 69.5C73.604 69.5 77.6158 68.283 81.0281 66.003C84.4404 63.723 87.1 60.4823 88.6705 56.6907C90.241 52.8991 90.6519 48.727 89.8513 44.7019C89.0507 40.6768 87.0744 36.9795 84.1725 34.0775C81.2705 31.1756 77.5732 29.1994 73.5481 28.3987C69.523 27.5981 65.3509 28.009 61.5593 29.5795C57.7678 31.15 54.527 33.8096 52.247 37.2219C49.967 40.6342 48.75 44.646 48.75 48.75C48.7555 54.2516 50.9434 59.5262 54.8336 63.4164C58.7238 67.3066 63.9984 69.4945 69.5 69.5ZM69.5 34.9167C72.236 34.9167 74.9105 35.728 77.1854 37.248C79.4603 38.768 81.2333 40.9285 82.2803 43.4562C83.3273 45.9839 83.6013 48.7654 83.0675 51.4488C82.5338 54.1322 81.2163 56.597 79.2816 58.5317C77.347 60.4663 74.8822 61.7838 72.1987 62.3175C69.5153 62.8513 66.7339 62.5774 64.2062 61.5303C61.6785 60.4833 59.518 58.7103 57.998 56.4354C56.478 54.1605 55.6667 51.486 55.6667 48.75C55.6667 45.0812 57.1241 41.5626 59.7184 38.9684C62.3126 36.3741 65.8312 34.9167 69.5 34.9167Z" fill="white"/>
<path d="M69.5 76.4167C61.2479 76.4259 53.3365 79.7081 47.5014 85.5432C41.6663 91.3782 38.3842 99.2897 38.375 107.542C38.375 108.459 38.7394 109.339 39.3879 109.987C40.0365 110.636 40.9161 111 41.8333 111C42.7505 111 43.6302 110.636 44.2787 109.987C44.9273 109.339 45.2917 108.459 45.2917 107.542C45.2917 101.121 47.8422 94.9638 52.3821 90.4239C56.9221 85.8839 63.0795 83.3334 69.5 83.3334C75.9204 83.3334 82.0779 85.8839 86.6179 90.4239C91.1578 94.9638 93.7083 101.121 93.7083 107.542C93.7083 108.459 94.0727 109.339 94.7213 109.987C95.3698 110.636 96.2495 111 97.1667 111C98.0839 111 98.9635 110.636 99.6121 109.987C100.261 109.339 100.625 108.459 100.625 107.542C100.616 99.2897 97.3337 91.3782 91.4986 85.5432C85.6635 79.7081 77.7521 76.4259 69.5 76.4167Z" fill="white"/>
</svg>
