<svg width="30" height="30" viewBox="0 0 30 30" fill="none" xmlns="http://www.w3.org/2000/svg">
<path d="M27 10C26.8477 10.0007 26.6972 9.96645 26.56 9.90003L15 4.00003L3.44003 9.86003C3.19337 9.97672 2.91047 9.99066 2.65354 9.89876C2.39662 9.80687 2.18672 9.61668 2.07003 9.37003C1.95333 9.12338 1.9394 8.84047 2.03129 8.58354C2.12318 8.32662 2.31337 8.11672 2.56003 8.00003L15 1.84003L27.44 8.00003C27.7022 8.06129 27.9298 8.22337 28.0734 8.45119C28.2169 8.679 28.265 8.9542 28.2072 9.21719C28.1493 9.48019 27.9902 9.70981 27.7642 9.85633C27.5383 10.0028 27.2637 10.0545 27 10ZM10 20H4.00003V26H10V20ZM18 20H12V26H18V20ZM26 20H20V26H26V20ZM22 12H16V18H22V12ZM14 12H8.00003V18H14V12Z" fill="url(#paint0_linear_132_422)"/>
<defs>
<linearGradient id="paint0_linear_132_422" x1="15.1011" y1="1.84003" x2="15.1011" y2="26" gradientUnits="userSpaceOnUse">
<stop offset="0.365" stop-color="#CBF3F0"/>
<stop offset="0.66" stop-color="white"/>
</linearGradient>
</defs>
</svg>
