<svg width="653" height="127" viewBox="0 0 653 127" fill="none" xmlns="http://www.w3.org/2000/svg">
<g filter="url(#filter0_d_132_301)">
<path d="M95.5 11C95.5 5.75329 99.7533 1.5 105 1.5H638C643.247 1.5 647.5 5.75329 647.5 11V108C647.5 113.247 643.247 117.5 638 117.5H105C99.7533 117.5 95.5 113.247 95.5 108V11Z" fill="white" stroke="#EA8D45"/>
<rect x="598.134" y="109.134" width="50" height="50" transform="rotate(179.846 598.134 109.134)" fill="#EA8D45"/>
<rect x="648.097" y="118.134" width="50" height="36" transform="rotate(179.846 648.097 118.134)" fill="#EA8D45" fill-opacity="0.5"/>
<rect x="146.134" y="50.1341" width="50" height="50" transform="rotate(179.846 146.134 50.1341)" fill="#EA8D45"/>
<rect x="196.113" y="65.231" width="50" height="42.0968" transform="rotate(179.846 196.113 65.231)" fill="#EA8D45" fill-opacity="0.5"/>
<path d="M293.359 37.04L288.639 46.14V51H285.839V46.14L281.099 37.04H284.259L287.259 43.42L290.239 37.04H293.359ZM305.274 45.22C305.274 45.62 305.247 45.98 305.194 46.3H297.094C297.16 47.1 297.44 47.7267 297.934 48.18C298.427 48.6333 299.034 48.86 299.754 48.86C300.794 48.86 301.534 48.4133 301.974 47.52H304.994C304.674 48.5867 304.06 49.4667 303.154 50.16C302.247 50.84 301.134 51.18 299.814 51.18C298.747 51.18 297.787 50.9467 296.934 50.48C296.094 50 295.434 49.3267 294.954 48.46C294.487 47.5933 294.254 46.5933 294.254 45.46C294.254 44.3133 294.487 43.3067 294.954 42.44C295.42 41.5733 296.074 40.9067 296.914 40.44C297.754 39.9733 298.72 39.74 299.814 39.74C300.867 39.74 301.807 39.9667 302.634 40.42C303.474 40.8733 304.12 41.52 304.574 42.36C305.04 43.1867 305.274 44.14 305.274 45.22ZM302.374 44.42C302.36 43.7 302.1 43.1267 301.594 42.7C301.087 42.26 300.467 42.04 299.734 42.04C299.04 42.04 298.454 42.2533 297.974 42.68C297.507 43.0933 297.22 43.6733 297.114 44.42H302.374ZM317.918 39.92L311.058 56.24H308.078L310.478 50.72L306.038 39.92H309.178L312.038 47.66L314.938 39.92H317.918ZM323.047 36.8L322.727 46.46H320.367L320.027 36.8H323.047ZM321.607 51.14C321.1 51.14 320.68 50.9867 320.347 50.68C320.027 50.36 319.867 49.9667 319.867 49.5C319.867 49.0333 320.027 48.6467 320.347 48.34C320.68 48.02 321.1 47.86 321.607 47.86C322.1 47.86 322.507 48.02 322.827 48.34C323.147 48.6467 323.307 49.0333 323.307 49.5C323.307 49.9667 323.147 50.36 322.827 50.68C322.507 50.9867 322.1 51.14 321.607 51.14ZM339.183 43.84C339.969 43.9867 340.616 44.38 341.123 45.02C341.629 45.66 341.883 46.3933 341.883 47.22C341.883 47.9667 341.696 48.6267 341.323 49.2C340.963 49.76 340.436 50.2 339.743 50.52C339.049 50.84 338.229 51 337.283 51H331.263V37.04H337.023C337.969 37.04 338.783 37.1933 339.463 37.5C340.156 37.8067 340.676 38.2333 341.023 38.78C341.383 39.3267 341.563 39.9467 341.563 40.64C341.563 41.4533 341.343 42.1333 340.903 42.68C340.476 43.2267 339.903 43.6133 339.183 43.84ZM334.063 42.8H336.623C337.289 42.8 337.803 42.6533 338.163 42.36C338.523 42.0533 338.703 41.62 338.703 41.06C338.703 40.5 338.523 40.0667 338.163 39.76C337.803 39.4533 337.289 39.3 336.623 39.3H334.063V42.8ZM336.883 48.72C337.563 48.72 338.089 48.56 338.463 48.24C338.849 47.92 339.043 47.4667 339.043 46.88C339.043 46.28 338.843 45.8133 338.443 45.48C338.043 45.1333 337.503 44.96 336.823 44.96H334.063V48.72H336.883ZM343.394 45.42C343.394 44.3 343.614 43.3067 344.054 42.44C344.508 41.5733 345.114 40.9067 345.874 40.44C346.648 39.9733 347.508 39.74 348.454 39.74C349.281 39.74 350.001 39.9067 350.614 40.24C351.241 40.5733 351.741 40.9933 352.114 41.5V39.92H354.934V51H352.114V49.38C351.754 49.9 351.254 50.3333 350.614 50.68C349.988 51.0133 349.261 51.18 348.434 51.18C347.501 51.18 346.648 50.94 345.874 50.46C345.114 49.98 344.508 49.3067 344.054 48.44C343.614 47.56 343.394 46.5533 343.394 45.42ZM352.114 45.46C352.114 44.78 351.981 44.2 351.714 43.72C351.448 43.2267 351.088 42.8533 350.634 42.6C350.181 42.3333 349.694 42.2 349.174 42.2C348.654 42.2 348.174 42.3267 347.734 42.58C347.294 42.8333 346.934 43.2067 346.654 43.7C346.388 44.18 346.254 44.7533 346.254 45.42C346.254 46.0867 346.388 46.6733 346.654 47.18C346.934 47.6733 347.294 48.0533 347.734 48.32C348.188 48.5867 348.668 48.72 349.174 48.72C349.694 48.72 350.181 48.5933 350.634 48.34C351.088 48.0733 351.448 47.7 351.714 47.22C351.981 46.7267 352.114 46.14 352.114 45.46ZM360.469 41.64C360.829 41.0533 361.296 40.5933 361.869 40.26C362.456 39.9267 363.122 39.76 363.869 39.76V42.7H363.129C362.249 42.7 361.582 42.9067 361.129 43.32C360.689 43.7333 360.469 44.4533 360.469 45.48V51H357.669V39.92H360.469V41.64ZM365.035 45.42C365.035 44.3 365.255 43.3067 365.695 42.44C366.148 41.5733 366.755 40.9067 367.515 40.44C368.288 39.9733 369.148 39.74 370.095 39.74C370.922 39.74 371.642 39.9067 372.255 40.24C372.882 40.5733 373.382 40.9933 373.755 41.5V39.92H376.575V51H373.755V49.38C373.395 49.9 372.895 50.3333 372.255 50.68C371.628 51.0133 370.902 51.18 370.075 51.18C369.142 51.18 368.288 50.94 367.515 50.46C366.755 49.98 366.148 49.3067 365.695 48.44C365.255 47.56 365.035 46.5533 365.035 45.42ZM373.755 45.46C373.755 44.78 373.622 44.2 373.355 43.72C373.088 43.2267 372.728 42.8533 372.275 42.6C371.822 42.3333 371.335 42.2 370.815 42.2C370.295 42.2 369.815 42.3267 369.375 42.58C368.935 42.8333 368.575 43.2067 368.295 43.7C368.028 44.18 367.895 44.7533 367.895 45.42C367.895 46.0867 368.028 46.6733 368.295 47.18C368.575 47.6733 368.935 48.0533 369.375 48.32C369.828 48.5867 370.308 48.72 370.815 48.72C371.335 48.72 371.822 48.5933 372.275 48.34C372.728 48.0733 373.088 47.7 373.355 47.22C373.622 46.7267 373.755 46.14 373.755 45.46ZM385.45 39.76C386.77 39.76 387.836 40.18 388.65 41.02C389.463 41.8467 389.87 43.0067 389.87 44.5V51H387.07V44.88C387.07 44 386.85 43.3267 386.41 42.86C385.97 42.38 385.37 42.14 384.61 42.14C383.836 42.14 383.223 42.38 382.77 42.86C382.33 43.3267 382.11 44 382.11 44.88V51H379.31V39.92H382.11V41.3C382.483 40.82 382.956 40.4467 383.53 40.18C384.116 39.9 384.756 39.76 385.45 39.76ZM396.872 39.74C397.699 39.74 398.426 39.9067 399.052 40.24C399.679 40.56 400.172 40.98 400.532 41.5V39.92H403.352V51.08C403.352 52.1067 403.146 53.02 402.732 53.82C402.319 54.6333 401.699 55.2733 400.872 55.74C400.046 56.22 399.046 56.46 397.872 56.46C396.299 56.46 395.006 56.0933 393.992 55.36C392.992 54.6267 392.426 53.6267 392.292 52.36H395.072C395.219 52.8667 395.532 53.2667 396.012 53.56C396.506 53.8667 397.099 54.02 397.792 54.02C398.606 54.02 399.266 53.7733 399.772 53.28C400.279 52.8 400.532 52.0667 400.532 51.08V49.36C400.172 49.88 399.672 50.3133 399.032 50.66C398.406 51.0067 397.686 51.18 396.872 51.18C395.939 51.18 395.086 50.94 394.312 50.46C393.539 49.98 392.926 49.3067 392.472 48.44C392.032 47.56 391.812 46.5533 391.812 45.42C391.812 44.3 392.032 43.3067 392.472 42.44C392.926 41.5733 393.532 40.9067 394.292 40.44C395.066 39.9733 395.926 39.74 396.872 39.74ZM400.532 45.46C400.532 44.78 400.399 44.2 400.132 43.72C399.866 43.2267 399.506 42.8533 399.052 42.6C398.599 42.3333 398.112 42.2 397.592 42.2C397.072 42.2 396.592 42.3267 396.152 42.58C395.712 42.8333 395.352 43.2067 395.072 43.7C394.806 44.18 394.672 44.7533 394.672 45.42C394.672 46.0867 394.806 46.6733 395.072 47.18C395.352 47.6733 395.712 48.0533 396.152 48.32C396.606 48.5867 397.086 48.72 397.592 48.72C398.112 48.72 398.599 48.5933 399.052 48.34C399.506 48.0733 399.866 47.7 400.132 47.22C400.399 46.7267 400.532 46.14 400.532 45.46ZM419.413 48.34H413.853L412.933 51H409.993L415.013 37.02H418.273L423.293 51H420.333L419.413 48.34ZM418.653 46.1L416.633 40.26L414.613 46.1H418.653ZM431.309 39.76C432.629 39.76 433.696 40.18 434.509 41.02C435.322 41.8467 435.729 43.0067 435.729 44.5V51H432.929V44.88C432.929 44 432.709 43.3267 432.269 42.86C431.829 42.38 431.229 42.14 430.469 42.14C429.696 42.14 429.082 42.38 428.629 42.86C428.189 43.3267 427.969 44 427.969 44.88V51H425.169V39.92H427.969V41.3C428.342 40.82 428.816 40.4467 429.389 40.18C429.976 39.9 430.616 39.76 431.309 39.76ZM437.672 45.42C437.672 44.3 437.892 43.3067 438.332 42.44C438.785 41.5733 439.398 40.9067 440.172 40.44C440.945 39.9733 441.805 39.74 442.752 39.74C443.472 39.74 444.158 39.9 444.812 40.22C445.465 40.5267 445.985 40.94 446.372 41.46V36.2H449.212V51H446.372V49.36C446.025 49.9067 445.538 50.3467 444.912 50.68C444.285 51.0133 443.558 51.18 442.732 51.18C441.798 51.18 440.945 50.94 440.172 50.46C439.398 49.98 438.785 49.3067 438.332 48.44C437.892 47.56 437.672 46.5533 437.672 45.42ZM446.392 45.46C446.392 44.78 446.258 44.2 445.992 43.72C445.725 43.2267 445.365 42.8533 444.912 42.6C444.458 42.3333 443.972 42.2 443.452 42.2C442.932 42.2 442.452 42.3267 442.012 42.58C441.572 42.8333 441.212 43.2067 440.932 43.7C440.665 44.18 440.532 44.7533 440.532 45.42C440.532 46.0867 440.665 46.6733 440.932 47.18C441.212 47.6733 441.572 48.0533 442.012 48.32C442.465 48.5867 442.945 48.72 443.452 48.72C443.972 48.72 444.458 48.5933 444.912 48.34C445.365 48.0733 445.725 47.7 445.992 47.22C446.258 46.7267 446.392 46.14 446.392 45.46ZM451.226 45.42C451.226 44.3 451.446 43.3067 451.886 42.44C452.34 41.5733 452.946 40.9067 453.706 40.44C454.48 39.9733 455.34 39.74 456.286 39.74C457.113 39.74 457.833 39.9067 458.446 40.24C459.073 40.5733 459.573 40.9933 459.946 41.5V39.92H462.766V51H459.946V49.38C459.586 49.9 459.086 50.3333 458.446 50.68C457.82 51.0133 457.093 51.18 456.266 51.18C455.333 51.18 454.48 50.94 453.706 50.46C452.946 49.98 452.34 49.3067 451.886 48.44C451.446 47.56 451.226 46.5533 451.226 45.42ZM459.946 45.46C459.946 44.78 459.813 44.2 459.546 43.72C459.28 43.2267 458.92 42.8533 458.466 42.6C458.013 42.3333 457.526 42.2 457.006 42.2C456.486 42.2 456.006 42.3267 455.566 42.58C455.126 42.8333 454.766 43.2067 454.486 43.7C454.22 44.18 454.086 44.7533 454.086 45.42C454.086 46.0867 454.22 46.6733 454.486 47.18C454.766 47.6733 455.126 48.0533 455.566 48.32C456.02 48.5867 456.5 48.72 457.006 48.72C457.526 48.72 458.013 48.5933 458.466 48.34C458.92 48.0733 459.28 47.7 459.546 47.22C459.813 46.7267 459.946 46.14 459.946 45.46Z" fill="#EA8D45"/>
<path d="M264.749 73.84C265.536 73.9867 266.183 74.38 266.689 75.02C267.196 75.66 267.449 76.3933 267.449 77.22C267.449 77.9667 267.263 78.6267 266.889 79.2C266.529 79.76 266.003 80.2 265.309 80.52C264.616 80.84 263.796 81 262.849 81H256.829V67.04H262.589C263.536 67.04 264.349 67.1933 265.029 67.5C265.723 67.8067 266.243 68.2333 266.589 68.78C266.949 69.3267 267.129 69.9467 267.129 70.64C267.129 71.4533 266.909 72.1333 266.469 72.68C266.043 73.2267 265.469 73.6133 264.749 73.84ZM259.629 72.8H262.189C262.856 72.8 263.369 72.6533 263.729 72.36C264.089 72.0533 264.269 71.62 264.269 71.06C264.269 70.5 264.089 70.0667 263.729 69.76C263.369 69.4533 262.856 69.3 262.189 69.3H259.629V72.8ZM262.449 78.72C263.129 78.72 263.656 78.56 264.029 78.24C264.416 77.92 264.609 77.4667 264.609 76.88C264.609 76.28 264.409 75.8133 264.009 75.48C263.609 75.1333 263.069 74.96 262.389 74.96H259.629V78.72H262.449ZM279.981 75.22C279.981 75.62 279.954 75.98 279.901 76.3H271.801C271.867 77.1 272.147 77.7267 272.641 78.18C273.134 78.6333 273.741 78.86 274.461 78.86C275.501 78.86 276.241 78.4133 276.681 77.52H279.701C279.381 78.5867 278.767 79.4667 277.861 80.16C276.954 80.84 275.841 81.18 274.521 81.18C273.454 81.18 272.494 80.9467 271.641 80.48C270.801 80 270.141 79.3267 269.661 78.46C269.194 77.5933 268.961 76.5933 268.961 75.46C268.961 74.3133 269.194 73.3067 269.661 72.44C270.127 71.5733 270.781 70.9067 271.621 70.44C272.461 69.9733 273.427 69.74 274.521 69.74C275.574 69.74 276.514 69.9667 277.341 70.42C278.181 70.8733 278.827 71.52 279.281 72.36C279.747 73.1867 279.981 74.14 279.981 75.22ZM277.081 74.42C277.067 73.7 276.807 73.1267 276.301 72.7C275.794 72.26 275.174 72.04 274.441 72.04C273.747 72.04 273.161 72.2533 272.681 72.68C272.214 73.0933 271.927 73.6733 271.821 74.42H277.081ZM284.825 71.64C285.185 71.0533 285.651 70.5933 286.225 70.26C286.811 69.9267 287.478 69.76 288.225 69.76V72.7H287.485C286.605 72.7 285.938 72.9067 285.485 73.32C285.045 73.7333 284.825 74.4533 284.825 75.48V81H282.025V69.92H284.825V71.64ZM296.35 69.76C297.19 69.76 297.937 69.9467 298.59 70.32C299.244 70.68 299.75 71.22 300.11 71.94C300.484 72.6467 300.67 73.5 300.67 74.5V81H297.87V74.88C297.87 74 297.65 73.3267 297.21 72.86C296.77 72.38 296.17 72.14 295.41 72.14C294.637 72.14 294.024 72.38 293.57 72.86C293.13 73.3267 292.91 74 292.91 74.88V81H290.11V66.2H292.91V71.3C293.27 70.82 293.75 70.4467 294.35 70.18C294.95 69.9 295.617 69.76 296.35 69.76ZM302.613 75.42C302.613 74.3 302.833 73.3067 303.273 72.44C303.726 71.5733 304.333 70.9067 305.093 70.44C305.866 69.9733 306.726 69.74 307.673 69.74C308.5 69.74 309.22 69.9067 309.833 70.24C310.46 70.5733 310.96 70.9933 311.333 71.5V69.92H314.153V81H311.333V79.38C310.973 79.9 310.473 80.3333 309.833 80.68C309.206 81.0133 308.48 81.18 307.653 81.18C306.72 81.18 305.866 80.94 305.093 80.46C304.333 79.98 303.726 79.3067 303.273 78.44C302.833 77.56 302.613 76.5533 302.613 75.42ZM311.333 75.46C311.333 74.78 311.2 74.2 310.933 73.72C310.666 73.2267 310.306 72.8533 309.853 72.6C309.4 72.3333 308.913 72.2 308.393 72.2C307.873 72.2 307.393 72.3267 306.953 72.58C306.513 72.8333 306.153 73.2067 305.873 73.7C305.606 74.18 305.473 74.7533 305.473 75.42C305.473 76.0867 305.606 76.6733 305.873 77.18C306.153 77.6733 306.513 78.0533 306.953 78.32C307.406 78.5867 307.886 78.72 308.393 78.72C308.913 78.72 309.4 78.5933 309.853 78.34C310.306 78.0733 310.666 77.7 310.933 77.22C311.2 76.7267 311.333 76.14 311.333 75.46ZM321.128 81.18C320.221 81.18 319.408 81.02 318.688 80.7C317.968 80.3667 317.394 79.92 316.968 79.36C316.554 78.8 316.328 78.18 316.288 77.5H319.108C319.161 77.9267 319.368 78.28 319.728 78.56C320.101 78.84 320.561 78.98 321.108 78.98C321.641 78.98 322.054 78.8733 322.348 78.66C322.654 78.4467 322.808 78.1733 322.808 77.84C322.808 77.48 322.621 77.2133 322.248 77.04C321.888 76.8533 321.308 76.6533 320.508 76.44C319.681 76.24 319.001 76.0333 318.468 75.82C317.948 75.6067 317.494 75.28 317.108 74.84C316.734 74.4 316.548 73.8067 316.548 73.06C316.548 72.4467 316.721 71.8867 317.068 71.38C317.428 70.8733 317.934 70.4733 318.588 70.18C319.254 69.8867 320.034 69.74 320.928 69.74C322.248 69.74 323.301 70.0733 324.088 70.74C324.874 71.3933 325.308 72.28 325.388 73.4H322.708C322.668 72.96 322.481 72.6133 322.148 72.36C321.828 72.0933 321.394 71.96 320.848 71.96C320.341 71.96 319.948 72.0533 319.668 72.24C319.401 72.4267 319.268 72.6867 319.268 73.02C319.268 73.3933 319.454 73.68 319.828 73.88C320.201 74.0667 320.781 74.26 321.568 74.46C322.368 74.66 323.028 74.8667 323.548 75.08C324.068 75.2933 324.514 75.6267 324.888 76.08C325.274 76.52 325.474 77.1067 325.488 77.84C325.488 78.48 325.308 79.0533 324.948 79.56C324.601 80.0667 324.094 80.4667 323.428 80.76C322.774 81.04 322.008 81.18 321.128 81.18ZM329.206 68.6C328.713 68.6 328.3 68.4467 327.966 68.14C327.646 67.82 327.486 67.4267 327.486 66.96C327.486 66.4933 327.646 66.1067 327.966 65.8C328.3 65.48 328.713 65.32 329.206 65.32C329.7 65.32 330.106 65.48 330.426 65.8C330.76 66.1067 330.926 66.4933 330.926 66.96C330.926 67.4267 330.76 67.82 330.426 68.14C330.106 68.4467 329.7 68.6 329.206 68.6ZM330.586 69.92V81H327.786V69.92H330.586ZM336.153 66.2V81H333.353V66.2H336.153ZM342.965 75.42C342.965 74.3 343.185 73.3067 343.625 72.44C344.078 71.5733 344.691 70.9067 345.465 70.44C346.238 69.9733 347.098 69.74 348.045 69.74C348.765 69.74 349.451 69.9 350.105 70.22C350.758 70.5267 351.278 70.94 351.665 71.46V66.2H354.505V81H351.665V79.36C351.318 79.9067 350.831 80.3467 350.205 80.68C349.578 81.0133 348.851 81.18 348.025 81.18C347.091 81.18 346.238 80.94 345.465 80.46C344.691 79.98 344.078 79.3067 343.625 78.44C343.185 77.56 342.965 76.5533 342.965 75.42ZM351.685 75.46C351.685 74.78 351.551 74.2 351.285 73.72C351.018 73.2267 350.658 72.8533 350.205 72.6C349.751 72.3333 349.265 72.2 348.745 72.2C348.225 72.2 347.745 72.3267 347.305 72.58C346.865 72.8333 346.505 73.2067 346.225 73.7C345.958 74.18 345.825 74.7533 345.825 75.42C345.825 76.0867 345.958 76.6733 346.225 77.18C346.505 77.6733 346.865 78.0533 347.305 78.32C347.758 78.5867 348.238 78.72 348.745 78.72C349.265 78.72 349.751 78.5933 350.205 78.34C350.658 78.0733 351.018 77.7 351.285 77.22C351.551 76.7267 351.685 76.14 351.685 75.46ZM358.659 68.6C358.166 68.6 357.753 68.4467 357.419 68.14C357.099 67.82 356.939 67.4267 356.939 66.96C356.939 66.4933 357.099 66.1067 357.419 65.8C357.753 65.48 358.166 65.32 358.659 65.32C359.153 65.32 359.559 65.48 359.879 65.8C360.213 66.1067 360.379 66.4933 360.379 66.96C360.379 67.4267 360.213 67.82 359.879 68.14C359.559 68.4467 359.153 68.6 358.659 68.6ZM360.039 69.92V81H357.239V69.92H360.039ZM366.066 72.22V77.58C366.066 77.9533 366.152 78.2267 366.326 78.4C366.512 78.56 366.819 78.64 367.246 78.64H368.546V81H366.786C364.426 81 363.246 79.8533 363.246 77.56V72.22H361.926V69.92H363.246V67.18H366.066V69.92H368.546V72.22H366.066ZM369.84 75.42C369.84 74.3 370.06 73.3067 370.5 72.44C370.953 71.5733 371.56 70.9067 372.32 70.44C373.093 69.9733 373.953 69.74 374.9 69.74C375.726 69.74 376.446 69.9067 377.06 70.24C377.686 70.5733 378.186 70.9933 378.56 71.5V69.92H381.38V81H378.56V79.38C378.2 79.9 377.7 80.3333 377.06 80.68C376.433 81.0133 375.706 81.18 374.88 81.18C373.946 81.18 373.093 80.94 372.32 80.46C371.56 79.98 370.953 79.3067 370.5 78.44C370.06 77.56 369.84 76.5533 369.84 75.42ZM378.56 75.46C378.56 74.78 378.426 74.2 378.16 73.72C377.893 73.2267 377.533 72.8533 377.08 72.6C376.626 72.3333 376.14 72.2 375.62 72.2C375.1 72.2 374.62 72.3267 374.18 72.58C373.74 72.8333 373.38 73.2067 373.1 73.7C372.833 74.18 372.7 74.7533 372.7 75.42C372.7 76.0867 372.833 76.6733 373.1 77.18C373.38 77.6733 373.74 78.0533 374.18 78.32C374.633 78.5867 375.113 78.72 375.62 78.72C376.14 78.72 376.626 78.5933 377.08 78.34C377.533 78.0733 377.893 77.7 378.16 77.22C378.426 76.7267 378.56 76.14 378.56 75.46ZM397.874 69.76C399.234 69.76 400.328 70.18 401.154 71.02C401.994 71.8467 402.414 73.0067 402.414 74.5V81H399.614V74.88C399.614 74.0133 399.394 73.3533 398.954 72.9C398.514 72.4333 397.914 72.2 397.154 72.2C396.394 72.2 395.788 72.4333 395.334 72.9C394.894 73.3533 394.674 74.0133 394.674 74.88V81H391.874V74.88C391.874 74.0133 391.654 73.3533 391.214 72.9C390.774 72.4333 390.174 72.2 389.414 72.2C388.641 72.2 388.028 72.4333 387.574 72.9C387.134 73.3533 386.914 74.0133 386.914 74.88V81H384.114V69.92H386.914V71.26C387.274 70.7933 387.734 70.4267 388.294 70.16C388.868 69.8933 389.494 69.76 390.174 69.76C391.041 69.76 391.814 69.9467 392.494 70.32C393.174 70.68 393.701 71.2 394.074 71.88C394.434 71.24 394.954 70.7267 395.634 70.34C396.328 69.9533 397.074 69.76 397.874 69.76ZM407.871 71.54C408.231 71.0067 408.725 70.5733 409.351 70.24C409.991 69.9067 410.718 69.74 411.531 69.74C412.478 69.74 413.331 69.9733 414.091 70.44C414.865 70.9067 415.471 71.5733 415.911 72.44C416.365 73.2933 416.591 74.2867 416.591 75.42C416.591 76.5533 416.365 77.56 415.911 78.44C415.471 79.3067 414.865 79.98 414.091 80.46C413.331 80.94 412.478 81.18 411.531 81.18C410.705 81.18 409.978 81.02 409.351 80.7C408.738 80.3667 408.245 79.94 407.871 79.42V81H405.071V66.2H407.871V71.54ZM413.731 75.42C413.731 74.7533 413.591 74.18 413.311 73.7C413.045 73.2067 412.685 72.8333 412.231 72.58C411.791 72.3267 411.311 72.2 410.791 72.2C410.285 72.2 409.805 72.3333 409.351 72.6C408.911 72.8533 408.551 73.2267 408.271 73.72C408.005 74.2133 407.871 74.7933 407.871 75.46C407.871 76.1267 408.005 76.7067 408.271 77.2C408.551 77.6933 408.911 78.0733 409.351 78.34C409.805 78.5933 410.285 78.72 410.791 78.72C411.311 78.72 411.791 78.5867 412.231 78.32C412.685 78.0533 413.045 77.6733 413.311 77.18C413.591 76.6867 413.731 76.1 413.731 75.42ZM417.906 75.42C417.906 74.3 418.126 73.3067 418.566 72.44C419.019 71.5733 419.626 70.9067 420.386 70.44C421.159 69.9733 422.019 69.74 422.966 69.74C423.793 69.74 424.513 69.9067 425.126 70.24C425.753 70.5733 426.253 70.9933 426.626 71.5V69.92H429.446V81H426.626V79.38C426.266 79.9 425.766 80.3333 425.126 80.68C424.499 81.0133 423.773 81.18 422.946 81.18C422.013 81.18 421.159 80.94 420.386 80.46C419.626 79.98 419.019 79.3067 418.566 78.44C418.126 77.56 417.906 76.5533 417.906 75.42ZM426.626 75.46C426.626 74.78 426.493 74.2 426.226 73.72C425.959 73.2267 425.599 72.8533 425.146 72.6C424.693 72.3333 424.206 72.2 423.686 72.2C423.166 72.2 422.686 72.3267 422.246 72.58C421.806 72.8333 421.446 73.2067 421.166 73.7C420.899 74.18 420.766 74.7533 420.766 75.42C420.766 76.0867 420.899 76.6733 421.166 77.18C421.446 77.6733 421.806 78.0533 422.246 78.32C422.699 78.5867 423.179 78.72 423.686 78.72C424.206 78.72 424.693 78.5933 425.146 78.34C425.599 78.0733 425.959 77.7 426.226 77.22C426.493 76.7267 426.626 76.14 426.626 75.46ZM438.421 69.76C439.261 69.76 440.007 69.9467 440.661 70.32C441.314 70.68 441.821 71.22 442.181 71.94C442.554 72.6467 442.741 73.5 442.741 74.5V81H439.941V74.88C439.941 74 439.721 73.3267 439.281 72.86C438.841 72.38 438.241 72.14 437.481 72.14C436.707 72.14 436.094 72.38 435.641 72.86C435.201 73.3267 434.981 74 434.981 74.88V81H432.181V66.2H434.981V71.3C435.341 70.82 435.821 70.4467 436.421 70.18C437.021 69.9 437.687 69.76 438.421 69.76ZM451.963 81L448.203 76.28V81H445.403V66.2H448.203V74.62L451.923 69.92H455.563L450.683 75.48L455.603 81H451.963ZM456.363 75.42C456.363 74.3 456.583 73.3067 457.023 72.44C457.476 71.5733 458.083 70.9067 458.843 70.44C459.616 69.9733 460.476 69.74 461.423 69.74C462.25 69.74 462.97 69.9067 463.583 70.24C464.21 70.5733 464.71 70.9933 465.083 71.5V69.92H467.903V81H465.083V79.38C464.723 79.9 464.223 80.3333 463.583 80.68C462.956 81.0133 462.23 81.18 461.403 81.18C460.47 81.18 459.616 80.94 458.843 80.46C458.083 79.98 457.476 79.3067 457.023 78.44C456.583 77.56 456.363 76.5533 456.363 75.42ZM465.083 75.46C465.083 74.78 464.95 74.2 464.683 73.72C464.416 73.2267 464.056 72.8533 463.603 72.6C463.15 72.3333 462.663 72.2 462.143 72.2C461.623 72.2 461.143 72.3267 460.703 72.58C460.263 72.8333 459.903 73.2067 459.623 73.7C459.356 74.18 459.223 74.7533 459.223 75.42C459.223 76.0867 459.356 76.6733 459.623 77.18C459.903 77.6733 460.263 78.0533 460.703 78.32C461.156 78.5867 461.636 78.72 462.143 78.72C462.663 78.72 463.15 78.5933 463.603 78.34C464.056 78.0733 464.416 77.7 464.683 77.22C464.95 76.7267 465.083 76.14 465.083 75.46ZM476.778 69.76C478.098 69.76 479.164 70.18 479.978 71.02C480.791 71.8467 481.198 73.0067 481.198 74.5V81H478.398V74.88C478.398 74 478.178 73.3267 477.738 72.86C477.298 72.38 476.698 72.14 475.938 72.14C475.164 72.14 474.551 72.38 474.098 72.86C473.658 73.3267 473.438 74 473.438 74.88V81H470.638V69.92H473.438V71.3C473.811 70.82 474.284 70.4467 474.858 70.18C475.444 69.9 476.084 69.76 476.778 69.76ZM487.48 66.8L487.16 76.46H484.8L484.46 66.8H487.48ZM486.04 81.14C485.534 81.14 485.114 80.9867 484.78 80.68C484.46 80.36 484.3 79.9667 484.3 79.5C484.3 79.0333 484.46 78.6467 484.78 78.34C485.114 78.02 485.534 77.86 486.04 77.86C486.534 77.86 486.94 78.02 487.26 78.34C487.58 78.6467 487.74 79.0333 487.74 79.5C487.74 79.9667 487.58 80.36 487.26 80.68C486.94 80.9867 486.534 81.14 486.04 81.14Z" fill="#EA8D45" fill-opacity="0.5"/>
<path fill-rule="evenodd" clip-rule="evenodd" d="M617.181 19.0212C621.049 18.5931 624.951 18.5931 628.819 19.0212C630.96 19.2612 632.687 20.9475 632.939 23.0962C633.397 27.0187 633.397 30.9813 632.939 34.9037C632.687 37.0525 630.96 38.7387 628.819 38.9787C624.951 39.4069 621.049 39.4069 617.181 38.9787C615.04 38.7387 613.312 37.0525 613.061 34.9037C612.603 30.9817 612.603 27.0196 613.061 23.0975C613.188 22.0536 613.664 21.0832 614.412 20.3436C615.159 19.6039 616.135 19.1384 617.18 19.0225M618.587 24.5875C618.763 24.4119 619.001 24.3133 619.25 24.3133C619.498 24.3133 619.737 24.4119 619.912 24.5875L623 27.675L626.087 24.5875C626.173 24.4954 626.277 24.4215 626.392 24.3703C626.507 24.319 626.631 24.2915 626.757 24.2893C626.883 24.287 627.008 24.3102 627.124 24.3573C627.241 24.4045 627.347 24.4747 627.436 24.5637C627.525 24.6527 627.595 24.7588 627.643 24.8755C627.69 24.9922 627.713 25.1173 627.711 25.2431C627.708 25.369 627.681 25.4932 627.63 25.6082C627.578 25.7232 627.505 25.8267 627.412 25.9125L624.325 29L627.412 32.0875C627.578 32.2652 627.668 32.5003 627.664 32.7431C627.66 32.986 627.561 33.2178 627.389 33.3895C627.218 33.5613 626.986 33.6597 626.743 33.664C626.5 33.6683 626.265 33.5781 626.087 33.4125L623 30.325L619.912 33.4125C619.827 33.5046 619.723 33.5785 619.608 33.6297C619.493 33.681 619.369 33.7085 619.243 33.7107C619.117 33.713 618.992 33.6898 618.875 33.6427C618.759 33.5955 618.653 33.5253 618.564 33.4363C618.475 33.3473 618.404 33.2412 618.357 33.1245C618.31 33.0078 618.287 32.8827 618.289 32.7568C618.291 32.631 618.319 32.5068 618.37 32.3918C618.421 32.2768 618.495 32.1733 618.587 32.0875L621.675 29L618.587 25.9125C618.412 25.7367 618.313 25.4984 618.313 25.25C618.313 25.0016 618.412 24.7633 618.587 24.5875Z" fill="#B9B9B9"/>
</g>
<defs>
<filter id="filter0_d_132_301" x="-4" y="0.134323" width="656.097" height="126.134" filterUnits="userSpaceOnUse" color-interpolation-filters="sRGB">
<feFlood flood-opacity="0" result="BackgroundImageFix"/>
<feColorMatrix in="SourceAlpha" type="matrix" values="0 0 0 0 0 0 0 0 0 0 0 0 0 0 0 0 0 0 127 0" result="hardAlpha"/>
<feOffset dy="4"/>
<feGaussianBlur stdDeviation="2"/>
<feComposite in2="hardAlpha" operator="out"/>
<feColorMatrix type="matrix" values="0 0 0 0 0 0 0 0 0 0 0 0 0 0 0 0 0 0 0.25 0"/>
<feBlend mode="normal" in2="BackgroundImageFix" result="effect1_dropShadow_132_301"/>
<feBlend mode="normal" in="SourceGraphic" in2="effect1_dropShadow_132_301" result="shape"/>
</filter>
</defs>
</svg>
