<svg width="707" height="126" viewBox="0 0 707 126" fill="none" xmlns="http://www.w3.org/2000/svg">
<g filter="url(#filter0_d_132_271)">
<path d="M4.5 10C4.5 4.75329 8.75329 0.5 14 0.5H692C697.247 0.5 701.5 4.75329 701.5 10V107C701.5 112.247 697.247 116.5 692 116.5H14C8.75328 116.5 4.5 112.247 4.5 107V10Z" fill="white" stroke="#EA8D45"/>
<rect x="57.9458" y="93.707" width="50" height="50" transform="rotate(179.846 57.9458 93.707)" fill="#EA8D45"/>
<rect x="92.8301" y="50.613" width="50" height="50" transform="rotate(179.846 92.8301 50.613)" fill="#EA8D45"/>
<rect x="134.097" y="75.9999" width="50" height="36" transform="rotate(179.846 134.097 75.9999)" fill="#EA8D45" fill-opacity="0.5"/>
<rect x="652.134" y="108" width="50" height="50" transform="rotate(179.846 652.134 108)" fill="#EA8D45"/>
<rect x="702.097" y="117" width="50" height="36" transform="rotate(179.846 702.097 117)" fill="#EA8D45" fill-opacity="0.5"/>
<path d="M226.749 48L220.907 40.847V48H217.687V31.946H220.907V39.145L226.749 31.946H230.636L224.012 39.904L230.82 48H226.749ZM232.11 41.583C232.11 40.295 232.363 39.1527 232.869 38.156C233.39 37.1593 234.088 36.3927 234.962 35.856C235.851 35.3193 236.84 35.051 237.929 35.051C238.88 35.051 239.708 35.2427 240.413 35.626C241.134 36.0093 241.709 36.4923 242.138 37.075V35.258H245.381V48H242.138V46.137C241.724 46.735 241.149 47.2333 240.413 47.632C239.692 48.0153 238.857 48.207 237.906 48.207C236.833 48.207 235.851 47.931 234.962 47.379C234.088 46.827 233.39 46.0527 232.869 45.056C232.363 44.044 232.11 42.8863 232.11 41.583ZM242.138 41.629C242.138 40.847 241.985 40.18 241.678 39.628C241.371 39.0607 240.957 38.6313 240.436 38.34C239.915 38.0333 239.355 37.88 238.757 37.88C238.159 37.88 237.607 38.0257 237.101 38.317C236.595 38.6083 236.181 39.0377 235.859 39.605C235.552 40.157 235.399 40.8163 235.399 41.583C235.399 42.3497 235.552 43.0243 235.859 43.607C236.181 44.1743 236.595 44.6113 237.101 44.918C237.622 45.2247 238.174 45.378 238.757 45.378C239.355 45.378 239.915 45.2323 240.436 44.941C240.957 44.6343 241.371 44.205 241.678 43.653C241.985 43.0857 242.138 42.411 242.138 41.629ZM252.275 37.903V44.067C252.275 44.4963 252.375 44.8107 252.574 45.01C252.789 45.194 253.141 45.286 253.632 45.286H255.127V48H253.103C250.389 48 249.032 46.6813 249.032 44.044V37.903H247.514V35.258H249.032V32.107H252.275V35.258H255.127V37.903H252.275ZM256.615 41.583C256.615 40.295 256.868 39.1527 257.374 38.156C257.895 37.1593 258.593 36.3927 259.467 35.856C260.356 35.3193 261.345 35.051 262.434 35.051C263.385 35.051 264.213 35.2427 264.918 35.626C265.639 36.0093 266.214 36.4923 266.643 37.075V35.258H269.886V48H266.643V46.137C266.229 46.735 265.654 47.2333 264.918 47.632C264.197 48.0153 263.362 48.207 262.411 48.207C261.338 48.207 260.356 47.931 259.467 47.379C258.593 46.827 257.895 46.0527 257.374 45.056C256.868 44.044 256.615 42.8863 256.615 41.583ZM266.643 41.629C266.643 40.847 266.49 40.18 266.183 39.628C265.876 39.0607 265.462 38.6313 264.941 38.34C264.42 38.0333 263.86 37.88 263.262 37.88C262.664 37.88 262.112 38.0257 261.606 38.317C261.1 38.6083 260.686 39.0377 260.364 39.605C260.057 40.157 259.904 40.8163 259.904 41.583C259.904 42.3497 260.057 43.0243 260.364 43.607C260.686 44.1743 261.1 44.6113 261.606 44.918C262.127 45.2247 262.679 45.378 263.262 45.378C263.86 45.378 264.42 45.2323 264.941 44.941C265.462 44.6343 265.876 44.205 266.183 43.653C266.49 43.0857 266.643 42.411 266.643 41.629ZM284.054 48.161C282.935 48.161 281.923 47.9693 281.018 47.586C280.129 47.2027 279.424 46.6507 278.902 45.93C278.381 45.2093 278.113 44.3583 278.097 43.377H281.547C281.593 44.0363 281.823 44.5577 282.237 44.941C282.667 45.3243 283.249 45.516 283.985 45.516C284.737 45.516 285.327 45.3397 285.756 44.987C286.186 44.619 286.4 44.1437 286.4 43.561C286.4 43.0857 286.255 42.6947 285.963 42.388C285.672 42.0813 285.304 41.8437 284.859 41.675C284.43 41.491 283.832 41.2917 283.065 41.077C282.023 40.7703 281.172 40.4713 280.512 40.18C279.868 39.8733 279.309 39.421 278.833 38.823C278.373 38.2097 278.143 37.397 278.143 36.385C278.143 35.4343 278.381 34.6063 278.856 33.901C279.332 33.1957 279.999 32.659 280.857 32.291C281.716 31.9077 282.697 31.716 283.801 31.716C285.457 31.716 286.799 32.1223 287.826 32.935C288.869 33.7323 289.444 34.8517 289.551 36.293H286.009C285.979 35.741 285.741 35.2887 285.296 34.936C284.867 34.568 284.292 34.384 283.571 34.384C282.943 34.384 282.437 34.545 282.053 34.867C281.685 35.189 281.501 35.6567 281.501 36.27C281.501 36.6993 281.639 37.0597 281.915 37.351C282.207 37.627 282.559 37.857 282.973 38.041C283.403 38.2097 284.001 38.409 284.767 38.639C285.81 38.9457 286.661 39.2523 287.32 39.559C287.98 39.8657 288.547 40.3257 289.022 40.939C289.498 41.5523 289.735 42.3573 289.735 43.354C289.735 44.2127 289.513 45.01 289.068 45.746C288.624 46.482 287.972 47.0723 287.113 47.517C286.255 47.9463 285.235 48.161 284.054 48.161ZM291.699 41.583C291.699 40.295 291.952 39.1527 292.458 38.156C292.979 37.1593 293.677 36.3927 294.551 35.856C295.44 35.3193 296.429 35.051 297.518 35.051C298.469 35.051 299.297 35.2427 300.002 35.626C300.723 36.0093 301.298 36.4923 301.727 37.075V35.258H304.97V48H301.727V46.137C301.313 46.735 300.738 47.2333 300.002 47.632C299.281 48.0153 298.446 48.207 297.495 48.207C296.422 48.207 295.44 47.931 294.551 47.379C293.677 46.827 292.979 46.0527 292.458 45.056C291.952 44.044 291.699 42.8863 291.699 41.583ZM301.727 41.629C301.727 40.847 301.574 40.18 301.267 39.628C300.96 39.0607 300.546 38.6313 300.025 38.34C299.504 38.0333 298.944 37.88 298.346 37.88C297.748 37.88 297.196 38.0257 296.69 38.317C296.184 38.6083 295.77 39.0377 295.448 39.605C295.141 40.157 294.988 40.8163 294.988 41.583C294.988 42.3497 295.141 43.0243 295.448 43.607C295.77 44.1743 296.184 44.6113 296.69 44.918C297.211 45.2247 297.763 45.378 298.346 45.378C298.944 45.378 299.504 45.2323 300.025 44.941C300.546 44.6343 300.96 44.205 301.267 43.653C301.574 43.0857 301.727 42.411 301.727 41.629ZM315.176 35.074C316.694 35.074 317.92 35.557 318.856 36.523C319.791 37.4737 320.259 38.8077 320.259 40.525V48H317.039V40.962C317.039 39.95 316.786 39.1757 316.28 38.639C315.774 38.087 315.084 37.811 314.21 37.811C313.32 37.811 312.615 38.087 312.094 38.639C311.588 39.1757 311.335 39.95 311.335 40.962V48H308.115V35.258H311.335V36.845C311.764 36.293 312.308 35.8637 312.968 35.557C313.642 35.235 314.378 35.074 315.176 35.074ZM322.493 41.583C322.493 40.295 322.746 39.1527 323.252 38.156C323.773 37.1593 324.479 36.3927 325.368 35.856C326.257 35.3193 327.246 35.051 328.335 35.051C329.163 35.051 329.953 35.235 330.704 35.603C331.455 35.9557 332.053 36.431 332.498 37.029V30.98H335.764V48H332.498V46.114C332.099 46.7427 331.54 47.2487 330.819 47.632C330.098 48.0153 329.263 48.207 328.312 48.207C327.239 48.207 326.257 47.931 325.368 47.379C324.479 46.827 323.773 46.0527 323.252 45.056C322.746 44.044 322.493 42.8863 322.493 41.583ZM332.521 41.629C332.521 40.847 332.368 40.18 332.061 39.628C331.754 39.0607 331.34 38.6313 330.819 38.34C330.298 38.0333 329.738 37.88 329.14 37.88C328.542 37.88 327.99 38.0257 327.484 38.317C326.978 38.6083 326.564 39.0377 326.242 39.605C325.935 40.157 325.782 40.8163 325.782 41.583C325.782 42.3497 325.935 43.0243 326.242 43.607C326.564 44.1743 326.978 44.6113 327.484 44.918C328.005 45.2247 328.557 45.378 329.14 45.378C329.738 45.378 330.298 45.2323 330.819 44.941C331.34 44.6343 331.754 44.205 332.061 43.653C332.368 43.0857 332.521 42.411 332.521 41.629ZM340.542 33.74C339.974 33.74 339.499 33.5637 339.116 33.211C338.748 32.843 338.564 32.3907 338.564 31.854C338.564 31.3173 338.748 30.8727 339.116 30.52C339.499 30.152 339.974 29.968 340.542 29.968C341.109 29.968 341.577 30.152 341.945 30.52C342.328 30.8727 342.52 31.3173 342.52 31.854C342.52 32.3907 342.328 32.843 341.945 33.211C341.577 33.5637 341.109 33.74 340.542 33.74ZM342.129 35.258V48H338.909V35.258H342.129Z" fill="#EA8D45"/>
<path d="M354.54 37.903V44.067C354.54 44.4963 354.639 44.8107 354.839 45.01C355.053 45.194 355.406 45.286 355.897 45.286H357.392V48H355.368C352.654 48 351.297 46.6813 351.297 44.044V37.903H349.779V35.258H351.297V32.107H354.54V35.258H357.392V37.903H354.54ZM361.341 33.74C360.773 33.74 360.298 33.5637 359.915 33.211C359.547 32.843 359.363 32.3907 359.363 31.854C359.363 31.3173 359.547 30.8727 359.915 30.52C360.298 30.152 360.773 29.968 361.341 29.968C361.908 29.968 362.376 30.152 362.744 30.52C363.127 30.8727 363.319 31.3173 363.319 31.854C363.319 32.3907 363.127 32.843 362.744 33.211C362.376 33.5637 361.908 33.74 361.341 33.74ZM362.928 35.258V48H359.708V35.258H362.928ZM365.281 41.583C365.281 40.295 365.534 39.1527 366.04 38.156C366.561 37.1593 367.267 36.3927 368.156 35.856C369.045 35.3193 370.034 35.051 371.123 35.051C371.951 35.051 372.741 35.235 373.492 35.603C374.243 35.9557 374.841 36.431 375.286 37.029V30.98H378.552V48H375.286V46.114C374.887 46.7427 374.328 47.2487 373.607 47.632C372.886 48.0153 372.051 48.207 371.1 48.207C370.027 48.207 369.045 47.931 368.156 47.379C367.267 46.827 366.561 46.0527 366.04 45.056C365.534 44.044 365.281 42.8863 365.281 41.583ZM375.309 41.629C375.309 40.847 375.156 40.18 374.849 39.628C374.542 39.0607 374.128 38.6313 373.607 38.34C373.086 38.0333 372.526 37.88 371.928 37.88C371.33 37.88 370.778 38.0257 370.272 38.317C369.766 38.6083 369.352 39.0377 369.03 39.605C368.723 40.157 368.57 40.8163 368.57 41.583C368.57 42.3497 368.723 43.0243 369.03 43.607C369.352 44.1743 369.766 44.6113 370.272 44.918C370.793 45.2247 371.345 45.378 371.928 45.378C372.526 45.378 373.086 45.2323 373.607 44.941C374.128 44.6343 374.542 44.205 374.849 43.653C375.156 43.0857 375.309 42.411 375.309 41.629ZM380.869 41.583C380.869 40.295 381.122 39.1527 381.628 38.156C382.149 37.1593 382.847 36.3927 383.721 35.856C384.61 35.3193 385.599 35.051 386.688 35.051C387.639 35.051 388.467 35.2427 389.172 35.626C389.893 36.0093 390.468 36.4923 390.897 37.075V35.258H394.14V48H390.897V46.137C390.483 46.735 389.908 47.2333 389.172 47.632C388.451 48.0153 387.616 48.207 386.665 48.207C385.592 48.207 384.61 47.931 383.721 47.379C382.847 46.827 382.149 46.0527 381.628 45.056C381.122 44.044 380.869 42.8863 380.869 41.583ZM390.897 41.629C390.897 40.847 390.744 40.18 390.437 39.628C390.13 39.0607 389.716 38.6313 389.195 38.34C388.674 38.0333 388.114 37.88 387.516 37.88C386.918 37.88 386.366 38.0257 385.86 38.317C385.354 38.6083 384.94 39.0377 384.618 39.605C384.311 40.157 384.158 40.8163 384.158 41.583C384.158 42.3497 384.311 43.0243 384.618 43.607C384.94 44.1743 385.354 44.6113 385.86 44.918C386.381 45.2247 386.933 45.378 387.516 45.378C388.114 45.378 388.674 45.2323 389.195 44.941C389.716 44.6343 390.13 44.205 390.437 43.653C390.744 43.0857 390.897 42.411 390.897 41.629ZM404.829 48L400.505 42.572V48H397.285V30.98H400.505V40.663L404.783 35.258H408.969L403.357 41.652L409.015 48H404.829ZM421.073 48.207C420.03 48.207 419.095 48.023 418.267 47.655C417.439 47.2717 416.78 46.758 416.289 46.114C415.814 45.47 415.553 44.757 415.507 43.975H418.75C418.811 44.4657 419.049 44.872 419.463 45.194C419.892 45.516 420.421 45.677 421.05 45.677C421.663 45.677 422.139 45.5543 422.476 45.309C422.829 45.0637 423.005 44.7493 423.005 44.366C423.005 43.952 422.79 43.6453 422.361 43.446C421.947 43.2313 421.28 43.0013 420.36 42.756C419.409 42.526 418.627 42.2883 418.014 42.043C417.416 41.7977 416.895 41.422 416.45 40.916C416.021 40.41 415.806 39.7277 415.806 38.869C415.806 38.1637 416.005 37.5197 416.404 36.937C416.818 36.3543 417.401 35.8943 418.152 35.557C418.919 35.2197 419.816 35.051 420.843 35.051C422.361 35.051 423.572 35.4343 424.477 36.201C425.382 36.9523 425.88 37.972 425.972 39.26H422.89C422.844 38.754 422.629 38.3553 422.246 38.064C421.878 37.7573 421.38 37.604 420.751 37.604C420.168 37.604 419.716 37.7113 419.394 37.926C419.087 38.1407 418.934 38.4397 418.934 38.823C418.934 39.2523 419.149 39.582 419.578 39.812C420.007 40.0267 420.674 40.249 421.579 40.479C422.499 40.709 423.258 40.9467 423.856 41.192C424.454 41.4373 424.968 41.8207 425.397 42.342C425.842 42.848 426.072 43.5227 426.087 44.366C426.087 45.102 425.88 45.7613 425.466 46.344C425.067 46.9267 424.485 47.3867 423.718 47.724C422.967 48.046 422.085 48.207 421.073 48.207ZM427.902 41.583C427.902 40.295 428.155 39.1527 428.661 38.156C429.182 37.1593 429.88 36.3927 430.754 35.856C431.643 35.3193 432.632 35.051 433.721 35.051C434.672 35.051 435.5 35.2427 436.205 35.626C436.926 36.0093 437.501 36.4923 437.93 37.075V35.258H441.173V48H437.93V46.137C437.516 46.735 436.941 47.2333 436.205 47.632C435.484 48.0153 434.649 48.207 433.698 48.207C432.625 48.207 431.643 47.931 430.754 47.379C429.88 46.827 429.182 46.0527 428.661 45.056C428.155 44.044 427.902 42.8863 427.902 41.583ZM437.93 41.629C437.93 40.847 437.777 40.18 437.47 39.628C437.163 39.0607 436.749 38.6313 436.228 38.34C435.707 38.0333 435.147 37.88 434.549 37.88C433.951 37.88 433.399 38.0257 432.893 38.317C432.387 38.6083 431.973 39.0377 431.651 39.605C431.344 40.157 431.191 40.8163 431.191 41.583C431.191 42.3497 431.344 43.0243 431.651 43.607C431.973 44.1743 432.387 44.6113 432.893 44.918C433.414 45.2247 433.966 45.378 434.549 45.378C435.147 45.378 435.707 45.2323 436.228 44.941C436.749 44.6343 437.163 44.205 437.47 43.653C437.777 43.0857 437.93 42.411 437.93 41.629ZM460.142 35.074C461.706 35.074 462.963 35.557 463.914 36.523C464.88 37.4737 465.363 38.8077 465.363 40.525V48H462.143V40.962C462.143 39.9653 461.89 39.2063 461.384 38.685C460.878 38.1483 460.188 37.88 459.314 37.88C458.44 37.88 457.742 38.1483 457.221 38.685C456.715 39.2063 456.462 39.9653 456.462 40.962V48H453.242V40.962C453.242 39.9653 452.989 39.2063 452.483 38.685C451.977 38.1483 451.287 37.88 450.413 37.88C449.524 37.88 448.818 38.1483 448.297 38.685C447.791 39.2063 447.538 39.9653 447.538 40.962V48H444.318V35.258H447.538V36.799C447.952 36.2623 448.481 35.8407 449.125 35.534C449.784 35.2273 450.505 35.074 451.287 35.074C452.284 35.074 453.173 35.2887 453.955 35.718C454.737 36.132 455.343 36.73 455.772 37.512C456.186 36.776 456.784 36.1857 457.566 35.741C458.363 35.2963 459.222 35.074 460.142 35.074ZM467.591 41.583C467.591 40.295 467.844 39.1527 468.35 38.156C468.871 37.1593 469.569 36.3927 470.443 35.856C471.332 35.3193 472.321 35.051 473.41 35.051C474.36 35.051 475.188 35.2427 475.894 35.626C476.614 36.0093 477.189 36.4923 477.619 37.075V35.258H480.862V48H477.619V46.137C477.205 46.735 476.63 47.2333 475.894 47.632C475.173 48.0153 474.337 48.207 473.387 48.207C472.313 48.207 471.332 47.931 470.443 47.379C469.569 46.827 468.871 46.0527 468.35 45.056C467.844 44.044 467.591 42.8863 467.591 41.583ZM477.619 41.629C477.619 40.847 477.465 40.18 477.159 39.628C476.852 39.0607 476.438 38.6313 475.917 38.34C475.395 38.0333 474.836 37.88 474.238 37.88C473.64 37.88 473.088 38.0257 472.582 38.317C472.076 38.6083 471.662 39.0377 471.34 39.605C471.033 40.157 470.88 40.8163 470.88 41.583C470.88 42.3497 471.033 43.0243 471.34 43.607C471.662 44.1743 472.076 44.6113 472.582 44.918C473.103 45.2247 473.655 45.378 474.238 45.378C474.836 45.378 475.395 45.2323 475.917 44.941C476.438 44.6343 476.852 44.205 477.159 43.653C477.465 43.0857 477.619 42.411 477.619 41.629Z" fill="#999999"/>
<path d="M250.902 83.161C249.783 83.161 248.771 82.9693 247.866 82.586C246.977 82.2027 246.271 81.6507 245.75 80.93C245.229 80.2093 244.96 79.3583 244.945 78.377H248.395C248.441 79.0363 248.671 79.5577 249.085 79.941C249.514 80.3243 250.097 80.516 250.833 80.516C251.584 80.516 252.175 80.3397 252.604 79.987C253.033 79.619 253.248 79.1437 253.248 78.561C253.248 78.0857 253.102 77.6947 252.811 77.388C252.52 77.0813 252.152 76.8437 251.707 76.675C251.278 76.491 250.68 76.2917 249.913 76.077C248.87 75.7703 248.019 75.4713 247.36 75.18C246.716 74.8733 246.156 74.421 245.681 73.823C245.221 73.2097 244.991 72.397 244.991 71.385C244.991 70.4343 245.229 69.6063 245.704 68.901C246.179 68.1957 246.846 67.659 247.705 67.291C248.564 66.9077 249.545 66.716 250.649 66.716C252.305 66.716 253.647 67.1223 254.674 67.935C255.717 68.7323 256.292 69.8517 256.399 71.293H252.857C252.826 70.741 252.589 70.2887 252.144 69.936C251.715 69.568 251.14 69.384 250.419 69.384C249.79 69.384 249.284 69.545 248.901 69.867C248.533 70.189 248.349 70.6567 248.349 71.27C248.349 71.6993 248.487 72.0597 248.763 72.351C249.054 72.627 249.407 72.857 249.821 73.041C250.25 73.2097 250.848 73.409 251.615 73.639C252.658 73.9457 253.509 74.2523 254.168 74.559C254.827 74.8657 255.395 75.3257 255.87 75.939C256.345 76.5523 256.583 77.3573 256.583 78.354C256.583 79.2127 256.361 80.01 255.916 80.746C255.471 81.482 254.82 82.0723 253.961 82.517C253.102 82.9463 252.083 83.161 250.902 83.161ZM261.008 68.74C260.44 68.74 259.965 68.5637 259.582 68.211C259.214 67.843 259.03 67.3907 259.03 66.854C259.03 66.3173 259.214 65.8727 259.582 65.52C259.965 65.152 260.44 64.968 261.008 64.968C261.575 64.968 262.043 65.152 262.411 65.52C262.794 65.8727 262.986 66.3173 262.986 66.854C262.986 67.3907 262.794 67.843 262.411 68.211C262.043 68.5637 261.575 68.74 261.008 68.74ZM262.595 70.258V83H259.375V70.258H262.595ZM268.996 65.98V83H265.776V65.98H268.996ZM271.349 76.583C271.349 75.295 271.602 74.1527 272.108 73.156C272.63 72.1593 273.327 71.3927 274.201 70.856C275.091 70.3193 276.08 70.051 277.168 70.051C278.119 70.051 278.947 70.2427 279.652 70.626C280.373 71.0093 280.948 71.4923 281.377 72.075V70.258H284.62V83H281.377V81.137C280.963 81.735 280.388 82.2333 279.652 82.632C278.932 83.0153 278.096 83.207 277.145 83.207C276.072 83.207 275.091 82.931 274.201 82.379C273.327 81.827 272.63 81.0527 272.108 80.056C271.602 79.044 271.349 77.8863 271.349 76.583ZM281.377 76.629C281.377 75.847 281.224 75.18 280.917 74.628C280.611 74.0607 280.197 73.6313 279.675 73.34C279.154 73.0333 278.594 72.88 277.996 72.88C277.398 72.88 276.846 73.0257 276.34 73.317C275.834 73.6083 275.42 74.0377 275.098 74.605C274.792 75.157 274.638 75.8163 274.638 76.583C274.638 77.3497 274.792 78.0243 275.098 78.607C275.42 79.1743 275.834 79.6113 276.34 79.918C276.862 80.2247 277.414 80.378 277.996 80.378C278.594 80.378 279.154 80.2323 279.675 79.941C280.197 79.6343 280.611 79.205 280.917 78.653C281.224 78.0857 281.377 77.411 281.377 76.629ZM294.941 70.074C295.907 70.074 296.766 70.2887 297.517 70.718C298.269 71.132 298.851 71.753 299.265 72.581C299.695 73.3937 299.909 74.375 299.909 75.525V83H296.689V75.962C296.689 74.95 296.436 74.1757 295.93 73.639C295.424 73.087 294.734 72.811 293.86 72.811C292.971 72.811 292.266 73.087 291.744 73.639C291.238 74.1757 290.985 74.95 290.985 75.962V83H287.765V65.98H290.985V71.845C291.399 71.293 291.951 70.8637 292.641 70.557C293.331 70.235 294.098 70.074 294.941 70.074ZM310.515 83L306.191 77.572V83H302.971V65.98H306.191V75.663L310.469 70.258H314.655L309.043 76.652L314.701 83H310.515ZM315.575 76.583C315.575 75.295 315.828 74.1527 316.334 73.156C316.855 72.1593 317.553 71.3927 318.427 70.856C319.316 70.3193 320.305 70.051 321.394 70.051C322.345 70.051 323.173 70.2427 323.878 70.626C324.599 71.0093 325.174 71.4923 325.603 72.075V70.258H328.846V83H325.603V81.137C325.189 81.735 324.614 82.2333 323.878 82.632C323.157 83.0153 322.322 83.207 321.371 83.207C320.298 83.207 319.316 82.931 318.427 82.379C317.553 81.827 316.855 81.0527 316.334 80.056C315.828 79.044 315.575 77.8863 315.575 76.583ZM325.603 76.629C325.603 75.847 325.45 75.18 325.143 74.628C324.836 74.0607 324.422 73.6313 323.901 73.34C323.38 73.0333 322.82 72.88 322.222 72.88C321.624 72.88 321.072 73.0257 320.566 73.317C320.06 73.6083 319.646 74.0377 319.324 74.605C319.017 75.157 318.864 75.8163 318.864 76.583C318.864 77.3497 319.017 78.0243 319.324 78.607C319.646 79.1743 320.06 79.6113 320.566 79.918C321.087 80.2247 321.639 80.378 322.222 80.378C322.82 80.378 323.38 80.2323 323.901 79.941C324.422 79.6343 324.836 79.205 325.143 78.653C325.45 78.0857 325.603 77.411 325.603 76.629ZM339.052 70.074C340.57 70.074 341.796 70.557 342.732 71.523C343.667 72.4737 344.135 73.8077 344.135 75.525V83H340.915V75.962C340.915 74.95 340.662 74.1757 340.156 73.639C339.65 73.087 338.96 72.811 338.086 72.811C337.196 72.811 336.491 73.087 335.97 73.639C335.464 74.1757 335.211 74.95 335.211 75.962V83H331.991V70.258H335.211V71.845C335.64 71.293 336.184 70.8637 336.844 70.557C337.518 70.235 338.254 70.074 339.052 70.074ZM351.849 76.629C351.849 75.3103 352.118 74.1603 352.654 73.179C353.191 72.1823 353.935 71.4157 354.885 70.879C355.836 70.327 356.925 70.051 358.151 70.051C359.731 70.051 361.034 70.4497 362.061 71.247C363.104 72.029 363.802 73.133 364.154 74.559H360.681C360.497 74.007 360.183 73.5777 359.738 73.271C359.309 72.949 358.772 72.788 358.128 72.788C357.208 72.788 356.48 73.1253 355.943 73.8C355.407 74.4593 355.138 75.4023 355.138 76.629C355.138 77.8403 355.407 78.7833 355.943 79.458C356.48 80.1173 357.208 80.447 358.128 80.447C359.432 80.447 360.283 79.8643 360.681 78.699H364.154C363.802 80.079 363.104 81.1753 362.061 81.988C361.019 82.8007 359.715 83.207 358.151 83.207C356.925 83.207 355.836 82.9387 354.885 82.402C353.935 81.85 353.191 81.0833 352.654 80.102C352.118 79.1053 351.849 77.9477 351.849 76.629ZM372.171 83.207C370.945 83.207 369.841 82.9387 368.859 82.402C367.878 81.85 367.104 81.0757 366.536 80.079C365.984 79.0823 365.708 77.9323 365.708 76.629C365.708 75.3257 365.992 74.1757 366.559 73.179C367.142 72.1823 367.932 71.4157 368.928 70.879C369.925 70.327 371.037 70.051 372.263 70.051C373.49 70.051 374.602 70.327 375.598 70.879C376.595 71.4157 377.377 72.1823 377.944 73.179C378.527 74.1757 378.818 75.3257 378.818 76.629C378.818 77.9323 378.519 79.0823 377.921 80.079C377.339 81.0757 376.541 81.85 375.529 82.402C374.533 82.9387 373.413 83.207 372.171 83.207ZM372.171 80.401C372.754 80.401 373.298 80.263 373.804 79.987C374.326 79.6957 374.74 79.2663 375.046 78.699C375.353 78.1317 375.506 77.4417 375.506 76.629C375.506 75.4177 375.184 74.49 374.54 73.846C373.912 73.1867 373.137 72.857 372.217 72.857C371.297 72.857 370.523 73.1867 369.894 73.846C369.281 74.49 368.974 75.4177 368.974 76.629C368.974 77.8403 369.273 78.7757 369.871 79.435C370.485 80.079 371.251 80.401 372.171 80.401ZM384.4 72.121C384.814 71.5077 385.382 71.0093 386.102 70.626C386.838 70.2427 387.674 70.051 388.609 70.051C389.698 70.051 390.679 70.3193 391.553 70.856C392.443 71.3927 393.14 72.1593 393.646 73.156C394.168 74.1373 394.428 75.2797 394.428 76.583C394.428 77.8863 394.168 79.044 393.646 80.056C393.14 81.0527 392.443 81.827 391.553 82.379C390.679 82.931 389.698 83.207 388.609 83.207C387.659 83.207 386.823 83.023 386.102 82.655C385.397 82.2717 384.83 81.781 384.4 81.183V83H381.18V65.98H384.4V72.121ZM391.139 76.583C391.139 75.8163 390.978 75.157 390.656 74.605C390.35 74.0377 389.936 73.6083 389.414 73.317C388.908 73.0257 388.356 72.88 387.758 72.88C387.176 72.88 386.624 73.0333 386.102 73.34C385.596 73.6313 385.182 74.0607 384.86 74.628C384.554 75.1953 384.4 75.8623 384.4 76.629C384.4 77.3957 384.554 78.0627 384.86 78.63C385.182 79.1973 385.596 79.6343 386.102 79.941C386.624 80.2323 387.176 80.378 387.758 80.378C388.356 80.378 388.908 80.2247 389.414 79.918C389.936 79.6113 390.35 79.1743 390.656 78.607C390.978 78.0397 391.139 77.365 391.139 76.583ZM395.94 76.583C395.94 75.295 396.193 74.1527 396.699 73.156C397.22 72.1593 397.918 71.3927 398.792 70.856C399.681 70.3193 400.67 70.051 401.759 70.051C402.71 70.051 403.538 70.2427 404.243 70.626C404.964 71.0093 405.539 71.4923 405.968 72.075V70.258H409.211V83H405.968V81.137C405.554 81.735 404.979 82.2333 404.243 82.632C403.522 83.0153 402.687 83.207 401.736 83.207C400.663 83.207 399.681 82.931 398.792 82.379C397.918 81.827 397.22 81.0527 396.699 80.056C396.193 79.044 395.94 77.8863 395.94 76.583ZM405.968 76.629C405.968 75.847 405.815 75.18 405.508 74.628C405.201 74.0607 404.787 73.6313 404.266 73.34C403.745 73.0333 403.185 72.88 402.587 72.88C401.989 72.88 401.437 73.0257 400.931 73.317C400.425 73.6083 400.011 74.0377 399.689 74.605C399.382 75.157 399.229 75.8163 399.229 76.583C399.229 77.3497 399.382 78.0243 399.689 78.607C400.011 79.1743 400.425 79.6113 400.931 79.918C401.452 80.2247 402.004 80.378 402.587 80.378C403.185 80.378 403.745 80.2323 404.266 79.941C404.787 79.6343 405.201 79.205 405.508 78.653C405.815 78.0857 405.968 77.411 405.968 76.629ZM421.057 65.98V83H417.837V65.98H421.057ZM423.41 76.583C423.41 75.295 423.663 74.1527 424.169 73.156C424.69 72.1593 425.388 71.3927 426.262 70.856C427.151 70.3193 428.14 70.051 429.229 70.051C430.18 70.051 431.008 70.2427 431.713 70.626C432.434 71.0093 433.009 71.4923 433.438 72.075V70.258H436.681V83H433.438V81.137C433.024 81.735 432.449 82.2333 431.713 82.632C430.992 83.0153 430.157 83.207 429.206 83.207C428.133 83.207 427.151 82.931 426.262 82.379C425.388 81.827 424.69 81.0527 424.169 80.056C423.663 79.044 423.41 77.8863 423.41 76.583ZM433.438 76.629C433.438 75.847 433.285 75.18 432.978 74.628C432.671 74.0607 432.257 73.6313 431.736 73.34C431.215 73.0333 430.655 72.88 430.057 72.88C429.459 72.88 428.907 73.0257 428.401 73.317C427.895 73.6083 427.481 74.0377 427.159 74.605C426.852 75.157 426.699 75.8163 426.699 76.583C426.699 77.3497 426.852 78.0243 427.159 78.607C427.481 79.1743 427.895 79.6113 428.401 79.918C428.922 80.2247 429.474 80.378 430.057 80.378C430.655 80.378 431.215 80.2323 431.736 79.941C432.257 79.6343 432.671 79.205 432.978 78.653C433.285 78.0857 433.438 77.411 433.438 76.629ZM444.817 70.051C445.767 70.051 446.603 70.2427 447.324 70.626C448.044 70.994 448.612 71.477 449.026 72.075V70.258H452.269V83.092C452.269 84.2727 452.031 85.323 451.556 86.243C451.08 87.1783 450.367 87.9143 449.417 88.451C448.466 89.003 447.316 89.279 445.967 89.279C444.157 89.279 442.67 88.8573 441.505 88.014C440.355 87.1707 439.703 86.0207 439.55 84.564H442.747C442.915 85.1467 443.276 85.6067 443.828 85.944C444.395 86.2967 445.077 86.473 445.875 86.473C446.81 86.473 447.569 86.1893 448.152 85.622C448.734 85.07 449.026 84.2267 449.026 83.092V81.114C448.612 81.712 448.037 82.2103 447.301 82.609C446.58 83.0077 445.752 83.207 444.817 83.207C443.743 83.207 442.762 82.931 441.873 82.379C440.983 81.827 440.278 81.0527 439.757 80.056C439.251 79.044 438.998 77.8863 438.998 76.583C438.998 75.295 439.251 74.1527 439.757 73.156C440.278 72.1593 440.976 71.3927 441.85 70.856C442.739 70.3193 443.728 70.051 444.817 70.051ZM449.026 76.629C449.026 75.847 448.872 75.18 448.566 74.628C448.259 74.0607 447.845 73.6313 447.324 73.34C446.802 73.0333 446.243 72.88 445.645 72.88C445.047 72.88 444.495 73.0257 443.989 73.317C443.483 73.6083 443.069 74.0377 442.747 74.605C442.44 75.157 442.287 75.8163 442.287 76.583C442.287 77.3497 442.44 78.0243 442.747 78.607C443.069 79.1743 443.483 79.6113 443.989 79.918C444.51 80.2247 445.062 80.378 445.645 80.378C446.243 80.378 446.802 80.2323 447.324 79.941C447.845 79.6343 448.259 79.205 448.566 78.653C448.872 78.0857 449.026 77.411 449.026 76.629ZM457.047 68.74C456.479 68.74 456.004 68.5637 455.621 68.211C455.253 67.843 455.069 67.3907 455.069 66.854C455.069 66.3173 455.253 65.8727 455.621 65.52C456.004 65.152 456.479 64.968 457.047 64.968C457.614 64.968 458.082 65.152 458.45 65.52C458.833 65.8727 459.025 66.3173 459.025 66.854C459.025 67.3907 458.833 67.843 458.45 68.211C458.082 68.5637 457.614 68.74 457.047 68.74ZM458.634 70.258V83H455.414V70.258H458.634Z" fill="#EA8D45" fill-opacity="0.7"/>
<path fill-rule="evenodd" clip-rule="evenodd" d="M671.181 13.0213C675.049 12.5931 678.952 12.5931 682.819 13.0213C684.96 13.2613 686.688 14.9476 686.939 17.0963C687.397 21.0188 687.397 24.9813 686.939 28.9038C686.688 31.0526 684.96 32.7388 682.819 32.9788C678.952 33.407 675.049 33.407 671.181 32.9788C669.04 32.7388 667.313 31.0526 667.061 28.9038C666.603 24.9818 666.603 21.0197 667.061 17.0976C667.188 16.0537 667.664 15.0833 668.412 14.3436C669.16 13.604 670.135 13.1385 671.18 13.0226M672.588 18.5876C672.763 18.412 673.002 18.3134 673.25 18.3134C673.499 18.3134 673.737 18.412 673.913 18.5876L677 21.6751L680.088 18.5876C680.173 18.4955 680.277 18.4216 680.392 18.3704C680.507 18.3191 680.631 18.2916 680.757 18.2893C680.883 18.2871 681.008 18.3103 681.125 18.3574C681.241 18.4046 681.347 18.4748 681.436 18.5638C681.525 18.6528 681.596 18.7589 681.643 18.8756C681.69 18.9923 681.713 19.1174 681.711 19.2432C681.709 19.3691 681.681 19.4933 681.63 19.6083C681.579 19.7233 681.505 19.8268 681.413 19.9126L678.325 23.0001L681.413 26.0876C681.578 26.2653 681.668 26.5004 681.664 26.7432C681.66 26.9861 681.561 27.2178 681.39 27.3896C681.218 27.5614 680.986 27.6598 680.743 27.6641C680.5 27.6683 680.265 27.5782 680.088 27.4126L677 24.3251L673.913 27.4126C673.827 27.5047 673.723 27.5786 673.608 27.6298C673.493 27.6811 673.369 27.7086 673.243 27.7108C673.117 27.713 672.992 27.6899 672.876 27.6427C672.759 27.5956 672.653 27.5254 672.564 27.4364C672.475 27.3474 672.405 27.2413 672.358 27.1246C672.31 27.0079 672.287 26.8828 672.289 26.7569C672.292 26.6311 672.319 26.5069 672.37 26.3919C672.422 26.2769 672.496 26.1734 672.588 26.0876L675.675 23.0001L672.588 19.9126C672.412 19.7368 672.313 19.4985 672.313 19.2501C672.313 19.0017 672.412 18.7634 672.588 18.5876Z" fill="#B9B9B9"/>
</g>
<defs>
<filter id="filter0_d_132_271" x="0" y="0" width="706.097" height="125.134" filterUnits="userSpaceOnUse" color-interpolation-filters="sRGB">
<feFlood flood-opacity="0" result="BackgroundImageFix"/>
<feColorMatrix in="SourceAlpha" type="matrix" values="0 0 0 0 0 0 0 0 0 0 0 0 0 0 0 0 0 0 127 0" result="hardAlpha"/>
<feOffset dy="4"/>
<feGaussianBlur stdDeviation="2"/>
<feComposite in2="hardAlpha" operator="out"/>
<feColorMatrix type="matrix" values="0 0 0 0 0 0 0 0 0 0 0 0 0 0 0 0 0 0 0.25 0"/>
<feBlend mode="normal" in2="BackgroundImageFix" result="effect1_dropShadow_132_271"/>
<feBlend mode="normal" in="SourceGraphic" in2="effect1_dropShadow_132_271" result="shape"/>
</filter>
</defs>
</svg>
