<svg width="707" height="126" viewBox="0 0 707 126" fill="none" xmlns="http://www.w3.org/2000/svg">
<g filter="url(#filter0_d_132_245)">
<path d="M4.5 10C4.5 4.75329 8.75329 0.5 14 0.5H692C697.247 0.5 701.5 4.75329 701.5 10V107C701.5 112.247 697.247 116.5 692 116.5H14C8.75328 116.5 4.5 112.247 4.5 107V10Z" fill="white" stroke="#EA8D45"/>
<rect x="57.946" y="93.707" width="50" height="50" transform="rotate(179.846 57.946 93.707)" fill="#EA8D45"/>
<rect x="92.8303" y="50.613" width="50" height="50" transform="rotate(179.846 92.8303 50.613)" fill="#EA8D45"/>
<rect x="134.097" y="75.9999" width="50" height="36" transform="rotate(179.846 134.097 75.9999)" fill="#EA8D45" fill-opacity="0.5"/>
<rect x="652.134" y="108" width="50" height="50" transform="rotate(179.846 652.134 108)" fill="#EA8D45"/>
<rect x="702.097" y="117" width="50" height="36" transform="rotate(179.846 702.097 117)" fill="#EA8D45" fill-opacity="0.5"/>
<path d="M229.776 48L223.934 40.847V48H220.714V31.946H223.934V39.145L229.776 31.946H233.663L227.039 39.904L233.847 48H229.776ZM235.137 41.583C235.137 40.295 235.39 39.1527 235.896 38.156C236.417 37.1593 237.115 36.3927 237.989 35.856C238.878 35.3193 239.867 35.051 240.956 35.051C241.907 35.051 242.735 35.2427 243.44 35.626C244.161 36.0093 244.736 36.4923 245.165 37.075V35.258H248.408V48H245.165V46.137C244.751 46.735 244.176 47.2333 243.44 47.632C242.719 48.0153 241.884 48.207 240.933 48.207C239.86 48.207 238.878 47.931 237.989 47.379C237.115 46.827 236.417 46.0527 235.896 45.056C235.39 44.044 235.137 42.8863 235.137 41.583ZM245.165 41.629C245.165 40.847 245.012 40.18 244.705 39.628C244.398 39.0607 243.984 38.6313 243.463 38.34C242.942 38.0333 242.382 37.88 241.784 37.88C241.186 37.88 240.634 38.0257 240.128 38.317C239.622 38.6083 239.208 39.0377 238.886 39.605C238.579 40.157 238.426 40.8163 238.426 41.583C238.426 42.3497 238.579 43.0243 238.886 43.607C239.208 44.1743 239.622 44.6113 240.128 44.918C240.649 45.2247 241.201 45.378 241.784 45.378C242.382 45.378 242.942 45.2323 243.463 44.941C243.984 44.6343 244.398 44.205 244.705 43.653C245.012 43.0857 245.165 42.411 245.165 41.629ZM255.302 37.903V44.067C255.302 44.4963 255.401 44.8107 255.601 45.01C255.815 45.194 256.168 45.286 256.659 45.286H258.154V48H256.13C253.416 48 252.059 46.6813 252.059 44.044V37.903H250.541V35.258H252.059V32.107H255.302V35.258H258.154V37.903H255.302ZM259.642 41.583C259.642 40.295 259.895 39.1527 260.401 38.156C260.922 37.1593 261.62 36.3927 262.494 35.856C263.383 35.3193 264.372 35.051 265.461 35.051C266.411 35.051 267.239 35.2427 267.945 35.626C268.665 36.0093 269.24 36.4923 269.67 37.075V35.258H272.913V48H269.67V46.137C269.256 46.735 268.681 47.2333 267.945 47.632C267.224 48.0153 266.388 48.207 265.438 48.207C264.364 48.207 263.383 47.931 262.494 47.379C261.62 46.827 260.922 46.0527 260.401 45.056C259.895 44.044 259.642 42.8863 259.642 41.583ZM269.67 41.629C269.67 40.847 269.516 40.18 269.21 39.628C268.903 39.0607 268.489 38.6313 267.968 38.34C267.446 38.0333 266.887 37.88 266.289 37.88C265.691 37.88 265.139 38.0257 264.633 38.317C264.127 38.6083 263.713 39.0377 263.391 39.605C263.084 40.157 262.931 40.8163 262.931 41.583C262.931 42.3497 263.084 43.0243 263.391 43.607C263.713 44.1743 264.127 44.6113 264.633 44.918C265.154 45.2247 265.706 45.378 266.289 45.378C266.887 45.378 267.446 45.2323 267.968 44.941C268.489 44.6343 268.903 44.205 269.21 43.653C269.516 43.0857 269.67 42.411 269.67 41.629ZM287.081 48.161C285.962 48.161 284.95 47.9693 284.045 47.586C283.156 47.2027 282.451 46.6507 281.929 45.93C281.408 45.2093 281.14 44.3583 281.124 43.377H284.574C284.62 44.0363 284.85 44.5577 285.264 44.941C285.694 45.3243 286.276 45.516 287.012 45.516C287.764 45.516 288.354 45.3397 288.783 44.987C289.213 44.619 289.427 44.1437 289.427 43.561C289.427 43.0857 289.282 42.6947 288.99 42.388C288.699 42.0813 288.331 41.8437 287.886 41.675C287.457 41.491 286.859 41.2917 286.092 41.077C285.05 40.7703 284.199 40.4713 283.539 40.18C282.895 39.8733 282.336 39.421 281.86 38.823C281.4 38.2097 281.17 37.397 281.17 36.385C281.17 35.4343 281.408 34.6063 281.883 33.901C282.359 33.1957 283.026 32.659 283.884 32.291C284.743 31.9077 285.724 31.716 286.828 31.716C288.484 31.716 289.826 32.1223 290.853 32.935C291.896 33.7323 292.471 34.8517 292.578 36.293H289.036C289.006 35.741 288.768 35.2887 288.323 34.936C287.894 34.568 287.319 34.384 286.598 34.384C285.97 34.384 285.464 34.545 285.08 34.867C284.712 35.189 284.528 35.6567 284.528 36.27C284.528 36.6993 284.666 37.0597 284.942 37.351C285.234 37.627 285.586 37.857 286 38.041C286.43 38.2097 287.028 38.409 287.794 38.639C288.837 38.9457 289.688 39.2523 290.347 39.559C291.007 39.8657 291.574 40.3257 292.049 40.939C292.525 41.5523 292.762 42.3573 292.762 43.354C292.762 44.2127 292.54 45.01 292.095 45.746C291.651 46.482 290.999 47.0723 290.14 47.517C289.282 47.9463 288.262 48.161 287.081 48.161ZM294.726 41.583C294.726 40.295 294.979 39.1527 295.485 38.156C296.006 37.1593 296.704 36.3927 297.578 35.856C298.467 35.3193 299.456 35.051 300.545 35.051C301.495 35.051 302.323 35.2427 303.029 35.626C303.749 36.0093 304.324 36.4923 304.754 37.075V35.258H307.997V48H304.754V46.137C304.34 46.735 303.765 47.2333 303.029 47.632C302.308 48.0153 301.472 48.207 300.522 48.207C299.448 48.207 298.467 47.931 297.578 47.379C296.704 46.827 296.006 46.0527 295.485 45.056C294.979 44.044 294.726 42.8863 294.726 41.583ZM304.754 41.629C304.754 40.847 304.6 40.18 304.294 39.628C303.987 39.0607 303.573 38.6313 303.052 38.34C302.53 38.0333 301.971 37.88 301.373 37.88C300.775 37.88 300.223 38.0257 299.717 38.317C299.211 38.6083 298.797 39.0377 298.475 39.605C298.168 40.157 298.015 40.8163 298.015 41.583C298.015 42.3497 298.168 43.0243 298.475 43.607C298.797 44.1743 299.211 44.6113 299.717 44.918C300.238 45.2247 300.79 45.378 301.373 45.378C301.971 45.378 302.53 45.2323 303.052 44.941C303.573 44.6343 303.987 44.205 304.294 43.653C304.6 43.0857 304.754 42.411 304.754 41.629ZM318.203 35.074C319.721 35.074 320.947 35.557 321.883 36.523C322.818 37.4737 323.286 38.8077 323.286 40.525V48H320.066V40.962C320.066 39.95 319.813 39.1757 319.307 38.639C318.801 38.087 318.111 37.811 317.237 37.811C316.347 37.811 315.642 38.087 315.121 38.639C314.615 39.1757 314.362 39.95 314.362 40.962V48H311.142V35.258H314.362V36.845C314.791 36.293 315.335 35.8637 315.995 35.557C316.669 35.235 317.405 35.074 318.203 35.074ZM325.52 41.583C325.52 40.295 325.773 39.1527 326.279 38.156C326.8 37.1593 327.505 36.3927 328.395 35.856C329.284 35.3193 330.273 35.051 331.362 35.051C332.19 35.051 332.979 35.235 333.731 35.603C334.482 35.9557 335.08 36.431 335.525 37.029V30.98H338.791V48H335.525V46.114C335.126 46.7427 334.566 47.2487 333.846 47.632C333.125 48.0153 332.289 48.207 331.339 48.207C330.265 48.207 329.284 47.931 328.395 47.379C327.505 46.827 326.8 46.0527 326.279 45.056C325.773 44.044 325.52 42.8863 325.52 41.583ZM335.548 41.629C335.548 40.847 335.394 40.18 335.088 39.628C334.781 39.0607 334.367 38.6313 333.846 38.34C333.324 38.0333 332.765 37.88 332.167 37.88C331.569 37.88 331.017 38.0257 330.511 38.317C330.005 38.6083 329.591 39.0377 329.269 39.605C328.962 40.157 328.809 40.8163 328.809 41.583C328.809 42.3497 328.962 43.0243 329.269 43.607C329.591 44.1743 330.005 44.6113 330.511 44.918C331.032 45.2247 331.584 45.378 332.167 45.378C332.765 45.378 333.324 45.2323 333.846 44.941C334.367 44.6343 334.781 44.205 335.088 43.653C335.394 43.0857 335.548 42.411 335.548 41.629ZM343.569 33.74C343.001 33.74 342.526 33.5637 342.143 33.211C341.775 32.843 341.591 32.3907 341.591 31.854C341.591 31.3173 341.775 30.8727 342.143 30.52C342.526 30.152 343.001 29.968 343.569 29.968C344.136 29.968 344.604 30.152 344.972 30.52C345.355 30.8727 345.547 31.3173 345.547 31.854C345.547 32.3907 345.355 32.843 344.972 33.211C344.604 33.5637 344.136 33.74 343.569 33.74ZM345.156 35.258V48H341.936V35.258H345.156ZM363.661 44.941H357.267L356.209 48H352.828L358.601 31.923H362.35L368.123 48H364.719L363.661 44.941ZM362.787 42.365L360.464 35.649L358.141 42.365H362.787ZM377.342 35.074C378.86 35.074 380.087 35.557 381.022 36.523C381.958 37.4737 382.425 38.8077 382.425 40.525V48H379.205V40.962C379.205 39.95 378.952 39.1757 378.446 38.639C377.94 38.087 377.25 37.811 376.376 37.811C375.487 37.811 374.782 38.087 374.26 38.639C373.754 39.1757 373.501 39.95 373.501 40.962V48H370.281V35.258H373.501V36.845C373.931 36.293 374.475 35.8637 375.134 35.557C375.809 35.235 376.545 35.074 377.342 35.074ZM384.659 41.583C384.659 40.295 384.912 39.1527 385.418 38.156C385.94 37.1593 386.645 36.3927 387.534 35.856C388.424 35.3193 389.413 35.051 390.501 35.051C391.329 35.051 392.119 35.235 392.87 35.603C393.622 35.9557 394.22 36.431 394.664 37.029V30.98H397.93V48H394.664V46.114C394.266 46.7427 393.706 47.2487 392.985 47.632C392.265 48.0153 391.429 48.207 390.478 48.207C389.405 48.207 388.424 47.931 387.534 47.379C386.645 46.827 385.94 46.0527 385.418 45.056C384.912 44.044 384.659 42.8863 384.659 41.583ZM394.687 41.629C394.687 40.847 394.534 40.18 394.227 39.628C393.921 39.0607 393.507 38.6313 392.985 38.34C392.464 38.0333 391.904 37.88 391.306 37.88C390.708 37.88 390.156 38.0257 389.65 38.317C389.144 38.6083 388.73 39.0377 388.408 39.605C388.102 40.157 387.948 40.8163 387.948 41.583C387.948 42.3497 388.102 43.0243 388.408 43.607C388.73 44.1743 389.144 44.6113 389.65 44.918C390.172 45.2247 390.724 45.378 391.306 45.378C391.904 45.378 392.464 45.2323 392.985 44.941C393.507 44.6343 393.921 44.205 394.227 43.653C394.534 43.0857 394.687 42.411 394.687 41.629ZM400.247 41.583C400.247 40.295 400.5 39.1527 401.006 38.156C401.528 37.1593 402.225 36.3927 403.099 35.856C403.989 35.3193 404.978 35.051 406.066 35.051C407.017 35.051 407.845 35.2427 408.55 35.626C409.271 36.0093 409.846 36.4923 410.275 37.075V35.258H413.518V48H410.275V46.137C409.861 46.735 409.286 47.2333 408.55 47.632C407.83 48.0153 406.994 48.207 406.043 48.207C404.97 48.207 403.989 47.931 403.099 47.379C402.225 46.827 401.528 46.0527 401.006 45.056C400.5 44.044 400.247 42.8863 400.247 41.583ZM410.275 41.629C410.275 40.847 410.122 40.18 409.815 39.628C409.509 39.0607 409.095 38.6313 408.573 38.34C408.052 38.0333 407.492 37.88 406.894 37.88C406.296 37.88 405.744 38.0257 405.238 38.317C404.732 38.6083 404.318 39.0377 403.996 39.605C403.69 40.157 403.536 40.8163 403.536 41.583C403.536 42.3497 403.69 43.0243 403.996 43.607C404.318 44.1743 404.732 44.6113 405.238 44.918C405.76 45.2247 406.312 45.378 406.894 45.378C407.492 45.378 408.052 45.2323 408.573 44.941C409.095 44.6343 409.509 44.205 409.815 43.653C410.122 43.0857 410.275 42.411 410.275 41.629Z" fill="#EA8D45"/>
<path d="M427.02 48.207C425.977 48.207 425.042 48.023 424.214 47.655C423.386 47.2717 422.726 46.758 422.236 46.114C421.76 45.47 421.5 44.757 421.454 43.975H424.697C424.758 44.4657 424.996 44.872 425.41 45.194C425.839 45.516 426.368 45.677 426.997 45.677C427.61 45.677 428.085 45.5543 428.423 45.309C428.775 45.0637 428.952 44.7493 428.952 44.366C428.952 43.952 428.737 43.6453 428.308 43.446C427.894 43.2313 427.227 43.0013 426.307 42.756C425.356 42.526 424.574 42.2883 423.961 42.043C423.363 41.7977 422.841 41.422 422.397 40.916C421.967 40.41 421.753 39.7277 421.753 38.869C421.753 38.1637 421.952 37.5197 422.351 36.937C422.765 36.3543 423.347 35.8943 424.099 35.557C424.865 35.2197 425.762 35.051 426.79 35.051C428.308 35.051 429.519 35.4343 430.424 36.201C431.328 36.9523 431.827 37.972 431.919 39.26H428.837C428.791 38.754 428.576 38.3553 428.193 38.064C427.825 37.7573 427.326 37.604 426.698 37.604C426.115 37.604 425.663 37.7113 425.341 37.926C425.034 38.1407 424.881 38.4397 424.881 38.823C424.881 39.2523 425.095 39.582 425.525 39.812C425.954 40.0267 426.621 40.249 427.526 40.479C428.446 40.709 429.205 40.9467 429.803 41.192C430.401 41.4373 430.914 41.8207 431.344 42.342C431.788 42.848 432.018 43.5227 432.034 44.366C432.034 45.102 431.827 45.7613 431.413 46.344C431.014 46.9267 430.431 47.3867 429.665 47.724C428.913 48.046 428.032 48.207 427.02 48.207ZM433.849 41.583C433.849 40.295 434.102 39.1527 434.608 38.156C435.129 37.1593 435.827 36.3927 436.701 35.856C437.59 35.3193 438.579 35.051 439.668 35.051C440.619 35.051 441.447 35.2427 442.152 35.626C442.873 36.0093 443.448 36.4923 443.877 37.075V35.258H447.12V48H443.877V46.137C443.463 46.735 442.888 47.2333 442.152 47.632C441.431 48.0153 440.596 48.207 439.645 48.207C438.572 48.207 437.59 47.931 436.701 47.379C435.827 46.827 435.129 46.0527 434.608 45.056C434.102 44.044 433.849 42.8863 433.849 41.583ZM443.877 41.629C443.877 40.847 443.724 40.18 443.417 39.628C443.11 39.0607 442.696 38.6313 442.175 38.34C441.654 38.0333 441.094 37.88 440.496 37.88C439.898 37.88 439.346 38.0257 438.84 38.317C438.334 38.6083 437.92 39.0377 437.598 39.605C437.291 40.157 437.138 40.8163 437.138 41.583C437.138 42.3497 437.291 43.0243 437.598 43.607C437.92 44.1743 438.334 44.6113 438.84 44.918C439.361 45.2247 439.913 45.378 440.496 45.378C441.094 45.378 441.654 45.2323 442.175 44.941C442.696 44.6343 443.11 44.205 443.417 43.653C443.724 43.0857 443.877 42.411 443.877 41.629ZM453.485 30.98V48H450.265V30.98H453.485ZM455.838 41.583C455.838 40.295 456.091 39.1527 456.597 38.156C457.118 37.1593 457.816 36.3927 458.69 35.856C459.579 35.3193 460.568 35.051 461.657 35.051C462.608 35.051 463.436 35.2427 464.141 35.626C464.862 36.0093 465.437 36.4923 465.866 37.075V35.258H469.109V48H465.866V46.137C465.452 46.735 464.877 47.2333 464.141 47.632C463.42 48.0153 462.585 48.207 461.634 48.207C460.561 48.207 459.579 47.931 458.69 47.379C457.816 46.827 457.118 46.0527 456.597 45.056C456.091 44.044 455.838 42.8863 455.838 41.583ZM465.866 41.629C465.866 40.847 465.713 40.18 465.406 39.628C465.099 39.0607 464.685 38.6313 464.164 38.34C463.643 38.0333 463.083 37.88 462.485 37.88C461.887 37.88 461.335 38.0257 460.829 38.317C460.323 38.6083 459.909 39.0377 459.587 39.605C459.28 40.157 459.127 40.8163 459.127 41.583C459.127 42.3497 459.28 43.0243 459.587 43.607C459.909 44.1743 460.323 44.6113 460.829 44.918C461.35 45.2247 461.902 45.378 462.485 45.378C463.083 45.378 463.643 45.2323 464.164 44.941C464.685 44.6343 465.099 44.205 465.406 43.653C465.713 43.0857 465.866 42.411 465.866 41.629ZM479.43 35.074C480.396 35.074 481.255 35.2887 482.006 35.718C482.757 36.132 483.34 36.753 483.754 37.581C484.183 38.3937 484.398 39.375 484.398 40.525V48H481.178V40.962C481.178 39.95 480.925 39.1757 480.419 38.639C479.913 38.087 479.223 37.811 478.349 37.811C477.46 37.811 476.754 38.087 476.233 38.639C475.727 39.1757 475.474 39.95 475.474 40.962V48H472.254V30.98H475.474V36.845C475.888 36.293 476.44 35.8637 477.13 35.557C477.82 35.235 478.587 35.074 479.43 35.074Z" fill="#999999"/>
<path d="M251.402 83.161C250.283 83.161 249.271 82.9693 248.366 82.586C247.477 82.2027 246.771 81.6507 246.25 80.93C245.729 80.2093 245.46 79.3583 245.445 78.377H248.895C248.941 79.0363 249.171 79.5577 249.585 79.941C250.014 80.3243 250.597 80.516 251.333 80.516C252.084 80.516 252.675 80.3397 253.104 79.987C253.533 79.619 253.748 79.1437 253.748 78.561C253.748 78.0857 253.602 77.6947 253.311 77.388C253.02 77.0813 252.652 76.8437 252.207 76.675C251.778 76.491 251.18 76.2917 250.413 76.077C249.37 75.7703 248.519 75.4713 247.86 75.18C247.216 74.8733 246.656 74.421 246.181 73.823C245.721 73.2097 245.491 72.397 245.491 71.385C245.491 70.4343 245.729 69.6063 246.204 68.901C246.679 68.1957 247.346 67.659 248.205 67.291C249.064 66.9077 250.045 66.716 251.149 66.716C252.805 66.716 254.147 67.1223 255.174 67.935C256.217 68.7323 256.792 69.8517 256.899 71.293H253.357C253.326 70.741 253.089 70.2887 252.644 69.936C252.215 69.568 251.64 69.384 250.919 69.384C250.29 69.384 249.784 69.545 249.401 69.867C249.033 70.189 248.849 70.6567 248.849 71.27C248.849 71.6993 248.987 72.0597 249.263 72.351C249.554 72.627 249.907 72.857 250.321 73.041C250.75 73.2097 251.348 73.409 252.115 73.639C253.158 73.9457 254.009 74.2523 254.668 74.559C255.327 74.8657 255.895 75.3257 256.37 75.939C256.845 76.5523 257.083 77.3573 257.083 78.354C257.083 79.2127 256.861 80.01 256.416 80.746C255.971 81.482 255.32 82.0723 254.461 82.517C253.602 82.9463 252.583 83.161 251.402 83.161ZM261.508 68.74C260.94 68.74 260.465 68.5637 260.082 68.211C259.714 67.843 259.53 67.3907 259.53 66.854C259.53 66.3173 259.714 65.8727 260.082 65.52C260.465 65.152 260.94 64.968 261.508 64.968C262.075 64.968 262.543 65.152 262.911 65.52C263.294 65.8727 263.486 66.3173 263.486 66.854C263.486 67.3907 263.294 67.843 262.911 68.211C262.543 68.5637 262.075 68.74 261.508 68.74ZM263.095 70.258V83H259.875V70.258H263.095ZM269.496 65.98V83H266.276V65.98H269.496ZM271.849 76.583C271.849 75.295 272.102 74.1527 272.608 73.156C273.13 72.1593 273.827 71.3927 274.701 70.856C275.591 70.3193 276.58 70.051 277.668 70.051C278.619 70.051 279.447 70.2427 280.152 70.626C280.873 71.0093 281.448 71.4923 281.877 72.075V70.258H285.12V83H281.877V81.137C281.463 81.735 280.888 82.2333 280.152 82.632C279.432 83.0153 278.596 83.207 277.645 83.207C276.572 83.207 275.591 82.931 274.701 82.379C273.827 81.827 273.13 81.0527 272.608 80.056C272.102 79.044 271.849 77.8863 271.849 76.583ZM281.877 76.629C281.877 75.847 281.724 75.18 281.417 74.628C281.111 74.0607 280.697 73.6313 280.175 73.34C279.654 73.0333 279.094 72.88 278.496 72.88C277.898 72.88 277.346 73.0257 276.84 73.317C276.334 73.6083 275.92 74.0377 275.598 74.605C275.292 75.157 275.138 75.8163 275.138 76.583C275.138 77.3497 275.292 78.0243 275.598 78.607C275.92 79.1743 276.334 79.6113 276.84 79.918C277.362 80.2247 277.914 80.378 278.496 80.378C279.094 80.378 279.654 80.2323 280.175 79.941C280.697 79.6343 281.111 79.205 281.417 78.653C281.724 78.0857 281.877 77.411 281.877 76.629ZM295.441 70.074C296.407 70.074 297.266 70.2887 298.017 70.718C298.769 71.132 299.351 71.753 299.765 72.581C300.195 73.3937 300.409 74.375 300.409 75.525V83H297.189V75.962C297.189 74.95 296.936 74.1757 296.43 73.639C295.924 73.087 295.234 72.811 294.36 72.811C293.471 72.811 292.766 73.087 292.244 73.639C291.738 74.1757 291.485 74.95 291.485 75.962V83H288.265V65.98H291.485V71.845C291.899 71.293 292.451 70.8637 293.141 70.557C293.831 70.235 294.598 70.074 295.441 70.074ZM311.015 83L306.691 77.572V83H303.471V65.98H306.691V75.663L310.969 70.258H315.155L309.543 76.652L315.201 83H311.015ZM316.075 76.583C316.075 75.295 316.328 74.1527 316.834 73.156C317.355 72.1593 318.053 71.3927 318.927 70.856C319.816 70.3193 320.805 70.051 321.894 70.051C322.845 70.051 323.673 70.2427 324.378 70.626C325.099 71.0093 325.674 71.4923 326.103 72.075V70.258H329.346V83H326.103V81.137C325.689 81.735 325.114 82.2333 324.378 82.632C323.657 83.0153 322.822 83.207 321.871 83.207C320.798 83.207 319.816 82.931 318.927 82.379C318.053 81.827 317.355 81.0527 316.834 80.056C316.328 79.044 316.075 77.8863 316.075 76.583ZM326.103 76.629C326.103 75.847 325.95 75.18 325.643 74.628C325.336 74.0607 324.922 73.6313 324.401 73.34C323.88 73.0333 323.32 72.88 322.722 72.88C322.124 72.88 321.572 73.0257 321.066 73.317C320.56 73.6083 320.146 74.0377 319.824 74.605C319.517 75.157 319.364 75.8163 319.364 76.583C319.364 77.3497 319.517 78.0243 319.824 78.607C320.146 79.1743 320.56 79.6113 321.066 79.918C321.587 80.2247 322.139 80.378 322.722 80.378C323.32 80.378 323.88 80.2323 324.401 79.941C324.922 79.6343 325.336 79.205 325.643 78.653C325.95 78.0857 326.103 77.411 326.103 76.629ZM339.552 70.074C341.07 70.074 342.296 70.557 343.232 71.523C344.167 72.4737 344.635 73.8077 344.635 75.525V83H341.415V75.962C341.415 74.95 341.162 74.1757 340.656 73.639C340.15 73.087 339.46 72.811 338.586 72.811C337.696 72.811 336.991 73.087 336.47 73.639C335.964 74.1757 335.711 74.95 335.711 75.962V83H332.491V70.258H335.711V71.845C336.14 71.293 336.684 70.8637 337.344 70.557C338.018 70.235 338.754 70.074 339.552 70.074ZM352.349 76.629C352.349 75.3103 352.618 74.1603 353.154 73.179C353.691 72.1823 354.435 71.4157 355.385 70.879C356.336 70.327 357.425 70.051 358.651 70.051C360.231 70.051 361.534 70.4497 362.561 71.247C363.604 72.029 364.302 73.133 364.654 74.559H361.181C360.997 74.007 360.683 73.5777 360.238 73.271C359.809 72.949 359.272 72.788 358.628 72.788C357.708 72.788 356.98 73.1253 356.443 73.8C355.907 74.4593 355.638 75.4023 355.638 76.629C355.638 77.8403 355.907 78.7833 356.443 79.458C356.98 80.1173 357.708 80.447 358.628 80.447C359.932 80.447 360.783 79.8643 361.181 78.699H364.654C364.302 80.079 363.604 81.1753 362.561 81.988C361.519 82.8007 360.215 83.207 358.651 83.207C357.425 83.207 356.336 82.9387 355.385 82.402C354.435 81.85 353.691 81.0833 353.154 80.102C352.618 79.1053 352.349 77.9477 352.349 76.629ZM372.671 83.207C371.445 83.207 370.341 82.9387 369.359 82.402C368.378 81.85 367.604 81.0757 367.036 80.079C366.484 79.0823 366.208 77.9323 366.208 76.629C366.208 75.3257 366.492 74.1757 367.059 73.179C367.642 72.1823 368.432 71.4157 369.428 70.879C370.425 70.327 371.537 70.051 372.763 70.051C373.99 70.051 375.102 70.327 376.098 70.879C377.095 71.4157 377.877 72.1823 378.444 73.179C379.027 74.1757 379.318 75.3257 379.318 76.629C379.318 77.9323 379.019 79.0823 378.421 80.079C377.839 81.0757 377.041 81.85 376.029 82.402C375.033 82.9387 373.913 83.207 372.671 83.207ZM372.671 80.401C373.254 80.401 373.798 80.263 374.304 79.987C374.826 79.6957 375.24 79.2663 375.546 78.699C375.853 78.1317 376.006 77.4417 376.006 76.629C376.006 75.4177 375.684 74.49 375.04 73.846C374.412 73.1867 373.637 72.857 372.717 72.857C371.797 72.857 371.023 73.1867 370.394 73.846C369.781 74.49 369.474 75.4177 369.474 76.629C369.474 77.8403 369.773 78.7757 370.371 79.435C370.985 80.079 371.751 80.401 372.671 80.401ZM384.9 72.121C385.314 71.5077 385.882 71.0093 386.602 70.626C387.338 70.2427 388.174 70.051 389.109 70.051C390.198 70.051 391.179 70.3193 392.053 70.856C392.943 71.3927 393.64 72.1593 394.146 73.156C394.668 74.1373 394.928 75.2797 394.928 76.583C394.928 77.8863 394.668 79.044 394.146 80.056C393.64 81.0527 392.943 81.827 392.053 82.379C391.179 82.931 390.198 83.207 389.109 83.207C388.159 83.207 387.323 83.023 386.602 82.655C385.897 82.2717 385.33 81.781 384.9 81.183V83H381.68V65.98H384.9V72.121ZM391.639 76.583C391.639 75.8163 391.478 75.157 391.156 74.605C390.85 74.0377 390.436 73.6083 389.914 73.317C389.408 73.0257 388.856 72.88 388.258 72.88C387.676 72.88 387.124 73.0333 386.602 73.34C386.096 73.6313 385.682 74.0607 385.36 74.628C385.054 75.1953 384.9 75.8623 384.9 76.629C384.9 77.3957 385.054 78.0627 385.36 78.63C385.682 79.1973 386.096 79.6343 386.602 79.941C387.124 80.2323 387.676 80.378 388.258 80.378C388.856 80.378 389.408 80.2247 389.914 79.918C390.436 79.6113 390.85 79.1743 391.156 78.607C391.478 78.0397 391.639 77.365 391.639 76.583ZM396.44 76.583C396.44 75.295 396.693 74.1527 397.199 73.156C397.72 72.1593 398.418 71.3927 399.292 70.856C400.181 70.3193 401.17 70.051 402.259 70.051C403.21 70.051 404.038 70.2427 404.743 70.626C405.464 71.0093 406.039 71.4923 406.468 72.075V70.258H409.711V83H406.468V81.137C406.054 81.735 405.479 82.2333 404.743 82.632C404.022 83.0153 403.187 83.207 402.236 83.207C401.163 83.207 400.181 82.931 399.292 82.379C398.418 81.827 397.72 81.0527 397.199 80.056C396.693 79.044 396.44 77.8863 396.44 76.583ZM406.468 76.629C406.468 75.847 406.315 75.18 406.008 74.628C405.701 74.0607 405.287 73.6313 404.766 73.34C404.245 73.0333 403.685 72.88 403.087 72.88C402.489 72.88 401.937 73.0257 401.431 73.317C400.925 73.6083 400.511 74.0377 400.189 74.605C399.882 75.157 399.729 75.8163 399.729 76.583C399.729 77.3497 399.882 78.0243 400.189 78.607C400.511 79.1743 400.925 79.6113 401.431 79.918C401.952 80.2247 402.504 80.378 403.087 80.378C403.685 80.378 404.245 80.2323 404.766 79.941C405.287 79.6343 405.701 79.205 406.008 78.653C406.315 78.0857 406.468 77.411 406.468 76.629ZM421.557 65.98V83H418.337V65.98H421.557ZM423.91 76.583C423.91 75.295 424.163 74.1527 424.669 73.156C425.19 72.1593 425.888 71.3927 426.762 70.856C427.651 70.3193 428.64 70.051 429.729 70.051C430.68 70.051 431.508 70.2427 432.213 70.626C432.934 71.0093 433.509 71.4923 433.938 72.075V70.258H437.181V83H433.938V81.137C433.524 81.735 432.949 82.2333 432.213 82.632C431.492 83.0153 430.657 83.207 429.706 83.207C428.633 83.207 427.651 82.931 426.762 82.379C425.888 81.827 425.19 81.0527 424.669 80.056C424.163 79.044 423.91 77.8863 423.91 76.583ZM433.938 76.629C433.938 75.847 433.785 75.18 433.478 74.628C433.171 74.0607 432.757 73.6313 432.236 73.34C431.715 73.0333 431.155 72.88 430.557 72.88C429.959 72.88 429.407 73.0257 428.901 73.317C428.395 73.6083 427.981 74.0377 427.659 74.605C427.352 75.157 427.199 75.8163 427.199 76.583C427.199 77.3497 427.352 78.0243 427.659 78.607C427.981 79.1743 428.395 79.6113 428.901 79.918C429.422 80.2247 429.974 80.378 430.557 80.378C431.155 80.378 431.715 80.2323 432.236 79.941C432.757 79.6343 433.171 79.205 433.478 78.653C433.785 78.0857 433.938 77.411 433.938 76.629ZM445.317 70.051C446.267 70.051 447.103 70.2427 447.824 70.626C448.544 70.994 449.112 71.477 449.526 72.075V70.258H452.769V83.092C452.769 84.2727 452.531 85.323 452.056 86.243C451.58 87.1783 450.867 87.9143 449.917 88.451C448.966 89.003 447.816 89.279 446.467 89.279C444.657 89.279 443.17 88.8573 442.005 88.014C440.855 87.1707 440.203 86.0207 440.05 84.564H443.247C443.415 85.1467 443.776 85.6067 444.328 85.944C444.895 86.2967 445.577 86.473 446.375 86.473C447.31 86.473 448.069 86.1893 448.652 85.622C449.234 85.07 449.526 84.2267 449.526 83.092V81.114C449.112 81.712 448.537 82.2103 447.801 82.609C447.08 83.0077 446.252 83.207 445.317 83.207C444.243 83.207 443.262 82.931 442.373 82.379C441.483 81.827 440.778 81.0527 440.257 80.056C439.751 79.044 439.498 77.8863 439.498 76.583C439.498 75.295 439.751 74.1527 440.257 73.156C440.778 72.1593 441.476 71.3927 442.35 70.856C443.239 70.3193 444.228 70.051 445.317 70.051ZM449.526 76.629C449.526 75.847 449.372 75.18 449.066 74.628C448.759 74.0607 448.345 73.6313 447.824 73.34C447.302 73.0333 446.743 72.88 446.145 72.88C445.547 72.88 444.995 73.0257 444.489 73.317C443.983 73.6083 443.569 74.0377 443.247 74.605C442.94 75.157 442.787 75.8163 442.787 76.583C442.787 77.3497 442.94 78.0243 443.247 78.607C443.569 79.1743 443.983 79.6113 444.489 79.918C445.01 80.2247 445.562 80.378 446.145 80.378C446.743 80.378 447.302 80.2323 447.824 79.941C448.345 79.6343 448.759 79.205 449.066 78.653C449.372 78.0857 449.526 77.411 449.526 76.629ZM457.547 68.74C456.979 68.74 456.504 68.5637 456.121 68.211C455.753 67.843 455.569 67.3907 455.569 66.854C455.569 66.3173 455.753 65.8727 456.121 65.52C456.504 65.152 456.979 64.968 457.547 64.968C458.114 64.968 458.582 65.152 458.95 65.52C459.333 65.8727 459.525 66.3173 459.525 66.854C459.525 67.3907 459.333 67.843 458.95 68.211C458.582 68.5637 458.114 68.74 457.547 68.74ZM459.134 70.258V83H455.914V70.258H459.134Z" fill="#EA8D45" fill-opacity="0.7"/>
<path fill-rule="evenodd" clip-rule="evenodd" d="M671.181 13.0213C675.049 12.5931 678.951 12.5931 682.819 13.0213C684.96 13.2613 686.687 14.9476 686.939 17.0963C687.397 21.0188 687.397 24.9813 686.939 28.9038C686.687 31.0526 684.96 32.7388 682.819 32.9788C678.951 33.407 675.049 33.407 671.181 32.9788C669.04 32.7388 667.312 31.0526 667.061 28.9038C666.603 24.9818 666.603 21.0197 667.061 17.0976C667.188 16.0537 667.664 15.0833 668.412 14.3436C669.159 13.604 670.135 13.1385 671.18 13.0226M672.587 18.5876C672.763 18.412 673.001 18.3134 673.25 18.3134C673.498 18.3134 673.737 18.412 673.912 18.5876L677 21.6751L680.087 18.5876C680.173 18.4955 680.277 18.4216 680.392 18.3704C680.507 18.3191 680.631 18.2916 680.757 18.2893C680.883 18.2871 681.008 18.3103 681.124 18.3574C681.241 18.4046 681.347 18.4748 681.436 18.5638C681.525 18.6528 681.595 18.7589 681.643 18.8756C681.69 18.9923 681.713 19.1174 681.711 19.2432C681.708 19.3691 681.681 19.4933 681.63 19.6083C681.578 19.7233 681.505 19.8268 681.412 19.9126L678.325 23.0001L681.412 26.0876C681.578 26.2653 681.668 26.5004 681.664 26.7432C681.66 26.9861 681.561 27.2178 681.389 27.3896C681.218 27.5614 680.986 27.6598 680.743 27.6641C680.5 27.6683 680.265 27.5782 680.087 27.4126L677 24.3251L673.912 27.4126C673.827 27.5047 673.723 27.5786 673.608 27.6298C673.493 27.6811 673.369 27.7086 673.243 27.7108C673.117 27.713 672.992 27.6899 672.875 27.6427C672.759 27.5956 672.653 27.5254 672.564 27.4364C672.475 27.3474 672.404 27.2413 672.357 27.1246C672.31 27.0079 672.287 26.8828 672.289 26.7569C672.291 26.6311 672.319 26.5069 672.37 26.3919C672.421 26.2769 672.495 26.1734 672.587 26.0876L675.675 23.0001L672.587 19.9126C672.412 19.7368 672.313 19.4985 672.313 19.2501C672.313 19.0017 672.412 18.7634 672.587 18.5876Z" fill="#B9B9B9"/>
</g>
<defs>
<filter id="filter0_d_132_245" x="0" y="0" width="706.097" height="125.134" filterUnits="userSpaceOnUse" color-interpolation-filters="sRGB">
<feFlood flood-opacity="0" result="BackgroundImageFix"/>
<feColorMatrix in="SourceAlpha" type="matrix" values="0 0 0 0 0 0 0 0 0 0 0 0 0 0 0 0 0 0 127 0" result="hardAlpha"/>
<feOffset dy="4"/>
<feGaussianBlur stdDeviation="2"/>
<feComposite in2="hardAlpha" operator="out"/>
<feColorMatrix type="matrix" values="0 0 0 0 0 0 0 0 0 0 0 0 0 0 0 0 0 0 0.25 0"/>
<feBlend mode="normal" in2="BackgroundImageFix" result="effect1_dropShadow_132_245"/>
<feBlend mode="normal" in="SourceGraphic" in2="effect1_dropShadow_132_245" result="shape"/>
</filter>
</defs>
</svg>
