<svg width="751" height="127" viewBox="0 0 751 127" fill="none" xmlns="http://www.w3.org/2000/svg">
<g filter="url(#filter0_d_132_325)">
<path d="M95.5 11C95.5 5.75329 99.7533 1.5 105 1.5H638C643.247 1.5 647.5 5.75329 647.5 11V108C647.5 113.247 643.247 117.5 638 117.5H105C99.7533 117.5 95.5 113.247 95.5 108V11Z" fill="white" stroke="#EA8D45"/>
<rect x="598.134" y="109.134" width="50" height="50" transform="rotate(179.846 598.134 109.134)" fill="#EA8D45"/>
<rect x="648.097" y="118.134" width="50" height="36" transform="rotate(179.846 648.097 118.134)" fill="#EA8D45" fill-opacity="0.5"/>
<rect x="146.135" y="50.1342" width="50" height="50" transform="rotate(179.846 146.135 50.1342)" fill="#EA8D45"/>
<rect x="196.113" y="65.231" width="50" height="42.0968" transform="rotate(179.846 196.113 65.231)" fill="#EA8D45" fill-opacity="0.5"/>
<path d="M270.593 37.04V45.68C270.593 46.6267 270.84 47.3533 271.333 47.86C271.826 48.3533 272.52 48.6 273.413 48.6C274.32 48.6 275.02 48.3533 275.513 47.86C276.006 47.3533 276.253 46.6267 276.253 45.68V37.04H279.073V45.66C279.073 46.8467 278.813 47.8533 278.293 48.68C277.786 49.4933 277.1 50.1067 276.233 50.52C275.38 50.9333 274.426 51.14 273.373 51.14C272.333 51.14 271.386 50.9333 270.533 50.52C269.693 50.1067 269.026 49.4933 268.533 48.68C268.04 47.8533 267.793 46.8467 267.793 45.66V37.04H270.593ZM284.578 41.52C284.938 41.0133 285.432 40.5933 286.058 40.26C286.698 39.9133 287.425 39.74 288.238 39.74C289.185 39.74 290.038 39.9733 290.798 40.44C291.572 40.9067 292.178 41.5733 292.618 42.44C293.072 43.2933 293.298 44.2867 293.298 45.42C293.298 46.5533 293.072 47.56 292.618 48.44C292.178 49.3067 291.572 49.98 290.798 50.46C290.038 50.94 289.185 51.18 288.238 51.18C287.425 51.18 286.705 51.0133 286.078 50.68C285.465 50.3467 284.965 49.9267 284.578 49.42V56.28H281.778V39.92H284.578V41.52ZM290.438 45.42C290.438 44.7533 290.298 44.18 290.018 43.7C289.752 43.2067 289.392 42.8333 288.938 42.58C288.498 42.3267 288.018 42.2 287.498 42.2C286.992 42.2 286.512 42.3333 286.058 42.6C285.618 42.8533 285.258 43.2267 284.978 43.72C284.712 44.2133 284.578 44.7933 284.578 45.46C284.578 46.1267 284.712 46.7067 284.978 47.2C285.258 47.6933 285.618 48.0733 286.058 48.34C286.512 48.5933 286.992 48.72 287.498 48.72C288.018 48.72 288.498 48.5867 288.938 48.32C289.392 48.0533 289.752 47.6733 290.018 47.18C290.298 46.6867 290.438 46.1 290.438 45.42ZM299.573 51.18C298.666 51.18 297.853 51.02 297.133 50.7C296.413 50.3667 295.84 49.92 295.413 49.36C295 48.8 294.773 48.18 294.733 47.5H297.553C297.606 47.9267 297.813 48.28 298.173 48.56C298.546 48.84 299.006 48.98 299.553 48.98C300.086 48.98 300.5 48.8733 300.793 48.66C301.1 48.4467 301.253 48.1733 301.253 47.84C301.253 47.48 301.066 47.2133 300.693 47.04C300.333 46.8533 299.753 46.6533 298.953 46.44C298.126 46.24 297.446 46.0333 296.913 45.82C296.393 45.6067 295.94 45.28 295.553 44.84C295.18 44.4 294.993 43.8067 294.993 43.06C294.993 42.4467 295.166 41.8867 295.513 41.38C295.873 40.8733 296.38 40.4733 297.033 40.18C297.7 39.8867 298.48 39.74 299.373 39.74C300.693 39.74 301.746 40.0733 302.533 40.74C303.32 41.3933 303.753 42.28 303.833 43.4H301.153C301.113 42.96 300.926 42.6133 300.593 42.36C300.273 42.0933 299.84 41.96 299.293 41.96C298.786 41.96 298.393 42.0533 298.113 42.24C297.846 42.4267 297.713 42.6867 297.713 43.02C297.713 43.3933 297.9 43.68 298.273 43.88C298.646 44.0667 299.226 44.26 300.013 44.46C300.813 44.66 301.473 44.8667 301.993 45.08C302.513 45.2933 302.96 45.6267 303.333 46.08C303.72 46.52 303.92 47.1067 303.933 47.84C303.933 48.48 303.753 49.0533 303.393 49.56C303.046 50.0667 302.54 50.4667 301.873 50.76C301.22 51.04 300.453 51.18 299.573 51.18ZM309.852 36.8L309.532 46.46H307.172L306.832 36.8H309.852ZM308.412 51.14C307.905 51.14 307.485 50.9867 307.152 50.68C306.832 50.36 306.672 49.9667 306.672 49.5C306.672 49.0333 306.832 48.6467 307.152 48.34C307.485 48.02 307.905 47.86 308.412 47.86C308.905 47.86 309.312 48.02 309.632 48.34C309.952 48.6467 310.112 49.0333 310.112 49.5C310.112 49.9667 309.952 50.36 309.632 50.68C309.312 50.9867 308.905 51.14 308.412 51.14ZM326.628 48.34H321.068L320.148 51H317.208L322.228 37.02H325.488L330.508 51H327.548L326.628 48.34ZM325.868 46.1L323.848 40.26L321.827 46.1H325.868ZM331.664 45.42C331.664 44.3 331.884 43.3067 332.324 42.44C332.777 41.5733 333.391 40.9067 334.164 40.44C334.937 39.9733 335.797 39.74 336.744 39.74C337.464 39.74 338.151 39.9 338.804 40.22C339.457 40.5267 339.977 40.94 340.364 41.46V36.2H343.204V51H340.364V49.36C340.017 49.9067 339.531 50.3467 338.904 50.68C338.277 51.0133 337.551 51.18 336.724 51.18C335.791 51.18 334.937 50.94 334.164 50.46C333.391 49.98 332.777 49.3067 332.324 48.44C331.884 47.56 331.664 46.5533 331.664 45.42ZM340.384 45.46C340.384 44.78 340.251 44.2 339.984 43.72C339.717 43.2267 339.357 42.8533 338.904 42.6C338.451 42.3333 337.964 42.2 337.444 42.2C336.924 42.2 336.444 42.3267 336.004 42.58C335.564 42.8333 335.204 43.2067 334.924 43.7C334.657 44.18 334.524 44.7533 334.524 45.42C334.524 46.0867 334.657 46.6733 334.924 47.18C335.204 47.6733 335.564 48.0533 336.004 48.32C336.457 48.5867 336.937 48.72 337.444 48.72C337.964 48.72 338.451 48.5933 338.904 48.34C339.357 48.0733 339.717 47.7 339.984 47.22C340.251 46.7267 340.384 46.14 340.384 45.46ZM345.219 45.42C345.219 44.3 345.439 43.3067 345.879 42.44C346.332 41.5733 346.939 40.9067 347.699 40.44C348.472 39.9733 349.332 39.74 350.279 39.74C351.105 39.74 351.825 39.9067 352.439 40.24C353.065 40.5733 353.565 40.9933 353.939 41.5V39.92H356.759V51H353.939V49.38C353.579 49.9 353.079 50.3333 352.439 50.68C351.812 51.0133 351.085 51.18 350.259 51.18C349.325 51.18 348.472 50.94 347.699 50.46C346.939 49.98 346.332 49.3067 345.879 48.44C345.439 47.56 345.219 46.5533 345.219 45.42ZM353.939 45.46C353.939 44.78 353.805 44.2 353.539 43.72C353.272 43.2267 352.912 42.8533 352.459 42.6C352.005 42.3333 351.519 42.2 350.999 42.2C350.479 42.2 349.999 42.3267 349.559 42.58C349.119 42.8333 348.759 43.2067 348.479 43.7C348.212 44.18 348.079 44.7533 348.079 45.42C348.079 46.0867 348.212 46.6733 348.479 47.18C348.759 47.6733 349.119 48.0533 349.559 48.32C350.012 48.5867 350.492 48.72 350.999 48.72C351.519 48.72 352.005 48.5933 352.459 48.34C352.912 48.0733 353.272 47.7 353.539 47.22C353.805 46.7267 353.939 46.14 353.939 45.46ZM370.819 51L367.059 46.28V51H364.259V36.2H367.059V44.62L370.779 39.92H374.419L369.539 45.48L374.459 51H370.819ZM386.239 45.22C386.239 45.62 386.212 45.98 386.159 46.3H378.059C378.125 47.1 378.405 47.7267 378.899 48.18C379.392 48.6333 379.999 48.86 380.719 48.86C381.759 48.86 382.499 48.4133 382.939 47.52H385.959C385.639 48.5867 385.025 49.4667 384.119 50.16C383.212 50.84 382.099 51.18 380.779 51.18C379.712 51.18 378.752 50.9467 377.899 50.48C377.059 50 376.399 49.3267 375.919 48.46C375.452 47.5933 375.219 46.5933 375.219 45.46C375.219 44.3133 375.452 43.3067 375.919 42.44C376.385 41.5733 377.039 40.9067 377.879 40.44C378.719 39.9733 379.685 39.74 380.779 39.74C381.832 39.74 382.772 39.9667 383.599 40.42C384.439 40.8733 385.085 41.52 385.539 42.36C386.005 43.1867 386.239 44.14 386.239 45.22ZM383.339 44.42C383.325 43.7 383.065 43.1267 382.559 42.7C382.052 42.26 381.432 42.04 380.699 42.04C380.005 42.04 379.419 42.2533 378.939 42.68C378.472 43.0933 378.185 43.6733 378.079 44.42H383.339ZM392.522 51.18C391.616 51.18 390.802 51.02 390.082 50.7C389.362 50.3667 388.789 49.92 388.362 49.36C387.949 48.8 387.722 48.18 387.682 47.5H390.502C390.556 47.9267 390.762 48.28 391.122 48.56C391.496 48.84 391.956 48.98 392.502 48.98C393.036 48.98 393.449 48.8733 393.742 48.66C394.049 48.4467 394.202 48.1733 394.202 47.84C394.202 47.48 394.016 47.2133 393.642 47.04C393.282 46.8533 392.702 46.6533 391.902 46.44C391.076 46.24 390.396 46.0333 389.862 45.82C389.342 45.6067 388.889 45.28 388.502 44.84C388.129 44.4 387.942 43.8067 387.942 43.06C387.942 42.4467 388.116 41.8867 388.462 41.38C388.822 40.8733 389.329 40.4733 389.982 40.18C390.649 39.8867 391.429 39.74 392.322 39.74C393.642 39.74 394.696 40.0733 395.482 40.74C396.269 41.3933 396.702 42.28 396.782 43.4H394.102C394.062 42.96 393.876 42.6133 393.542 42.36C393.222 42.0933 392.789 41.96 392.242 41.96C391.736 41.96 391.342 42.0533 391.062 42.24C390.796 42.4267 390.662 42.6867 390.662 43.02C390.662 43.3933 390.849 43.68 391.222 43.88C391.596 44.0667 392.176 44.26 392.962 44.46C393.762 44.66 394.422 44.8667 394.942 45.08C395.462 45.2933 395.909 45.6267 396.282 46.08C396.669 46.52 396.869 47.1067 396.882 47.84C396.882 48.48 396.702 49.0533 396.342 49.56C395.996 50.0667 395.489 50.4667 394.822 50.76C394.169 51.04 393.402 51.18 392.522 51.18ZM398.461 45.42C398.461 44.3 398.681 43.3067 399.121 42.44C399.574 41.5733 400.181 40.9067 400.941 40.44C401.714 39.9733 402.574 39.74 403.521 39.74C404.347 39.74 405.067 39.9067 405.681 40.24C406.307 40.5733 406.807 40.9933 407.181 41.5V39.92H410.001V51H407.181V49.38C406.821 49.9 406.321 50.3333 405.681 50.68C405.054 51.0133 404.327 51.18 403.501 51.18C402.567 51.18 401.714 50.94 400.941 50.46C400.181 49.98 399.574 49.3067 399.121 48.44C398.681 47.56 398.461 46.5533 398.461 45.42ZM407.181 45.46C407.181 44.78 407.047 44.2 406.781 43.72C406.514 43.2267 406.154 42.8533 405.701 42.6C405.247 42.3333 404.761 42.2 404.241 42.2C403.721 42.2 403.241 42.3267 402.801 42.58C402.361 42.8333 402.001 43.2067 401.721 43.7C401.454 44.18 401.321 44.7533 401.321 45.42C401.321 46.0867 401.454 46.6733 401.721 47.18C402.001 47.6733 402.361 48.0533 402.801 48.32C403.254 48.5867 403.734 48.72 404.241 48.72C404.761 48.72 405.247 48.5933 405.701 48.34C406.154 48.0733 406.514 47.7 406.781 47.22C407.047 46.7267 407.181 46.14 407.181 45.46ZM415.535 36.2V51H412.735V36.2H415.535ZM417.582 45.42C417.582 44.3 417.802 43.3067 418.242 42.44C418.695 41.5733 419.302 40.9067 420.062 40.44C420.835 39.9733 421.695 39.74 422.642 39.74C423.469 39.74 424.189 39.9067 424.802 40.24C425.429 40.5733 425.929 40.9933 426.302 41.5V39.92H429.122V51H426.302V49.38C425.942 49.9 425.442 50.3333 424.802 50.68C424.175 51.0133 423.449 51.18 422.622 51.18C421.689 51.18 420.835 50.94 420.062 50.46C419.302 49.98 418.695 49.3067 418.242 48.44C417.802 47.56 417.582 46.5533 417.582 45.42ZM426.302 45.46C426.302 44.78 426.169 44.2 425.902 43.72C425.635 43.2267 425.275 42.8533 424.822 42.6C424.369 42.3333 423.882 42.2 423.362 42.2C422.842 42.2 422.362 42.3267 421.922 42.58C421.482 42.8333 421.122 43.2067 420.842 43.7C420.575 44.18 420.442 44.7533 420.442 45.42C420.442 46.0867 420.575 46.6733 420.842 47.18C421.122 47.6733 421.482 48.0533 421.922 48.32C422.375 48.5867 422.855 48.72 423.362 48.72C423.882 48.72 424.369 48.5933 424.822 48.34C425.275 48.0733 425.635 47.7 425.902 47.22C426.169 46.7267 426.302 46.14 426.302 45.46ZM438.097 39.76C438.937 39.76 439.683 39.9467 440.337 40.32C440.99 40.68 441.497 41.22 441.857 41.94C442.23 42.6467 442.417 43.5 442.417 44.5V51H439.617V44.88C439.617 44 439.397 43.3267 438.957 42.86C438.517 42.38 437.917 42.14 437.157 42.14C436.383 42.14 435.77 42.38 435.317 42.86C434.877 43.3267 434.657 44 434.657 44.88V51H431.857V36.2H434.657V41.3C435.017 40.82 435.497 40.4467 436.097 40.18C436.697 39.9 437.363 39.76 438.097 39.76ZM444.359 45.42C444.359 44.3 444.579 43.3067 445.019 42.44C445.473 41.5733 446.079 40.9067 446.839 40.44C447.613 39.9733 448.473 39.74 449.419 39.74C450.246 39.74 450.966 39.9067 451.579 40.24C452.206 40.5733 452.706 40.9933 453.079 41.5V39.92H455.899V51H453.079V49.38C452.719 49.9 452.219 50.3333 451.579 50.68C450.953 51.0133 450.226 51.18 449.399 51.18C448.466 51.18 447.613 50.94 446.839 50.46C446.079 49.98 445.473 49.3067 445.019 48.44C444.579 47.56 444.359 46.5533 444.359 45.42ZM453.079 45.46C453.079 44.78 452.946 44.2 452.679 43.72C452.413 43.2267 452.053 42.8533 451.599 42.6C451.146 42.3333 450.659 42.2 450.139 42.2C449.619 42.2 449.139 42.3267 448.699 42.58C448.259 42.8333 447.899 43.2067 447.619 43.7C447.353 44.18 447.219 44.7533 447.219 45.42C447.219 46.0867 447.353 46.6733 447.619 47.18C447.899 47.6733 448.259 48.0533 448.699 48.32C449.153 48.5867 449.633 48.72 450.139 48.72C450.659 48.72 451.146 48.5933 451.599 48.34C452.053 48.0733 452.413 47.7 452.679 47.22C452.946 46.7267 453.079 46.14 453.079 45.46ZM464.774 39.76C466.094 39.76 467.161 40.18 467.974 41.02C468.787 41.8467 469.194 43.0067 469.194 44.5V51H466.394V44.88C466.394 44 466.174 43.3267 465.734 42.86C465.294 42.38 464.694 42.14 463.934 42.14C463.161 42.14 462.547 42.38 462.094 42.86C461.654 43.3267 461.434 44 461.434 44.88V51H458.634V39.92H461.434V41.3C461.807 40.82 462.281 40.4467 462.854 40.18C463.441 39.9 464.081 39.76 464.774 39.76ZM475.477 36.8L475.157 46.46H472.797L472.457 36.8H475.477ZM474.037 51.14C473.53 51.14 473.11 50.9867 472.777 50.68C472.457 50.36 472.297 49.9667 472.297 49.5C472.297 49.0333 472.457 48.6467 472.777 48.34C473.11 48.02 473.53 47.86 474.037 47.86C474.53 47.86 474.937 48.02 475.257 48.34C475.577 48.6467 475.737 49.0333 475.737 49.5C475.737 49.9667 475.577 50.36 475.257 50.68C474.937 50.9867 474.53 51.14 474.037 51.14Z" fill="#EA8D45"/>
<path d="M284.089 81.14C283.115 81.14 282.235 80.9733 281.449 80.64C280.675 80.3067 280.062 79.8267 279.609 79.2C279.155 78.5733 278.922 77.8333 278.909 76.98H281.909C281.949 77.5533 282.149 78.0067 282.509 78.34C282.882 78.6733 283.389 78.84 284.029 78.84C284.682 78.84 285.195 78.6867 285.569 78.38C285.942 78.06 286.129 77.6467 286.129 77.14C286.129 76.7267 286.002 76.3867 285.749 76.12C285.495 75.8533 285.175 75.6467 284.789 75.5C284.415 75.34 283.895 75.1667 283.229 74.98C282.322 74.7133 281.582 74.4533 281.009 74.2C280.449 73.9333 279.962 73.54 279.549 73.02C279.149 72.4867 278.949 71.78 278.949 70.9C278.949 70.0733 279.155 69.3533 279.569 68.74C279.982 68.1267 280.562 67.66 281.309 67.34C282.055 67.0067 282.909 66.84 283.869 66.84C285.309 66.84 286.475 67.1933 287.369 67.9C288.275 68.5933 288.775 69.5667 288.869 70.82H285.789C285.762 70.34 285.555 69.9467 285.169 69.64C284.795 69.32 284.295 69.16 283.669 69.16C283.122 69.16 282.682 69.3 282.349 69.58C282.029 69.86 281.869 70.2667 281.869 70.8C281.869 71.1733 281.989 71.4867 282.229 71.74C282.482 71.98 282.789 72.18 283.149 72.34C283.522 72.4867 284.042 72.66 284.709 72.86C285.615 73.1267 286.355 73.3933 286.929 73.66C287.502 73.9267 287.995 74.3267 288.409 74.86C288.822 75.3933 289.029 76.0933 289.029 76.96C289.029 77.7067 288.835 78.4 288.449 79.04C288.062 79.68 287.495 80.1933 286.749 80.58C286.002 80.9533 285.115 81.14 284.089 81.14ZM292.876 68.6C292.383 68.6 291.97 68.4467 291.636 68.14C291.316 67.82 291.156 67.4267 291.156 66.96C291.156 66.4933 291.316 66.1067 291.636 65.8C291.97 65.48 292.383 65.32 292.876 65.32C293.37 65.32 293.776 65.48 294.096 65.8C294.43 66.1067 294.596 66.4933 294.596 66.96C294.596 67.4267 294.43 67.82 294.096 68.14C293.776 68.4467 293.37 68.6 292.876 68.6ZM294.256 69.92V81H291.456V69.92H294.256ZM299.823 66.2V81H297.023V66.2H299.823ZM301.869 75.42C301.869 74.3 302.089 73.3067 302.529 72.44C302.982 71.5733 303.589 70.9067 304.349 70.44C305.122 69.9733 305.982 69.74 306.929 69.74C307.756 69.74 308.476 69.9067 309.089 70.24C309.716 70.5733 310.216 70.9933 310.589 71.5V69.92H313.409V81H310.589V79.38C310.229 79.9 309.729 80.3333 309.089 80.68C308.462 81.0133 307.736 81.18 306.909 81.18C305.976 81.18 305.122 80.94 304.349 80.46C303.589 79.98 302.982 79.3067 302.529 78.44C302.089 77.56 301.869 76.5533 301.869 75.42ZM310.589 75.46C310.589 74.78 310.456 74.2 310.189 73.72C309.922 73.2267 309.562 72.8533 309.109 72.6C308.656 72.3333 308.169 72.2 307.649 72.2C307.129 72.2 306.649 72.3267 306.209 72.58C305.769 72.8333 305.409 73.2067 305.129 73.7C304.862 74.18 304.729 74.7533 304.729 75.42C304.729 76.0867 304.862 76.6733 305.129 77.18C305.409 77.6733 305.769 78.0533 306.209 78.32C306.662 78.5867 307.142 78.72 307.649 78.72C308.169 78.72 308.656 78.5933 309.109 78.34C309.562 78.0733 309.922 77.7 310.189 77.22C310.456 76.7267 310.589 76.14 310.589 75.46ZM322.384 69.76C323.224 69.76 323.97 69.9467 324.624 70.32C325.277 70.68 325.784 71.22 326.144 71.94C326.517 72.6467 326.704 73.5 326.704 74.5V81H323.904V74.88C323.904 74 323.684 73.3267 323.244 72.86C322.804 72.38 322.204 72.14 321.444 72.14C320.67 72.14 320.057 72.38 319.604 72.86C319.164 73.3267 318.944 74 318.944 74.88V81H316.144V66.2H318.944V71.3C319.304 70.82 319.784 70.4467 320.384 70.18C320.984 69.9 321.65 69.76 322.384 69.76ZM335.926 81L332.166 76.28V81H329.366V66.2H332.166V74.62L335.886 69.92H339.526L334.646 75.48L339.566 81H335.926ZM340.326 75.42C340.326 74.3 340.546 73.3067 340.986 72.44C341.439 71.5733 342.046 70.9067 342.806 70.44C343.579 69.9733 344.439 69.74 345.386 69.74C346.213 69.74 346.933 69.9067 347.546 70.24C348.173 70.5733 348.673 70.9933 349.046 71.5V69.92H351.866V81H349.046V79.38C348.686 79.9 348.186 80.3333 347.546 80.68C346.919 81.0133 346.193 81.18 345.366 81.18C344.433 81.18 343.579 80.94 342.806 80.46C342.046 79.98 341.439 79.3067 340.986 78.44C340.546 77.56 340.326 76.5533 340.326 75.42ZM349.046 75.46C349.046 74.78 348.913 74.2 348.646 73.72C348.379 73.2267 348.019 72.8533 347.566 72.6C347.113 72.3333 346.626 72.2 346.106 72.2C345.586 72.2 345.106 72.3267 344.666 72.58C344.226 72.8333 343.866 73.2067 343.586 73.7C343.319 74.18 343.186 74.7533 343.186 75.42C343.186 76.0867 343.319 76.6733 343.586 77.18C343.866 77.6733 344.226 78.0533 344.666 78.32C345.119 78.5867 345.599 78.72 346.106 78.72C346.626 78.72 347.113 78.5933 347.566 78.34C348.019 78.0733 348.379 77.7 348.646 77.22C348.913 76.7267 349.046 76.14 349.046 75.46ZM360.741 69.76C362.061 69.76 363.127 70.18 363.941 71.02C364.754 71.8467 365.161 73.0067 365.161 74.5V81H362.361V74.88C362.361 74 362.141 73.3267 361.701 72.86C361.261 72.38 360.661 72.14 359.901 72.14C359.127 72.14 358.514 72.38 358.061 72.86C357.621 73.3267 357.401 74 357.401 74.88V81H354.601V69.92H357.401V71.3C357.774 70.82 358.247 70.4467 358.821 70.18C359.407 69.9 360.047 69.76 360.741 69.76ZM371.869 75.46C371.869 74.3133 372.102 73.3133 372.569 72.46C373.036 71.5933 373.682 70.9267 374.509 70.46C375.336 69.98 376.282 69.74 377.349 69.74C378.722 69.74 379.856 70.0867 380.749 70.78C381.656 71.46 382.262 72.42 382.569 73.66H379.549C379.389 73.18 379.116 72.8067 378.729 72.54C378.356 72.26 377.889 72.12 377.329 72.12C376.529 72.12 375.896 72.4133 375.429 73C374.962 73.5733 374.729 74.3933 374.729 75.46C374.729 76.5133 374.962 77.3333 375.429 77.92C375.896 78.4933 376.529 78.78 377.329 78.78C378.462 78.78 379.202 78.2733 379.549 77.26H382.569C382.262 78.46 381.656 79.4133 380.749 80.12C379.842 80.8267 378.709 81.18 377.349 81.18C376.282 81.18 375.336 80.9467 374.509 80.48C373.682 80 373.036 79.3333 372.569 78.48C372.102 77.6133 371.869 76.6067 371.869 75.46ZM389.54 81.18C388.474 81.18 387.514 80.9467 386.66 80.48C385.807 80 385.134 79.3267 384.64 78.46C384.16 77.5933 383.92 76.5933 383.92 75.46C383.92 74.3267 384.167 73.3267 384.66 72.46C385.167 71.5933 385.854 70.9267 386.72 70.46C387.587 69.98 388.554 69.74 389.62 69.74C390.687 69.74 391.654 69.98 392.52 70.46C393.387 70.9267 394.067 71.5933 394.56 72.46C395.067 73.3267 395.32 74.3267 395.32 75.46C395.32 76.5933 395.06 77.5933 394.54 78.46C394.034 79.3267 393.34 80 392.46 80.48C391.594 80.9467 390.62 81.18 389.54 81.18ZM389.54 78.74C390.047 78.74 390.52 78.62 390.96 78.38C391.414 78.1267 391.774 77.7533 392.04 77.26C392.307 76.7667 392.44 76.1667 392.44 75.46C392.44 74.4067 392.16 73.6 391.6 73.04C391.054 72.4667 390.38 72.18 389.58 72.18C388.78 72.18 388.107 72.4667 387.56 73.04C387.027 73.6 386.76 74.4067 386.76 75.46C386.76 76.5133 387.02 77.3267 387.54 77.9C388.074 78.46 388.74 78.74 389.54 78.74ZM400.174 71.54C400.534 71.0067 401.027 70.5733 401.654 70.24C402.294 69.9067 403.021 69.74 403.834 69.74C404.781 69.74 405.634 69.9733 406.394 70.44C407.167 70.9067 407.774 71.5733 408.214 72.44C408.667 73.2933 408.894 74.2867 408.894 75.42C408.894 76.5533 408.667 77.56 408.214 78.44C407.774 79.3067 407.167 79.98 406.394 80.46C405.634 80.94 404.781 81.18 403.834 81.18C403.007 81.18 402.281 81.02 401.654 80.7C401.041 80.3667 400.547 79.94 400.174 79.42V81H397.374V66.2H400.174V71.54ZM406.034 75.42C406.034 74.7533 405.894 74.18 405.614 73.7C405.347 73.2067 404.987 72.8333 404.534 72.58C404.094 72.3267 403.614 72.2 403.094 72.2C402.587 72.2 402.107 72.3333 401.654 72.6C401.214 72.8533 400.854 73.2267 400.574 73.72C400.307 74.2133 400.174 74.7933 400.174 75.46C400.174 76.1267 400.307 76.7067 400.574 77.2C400.854 77.6933 401.214 78.0733 401.654 78.34C402.107 78.5933 402.587 78.72 403.094 78.72C403.614 78.72 404.094 78.5867 404.534 78.32C404.987 78.0533 405.347 77.6733 405.614 77.18C405.894 76.6867 406.034 76.1 406.034 75.42ZM410.209 75.42C410.209 74.3 410.429 73.3067 410.869 72.44C411.322 71.5733 411.929 70.9067 412.689 70.44C413.462 69.9733 414.322 69.74 415.269 69.74C416.095 69.74 416.815 69.9067 417.429 70.24C418.055 70.5733 418.555 70.9933 418.929 71.5V69.92H421.749V81H418.929V79.38C418.569 79.9 418.069 80.3333 417.429 80.68C416.802 81.0133 416.075 81.18 415.249 81.18C414.315 81.18 413.462 80.94 412.689 80.46C411.929 79.98 411.322 79.3067 410.869 78.44C410.429 77.56 410.209 76.5533 410.209 75.42ZM418.929 75.46C418.929 74.78 418.795 74.2 418.529 73.72C418.262 73.2267 417.902 72.8533 417.449 72.6C416.995 72.3333 416.509 72.2 415.989 72.2C415.469 72.2 414.989 72.3267 414.549 72.58C414.109 72.8333 413.749 73.2067 413.469 73.7C413.202 74.18 413.069 74.7533 413.069 75.42C413.069 76.0867 413.202 76.6733 413.469 77.18C413.749 77.6733 414.109 78.0533 414.549 78.32C415.002 78.5867 415.482 78.72 415.989 78.72C416.509 78.72 416.995 78.5933 417.449 78.34C417.902 78.0733 418.262 77.7 418.529 77.22C418.795 76.7267 418.929 76.14 418.929 75.46ZM432.049 66.2V81H429.249V66.2H432.049ZM434.096 75.42C434.096 74.3 434.316 73.3067 434.756 72.44C435.209 71.5733 435.816 70.9067 436.576 70.44C437.349 69.9733 438.209 69.74 439.156 69.74C439.982 69.74 440.702 69.9067 441.316 70.24C441.942 70.5733 442.442 70.9933 442.816 71.5V69.92H445.636V81H442.816V79.38C442.456 79.9 441.956 80.3333 441.316 80.68C440.689 81.0133 439.962 81.18 439.136 81.18C438.202 81.18 437.349 80.94 436.576 80.46C435.816 79.98 435.209 79.3067 434.756 78.44C434.316 77.56 434.096 76.5533 434.096 75.42ZM442.816 75.46C442.816 74.78 442.682 74.2 442.416 73.72C442.149 73.2267 441.789 72.8533 441.336 72.6C440.882 72.3333 440.396 72.2 439.876 72.2C439.356 72.2 438.876 72.3267 438.436 72.58C437.996 72.8333 437.636 73.2067 437.356 73.7C437.089 74.18 436.956 74.7533 436.956 75.42C436.956 76.0867 437.089 76.6733 437.356 77.18C437.636 77.6733 437.996 78.0533 438.436 78.32C438.889 78.5867 439.369 78.72 439.876 78.72C440.396 78.72 440.882 78.5933 441.336 78.34C441.789 78.0733 442.149 77.7 442.416 77.22C442.682 76.7267 442.816 76.14 442.816 75.46ZM452.71 69.74C453.537 69.74 454.264 69.9067 454.89 70.24C455.517 70.56 456.01 70.98 456.37 71.5V69.92H459.19V81.08C459.19 82.1067 458.984 83.02 458.57 83.82C458.157 84.6333 457.537 85.2733 456.71 85.74C455.884 86.22 454.884 86.46 453.71 86.46C452.137 86.46 450.844 86.0933 449.83 85.36C448.83 84.6267 448.264 83.6267 448.13 82.36H450.91C451.057 82.8667 451.37 83.2667 451.85 83.56C452.344 83.8667 452.937 84.02 453.63 84.02C454.444 84.02 455.104 83.7733 455.61 83.28C456.117 82.8 456.37 82.0667 456.37 81.08V79.36C456.01 79.88 455.51 80.3133 454.87 80.66C454.244 81.0067 453.524 81.18 452.71 81.18C451.777 81.18 450.924 80.94 450.15 80.46C449.377 79.98 448.764 79.3067 448.31 78.44C447.87 77.56 447.65 76.5533 447.65 75.42C447.65 74.3 447.87 73.3067 448.31 72.44C448.764 71.5733 449.37 70.9067 450.13 70.44C450.904 69.9733 451.764 69.74 452.71 69.74ZM456.37 75.46C456.37 74.78 456.237 74.2 455.97 73.72C455.704 73.2267 455.344 72.8533 454.89 72.6C454.437 72.3333 453.95 72.2 453.43 72.2C452.91 72.2 452.43 72.3267 451.99 72.58C451.55 72.8333 451.19 73.2067 450.91 73.7C450.644 74.18 450.51 74.7533 450.51 75.42C450.51 76.0867 450.644 76.6733 450.91 77.18C451.19 77.6733 451.55 78.0533 451.99 78.32C452.444 78.5867 452.924 78.72 453.43 78.72C453.95 78.72 454.437 78.5933 454.89 78.34C455.344 78.0733 455.704 77.7 455.97 77.22C456.237 76.7267 456.37 76.14 456.37 75.46ZM463.345 68.6C462.852 68.6 462.438 68.4467 462.105 68.14C461.785 67.82 461.625 67.4267 461.625 66.96C461.625 66.4933 461.785 66.1067 462.105 65.8C462.438 65.48 462.852 65.32 463.345 65.32C463.838 65.32 464.245 65.48 464.565 65.8C464.898 66.1067 465.065 66.4933 465.065 66.96C465.065 67.4267 464.898 67.82 464.565 68.14C464.245 68.4467 463.838 68.6 463.345 68.6ZM464.725 69.92V81H461.925V69.92H464.725Z" fill="#999999"/>
<path fill-rule="evenodd" clip-rule="evenodd" d="M617.181 19.0213C621.049 18.5931 624.952 18.5931 628.819 19.0213C630.96 19.2613 632.688 20.9475 632.939 23.0963C633.397 27.0188 633.397 30.9813 632.939 34.9038C632.688 37.0525 630.96 38.7388 628.819 38.9788C624.952 39.407 621.049 39.407 617.181 38.9788C615.04 38.7388 613.313 37.0525 613.061 34.9038C612.603 30.9817 612.603 27.0196 613.061 23.0975C613.188 22.0536 613.664 21.0832 614.412 20.3436C615.16 19.604 616.135 19.1385 617.18 19.0225M618.588 24.5875C618.763 24.412 619.002 24.3134 619.25 24.3134C619.499 24.3134 619.737 24.412 619.913 24.5875L623 27.675L626.088 24.5875C626.173 24.4954 626.277 24.4215 626.392 24.3703C626.507 24.3191 626.631 24.2915 626.757 24.2893C626.883 24.2871 627.008 24.3102 627.125 24.3574C627.241 24.4045 627.347 24.4747 627.436 24.5637C627.525 24.6528 627.596 24.7588 627.643 24.8755C627.69 24.9923 627.713 25.1173 627.711 25.2432C627.709 25.3691 627.681 25.4932 627.63 25.6082C627.579 25.7232 627.505 25.8267 627.413 25.9125L624.325 29L627.413 32.0875C627.578 32.2652 627.668 32.5003 627.664 32.7432C627.66 32.9861 627.561 33.2178 627.39 33.3896C627.218 33.5613 626.986 33.6597 626.743 33.664C626.5 33.6683 626.265 33.5781 626.088 33.4125L623 30.325L619.913 33.4125C619.827 33.5046 619.723 33.5785 619.608 33.6298C619.493 33.681 619.369 33.7085 619.243 33.7108C619.117 33.713 618.992 33.6898 618.876 33.6427C618.759 33.5955 618.653 33.5253 618.564 33.4363C618.475 33.3473 618.405 33.2413 618.358 33.1245C618.31 33.0078 618.287 32.8828 618.289 32.7569C618.292 32.631 618.319 32.5069 618.37 32.3919C618.422 32.2769 618.496 32.1734 618.588 32.0875L621.675 29L618.588 25.9125C618.412 25.7367 618.313 25.4985 618.313 25.25C618.313 25.0016 618.412 24.7633 618.588 24.5875Z" fill="#B9B9B9"/>
</g>
<defs>
<filter id="filter0_d_132_325" x="-4" y="0.134338" width="759" height="126.134" filterUnits="userSpaceOnUse" color-interpolation-filters="sRGB">
<feFlood flood-opacity="0" result="BackgroundImageFix"/>
<feColorMatrix in="SourceAlpha" type="matrix" values="0 0 0 0 0 0 0 0 0 0 0 0 0 0 0 0 0 0 127 0" result="hardAlpha"/>
<feOffset dy="4"/>
<feGaussianBlur stdDeviation="2"/>
<feComposite in2="hardAlpha" operator="out"/>
<feColorMatrix type="matrix" values="0 0 0 0 0 0 0 0 0 0 0 0 0 0 0 0 0 0 0.25 0"/>
<feBlend mode="normal" in2="BackgroundImageFix" result="effect1_dropShadow_132_325"/>
<feBlend mode="normal" in="SourceGraphic" in2="effect1_dropShadow_132_325" result="shape"/>
</filter>
</defs>
</svg>
