<svg width="23" height="21" viewBox="0 0 23 21" fill="none" xmlns="http://www.w3.org/2000/svg">
<rect width="23" height="21" rx="5" fill="url(#paint0_linear_257_15)" fill-opacity="0.5"/>
<path d="M17.125 8.625H13.375V4.875C13.375 4.37772 13.1775 3.90081 12.8258 3.54917C12.4742 3.19754 11.9973 3 11.5 3C11.0027 3 10.5258 3.19754 10.1742 3.54917C9.82254 3.90081 9.625 4.37772 9.625 4.875L9.69156 8.625H5.875C5.37772 8.625 4.90081 8.82254 4.54917 9.17418C4.19754 9.52581 4 10.0027 4 10.5C4 10.9973 4.19754 11.4742 4.54917 11.8258C4.90081 12.1775 5.37772 12.375 5.875 12.375L9.69156 12.3084L9.625 16.125C9.625 16.6223 9.82254 17.0992 10.1742 17.4508C10.5258 17.8025 11.0027 18 11.5 18C11.9973 18 12.4742 17.8025 12.8258 17.4508C13.1775 17.0992 13.375 16.6223 13.375 16.125V12.3084L17.125 12.375C17.6223 12.375 18.0992 12.1775 18.4508 11.8258C18.8025 11.4742 19 10.9973 19 10.5C19 10.0027 18.8025 9.52581 18.4508 9.17418C18.0992 8.82254 17.6223 8.625 17.125 8.625Z" fill="#EA8D45"/>
<defs>
<linearGradient id="paint0_linear_257_15" x1="11.5" y1="0" x2="11.5" y2="21" gradientUnits="userSpaceOnUse">
<stop offset="0.257471" stop-color="#FF9F1C"/>
<stop offset="1" stop-color="white"/>
</linearGradient>
</defs>
</svg>
