<svg width="16" height="16" viewBox="0 0 16 16" fill="none" xmlns="http://www.w3.org/2000/svg">
<path d="M8 0C6.41775 0 4.87103 0.469192 3.55544 1.34824C2.23985 2.22729 1.21447 3.47672 0.608967 4.93853C0.00346625 6.40034 -0.15496 8.00887 0.153721 9.56072C0.462403 11.1126 1.22433 12.538 2.34315 13.6569C3.46197 14.7757 4.88743 15.5376 6.43928 15.8463C7.99113 16.155 9.59966 15.9965 11.0615 15.391C12.5233 14.7855 13.7727 13.7602 14.6518 12.4446C15.5308 11.129 16 9.58225 16 8C16 5.87827 15.1571 3.84344 13.6569 2.34315C12.1566 0.842855 10.1217 0 8 0ZM8.03 8.84C7.94554 8.84066 7.86178 8.82459 7.78355 8.79273C7.70532 8.76086 7.63418 8.71382 7.57422 8.65433C7.51426 8.59483 7.46667 8.52405 7.43419 8.44608C7.40172 8.3681 7.385 8.28447 7.385 8.2V3.325C7.385 3.15394 7.45296 2.98988 7.57392 2.86892C7.69488 2.74796 7.85894 2.68 8.03 2.68C8.20107 2.68 8.36513 2.74796 8.48609 2.86892C8.60705 2.98988 8.675 3.15394 8.675 3.325V8.2C8.67501 8.28447 8.65829 8.3681 8.62581 8.44608C8.59334 8.52405 8.54575 8.59483 8.48579 8.65433C8.42583 8.71382 8.35468 8.76086 8.27646 8.79273C8.19823 8.82459 8.11447 8.84066 8.03 8.84ZM8 12.895C6.9469 12.9075 5.91739 12.583 5.06169 11.9691C4.20599 11.3551 3.56891 10.4837 3.24341 9.48211C2.91792 8.4805 2.92105 7.40108 3.25234 6.40137C3.58364 5.40166 4.22576 4.534 5.085 3.925C5.23466 3.81833 5.42027 3.77479 5.60176 3.80379C5.78324 3.83279 5.94604 3.932 6.055 4.08C6.1082 4.15309 6.1464 4.23598 6.16741 4.3239C6.18841 4.41183 6.19181 4.50303 6.1774 4.59228C6.16299 4.68152 6.13106 4.76702 6.08345 4.84386C6.03584 4.92071 5.9735 4.98737 5.9 5.04C5.40577 5.40296 5.01275 5.88647 4.7584 6.44443C4.50406 7.00238 4.39687 7.61619 4.44705 8.22733C4.49724 8.83846 4.70312 9.42656 5.04508 9.93555C5.38704 10.4445 5.85367 10.8575 6.4005 11.1349C6.94732 11.4124 7.5561 11.5452 8.1688 11.5206C8.7815 11.4961 9.3777 11.315 9.90056 10.9946C10.4234 10.6743 10.8555 10.2253 11.1556 9.69061C11.4557 9.15588 11.6139 8.55319 11.615 7.94C11.6133 7.37502 11.4762 6.81867 11.2153 6.31757C10.9543 5.81648 10.577 5.38524 10.115 5.06C9.97275 4.94774 9.88078 4.78368 9.85922 4.60375C9.83767 4.42382 9.88829 4.24269 10 4.1C10.1105 3.95357 10.274 3.85634 10.4554 3.82922C10.6368 3.80211 10.8216 3.84727 10.97 3.955C11.8203 4.57097 12.4522 5.44183 12.774 6.44123C13.0959 7.44062 13.0909 8.51657 12.7599 9.51297C12.4289 10.5094 11.789 11.3744 10.9331 11.9825C10.0772 12.5906 9.04983 12.9103 8 12.895Z" fill="#CBF3F0"/>
</svg>
