<svg width="98" height="33" viewBox="0 0 98 33" fill="none" xmlns="http://www.w3.org/2000/svg">
<g filter="url(#filter0_d_132_210)">
<rect x="4" width="90" height="25" rx="10" fill="#EA8D45" fill-opacity="0.5"/>
<path d="M36.0468 12.645C36.6068 12.745 37.0818 13.04 37.4718 13.53C37.8618 14.02 38.0568 14.575 38.0568 15.195C38.0568 15.725 37.9168 16.205 37.6368 16.635C37.3668 17.055 36.9718 17.39 36.4518 17.64C35.9318 17.88 35.3268 18 34.6368 18H30.4668V7.575H34.4418C35.1518 7.575 35.7618 7.695 36.2718 7.935C36.7818 8.175 37.1668 8.5 37.4268 8.91C37.6868 9.31 37.8168 9.76 37.8168 10.26C37.8168 10.86 37.6568 11.36 37.3368 11.76C37.0168 12.16 36.5868 12.455 36.0468 12.645ZM32.1768 11.955H34.2918C34.8518 11.955 35.2868 11.83 35.5968 11.58C35.9168 11.32 36.0768 10.95 36.0768 10.47C36.0768 10 35.9168 9.635 35.5968 9.375C35.2868 9.105 34.8518 8.97 34.2918 8.97H32.1768V11.955ZM34.4868 16.605C35.0668 16.605 35.5218 16.465 35.8518 16.185C36.1818 15.905 36.3468 15.515 36.3468 15.015C36.3468 14.505 36.1718 14.1 35.8218 13.8C35.4718 13.5 35.0068 13.35 34.4268 13.35H32.1768V16.605H34.4868ZM39.345 13.83C39.345 13 39.515 12.265 39.855 11.625C40.205 10.985 40.675 10.49 41.265 10.14C41.865 9.78 42.525 9.6 43.245 9.6C43.895 9.6 44.46 9.73 44.94 9.99C45.43 10.24 45.82 10.555 46.11 10.935V9.735H47.835V18H46.11V16.77C45.82 17.16 45.425 17.485 44.925 17.745C44.425 18.005 43.855 18.135 43.215 18.135C42.505 18.135 41.855 17.955 41.265 17.595C40.675 17.225 40.205 16.715 39.855 16.065C39.515 15.405 39.345 14.66 39.345 13.83ZM46.11 13.86C46.11 13.29 45.99 12.795 45.75 12.375C45.52 11.955 45.215 11.635 44.835 11.415C44.455 11.195 44.045 11.085 43.605 11.085C43.165 11.085 42.755 11.195 42.375 11.415C41.995 11.625 41.685 11.94 41.445 12.36C41.215 12.77 41.1 13.26 41.1 13.83C41.1 14.4 41.215 14.9 41.445 15.33C41.685 15.76 41.995 16.09 42.375 16.32C42.765 16.54 43.175 16.65 43.605 16.65C44.045 16.65 44.455 16.54 44.835 16.32C45.215 16.1 45.52 15.78 45.75 15.36C45.99 14.93 46.11 14.43 46.11 13.86ZM52.0761 11.13V15.705C52.0761 16.015 52.1461 16.24 52.2861 16.38C52.4361 16.51 52.6861 16.575 53.0361 16.575H54.0861V18H52.7361C51.9661 18 51.3761 17.82 50.9661 17.46C50.5561 17.1 50.3511 16.515 50.3511 15.705V11.13H49.3761V9.735H50.3511V7.68H52.0761V9.735H54.0861V11.13H52.0761ZM55.0921 13.83C55.0921 13 55.2621 12.265 55.6021 11.625C55.9521 10.985 56.4221 10.49 57.0121 10.14C57.6121 9.78 58.2721 9.6 58.9921 9.6C59.6421 9.6 60.2071 9.73 60.6871 9.99C61.1771 10.24 61.5671 10.555 61.8571 10.935V9.735H63.5821V18H61.8571V16.77C61.5671 17.16 61.1721 17.485 60.6721 17.745C60.1721 18.005 59.6021 18.135 58.9621 18.135C58.2521 18.135 57.6021 17.955 57.0121 17.595C56.4221 17.225 55.9521 16.715 55.6021 16.065C55.2621 15.405 55.0921 14.66 55.0921 13.83ZM61.8571 13.86C61.8571 13.29 61.7371 12.795 61.4971 12.375C61.2671 11.955 60.9621 11.635 60.5821 11.415C60.2021 11.195 59.7921 11.085 59.3521 11.085C58.9121 11.085 58.5021 11.195 58.1221 11.415C57.7421 11.625 57.4321 11.94 57.1921 12.36C56.9621 12.77 56.8471 13.26 56.8471 13.83C56.8471 14.4 56.9621 14.9 57.1921 15.33C57.4321 15.76 57.7421 16.09 58.1221 16.32C58.5121 16.54 58.9221 16.65 59.3521 16.65C59.7921 16.65 60.2021 16.54 60.5821 16.32C60.9621 16.1 61.2671 15.78 61.4971 15.36C61.7371 14.93 61.8571 14.43 61.8571 13.86ZM67.5381 6.9V18H65.8281V6.9H67.5381Z" fill="white"/>
</g>
<defs>
<filter id="filter0_d_132_210" x="0" y="0" width="98" height="33" filterUnits="userSpaceOnUse" color-interpolation-filters="sRGB">
<feFlood flood-opacity="0" result="BackgroundImageFix"/>
<feColorMatrix in="SourceAlpha" type="matrix" values="0 0 0 0 0 0 0 0 0 0 0 0 0 0 0 0 0 0 127 0" result="hardAlpha"/>
<feOffset dy="4"/>
<feGaussianBlur stdDeviation="2"/>
<feComposite in2="hardAlpha" operator="out"/>
<feColorMatrix type="matrix" values="0 0 0 0 0 0 0 0 0 0 0 0 0 0 0 0 0 0 0.25 0"/>
<feBlend mode="normal" in2="BackgroundImageFix" result="effect1_dropShadow_132_210"/>
<feBlend mode="normal" in="SourceGraphic" in2="effect1_dropShadow_132_210" result="shape"/>
</filter>
</defs>
</svg>
