<svg width="20" height="20" viewBox="0 0 20 20" fill="none" xmlns="http://www.w3.org/2000/svg">
<path d="M10 0C4.48583 0 0 4.48583 0 10C0 15.5142 4.48583 20 10 20H20V10C20 4.48583 15.5142 0 10 0ZM19.1667 19.1667H10C4.94583 19.1667 0.833333 15.0542 0.833333 10C0.833333 4.94583 4.94583 0.833333 10 0.833333C15.0542 0.833333 19.1667 4.94583 19.1667 10V19.1667ZM10.8333 10C10.8333 10.46 10.46 10.8333 10 10.8333C9.54 10.8333 9.16667 10.46 9.16667 10C9.16667 9.54 9.54 9.16667 10 9.16667C10.46 9.16667 10.8333 9.54 10.8333 10ZM15 10C15 10.46 14.6267 10.8333 14.1667 10.8333C13.7067 10.8333 13.3333 10.46 13.3333 10C13.3333 9.54 13.7067 9.16667 14.1667 9.16667C14.6267 9.16667 15 9.54 15 10ZM6.66667 10C6.66667 10.46 6.29333 10.8333 5.83333 10.8333C5.37333 10.8333 5 10.46 5 10C5 9.54 5.37333 9.16667 5.83333 9.16667C6.29333 9.16667 6.66667 9.54 6.66667 10Z" fill="#EA8D45"/>
</svg>
