<svg width="144" height="122" viewBox="0 0 144 122" fill="none" xmlns="http://www.w3.org/2000/svg">
<rect width="144" height="122" rx="10" fill="#999999" fill-opacity="0.5"/>
<g clip-path="url(#clip0_224_3)" filter="url(#filter0_b_224_3)">
<g filter="url(#filter1_d_224_3)">
<path d="M87.3001 42.9167C87.0995 42.9176 86.9013 42.8725 86.7208 42.7851L71.5001 35.0167L56.2794 42.7324C55.9547 42.886 55.5822 42.9044 55.2439 42.7834C54.9056 42.6624 54.6292 42.412 54.4756 42.0872C54.3219 41.7625 54.3036 41.39 54.4246 41.0517C54.5456 40.7134 54.796 40.437 55.1208 40.2834L71.5001 32.1727L87.8794 40.2834C88.2247 40.3641 88.5243 40.5775 88.7133 40.8774C88.9024 41.1774 88.9657 41.5397 88.8895 41.886C88.8133 42.2323 88.6038 42.5346 88.3063 42.7275C88.0088 42.9204 87.6473 42.9884 87.3001 42.9167ZM64.9168 56.0834H57.0168V63.9834H64.9168V56.0834ZM75.4501 56.0834H67.5501V63.9834H75.4501V56.0834ZM85.9834 56.0834H78.0834V63.9834H85.9834V56.0834ZM80.7168 45.5501H72.8168V53.4501H80.7168V45.5501ZM70.1834 45.5501H62.2834V53.4501H70.1834V45.5501Z" fill="url(#paint0_linear_224_3)"/>
</g>
</g>
<path d="M44.8839 103.066V115H41.9769V107.843L39.3079 115H36.9619L34.2759 107.826V115H31.3689V103.066H34.8029L38.1519 111.328L41.4669 103.066H44.8839ZM55.9164 110.104C55.9164 110.376 55.8994 110.659 55.8654 110.954H49.2864C49.3317 111.543 49.5187 111.997 49.8474 112.314C50.1874 112.62 50.6011 112.773 51.0884 112.773C51.8137 112.773 52.3181 112.467 52.6014 111.855H55.6954C55.5367 112.478 55.2477 113.039 54.8284 113.538C54.4204 114.037 53.9047 114.428 53.2814 114.711C52.6581 114.994 51.9611 115.136 51.1904 115.136C50.2611 115.136 49.4337 114.938 48.7084 114.541C47.9831 114.144 47.4164 113.578 47.0084 112.841C46.6004 112.104 46.3964 111.243 46.3964 110.257C46.3964 109.271 46.5947 108.41 46.9914 107.673C47.3994 106.936 47.9661 106.37 48.6914 105.973C49.4167 105.576 50.2497 105.378 51.1904 105.378C52.1084 105.378 52.9244 105.571 53.6384 105.956C54.3524 106.341 54.9077 106.891 55.3044 107.605C55.7124 108.319 55.9164 109.152 55.9164 110.104ZM52.9414 109.339C52.9414 108.84 52.7714 108.444 52.4314 108.149C52.0914 107.854 51.6664 107.707 51.1564 107.707C50.6691 107.707 50.2554 107.849 49.9154 108.132C49.5867 108.415 49.3827 108.818 49.3034 109.339H52.9414ZM69.554 105.412C70.7327 105.412 71.6677 105.769 72.359 106.483C73.0617 107.197 73.413 108.189 73.413 109.458V115H70.523V109.849C70.523 109.237 70.3587 108.767 70.03 108.438C69.7127 108.098 69.2707 107.928 68.704 107.928C68.1373 107.928 67.6897 108.098 67.361 108.438C67.0437 108.767 66.885 109.237 66.885 109.849V115H63.995V109.849C63.995 109.237 63.8307 108.767 63.502 108.438C63.1847 108.098 62.7427 107.928 62.176 107.928C61.6093 107.928 61.1617 108.098 60.833 108.438C60.5157 108.767 60.357 109.237 60.357 109.849V115H57.45V105.514H60.357V106.704C60.6517 106.307 61.037 105.996 61.513 105.769C61.989 105.531 62.5273 105.412 63.128 105.412C63.842 105.412 64.4767 105.565 65.032 105.871C65.5987 106.177 66.0407 106.613 66.358 107.18C66.6867 106.659 67.1343 106.234 67.701 105.905C68.2677 105.576 68.8853 105.412 69.554 105.412ZM84.8131 105.514V115H81.9061V113.708C81.6114 114.127 81.2091 114.467 80.6991 114.728C80.2004 114.977 79.6451 115.102 79.0331 115.102C78.3078 115.102 77.6674 114.943 77.1121 114.626C76.5568 114.297 76.1261 113.827 75.8201 113.215C75.5141 112.603 75.3611 111.883 75.3611 111.056V105.514H78.2511V110.665C78.2511 111.3 78.4154 111.793 78.7441 112.144C79.0728 112.495 79.5148 112.671 80.0701 112.671C80.6368 112.671 81.0844 112.495 81.4131 112.144C81.7418 111.793 81.9061 111.3 81.9061 110.665V105.514H84.8131ZM86.3232 110.24C86.3232 109.265 86.5045 108.41 86.8672 107.673C87.2412 106.936 87.7455 106.37 88.3802 105.973C89.0148 105.576 89.7232 105.378 90.5052 105.378C91.1738 105.378 91.7575 105.514 92.2562 105.786C92.7662 106.058 93.1572 106.415 93.4292 106.857V105.514H96.3362V115H93.4292V113.657C93.1458 114.099 92.7492 114.456 92.2392 114.728C91.7405 115 91.1568 115.136 90.4882 115.136C89.7175 115.136 89.0148 114.938 88.3802 114.541C87.7455 114.133 87.2412 113.561 86.8672 112.824C86.5045 112.076 86.3232 111.215 86.3232 110.24ZM93.4292 110.257C93.4292 109.532 93.2252 108.959 92.8172 108.54C92.4205 108.121 91.9332 107.911 91.3552 107.911C90.7772 107.911 90.2842 108.121 89.8762 108.54C89.4795 108.948 89.2812 109.515 89.2812 110.24C89.2812 110.965 89.4795 111.543 89.8762 111.974C90.2842 112.393 90.7772 112.603 91.3552 112.603C91.9332 112.603 92.4205 112.393 92.8172 111.974C93.2252 111.555 93.4292 110.982 93.4292 110.257ZM103.726 112.535V115H102.247C101.193 115 100.372 114.745 99.7823 114.235C99.1929 113.714 98.8983 112.869 98.8983 111.702V107.928H97.7423V105.514H98.8983V103.202H101.805V105.514H103.709V107.928H101.805V111.736C101.805 112.019 101.873 112.223 102.009 112.348C102.145 112.473 102.372 112.535 102.689 112.535H103.726ZM106.706 115.136C106.196 115.136 105.776 114.989 105.448 114.694C105.13 114.388 104.972 114.014 104.972 113.572C104.972 113.119 105.13 112.739 105.448 112.433C105.776 112.127 106.196 111.974 106.706 111.974C107.204 111.974 107.612 112.127 107.93 112.433C108.258 112.739 108.423 113.119 108.423 113.572C108.423 114.014 108.258 114.388 107.93 114.694C107.612 114.989 107.204 115.136 106.706 115.136ZM111.503 115.136C110.993 115.136 110.574 114.989 110.245 114.694C109.928 114.388 109.769 114.014 109.769 113.572C109.769 113.119 109.928 112.739 110.245 112.433C110.574 112.127 110.993 111.974 111.503 111.974C112.002 111.974 112.41 112.127 112.727 112.433C113.056 112.739 113.22 113.119 113.22 113.572C113.22 114.014 113.056 114.388 112.727 114.694C112.41 114.989 112.002 115.136 111.503 115.136ZM116.301 115.136C115.791 115.136 115.372 114.989 115.043 114.694C114.726 114.388 114.567 114.014 114.567 113.572C114.567 113.119 114.726 112.739 115.043 112.433C115.372 112.127 115.791 111.974 116.301 111.974C116.8 111.974 117.208 112.127 117.525 112.433C117.854 112.739 118.018 113.119 118.018 113.572C118.018 114.014 117.854 114.388 117.525 114.694C117.208 114.989 116.8 115.136 116.301 115.136Z" fill="white"/>
<defs>
<filter id="filter0_b_224_3" x="47.75" y="25.75" width="47.5" height="47.5" filterUnits="userSpaceOnUse" color-interpolation-filters="sRGB">
<feFlood flood-opacity="0" result="BackgroundImageFix"/>
<feGaussianBlur in="BackgroundImageFix" stdDeviation="2"/>
<feComposite in2="SourceAlpha" operator="in" result="effect1_backgroundBlur_224_3"/>
<feBlend mode="normal" in="SourceGraphic" in2="effect1_backgroundBlur_224_3" result="shape"/>
</filter>
<filter id="filter1_d_224_3" x="50.3455" y="32.1727" width="42.5754" height="39.8107" filterUnits="userSpaceOnUse" color-interpolation-filters="sRGB">
<feFlood flood-opacity="0" result="BackgroundImageFix"/>
<feColorMatrix in="SourceAlpha" type="matrix" values="0 0 0 0 0 0 0 0 0 0 0 0 0 0 0 0 0 0 127 0" result="hardAlpha"/>
<feOffset dy="4"/>
<feGaussianBlur stdDeviation="2"/>
<feComposite in2="hardAlpha" operator="out"/>
<feColorMatrix type="matrix" values="0 0 0 0 0 0 0 0 0 0 0 0 0 0 0 0 0 0 0.25 0"/>
<feBlend mode="normal" in2="BackgroundImageFix" result="effect1_dropShadow_224_3"/>
<feBlend mode="normal" in="SourceGraphic" in2="effect1_dropShadow_224_3" result="shape"/>
</filter>
<linearGradient id="paint0_linear_224_3" x1="71.6332" y1="32.1727" x2="71.6332" y2="63.9834" gradientUnits="userSpaceOnUse">
<stop offset="0.365" stop-color="#CBF3F0"/>
<stop offset="0.66" stop-color="white"/>
</linearGradient>
<clipPath id="clip0_224_3">
<rect width="39.5" height="39.5" fill="white" transform="translate(51.75 29.75)"/>
</clipPath>
</defs>
</svg>
