<svg width="653" height="127" viewBox="0 0 653 127" fill="none" xmlns="http://www.w3.org/2000/svg">
<g filter="url(#filter0_d_132_313)">
<path d="M95.5 11C95.5 5.75329 99.7533 1.5 105 1.5H638C643.247 1.5 647.5 5.75329 647.5 11V108C647.5 113.247 643.247 117.5 638 117.5H105C99.7533 117.5 95.5 113.247 95.5 108V11Z" fill="white" stroke="#EA8D45"/>
<rect x="598.134" y="109.134" width="50" height="50" transform="rotate(179.846 598.134 109.134)" fill="#EA8D45"/>
<rect x="648.097" y="118.134" width="50" height="36" transform="rotate(179.846 648.097 118.134)" fill="#EA8D45" fill-opacity="0.5"/>
<rect x="146.135" y="50.1342" width="50" height="50" transform="rotate(179.846 146.135 50.1342)" fill="#EA8D45"/>
<rect x="196.113" y="65.231" width="50" height="42.0968" transform="rotate(179.846 196.113 65.231)" fill="#EA8D45" fill-opacity="0.5"/>
<path d="M293.964 37.04L289.244 46.14V51H286.444V46.14L281.704 37.04H284.864L287.864 43.42L290.844 37.04H293.964ZM305.879 45.22C305.879 45.62 305.853 45.98 305.799 46.3H297.699C297.766 47.1 298.046 47.7267 298.539 48.18C299.033 48.6333 299.639 48.86 300.359 48.86C301.399 48.86 302.139 48.4133 302.579 47.52H305.599C305.279 48.5867 304.666 49.4667 303.759 50.16C302.853 50.84 301.739 51.18 300.419 51.18C299.353 51.18 298.393 50.9467 297.539 50.48C296.699 50 296.039 49.3267 295.559 48.46C295.093 47.5933 294.859 46.5933 294.859 45.46C294.859 44.3133 295.093 43.3067 295.559 42.44C296.026 41.5733 296.679 40.9067 297.519 40.44C298.359 39.9733 299.326 39.74 300.419 39.74C301.473 39.74 302.413 39.9667 303.239 40.42C304.079 40.8733 304.726 41.52 305.179 42.36C305.646 43.1867 305.879 44.14 305.879 45.22ZM302.979 44.42C302.966 43.7 302.706 43.1267 302.199 42.7C301.693 42.26 301.073 42.04 300.339 42.04C299.646 42.04 299.059 42.2533 298.579 42.68C298.113 43.0933 297.826 43.6733 297.719 44.42H302.979ZM312.163 51.18C311.256 51.18 310.443 51.02 309.723 50.7C309.003 50.3667 308.43 49.92 308.003 49.36C307.59 48.8 307.363 48.18 307.323 47.5H310.143C310.196 47.9267 310.403 48.28 310.763 48.56C311.136 48.84 311.596 48.98 312.143 48.98C312.676 48.98 313.09 48.8733 313.383 48.66C313.69 48.4467 313.843 48.1733 313.843 47.84C313.843 47.48 313.656 47.2133 313.283 47.04C312.923 46.8533 312.343 46.6533 311.543 46.44C310.716 46.24 310.036 46.0333 309.503 45.82C308.983 45.6067 308.53 45.28 308.143 44.84C307.77 44.4 307.583 43.8067 307.583 43.06C307.583 42.4467 307.756 41.8867 308.103 41.38C308.463 40.8733 308.97 40.4733 309.623 40.18C310.29 39.8867 311.07 39.74 311.963 39.74C313.283 39.74 314.336 40.0733 315.123 40.74C315.91 41.3933 316.343 42.28 316.423 43.4H313.743C313.703 42.96 313.516 42.6133 313.183 42.36C312.863 42.0933 312.43 41.96 311.883 41.96C311.376 41.96 310.983 42.0533 310.703 42.24C310.436 42.4267 310.303 42.6867 310.303 43.02C310.303 43.3933 310.49 43.68 310.863 43.88C311.236 44.0667 311.816 44.26 312.603 44.46C313.403 44.66 314.063 44.8667 314.583 45.08C315.103 45.2933 315.55 45.6267 315.923 46.08C316.31 46.52 316.51 47.1067 316.523 47.84C316.523 48.48 316.343 49.0533 315.983 49.56C315.636 50.0667 315.13 50.4667 314.463 50.76C313.81 51.04 313.043 51.18 312.163 51.18ZM322.441 36.8L322.121 46.46H319.761L319.421 36.8H322.441ZM321.001 51.14C320.495 51.14 320.075 50.9867 319.741 50.68C319.421 50.36 319.261 49.9667 319.261 49.5C319.261 49.0333 319.421 48.6467 319.741 48.34C320.075 48.02 320.495 47.86 321.001 47.86C321.495 47.86 321.901 48.02 322.221 48.34C322.541 48.6467 322.701 49.0333 322.701 49.5C322.701 49.9667 322.541 50.36 322.221 50.68C321.901 50.9867 321.495 51.14 321.001 51.14ZM338.577 43.84C339.364 43.9867 340.011 44.38 340.517 45.02C341.024 45.66 341.277 46.3933 341.277 47.22C341.277 47.9667 341.091 48.6267 340.717 49.2C340.357 49.76 339.831 50.2 339.137 50.52C338.444 50.84 337.624 51 336.677 51H330.657V37.04H336.417C337.364 37.04 338.177 37.1933 338.857 37.5C339.551 37.8067 340.071 38.2333 340.417 38.78C340.777 39.3267 340.957 39.9467 340.957 40.64C340.957 41.4533 340.737 42.1333 340.297 42.68C339.871 43.2267 339.297 43.6133 338.577 43.84ZM333.457 42.8H336.017C336.684 42.8 337.197 42.6533 337.557 42.36C337.917 42.0533 338.097 41.62 338.097 41.06C338.097 40.5 337.917 40.0667 337.557 39.76C337.197 39.4533 336.684 39.3 336.017 39.3H333.457V42.8ZM336.277 48.72C336.957 48.72 337.484 48.56 337.857 48.24C338.244 47.92 338.437 47.4667 338.437 46.88C338.437 46.28 338.237 45.8133 337.837 45.48C337.437 45.1333 336.897 44.96 336.217 44.96H333.457V48.72H336.277ZM342.789 45.42C342.789 44.3 343.009 43.3067 343.449 42.44C343.902 41.5733 344.509 40.9067 345.269 40.44C346.042 39.9733 346.902 39.74 347.849 39.74C348.676 39.74 349.396 39.9067 350.009 40.24C350.636 40.5733 351.136 40.9933 351.509 41.5V39.92H354.329V51H351.509V49.38C351.149 49.9 350.649 50.3333 350.009 50.68C349.382 51.0133 348.656 51.18 347.829 51.18C346.896 51.18 346.042 50.94 345.269 50.46C344.509 49.98 343.902 49.3067 343.449 48.44C343.009 47.56 342.789 46.5533 342.789 45.42ZM351.509 45.46C351.509 44.78 351.376 44.2 351.109 43.72C350.842 43.2267 350.482 42.8533 350.029 42.6C349.576 42.3333 349.089 42.2 348.569 42.2C348.049 42.2 347.569 42.3267 347.129 42.58C346.689 42.8333 346.329 43.2067 346.049 43.7C345.782 44.18 345.649 44.7533 345.649 45.42C345.649 46.0867 345.782 46.6733 346.049 47.18C346.329 47.6733 346.689 48.0533 347.129 48.32C347.582 48.5867 348.062 48.72 348.569 48.72C349.089 48.72 349.576 48.5933 350.029 48.34C350.482 48.0733 350.842 47.7 351.109 47.22C351.376 46.7267 351.509 46.14 351.509 45.46ZM359.864 41.64C360.224 41.0533 360.69 40.5933 361.264 40.26C361.85 39.9267 362.517 39.76 363.264 39.76V42.7H362.524C361.644 42.7 360.977 42.9067 360.524 43.32C360.084 43.7333 359.864 44.4533 359.864 45.48V51H357.064V39.92H359.864V41.64ZM364.43 45.42C364.43 44.3 364.65 43.3067 365.09 42.44C365.543 41.5733 366.15 40.9067 366.91 40.44C367.683 39.9733 368.543 39.74 369.49 39.74C370.316 39.74 371.036 39.9067 371.65 40.24C372.276 40.5733 372.776 40.9933 373.15 41.5V39.92H375.97V51H373.15V49.38C372.79 49.9 372.29 50.3333 371.65 50.68C371.023 51.0133 370.296 51.18 369.47 51.18C368.536 51.18 367.683 50.94 366.91 50.46C366.15 49.98 365.543 49.3067 365.09 48.44C364.65 47.56 364.43 46.5533 364.43 45.42ZM373.15 45.46C373.15 44.78 373.016 44.2 372.75 43.72C372.483 43.2267 372.123 42.8533 371.67 42.6C371.216 42.3333 370.73 42.2 370.21 42.2C369.69 42.2 369.21 42.3267 368.77 42.58C368.33 42.8333 367.97 43.2067 367.69 43.7C367.423 44.18 367.29 44.7533 367.29 45.42C367.29 46.0867 367.423 46.6733 367.69 47.18C367.97 47.6733 368.33 48.0533 368.77 48.32C369.223 48.5867 369.703 48.72 370.21 48.72C370.73 48.72 371.216 48.5933 371.67 48.34C372.123 48.0733 372.483 47.7 372.75 47.22C373.016 46.7267 373.15 46.14 373.15 45.46ZM384.844 39.76C386.164 39.76 387.231 40.18 388.044 41.02C388.858 41.8467 389.264 43.0067 389.264 44.5V51H386.464V44.88C386.464 44 386.244 43.3267 385.804 42.86C385.364 42.38 384.764 42.14 384.004 42.14C383.231 42.14 382.618 42.38 382.164 42.86C381.724 43.3267 381.504 44 381.504 44.88V51H378.704V39.92H381.504V41.3C381.878 40.82 382.351 40.4467 382.924 40.18C383.511 39.9 384.151 39.76 384.844 39.76ZM396.267 39.74C397.094 39.74 397.82 39.9067 398.447 40.24C399.074 40.56 399.567 40.98 399.927 41.5V39.92H402.747V51.08C402.747 52.1067 402.54 53.02 402.127 53.82C401.714 54.6333 401.094 55.2733 400.267 55.74C399.44 56.22 398.44 56.46 397.267 56.46C395.694 56.46 394.4 56.0933 393.387 55.36C392.387 54.6267 391.82 53.6267 391.687 52.36H394.467C394.614 52.8667 394.927 53.2667 395.407 53.56C395.9 53.8667 396.494 54.02 397.187 54.02C398 54.02 398.66 53.7733 399.167 53.28C399.674 52.8 399.927 52.0667 399.927 51.08V49.36C399.567 49.88 399.067 50.3133 398.427 50.66C397.8 51.0067 397.08 51.18 396.267 51.18C395.334 51.18 394.48 50.94 393.707 50.46C392.934 49.98 392.32 49.3067 391.867 48.44C391.427 47.56 391.207 46.5533 391.207 45.42C391.207 44.3 391.427 43.3067 391.867 42.44C392.32 41.5733 392.927 40.9067 393.687 40.44C394.46 39.9733 395.32 39.74 396.267 39.74ZM399.927 45.46C399.927 44.78 399.794 44.2 399.527 43.72C399.26 43.2267 398.9 42.8533 398.447 42.6C397.994 42.3333 397.507 42.2 396.987 42.2C396.467 42.2 395.987 42.3267 395.547 42.58C395.107 42.8333 394.747 43.2067 394.467 43.7C394.2 44.18 394.067 44.7533 394.067 45.42C394.067 46.0867 394.2 46.6733 394.467 47.18C394.747 47.6733 395.107 48.0533 395.547 48.32C396 48.5867 396.48 48.72 396.987 48.72C397.507 48.72 397.994 48.5933 398.447 48.34C398.9 48.0733 399.26 47.7 399.527 47.22C399.794 46.7267 399.927 46.14 399.927 45.46ZM418.807 48.34H413.247L412.327 51H409.387L414.407 37.02H417.667L422.687 51H419.727L418.807 48.34ZM418.047 46.1L416.027 40.26L414.007 46.1H418.047ZM430.704 39.76C432.024 39.76 433.09 40.18 433.904 41.02C434.717 41.8467 435.124 43.0067 435.124 44.5V51H432.324V44.88C432.324 44 432.104 43.3267 431.664 42.86C431.224 42.38 430.624 42.14 429.864 42.14C429.09 42.14 428.477 42.38 428.024 42.86C427.584 43.3267 427.364 44 427.364 44.88V51H424.564V39.92H427.364V41.3C427.737 40.82 428.21 40.4467 428.784 40.18C429.37 39.9 430.01 39.76 430.704 39.76ZM437.066 45.42C437.066 44.3 437.286 43.3067 437.726 42.44C438.18 41.5733 438.793 40.9067 439.566 40.44C440.34 39.9733 441.2 39.74 442.146 39.74C442.866 39.74 443.553 39.9 444.206 40.22C444.86 40.5267 445.38 40.94 445.766 41.46V36.2H448.606V51H445.766V49.36C445.42 49.9067 444.933 50.3467 444.306 50.68C443.68 51.0133 442.953 51.18 442.126 51.18C441.193 51.18 440.34 50.94 439.566 50.46C438.793 49.98 438.18 49.3067 437.726 48.44C437.286 47.56 437.066 46.5533 437.066 45.42ZM445.786 45.46C445.786 44.78 445.653 44.2 445.386 43.72C445.12 43.2267 444.76 42.8533 444.306 42.6C443.853 42.3333 443.366 42.2 442.846 42.2C442.326 42.2 441.846 42.3267 441.406 42.58C440.966 42.8333 440.606 43.2067 440.326 43.7C440.06 44.18 439.926 44.7533 439.926 45.42C439.926 46.0867 440.06 46.6733 440.326 47.18C440.606 47.6733 440.966 48.0533 441.406 48.32C441.86 48.5867 442.34 48.72 442.846 48.72C443.366 48.72 443.853 48.5933 444.306 48.34C444.76 48.0733 445.12 47.7 445.386 47.22C445.653 46.7267 445.786 46.14 445.786 45.46ZM450.621 45.42C450.621 44.3 450.841 43.3067 451.281 42.44C451.734 41.5733 452.341 40.9067 453.101 40.44C453.874 39.9733 454.734 39.74 455.681 39.74C456.508 39.74 457.228 39.9067 457.841 40.24C458.468 40.5733 458.968 40.9933 459.341 41.5V39.92H462.161V51H459.341V49.38C458.981 49.9 458.481 50.3333 457.841 50.68C457.214 51.0133 456.488 51.18 455.661 51.18C454.728 51.18 453.874 50.94 453.101 50.46C452.341 49.98 451.734 49.3067 451.281 48.44C450.841 47.56 450.621 46.5533 450.621 45.42ZM459.341 45.46C459.341 44.78 459.208 44.2 458.941 43.72C458.674 43.2267 458.314 42.8533 457.861 42.6C457.408 42.3333 456.921 42.2 456.401 42.2C455.881 42.2 455.401 42.3267 454.961 42.58C454.521 42.8333 454.161 43.2067 453.881 43.7C453.614 44.18 453.481 44.7533 453.481 45.42C453.481 46.0867 453.614 46.6733 453.881 47.18C454.161 47.6733 454.521 48.0533 454.961 48.32C455.414 48.5867 455.894 48.72 456.401 48.72C456.921 48.72 457.408 48.5933 457.861 48.34C458.314 48.0733 458.674 47.7 458.941 47.22C459.208 46.7267 459.341 46.14 459.341 45.46Z" fill="#EA8D45"/>
<path d="M298.499 73.84C299.286 73.9867 299.933 74.38 300.439 75.02C300.946 75.66 301.199 76.3933 301.199 77.22C301.199 77.9667 301.013 78.6267 300.639 79.2C300.279 79.76 299.753 80.2 299.059 80.52C298.366 80.84 297.546 81 296.599 81H290.579V67.04H296.339C297.286 67.04 298.099 67.1933 298.779 67.5C299.473 67.8067 299.993 68.2333 300.339 68.78C300.699 69.3267 300.879 69.9467 300.879 70.64C300.879 71.4533 300.659 72.1333 300.219 72.68C299.793 73.2267 299.219 73.6133 298.499 73.84ZM293.379 72.8H295.939C296.606 72.8 297.119 72.6533 297.479 72.36C297.839 72.0533 298.019 71.62 298.019 71.06C298.019 70.5 297.839 70.0667 297.479 69.76C297.119 69.4533 296.606 69.3 295.939 69.3H293.379V72.8ZM296.199 78.72C296.879 78.72 297.406 78.56 297.779 78.24C298.166 77.92 298.359 77.4667 298.359 76.88C298.359 76.28 298.159 75.8133 297.759 75.48C297.359 75.1333 296.819 74.96 296.139 74.96H293.379V78.72H296.199ZM313.731 75.22C313.731 75.62 313.704 75.98 313.651 76.3H305.551C305.617 77.1 305.897 77.7267 306.391 78.18C306.884 78.6333 307.491 78.86 308.211 78.86C309.251 78.86 309.991 78.4133 310.431 77.52H313.451C313.131 78.5867 312.517 79.4667 311.611 80.16C310.704 80.84 309.591 81.18 308.271 81.18C307.204 81.18 306.244 80.9467 305.391 80.48C304.551 80 303.891 79.3267 303.411 78.46C302.944 77.5933 302.711 76.5933 302.711 75.46C302.711 74.3133 302.944 73.3067 303.411 72.44C303.877 71.5733 304.531 70.9067 305.371 70.44C306.211 69.9733 307.177 69.74 308.271 69.74C309.324 69.74 310.264 69.9667 311.091 70.42C311.931 70.8733 312.577 71.52 313.031 72.36C313.497 73.1867 313.731 74.14 313.731 75.22ZM310.831 74.42C310.817 73.7 310.557 73.1267 310.051 72.7C309.544 72.26 308.924 72.04 308.191 72.04C307.497 72.04 306.911 72.2533 306.431 72.68C305.964 73.0933 305.677 73.6733 305.571 74.42H310.831ZM318.575 71.64C318.935 71.0533 319.401 70.5933 319.975 70.26C320.561 69.9267 321.228 69.76 321.975 69.76V72.7H321.235C320.355 72.7 319.688 72.9067 319.235 73.32C318.795 73.7333 318.575 74.4533 318.575 75.48V81H315.775V69.92H318.575V71.64ZM330.1 69.76C330.94 69.76 331.687 69.9467 332.34 70.32C332.994 70.68 333.5 71.22 333.86 71.94C334.234 72.6467 334.42 73.5 334.42 74.5V81H331.62V74.88C331.62 74 331.4 73.3267 330.96 72.86C330.52 72.38 329.92 72.14 329.16 72.14C328.387 72.14 327.774 72.38 327.32 72.86C326.88 73.3267 326.66 74 326.66 74.88V81H323.86V66.2H326.66V71.3C327.02 70.82 327.5 70.4467 328.1 70.18C328.7 69.9 329.367 69.76 330.1 69.76ZM336.363 75.42C336.363 74.3 336.583 73.3067 337.023 72.44C337.476 71.5733 338.083 70.9067 338.843 70.44C339.616 69.9733 340.476 69.74 341.423 69.74C342.25 69.74 342.97 69.9067 343.583 70.24C344.21 70.5733 344.71 70.9933 345.083 71.5V69.92H347.903V81H345.083V79.38C344.723 79.9 344.223 80.3333 343.583 80.68C342.956 81.0133 342.23 81.18 341.403 81.18C340.47 81.18 339.616 80.94 338.843 80.46C338.083 79.98 337.476 79.3067 337.023 78.44C336.583 77.56 336.363 76.5533 336.363 75.42ZM345.083 75.46C345.083 74.78 344.95 74.2 344.683 73.72C344.416 73.2267 344.056 72.8533 343.603 72.6C343.15 72.3333 342.663 72.2 342.143 72.2C341.623 72.2 341.143 72.3267 340.703 72.58C340.263 72.8333 339.903 73.2067 339.623 73.7C339.356 74.18 339.223 74.7533 339.223 75.42C339.223 76.0867 339.356 76.6733 339.623 77.18C339.903 77.6733 340.263 78.0533 340.703 78.32C341.156 78.5867 341.636 78.72 342.143 78.72C342.663 78.72 343.15 78.5933 343.603 78.34C344.056 78.0733 344.416 77.7 344.683 77.22C344.95 76.7267 345.083 76.14 345.083 75.46ZM354.878 81.18C353.971 81.18 353.158 81.02 352.438 80.7C351.718 80.3667 351.144 79.92 350.718 79.36C350.304 78.8 350.078 78.18 350.038 77.5H352.858C352.911 77.9267 353.118 78.28 353.478 78.56C353.851 78.84 354.311 78.98 354.858 78.98C355.391 78.98 355.804 78.8733 356.098 78.66C356.404 78.4467 356.558 78.1733 356.558 77.84C356.558 77.48 356.371 77.2133 355.998 77.04C355.638 76.8533 355.058 76.6533 354.258 76.44C353.431 76.24 352.751 76.0333 352.218 75.82C351.698 75.6067 351.244 75.28 350.858 74.84C350.484 74.4 350.298 73.8067 350.298 73.06C350.298 72.4467 350.471 71.8867 350.818 71.38C351.178 70.8733 351.684 70.4733 352.338 70.18C353.004 69.8867 353.784 69.74 354.678 69.74C355.998 69.74 357.051 70.0733 357.838 70.74C358.624 71.3933 359.058 72.28 359.138 73.4H356.458C356.418 72.96 356.231 72.6133 355.898 72.36C355.578 72.0933 355.144 71.96 354.598 71.96C354.091 71.96 353.698 72.0533 353.418 72.24C353.151 72.4267 353.018 72.6867 353.018 73.02C353.018 73.3933 353.204 73.68 353.578 73.88C353.951 74.0667 354.531 74.26 355.318 74.46C356.118 74.66 356.778 74.8667 357.298 75.08C357.818 75.2933 358.264 75.6267 358.638 76.08C359.024 76.52 359.224 77.1067 359.238 77.84C359.238 78.48 359.058 79.0533 358.698 79.56C358.351 80.0667 357.844 80.4667 357.178 80.76C356.524 81.04 355.758 81.18 354.878 81.18ZM362.956 68.6C362.463 68.6 362.05 68.4467 361.716 68.14C361.396 67.82 361.236 67.4267 361.236 66.96C361.236 66.4933 361.396 66.1067 361.716 65.8C362.05 65.48 362.463 65.32 362.956 65.32C363.45 65.32 363.856 65.48 364.176 65.8C364.51 66.1067 364.676 66.4933 364.676 66.96C364.676 67.4267 364.51 67.82 364.176 68.14C363.856 68.4467 363.45 68.6 362.956 68.6ZM364.336 69.92V81H361.536V69.92H364.336ZM369.903 66.2V81H367.103V66.2H369.903ZM376.715 75.42C376.715 74.3 376.935 73.3067 377.375 72.44C377.828 71.5733 378.441 70.9067 379.215 70.44C379.988 69.9733 380.848 69.74 381.795 69.74C382.515 69.74 383.201 69.9 383.855 70.22C384.508 70.5267 385.028 70.94 385.415 71.46V66.2H388.255V81H385.415V79.36C385.068 79.9067 384.581 80.3467 383.955 80.68C383.328 81.0133 382.601 81.18 381.775 81.18C380.841 81.18 379.988 80.94 379.215 80.46C378.441 79.98 377.828 79.3067 377.375 78.44C376.935 77.56 376.715 76.5533 376.715 75.42ZM385.435 75.46C385.435 74.78 385.301 74.2 385.035 73.72C384.768 73.2267 384.408 72.8533 383.955 72.6C383.501 72.3333 383.015 72.2 382.495 72.2C381.975 72.2 381.495 72.3267 381.055 72.58C380.615 72.8333 380.255 73.2067 379.975 73.7C379.708 74.18 379.575 74.7533 379.575 75.42C379.575 76.0867 379.708 76.6733 379.975 77.18C380.255 77.6733 380.615 78.0533 381.055 78.32C381.508 78.5867 381.988 78.72 382.495 78.72C383.015 78.72 383.501 78.5933 383.955 78.34C384.408 78.0733 384.768 77.7 385.035 77.22C385.301 76.7267 385.435 76.14 385.435 75.46ZM392.409 68.6C391.916 68.6 391.503 68.4467 391.169 68.14C390.849 67.82 390.689 67.4267 390.689 66.96C390.689 66.4933 390.849 66.1067 391.169 65.8C391.503 65.48 391.916 65.32 392.409 65.32C392.903 65.32 393.309 65.48 393.629 65.8C393.963 66.1067 394.129 66.4933 394.129 66.96C394.129 67.4267 393.963 67.82 393.629 68.14C393.309 68.4467 392.903 68.6 392.409 68.6ZM393.789 69.92V81H390.989V69.92H393.789ZM407.016 69.92V81H404.196V79.6C403.836 80.08 403.362 80.46 402.776 80.74C402.202 81.0067 401.576 81.14 400.896 81.14C400.029 81.14 399.262 80.96 398.596 80.6C397.929 80.2267 397.402 79.6867 397.016 78.98C396.642 78.26 396.456 77.4067 396.456 76.42V69.92H399.256V76.02C399.256 76.9 399.476 77.58 399.916 78.06C400.356 78.5267 400.956 78.76 401.716 78.76C402.489 78.76 403.096 78.5267 403.536 78.06C403.976 77.58 404.196 76.9 404.196 76.02V69.92H407.016ZM412.578 71.54C412.938 71.0067 413.432 70.5733 414.058 70.24C414.698 69.9067 415.425 69.74 416.238 69.74C417.185 69.74 418.038 69.9733 418.798 70.44C419.572 70.9067 420.178 71.5733 420.618 72.44C421.072 73.2933 421.298 74.2867 421.298 75.42C421.298 76.5533 421.072 77.56 420.618 78.44C420.178 79.3067 419.572 79.98 418.798 80.46C418.038 80.94 417.185 81.18 416.238 81.18C415.412 81.18 414.685 81.02 414.058 80.7C413.445 80.3667 412.952 79.94 412.578 79.42V81H409.778V66.2H412.578V71.54ZM418.438 75.42C418.438 74.7533 418.298 74.18 418.018 73.7C417.752 73.2067 417.392 72.8333 416.938 72.58C416.498 72.3267 416.018 72.2 415.498 72.2C414.992 72.2 414.512 72.3333 414.058 72.6C413.618 72.8533 413.258 73.2267 412.978 73.72C412.712 74.2133 412.578 74.7933 412.578 75.46C412.578 76.1267 412.712 76.7067 412.978 77.2C413.258 77.6933 413.618 78.0733 414.058 78.34C414.512 78.5933 414.992 78.72 415.498 78.72C416.018 78.72 416.498 78.5867 416.938 78.32C417.392 78.0533 417.752 77.6733 418.018 77.18C418.298 76.6867 418.438 76.1 418.438 75.42ZM422.613 75.42C422.613 74.3 422.833 73.3067 423.273 72.44C423.726 71.5733 424.333 70.9067 425.093 70.44C425.866 69.9733 426.726 69.74 427.673 69.74C428.5 69.74 429.22 69.9067 429.833 70.24C430.46 70.5733 430.96 70.9933 431.333 71.5V69.92H434.153V81H431.333V79.38C430.973 79.9 430.473 80.3333 429.833 80.68C429.206 81.0133 428.48 81.18 427.653 81.18C426.72 81.18 425.866 80.94 425.093 80.46C424.333 79.98 423.726 79.3067 423.273 78.44C422.833 77.56 422.613 76.5533 422.613 75.42ZM431.333 75.46C431.333 74.78 431.2 74.2 430.933 73.72C430.666 73.2267 430.306 72.8533 429.853 72.6C429.4 72.3333 428.913 72.2 428.393 72.2C427.873 72.2 427.393 72.3267 426.953 72.58C426.513 72.8333 426.153 73.2067 425.873 73.7C425.606 74.18 425.473 74.7533 425.473 75.42C425.473 76.0867 425.606 76.6733 425.873 77.18C426.153 77.6733 426.513 78.0533 426.953 78.32C427.406 78.5867 427.886 78.72 428.393 78.72C428.913 78.72 429.4 78.5933 429.853 78.34C430.306 78.0733 430.666 77.7 430.933 77.22C431.2 76.7267 431.333 76.14 431.333 75.46ZM443.128 69.76C443.968 69.76 444.714 69.9467 445.368 70.32C446.021 70.68 446.528 71.22 446.888 71.94C447.261 72.6467 447.448 73.5 447.448 74.5V81H444.648V74.88C444.648 74 444.428 73.3267 443.988 72.86C443.548 72.38 442.948 72.14 442.188 72.14C441.414 72.14 440.801 72.38 440.348 72.86C439.908 73.3267 439.688 74 439.688 74.88V81H436.888V66.2H439.688V71.3C440.048 70.82 440.528 70.4467 441.128 70.18C441.728 69.9 442.394 69.76 443.128 69.76ZM453.73 66.8L453.41 76.46H451.05L450.71 66.8H453.73ZM452.29 81.14C451.784 81.14 451.364 80.9867 451.03 80.68C450.71 80.36 450.55 79.9667 450.55 79.5C450.55 79.0333 450.71 78.6467 451.03 78.34C451.364 78.02 451.784 77.86 452.29 77.86C452.784 77.86 453.19 78.02 453.51 78.34C453.83 78.6467 453.99 79.0333 453.99 79.5C453.99 79.9667 453.83 80.36 453.51 80.68C453.19 80.9867 452.784 81.14 452.29 81.14Z" fill="#EA8D45" fill-opacity="0.5"/>
<path fill-rule="evenodd" clip-rule="evenodd" d="M617.181 19.0213C621.049 18.5931 624.952 18.5931 628.819 19.0213C630.96 19.2613 632.688 20.9475 632.939 23.0963C633.397 27.0188 633.397 30.9813 632.939 34.9038C632.688 37.0525 630.96 38.7388 628.819 38.9788C624.952 39.407 621.049 39.407 617.181 38.9788C615.04 38.7388 613.313 37.0525 613.061 34.9038C612.603 30.9817 612.603 27.0196 613.061 23.0975C613.188 22.0536 613.664 21.0832 614.412 20.3436C615.16 19.604 616.135 19.1385 617.18 19.0225M618.588 24.5875C618.763 24.412 619.002 24.3134 619.25 24.3134C619.499 24.3134 619.737 24.412 619.913 24.5875L623 27.675L626.088 24.5875C626.173 24.4954 626.277 24.4215 626.392 24.3703C626.507 24.3191 626.631 24.2915 626.757 24.2893C626.883 24.2871 627.008 24.3102 627.125 24.3574C627.241 24.4045 627.347 24.4747 627.436 24.5637C627.525 24.6528 627.596 24.7588 627.643 24.8755C627.69 24.9923 627.713 25.1173 627.711 25.2432C627.709 25.3691 627.681 25.4932 627.63 25.6082C627.579 25.7232 627.505 25.8267 627.413 25.9125L624.325 29L627.413 32.0875C627.578 32.2652 627.668 32.5003 627.664 32.7432C627.66 32.9861 627.561 33.2178 627.39 33.3896C627.218 33.5613 626.986 33.6597 626.743 33.664C626.5 33.6683 626.265 33.5781 626.088 33.4125L623 30.325L619.913 33.4125C619.827 33.5046 619.723 33.5785 619.608 33.6298C619.493 33.681 619.369 33.7085 619.243 33.7108C619.117 33.713 618.992 33.6898 618.876 33.6427C618.759 33.5955 618.653 33.5253 618.564 33.4363C618.475 33.3473 618.405 33.2413 618.358 33.1245C618.31 33.0078 618.287 32.8828 618.289 32.7569C618.292 32.631 618.319 32.5069 618.37 32.3919C618.422 32.2769 618.496 32.1734 618.588 32.0875L621.675 29L618.588 25.9125C618.412 25.7367 618.313 25.4985 618.313 25.25C618.313 25.0016 618.412 24.7633 618.588 24.5875Z" fill="#B9B9B9"/>
</g>
<defs>
<filter id="filter0_d_132_313" x="-4" y="0.134338" width="656.097" height="126.134" filterUnits="userSpaceOnUse" color-interpolation-filters="sRGB">
<feFlood flood-opacity="0" result="BackgroundImageFix"/>
<feColorMatrix in="SourceAlpha" type="matrix" values="0 0 0 0 0 0 0 0 0 0 0 0 0 0 0 0 0 0 127 0" result="hardAlpha"/>
<feOffset dy="4"/>
<feGaussianBlur stdDeviation="2"/>
<feComposite in2="hardAlpha" operator="out"/>
<feColorMatrix type="matrix" values="0 0 0 0 0 0 0 0 0 0 0 0 0 0 0 0 0 0 0.25 0"/>
<feBlend mode="normal" in2="BackgroundImageFix" result="effect1_dropShadow_132_313"/>
<feBlend mode="normal" in="SourceGraphic" in2="effect1_dropShadow_132_313" result="shape"/>
</filter>
</defs>
</svg>
