<svg width="58" height="58" viewBox="0 0 58 58" fill="none" xmlns="http://www.w3.org/2000/svg">
<g filter="url(#filter0_d_94_91)">
<ellipse cx="29" cy="25" rx="25" ry="25" fill="white"/>
<path d="M28.8213 24.8214C30.287 24.8214 31.7198 24.3868 32.9385 23.5725C34.1572 22.7582 35.107 21.6008 35.6679 20.2467C36.2288 18.8925 36.3756 17.4025 36.0897 15.965C35.8037 14.5274 35.0979 13.207 34.0615 12.1706C33.0251 11.1341 31.7046 10.4283 30.2671 10.1424C28.8296 9.85645 27.3395 10.0032 25.9854 10.5641C24.6313 11.125 23.4739 12.0749 22.6596 13.2935C21.8453 14.5122 21.4106 15.945 21.4106 17.4107C21.4126 19.3756 22.194 21.2594 23.5834 22.6487C24.9727 24.0381 26.8565 24.8195 28.8213 24.8214ZM28.8213 12.4702C29.7985 12.4702 30.7537 12.76 31.5661 13.3029C32.3786 13.8457 33.0118 14.6173 33.3857 15.5201C33.7597 16.4228 33.8575 17.4162 33.6669 18.3746C33.4763 19.3329 33.0057 20.2132 32.3148 20.9042C31.6238 21.5951 30.7435 22.0656 29.7852 22.2563C28.8268 22.4469 27.8335 22.3491 26.9307 21.9751C26.028 21.6012 25.2564 20.968 24.7135 20.1555C24.1706 19.343 23.8809 18.3879 23.8809 17.4107C23.8809 16.1004 24.4014 14.8438 25.3279 13.9173C26.2544 12.9908 27.5111 12.4702 28.8213 12.4702Z" fill="#EA8D45"/>
<path d="M28.8216 27.2917C25.8745 27.295 23.049 28.4672 20.965 30.5511C18.881 32.6351 17.7088 35.4606 17.7056 38.4078C17.7056 38.7353 17.8357 39.0495 18.0673 39.2811C18.299 39.5128 18.6131 39.6429 18.9407 39.6429C19.2683 39.6429 19.5824 39.5128 19.814 39.2811C20.0457 39.0495 20.1758 38.7353 20.1758 38.4078C20.1758 36.1147 21.0867 33.9156 22.7081 32.2942C24.3295 30.6728 26.5286 29.7619 28.8216 29.7619C31.1146 29.7619 33.3137 30.6728 34.9351 32.2942C36.5565 33.9156 37.4674 36.1147 37.4674 38.4078C37.4674 38.7353 37.5976 39.0495 37.8292 39.2811C38.0608 39.5128 38.375 39.6429 38.7026 39.6429C39.0301 39.6429 39.3443 39.5128 39.5759 39.2811C39.8075 39.0495 39.9377 38.7353 39.9377 38.4078C39.9344 35.4606 38.7622 32.6351 36.6782 30.5511C34.5943 28.4672 31.7688 27.295 28.8216 27.2917Z" fill="#EA8D45"/>
</g>
<defs>
<filter id="filter0_d_94_91" x="0" y="0" width="58" height="58" filterUnits="userSpaceOnUse" color-interpolation-filters="sRGB">
<feFlood flood-opacity="0" result="BackgroundImageFix"/>
<feColorMatrix in="SourceAlpha" type="matrix" values="0 0 0 0 0 0 0 0 0 0 0 0 0 0 0 0 0 0 127 0" result="hardAlpha"/>
<feOffset dy="4"/>
<feGaussianBlur stdDeviation="2"/>
<feComposite in2="hardAlpha" operator="out"/>
<feColorMatrix type="matrix" values="0 0 0 0 0 0 0 0 0 0 0 0 0 0 0 0 0 0 0.25 0"/>
<feBlend mode="normal" in2="BackgroundImageFix" result="effect1_dropShadow_94_91"/>
<feBlend mode="normal" in="SourceGraphic" in2="effect1_dropShadow_94_91" result="shape"/>
</filter>
</defs>
</svg>
