<svg width="30" height="30" viewBox="0 0 30 30" fill="none" xmlns="http://www.w3.org/2000/svg">
<path d="M25.3901 15.8088L26.0363 13.3938C26.7913 10.575 27.1701 9.16625 26.8863 7.94625C26.6614 6.98312 26.156 6.10832 25.4338 5.4325C24.5201 4.57625 23.1101 4.19875 20.2913 3.44375C17.4726 2.6875 16.0626 2.31 14.8438 2.59375C13.8807 2.81864 13.0059 3.32412 12.3301 4.04625C11.5963 4.82875 11.2138 5.975 10.6451 8.0575L10.3401 9.18875L9.69383 11.6037C8.93758 14.4225 8.56008 15.8312 8.84383 17.0512C9.06872 18.0144 9.5742 18.8892 10.2963 19.565C11.2101 20.4213 12.6201 20.7987 15.4388 21.555C17.9788 22.235 19.3751 22.6088 20.5188 22.4675C20.6438 22.4517 20.7663 22.43 20.8863 22.4025C21.8492 22.1783 22.7239 21.6737 23.4001 20.9525C24.2563 20.0375 24.6338 18.6275 25.3901 15.8088Z" stroke="#EA8D45" stroke-width="1.4375"/>
<path d="M20.5188 22.4675C20.2575 23.2679 19.7983 23.9894 19.1838 24.565C18.2701 25.4213 16.8601 25.7988 14.0413 26.5538C11.2226 27.3088 9.81258 27.6875 8.59383 27.4025C7.63085 27.178 6.75606 26.6729 6.08008 25.9512C5.22383 25.0375 4.84508 23.6275 4.09008 20.8087L3.44383 18.3938C2.68758 15.575 2.31008 14.165 2.59383 12.9463C2.81872 11.9831 3.3242 11.1083 4.04633 10.4325C4.96008 9.57625 6.37008 9.19875 9.18883 8.4425C9.7205 8.29917 10.2059 8.17042 10.6451 8.05625" stroke="#EA8D45" stroke-width="1.4375"/>
<path d="M14.7213 12.5L20.7588 14.1175M13.75 16.1225L17.3725 17.0925" stroke="#EA8D45" stroke-width="1.4375" stroke-linecap="round"/>
</svg>
