<svg width="653" height="127" viewBox="0 0 653 127" fill="none" xmlns="http://www.w3.org/2000/svg">
<g filter="url(#filter0_d_132_406)">
<path d="M95.5 11C95.5 5.75329 99.7533 1.5 105 1.5H638C643.247 1.5 647.5 5.75329 647.5 11V108C647.5 113.247 643.247 117.5 638 117.5H105C99.7533 117.5 95.5 113.247 95.5 108V11Z" fill="white" stroke="#EA8D45"/>
<rect x="598.134" y="109.134" width="50" height="50" transform="rotate(179.846 598.134 109.134)" fill="#EA8D45"/>
<rect x="648.097" y="118.134" width="50" height="36" transform="rotate(179.846 648.097 118.134)" fill="#EA8D45" fill-opacity="0.5"/>
<rect x="146.135" y="50.134" width="50" height="50" transform="rotate(179.846 146.135 50.134)" fill="#EA8D45"/>
<rect x="196.113" y="65.231" width="50" height="42.0968" transform="rotate(179.846 196.113 65.231)" fill="#EA8D45" fill-opacity="0.5"/>
<path d="M274.879 51L271.799 45.56H270.479V51H267.679V37.04H272.919C273.999 37.04 274.919 37.2333 275.679 37.62C276.439 37.9933 277.005 38.5067 277.379 39.16C277.765 39.8 277.959 40.52 277.959 41.32C277.959 42.24 277.692 43.0733 277.159 43.82C276.625 44.5533 275.832 45.06 274.779 45.34L278.119 51H274.879ZM270.479 43.46H272.819C273.579 43.46 274.145 43.28 274.519 42.92C274.892 42.5467 275.079 42.0333 275.079 41.38C275.079 40.74 274.892 40.2467 274.519 39.9C274.145 39.54 273.579 39.36 272.819 39.36H270.479V43.46ZM290.791 45.22C290.791 45.62 290.765 45.98 290.711 46.3H282.611C282.678 47.1 282.958 47.7267 283.451 48.18C283.945 48.6333 284.551 48.86 285.271 48.86C286.311 48.86 287.051 48.4133 287.491 47.52H290.511C290.191 48.5867 289.578 49.4667 288.671 50.16C287.765 50.84 286.651 51.18 285.331 51.18C284.265 51.18 283.305 50.9467 282.451 50.48C281.611 50 280.951 49.3267 280.471 48.46C280.005 47.5933 279.771 46.5933 279.771 45.46C279.771 44.3133 280.005 43.3067 280.471 42.44C280.938 41.5733 281.591 40.9067 282.431 40.44C283.271 39.9733 284.238 39.74 285.331 39.74C286.385 39.74 287.325 39.9667 288.151 40.42C288.991 40.8733 289.638 41.52 290.091 42.36C290.558 43.1867 290.791 44.14 290.791 45.22ZM287.891 44.42C287.878 43.7 287.618 43.1267 287.111 42.7C286.605 42.26 285.985 42.04 285.251 42.04C284.558 42.04 283.971 42.2533 283.491 42.68C283.025 43.0933 282.738 43.6733 282.631 44.42H287.891ZM295.635 41.52C295.995 41.0133 296.488 40.5933 297.115 40.26C297.755 39.9133 298.482 39.74 299.295 39.74C300.242 39.74 301.095 39.9733 301.855 40.44C302.628 40.9067 303.235 41.5733 303.675 42.44C304.128 43.2933 304.355 44.2867 304.355 45.42C304.355 46.5533 304.128 47.56 303.675 48.44C303.235 49.3067 302.628 49.98 301.855 50.46C301.095 50.94 300.242 51.18 299.295 51.18C298.482 51.18 297.762 51.0133 297.135 50.68C296.522 50.3467 296.022 49.9267 295.635 49.42V56.28H292.835V39.92H295.635V41.52ZM301.495 45.42C301.495 44.7533 301.355 44.18 301.075 43.7C300.808 43.2067 300.448 42.8333 299.995 42.58C299.555 42.3267 299.075 42.2 298.555 42.2C298.048 42.2 297.568 42.3333 297.115 42.6C296.675 42.8533 296.315 43.2267 296.035 43.72C295.768 44.2133 295.635 44.7933 295.635 45.46C295.635 46.1267 295.768 46.7067 296.035 47.2C296.315 47.6933 296.675 48.0733 297.115 48.34C297.568 48.5933 298.048 48.72 298.555 48.72C299.075 48.72 299.555 48.5867 299.995 48.32C300.448 48.0533 300.808 47.6733 301.075 47.18C301.355 46.6867 301.495 46.1 301.495 45.42ZM311.31 51.18C310.243 51.18 309.283 50.9467 308.43 50.48C307.576 50 306.903 49.3267 306.41 48.46C305.93 47.5933 305.69 46.5933 305.69 45.46C305.69 44.3267 305.936 43.3267 306.43 42.46C306.936 41.5933 307.623 40.9267 308.49 40.46C309.356 39.98 310.323 39.74 311.39 39.74C312.456 39.74 313.423 39.98 314.29 40.46C315.156 40.9267 315.836 41.5933 316.33 42.46C316.836 43.3267 317.09 44.3267 317.09 45.46C317.09 46.5933 316.83 47.5933 316.31 48.46C315.803 49.3267 315.11 50 314.23 50.48C313.363 50.9467 312.39 51.18 311.31 51.18ZM311.31 48.74C311.816 48.74 312.29 48.62 312.73 48.38C313.183 48.1267 313.543 47.7533 313.81 47.26C314.076 46.7667 314.21 46.1667 314.21 45.46C314.21 44.4067 313.93 43.6 313.37 43.04C312.823 42.4667 312.15 42.18 311.35 42.18C310.55 42.18 309.876 42.4667 309.33 43.04C308.796 43.6 308.53 44.4067 308.53 45.46C308.53 46.5133 308.79 47.3267 309.31 47.9C309.843 48.46 310.51 48.74 311.31 48.74ZM321.944 41.64C322.304 41.0533 322.77 40.5933 323.344 40.26C323.93 39.9267 324.597 39.76 325.344 39.76V42.7H324.604C323.724 42.7 323.057 42.9067 322.604 43.32C322.164 43.7333 321.944 44.4533 321.944 45.48V51H319.144V39.92H321.944V41.64ZM330.49 42.22V47.58C330.49 47.9533 330.576 48.2267 330.75 48.4C330.936 48.56 331.243 48.64 331.67 48.64H332.97V51H331.21C328.85 51 327.67 49.8533 327.67 47.56V42.22H326.35V39.92H327.67V37.18H330.49V39.92H332.97V42.22H330.49ZM339.029 45.42C339.029 44.3 339.249 43.3067 339.689 42.44C340.142 41.5733 340.749 40.9067 341.509 40.44C342.282 39.9733 343.142 39.74 344.089 39.74C344.916 39.74 345.636 39.9067 346.249 40.24C346.876 40.5733 347.376 40.9933 347.749 41.5V39.92H350.569V51H347.749V49.38C347.389 49.9 346.889 50.3333 346.249 50.68C345.622 51.0133 344.896 51.18 344.069 51.18C343.136 51.18 342.282 50.94 341.509 50.46C340.749 49.98 340.142 49.3067 339.689 48.44C339.249 47.56 339.029 46.5533 339.029 45.42ZM347.749 45.46C347.749 44.78 347.616 44.2 347.349 43.72C347.082 43.2267 346.722 42.8533 346.269 42.6C345.816 42.3333 345.329 42.2 344.809 42.2C344.289 42.2 343.809 42.3267 343.369 42.58C342.929 42.8333 342.569 43.2067 342.289 43.7C342.022 44.18 341.889 44.7533 341.889 45.42C341.889 46.0867 342.022 46.6733 342.289 47.18C342.569 47.6733 342.929 48.0533 343.369 48.32C343.822 48.5867 344.302 48.72 344.809 48.72C345.329 48.72 345.816 48.5933 346.269 48.34C346.722 48.0733 347.082 47.7 347.349 47.22C347.616 46.7267 347.749 46.14 347.749 45.46ZM359.864 51L356.104 46.28V51H353.304V36.2H356.104V44.62L359.824 39.92H363.464L358.584 45.48L363.504 51H359.864ZM364.264 45.42C364.264 44.3 364.484 43.3067 364.924 42.44C365.377 41.5733 365.984 40.9067 366.744 40.44C367.517 39.9733 368.377 39.74 369.324 39.74C370.15 39.74 370.87 39.9067 371.484 40.24C372.11 40.5733 372.61 40.9933 372.984 41.5V39.92H375.804V51H372.984V49.38C372.624 49.9 372.124 50.3333 371.484 50.68C370.857 51.0133 370.13 51.18 369.304 51.18C368.37 51.18 367.517 50.94 366.744 50.46C365.984 49.98 365.377 49.3067 364.924 48.44C364.484 47.56 364.264 46.5533 364.264 45.42ZM372.984 45.46C372.984 44.78 372.85 44.2 372.584 43.72C372.317 43.2267 371.957 42.8533 371.504 42.6C371.05 42.3333 370.564 42.2 370.044 42.2C369.524 42.2 369.044 42.3267 368.604 42.58C368.164 42.8333 367.804 43.2067 367.524 43.7C367.257 44.18 367.124 44.7533 367.124 45.42C367.124 46.0867 367.257 46.6733 367.524 47.18C367.804 47.6733 368.164 48.0533 368.604 48.32C369.057 48.5867 369.537 48.72 370.044 48.72C370.564 48.72 371.05 48.5933 371.504 48.34C371.957 48.0733 372.317 47.7 372.584 47.22C372.85 46.7267 372.984 46.14 372.984 45.46ZM384.678 39.76C385.998 39.76 387.065 40.18 387.878 41.02C388.692 41.8467 389.098 43.0067 389.098 44.5V51H386.298V44.88C386.298 44 386.078 43.3267 385.638 42.86C385.198 42.38 384.598 42.14 383.838 42.14C383.065 42.14 382.452 42.38 381.998 42.86C381.558 43.3267 381.338 44 381.338 44.88V51H378.538V39.92H381.338V41.3C381.712 40.82 382.185 40.4467 382.758 40.18C383.345 39.9 383.985 39.76 384.678 39.76ZM395.806 45.42C395.806 44.3 396.026 43.3067 396.466 42.44C396.92 41.5733 397.533 40.9067 398.306 40.44C399.08 39.9733 399.94 39.74 400.886 39.74C401.606 39.74 402.293 39.9 402.946 40.22C403.6 40.5267 404.12 40.94 404.506 41.46V36.2H407.346V51H404.506V49.36C404.16 49.9067 403.673 50.3467 403.046 50.68C402.42 51.0133 401.693 51.18 400.866 51.18C399.933 51.18 399.08 50.94 398.306 50.46C397.533 49.98 396.92 49.3067 396.466 48.44C396.026 47.56 395.806 46.5533 395.806 45.42ZM404.526 45.46C404.526 44.78 404.393 44.2 404.126 43.72C403.86 43.2267 403.5 42.8533 403.046 42.6C402.593 42.3333 402.106 42.2 401.586 42.2C401.066 42.2 400.586 42.3267 400.146 42.58C399.706 42.8333 399.346 43.2067 399.066 43.7C398.8 44.18 398.666 44.7533 398.666 45.42C398.666 46.0867 398.8 46.6733 399.066 47.18C399.346 47.6733 399.706 48.0533 400.146 48.32C400.6 48.5867 401.08 48.72 401.586 48.72C402.106 48.72 402.593 48.5933 403.046 48.34C403.5 48.0733 403.86 47.7 404.126 47.22C404.393 46.7267 404.526 46.14 404.526 45.46ZM411.501 38.6C411.008 38.6 410.595 38.4467 410.261 38.14C409.941 37.82 409.781 37.4267 409.781 36.96C409.781 36.4933 409.941 36.1067 410.261 35.8C410.595 35.48 411.008 35.32 411.501 35.32C411.995 35.32 412.401 35.48 412.721 35.8C413.055 36.1067 413.221 36.4933 413.221 36.96C413.221 37.4267 413.055 37.82 412.721 38.14C412.401 38.4467 411.995 38.6 411.501 38.6ZM412.881 39.92V51H410.081V39.92H412.881ZM414.928 45.46C414.928 44.3133 415.161 43.3133 415.628 42.46C416.094 41.5933 416.741 40.9267 417.568 40.46C418.394 39.98 419.341 39.74 420.408 39.74C421.781 39.74 422.914 40.0867 423.808 40.78C424.714 41.46 425.321 42.42 425.628 43.66H422.608C422.448 43.18 422.174 42.8067 421.788 42.54C421.414 42.26 420.948 42.12 420.388 42.12C419.588 42.12 418.954 42.4133 418.488 43C418.021 43.5733 417.788 44.3933 417.788 45.46C417.788 46.5133 418.021 47.3333 418.488 47.92C418.954 48.4933 419.588 48.78 420.388 48.78C421.521 48.78 422.261 48.2733 422.608 47.26H425.628C425.321 48.46 424.714 49.4133 423.808 50.12C422.901 50.8267 421.768 51.18 420.408 51.18C419.341 51.18 418.394 50.9467 417.568 50.48C416.741 50 416.094 49.3333 415.628 48.48C415.161 47.6133 414.928 46.6067 414.928 45.46ZM437.979 45.22C437.979 45.62 437.952 45.98 437.899 46.3H429.799C429.865 47.1 430.145 47.7267 430.639 48.18C431.132 48.6333 431.739 48.86 432.459 48.86C433.499 48.86 434.239 48.4133 434.679 47.52H437.699C437.379 48.5867 436.765 49.4667 435.859 50.16C434.952 50.84 433.839 51.18 432.519 51.18C431.452 51.18 430.492 50.9467 429.639 50.48C428.799 50 428.139 49.3267 427.659 48.46C427.192 47.5933 426.959 46.5933 426.959 45.46C426.959 44.3133 427.192 43.3067 427.659 42.44C428.125 41.5733 428.779 40.9067 429.619 40.44C430.459 39.9733 431.425 39.74 432.519 39.74C433.572 39.74 434.512 39.9667 435.339 40.42C436.179 40.8733 436.825 41.52 437.279 42.36C437.745 43.1867 437.979 44.14 437.979 45.22ZM435.079 44.42C435.065 43.7 434.805 43.1267 434.299 42.7C433.792 42.26 433.172 42.04 432.439 42.04C431.745 42.04 431.159 42.2533 430.679 42.68C430.212 43.0933 429.925 43.6733 429.819 44.42H435.079ZM443.283 42.22V47.58C443.283 47.9533 443.369 48.2267 443.543 48.4C443.729 48.56 444.036 48.64 444.463 48.64H445.763V51H444.003C441.643 51 440.463 49.8533 440.463 47.56V42.22H439.143V39.92H440.463V37.18H443.283V39.92H445.763V42.22H443.283ZM447.056 45.42C447.056 44.3 447.276 43.3067 447.716 42.44C448.17 41.5733 448.776 40.9067 449.536 40.44C450.31 39.9733 451.17 39.74 452.116 39.74C452.943 39.74 453.663 39.9067 454.276 40.24C454.903 40.5733 455.403 40.9933 455.776 41.5V39.92H458.596V51H455.776V49.38C455.416 49.9 454.916 50.3333 454.276 50.68C453.65 51.0133 452.923 51.18 452.096 51.18C451.163 51.18 450.31 50.94 449.536 50.46C448.776 49.98 448.17 49.3067 447.716 48.44C447.276 47.56 447.056 46.5533 447.056 45.42ZM455.776 45.46C455.776 44.78 455.643 44.2 455.376 43.72C455.11 43.2267 454.75 42.8533 454.296 42.6C453.843 42.3333 453.356 42.2 452.836 42.2C452.316 42.2 451.836 42.3267 451.396 42.58C450.956 42.8333 450.596 43.2067 450.316 43.7C450.05 44.18 449.916 44.7533 449.916 45.42C449.916 46.0867 450.05 46.6733 450.316 47.18C450.596 47.6733 450.956 48.0533 451.396 48.32C451.85 48.5867 452.33 48.72 452.836 48.72C453.356 48.72 453.843 48.5933 454.296 48.34C454.75 48.0733 455.11 47.7 455.376 47.22C455.643 46.7267 455.776 46.14 455.776 45.46ZM467.891 51L464.131 46.28V51H461.331V36.2H464.131V44.62L467.851 39.92H471.491L466.611 45.48L471.531 51H467.891ZM476.631 36.8L476.311 46.46H473.951L473.611 36.8H476.631ZM475.191 51.14C474.684 51.14 474.264 50.9867 473.931 50.68C473.611 50.36 473.451 49.9667 473.451 49.5C473.451 49.0333 473.611 48.6467 473.931 48.34C474.264 48.02 474.684 47.86 475.191 47.86C475.684 47.86 476.091 48.02 476.411 48.34C476.731 48.6467 476.891 49.0333 476.891 49.5C476.891 49.9667 476.731 50.36 476.411 50.68C476.091 50.9867 475.684 51.14 475.191 51.14Z" fill="#EA8D45"/>
<path d="M228.768 67.04V81H225.968V71.92L222.228 81H220.108L216.348 71.92V81H213.548V67.04H216.728L221.168 77.42L225.608 67.04H228.768ZM236.456 81.18C235.39 81.18 234.43 80.9467 233.576 80.48C232.723 80 232.05 79.3267 231.556 78.46C231.076 77.5933 230.836 76.5933 230.836 75.46C230.836 74.3267 231.083 73.3267 231.576 72.46C232.083 71.5933 232.77 70.9267 233.636 70.46C234.503 69.98 235.47 69.74 236.536 69.74C237.603 69.74 238.57 69.98 239.436 70.46C240.303 70.9267 240.983 71.5933 241.476 72.46C241.983 73.3267 242.236 74.3267 242.236 75.46C242.236 76.5933 241.976 77.5933 241.456 78.46C240.95 79.3267 240.256 80 239.376 80.48C238.51 80.9467 237.536 81.18 236.456 81.18ZM236.456 78.74C236.963 78.74 237.436 78.62 237.876 78.38C238.33 78.1267 238.69 77.7533 238.956 77.26C239.223 76.7667 239.356 76.1667 239.356 75.46C239.356 74.4067 239.076 73.6 238.516 73.04C237.97 72.4667 237.296 72.18 236.496 72.18C235.696 72.18 235.023 72.4667 234.476 73.04C233.943 73.6 233.676 74.4067 233.676 75.46C233.676 76.5133 233.936 77.3267 234.456 77.9C234.99 78.46 235.656 78.74 236.456 78.74ZM250.53 69.76C251.37 69.76 252.117 69.9467 252.77 70.32C253.423 70.68 253.93 71.22 254.29 71.94C254.663 72.6467 254.85 73.5 254.85 74.5V81H252.05V74.88C252.05 74 251.83 73.3267 251.39 72.86C250.95 72.38 250.35 72.14 249.59 72.14C248.817 72.14 248.203 72.38 247.75 72.86C247.31 73.3267 247.09 74 247.09 74.88V81H244.29V66.2H247.09V71.3C247.45 70.82 247.93 70.4467 248.53 70.18C249.13 69.9 249.797 69.76 250.53 69.76ZM262.433 81.18C261.366 81.18 260.406 80.9467 259.553 80.48C258.699 80 258.026 79.3267 257.533 78.46C257.053 77.5933 256.813 76.5933 256.813 75.46C256.813 74.3267 257.059 73.3267 257.553 72.46C258.059 71.5933 258.746 70.9267 259.613 70.46C260.479 69.98 261.446 69.74 262.513 69.74C263.579 69.74 264.546 69.98 265.413 70.46C266.279 70.9267 266.959 71.5933 267.453 72.46C267.959 73.3267 268.213 74.3267 268.213 75.46C268.213 76.5933 267.953 77.5933 267.433 78.46C266.926 79.3267 266.233 80 265.353 80.48C264.486 80.9467 263.513 81.18 262.433 81.18ZM262.433 78.74C262.939 78.74 263.413 78.62 263.853 78.38C264.306 78.1267 264.666 77.7533 264.933 77.26C265.199 76.7667 265.333 76.1667 265.333 75.46C265.333 74.4067 265.053 73.6 264.493 73.04C263.946 72.4667 263.273 72.18 262.473 72.18C261.673 72.18 260.999 72.4667 260.453 73.04C259.919 73.6 259.653 74.4067 259.653 75.46C259.653 76.5133 259.913 77.3267 260.433 77.9C260.966 78.46 261.633 78.74 262.433 78.74ZM276.407 69.76C277.727 69.76 278.793 70.18 279.607 71.02C280.42 71.8467 280.827 73.0067 280.827 74.5V81H278.027V74.88C278.027 74 277.807 73.3267 277.367 72.86C276.927 72.38 276.327 72.14 275.567 72.14C274.793 72.14 274.18 72.38 273.727 72.86C273.287 73.3267 273.067 74 273.067 74.88V81H270.267V69.92H273.067V71.3C273.44 70.82 273.913 70.4467 274.487 70.18C275.073 69.9 275.713 69.76 276.407 69.76ZM291.515 72.22V77.58C291.515 77.9533 291.602 78.2267 291.775 78.4C291.962 78.56 292.268 78.64 292.695 78.64H293.995V81H292.235C289.875 81 288.695 79.8533 288.695 77.56V72.22H287.375V69.92H288.695V67.18H291.515V69.92H293.995V72.22H291.515ZM306.469 69.92V81H303.649V79.6C303.289 80.08 302.816 80.46 302.229 80.74C301.656 81.0067 301.029 81.14 300.349 81.14C299.482 81.14 298.716 80.96 298.049 80.6C297.382 80.2267 296.856 79.6867 296.469 78.98C296.096 78.26 295.909 77.4067 295.909 76.42V69.92H298.709V76.02C298.709 76.9 298.929 77.58 299.369 78.06C299.809 78.5267 300.409 78.76 301.169 78.76C301.942 78.76 302.549 78.5267 302.989 78.06C303.429 77.58 303.649 76.9 303.649 76.02V69.92H306.469ZM315.372 69.76C316.692 69.76 317.758 70.18 318.572 71.02C319.385 71.8467 319.792 73.0067 319.792 74.5V81H316.992V74.88C316.992 74 316.772 73.3267 316.332 72.86C315.892 72.38 315.292 72.14 314.532 72.14C313.758 72.14 313.145 72.38 312.692 72.86C312.252 73.3267 312.032 74 312.032 74.88V81H309.232V69.92H312.032V71.3C312.405 70.82 312.878 70.4467 313.452 70.18C314.038 69.9 314.678 69.76 315.372 69.76ZM326.794 69.74C327.621 69.74 328.348 69.9067 328.974 70.24C329.601 70.56 330.094 70.98 330.454 71.5V69.92H333.274V81.08C333.274 82.1067 333.068 83.02 332.654 83.82C332.241 84.6333 331.621 85.2733 330.794 85.74C329.968 86.22 328.968 86.46 327.794 86.46C326.221 86.46 324.928 86.0933 323.914 85.36C322.914 84.6267 322.348 83.6267 322.214 82.36H324.994C325.141 82.8667 325.454 83.2667 325.934 83.56C326.428 83.8667 327.021 84.02 327.714 84.02C328.528 84.02 329.188 83.7733 329.694 83.28C330.201 82.8 330.454 82.0667 330.454 81.08V79.36C330.094 79.88 329.594 80.3133 328.954 80.66C328.328 81.0067 327.608 81.18 326.794 81.18C325.861 81.18 325.008 80.94 324.234 80.46C323.461 79.98 322.848 79.3067 322.394 78.44C321.954 77.56 321.734 76.5533 321.734 75.42C321.734 74.3 321.954 73.3067 322.394 72.44C322.848 71.5733 323.454 70.9067 324.214 70.44C324.988 69.9733 325.848 69.74 326.794 69.74ZM330.454 75.46C330.454 74.78 330.321 74.2 330.054 73.72C329.788 73.2267 329.428 72.8533 328.974 72.6C328.521 72.3333 328.034 72.2 327.514 72.2C326.994 72.2 326.514 72.3267 326.074 72.58C325.634 72.8333 325.274 73.2067 324.994 73.7C324.728 74.18 324.594 74.7533 324.594 75.42C324.594 76.0867 324.728 76.6733 324.994 77.18C325.274 77.6733 325.634 78.0533 326.074 78.32C326.528 78.5867 327.008 78.72 327.514 78.72C328.034 78.72 328.521 78.5933 328.974 78.34C329.428 78.0733 329.788 77.7 330.054 77.22C330.321 76.7267 330.454 76.14 330.454 75.46ZM340.349 69.74C341.176 69.74 341.902 69.9067 342.529 70.24C343.156 70.56 343.649 70.98 344.009 71.5V69.92H346.829V81.08C346.829 82.1067 346.622 83.02 346.209 83.82C345.796 84.6333 345.176 85.2733 344.349 85.74C343.522 86.22 342.522 86.46 341.349 86.46C339.776 86.46 338.482 86.0933 337.469 85.36C336.469 84.6267 335.902 83.6267 335.769 82.36H338.549C338.696 82.8667 339.009 83.2667 339.489 83.56C339.982 83.8667 340.576 84.02 341.269 84.02C342.082 84.02 342.742 83.7733 343.249 83.28C343.756 82.8 344.009 82.0667 344.009 81.08V79.36C343.649 79.88 343.149 80.3133 342.509 80.66C341.882 81.0067 341.162 81.18 340.349 81.18C339.416 81.18 338.562 80.94 337.789 80.46C337.016 79.98 336.402 79.3067 335.949 78.44C335.509 77.56 335.289 76.5533 335.289 75.42C335.289 74.3 335.509 73.3067 335.949 72.44C336.402 71.5733 337.009 70.9067 337.769 70.44C338.542 69.9733 339.402 69.74 340.349 69.74ZM344.009 75.46C344.009 74.78 343.876 74.2 343.609 73.72C343.342 73.2267 342.982 72.8533 342.529 72.6C342.076 72.3333 341.589 72.2 341.069 72.2C340.549 72.2 340.069 72.3267 339.629 72.58C339.189 72.8333 338.829 73.2067 338.549 73.7C338.282 74.18 338.149 74.7533 338.149 75.42C338.149 76.0867 338.282 76.6733 338.549 77.18C338.829 77.6733 339.189 78.0533 339.629 78.32C340.082 78.5867 340.562 78.72 341.069 78.72C341.589 78.72 342.076 78.5933 342.529 78.34C342.982 78.0733 343.342 77.7 343.609 77.22C343.876 76.7267 344.009 76.14 344.009 75.46ZM360.024 69.92V81H357.204V79.6C356.844 80.08 356.37 80.46 355.784 80.74C355.21 81.0067 354.584 81.14 353.904 81.14C353.037 81.14 352.27 80.96 351.604 80.6C350.937 80.2267 350.41 79.6867 350.024 78.98C349.65 78.26 349.464 77.4067 349.464 76.42V69.92H352.264V76.02C352.264 76.9 352.484 77.58 352.924 78.06C353.364 78.5267 353.964 78.76 354.724 78.76C355.497 78.76 356.104 78.5267 356.544 78.06C356.984 77.58 357.204 76.9 357.204 76.02V69.92H360.024ZM370.352 71.54C370.712 71.0067 371.205 70.5733 371.832 70.24C372.472 69.9067 373.199 69.74 374.012 69.74C374.959 69.74 375.812 69.9733 376.572 70.44C377.345 70.9067 377.952 71.5733 378.392 72.44C378.845 73.2933 379.072 74.2867 379.072 75.42C379.072 76.5533 378.845 77.56 378.392 78.44C377.952 79.3067 377.345 79.98 376.572 80.46C375.812 80.94 374.959 81.18 374.012 81.18C373.185 81.18 372.459 81.02 371.832 80.7C371.219 80.3667 370.725 79.94 370.352 79.42V81H367.552V66.2H370.352V71.54ZM376.212 75.42C376.212 74.7533 376.072 74.18 375.792 73.7C375.525 73.2067 375.165 72.8333 374.712 72.58C374.272 72.3267 373.792 72.2 373.272 72.2C372.765 72.2 372.285 72.3333 371.832 72.6C371.392 72.8533 371.032 73.2267 370.752 73.72C370.485 74.2133 370.352 74.7933 370.352 75.46C370.352 76.1267 370.485 76.7067 370.752 77.2C371.032 77.6933 371.392 78.0733 371.832 78.34C372.285 78.5933 372.765 78.72 373.272 78.72C373.792 78.72 374.272 78.5867 374.712 78.32C375.165 78.0533 375.525 77.6733 375.792 77.18C376.072 76.6867 376.212 76.1 376.212 75.42ZM391.407 75.22C391.407 75.62 391.38 75.98 391.327 76.3H383.227C383.293 77.1 383.573 77.7267 384.067 78.18C384.56 78.6333 385.167 78.86 385.887 78.86C386.927 78.86 387.667 78.4133 388.107 77.52H391.127C390.807 78.5867 390.193 79.4667 389.287 80.16C388.38 80.84 387.267 81.18 385.947 81.18C384.88 81.18 383.92 80.9467 383.067 80.48C382.227 80 381.567 79.3267 381.087 78.46C380.62 77.5933 380.387 76.5933 380.387 75.46C380.387 74.3133 380.62 73.3067 381.087 72.44C381.553 71.5733 382.207 70.9067 383.047 70.44C383.887 69.9733 384.853 69.74 385.947 69.74C387 69.74 387.94 69.9667 388.767 70.42C389.607 70.8733 390.253 71.52 390.707 72.36C391.173 73.1867 391.407 74.14 391.407 75.22ZM388.507 74.42C388.493 73.7 388.233 73.1267 387.727 72.7C387.22 72.26 386.6 72.04 385.867 72.04C385.173 72.04 384.587 72.2533 384.107 72.68C383.64 73.0933 383.353 73.6733 383.247 74.42H388.507ZM396.25 71.54C396.61 71.0067 397.104 70.5733 397.73 70.24C398.37 69.9067 399.097 69.74 399.91 69.74C400.857 69.74 401.71 69.9733 402.47 70.44C403.244 70.9067 403.85 71.5733 404.29 72.44C404.744 73.2933 404.97 74.2867 404.97 75.42C404.97 76.5533 404.744 77.56 404.29 78.44C403.85 79.3067 403.244 79.98 402.47 80.46C401.71 80.94 400.857 81.18 399.91 81.18C399.084 81.18 398.357 81.02 397.73 80.7C397.117 80.3667 396.624 79.94 396.25 79.42V81H393.45V66.2H396.25V71.54ZM402.11 75.42C402.11 74.7533 401.97 74.18 401.69 73.7C401.424 73.2067 401.064 72.8333 400.61 72.58C400.17 72.3267 399.69 72.2 399.17 72.2C398.664 72.2 398.184 72.3333 397.73 72.6C397.29 72.8533 396.93 73.2267 396.65 73.72C396.384 74.2133 396.25 74.7933 396.25 75.46C396.25 76.1267 396.384 76.7067 396.65 77.2C396.93 77.6933 397.29 78.0733 397.73 78.34C398.184 78.5933 398.664 78.72 399.17 78.72C399.69 78.72 400.17 78.5867 400.61 78.32C401.064 78.0533 401.424 77.6733 401.69 77.18C401.97 76.6867 402.11 76.1 402.11 75.42ZM417.305 75.22C417.305 75.62 417.278 75.98 417.225 76.3H409.125C409.192 77.1 409.472 77.7267 409.965 78.18C410.458 78.6333 411.065 78.86 411.785 78.86C412.825 78.86 413.565 78.4133 414.005 77.52H417.025C416.705 78.5867 416.092 79.4667 415.185 80.16C414.278 80.84 413.165 81.18 411.845 81.18C410.778 81.18 409.818 80.9467 408.965 80.48C408.125 80 407.465 79.3267 406.985 78.46C406.518 77.5933 406.285 76.5933 406.285 75.46C406.285 74.3133 406.518 73.3067 406.985 72.44C407.452 71.5733 408.105 70.9067 408.945 70.44C409.785 69.9733 410.752 69.74 411.845 69.74C412.898 69.74 413.838 69.9667 414.665 70.42C415.505 70.8733 416.152 71.52 416.605 72.36C417.072 73.1867 417.305 74.14 417.305 75.22ZM414.405 74.42C414.392 73.7 414.132 73.1267 413.625 72.7C413.118 72.26 412.498 72.04 411.765 72.04C411.072 72.04 410.485 72.2533 410.005 72.68C409.538 73.0933 409.252 73.6733 409.145 74.42H414.405ZM422.149 71.64C422.509 71.0533 422.975 70.5933 423.549 70.26C424.135 69.9267 424.802 69.76 425.549 69.76V72.7H424.809C423.929 72.7 423.262 72.9067 422.809 73.32C422.369 73.7333 422.149 74.4533 422.149 75.48V81H419.349V69.92H422.149V71.64ZM426.715 75.42C426.715 74.3 426.935 73.3067 427.375 72.44C427.828 71.5733 428.435 70.9067 429.195 70.44C429.968 69.9733 430.828 69.74 431.775 69.74C432.601 69.74 433.321 69.9067 433.935 70.24C434.561 70.5733 435.061 70.9933 435.435 71.5V69.92H438.255V81H435.435V79.38C435.075 79.9 434.575 80.3333 433.935 80.68C433.308 81.0133 432.581 81.18 431.755 81.18C430.821 81.18 429.968 80.94 429.195 80.46C428.435 79.98 427.828 79.3067 427.375 78.44C426.935 77.56 426.715 76.5533 426.715 75.42ZM435.435 75.46C435.435 74.78 435.301 74.2 435.035 73.72C434.768 73.2267 434.408 72.8533 433.955 72.6C433.501 72.3333 433.015 72.2 432.495 72.2C431.975 72.2 431.495 72.3267 431.055 72.58C430.615 72.8333 430.255 73.2067 429.975 73.7C429.708 74.18 429.575 74.7533 429.575 75.42C429.575 76.0867 429.708 76.6733 429.975 77.18C430.255 77.6733 430.615 78.0533 431.055 78.32C431.508 78.5867 431.988 78.72 432.495 78.72C433.015 78.72 433.501 78.5933 433.955 78.34C434.408 78.0733 434.768 77.7 435.035 77.22C435.301 76.7267 435.435 76.14 435.435 75.46ZM443.789 71.52C444.149 71.0133 444.643 70.5933 445.269 70.26C445.909 69.9133 446.636 69.74 447.449 69.74C448.396 69.74 449.249 69.9733 450.009 70.44C450.783 70.9067 451.389 71.5733 451.829 72.44C452.283 73.2933 452.509 74.2867 452.509 75.42C452.509 76.5533 452.283 77.56 451.829 78.44C451.389 79.3067 450.783 79.98 450.009 80.46C449.249 80.94 448.396 81.18 447.449 81.18C446.636 81.18 445.916 81.0133 445.289 80.68C444.676 80.3467 444.176 79.9267 443.789 79.42V86.28H440.989V69.92H443.789V71.52ZM449.649 75.42C449.649 74.7533 449.509 74.18 449.229 73.7C448.963 73.2067 448.603 72.8333 448.149 72.58C447.709 72.3267 447.229 72.2 446.709 72.2C446.203 72.2 445.723 72.3333 445.269 72.6C444.829 72.8533 444.469 73.2267 444.189 73.72C443.923 74.2133 443.789 74.7933 443.789 75.46C443.789 76.1267 443.923 76.7067 444.189 77.2C444.469 77.6933 444.829 78.0733 445.269 78.34C445.723 78.5933 446.203 78.72 446.709 78.72C447.229 78.72 447.709 78.5867 448.149 78.32C448.603 78.0533 448.963 77.6733 449.229 77.18C449.509 76.6867 449.649 76.1 449.649 75.42ZM453.824 75.42C453.824 74.3 454.044 73.3067 454.484 72.44C454.937 71.5733 455.544 70.9067 456.304 70.44C457.077 69.9733 457.937 69.74 458.884 69.74C459.711 69.74 460.431 69.9067 461.044 70.24C461.671 70.5733 462.171 70.9933 462.544 71.5V69.92H465.364V81H462.544V79.38C462.184 79.9 461.684 80.3333 461.044 80.68C460.417 81.0133 459.691 81.18 458.864 81.18C457.931 81.18 457.077 80.94 456.304 80.46C455.544 79.98 454.937 79.3067 454.484 78.44C454.044 77.56 453.824 76.5533 453.824 75.42ZM462.544 75.46C462.544 74.78 462.411 74.2 462.144 73.72C461.877 73.2267 461.517 72.8533 461.064 72.6C460.611 72.3333 460.124 72.2 459.604 72.2C459.084 72.2 458.604 72.3267 458.164 72.58C457.724 72.8333 457.364 73.2067 457.084 73.7C456.817 74.18 456.684 74.7533 456.684 75.42C456.684 76.0867 456.817 76.6733 457.084 77.18C457.364 77.6733 457.724 78.0533 458.164 78.32C458.617 78.5867 459.097 78.72 459.604 78.72C460.124 78.72 460.611 78.5933 461.064 78.34C461.517 78.0733 461.877 77.7 462.144 77.22C462.411 76.7267 462.544 76.14 462.544 75.46ZM477.104 81.18C476.198 81.18 475.384 81.02 474.664 80.7C473.944 80.3667 473.371 79.92 472.944 79.36C472.531 78.8 472.304 78.18 472.264 77.5H475.084C475.138 77.9267 475.344 78.28 475.704 78.56C476.078 78.84 476.538 78.98 477.084 78.98C477.618 78.98 478.031 78.8733 478.324 78.66C478.631 78.4467 478.784 78.1733 478.784 77.84C478.784 77.48 478.598 77.2133 478.224 77.04C477.864 76.8533 477.284 76.6533 476.484 76.44C475.658 76.24 474.978 76.0333 474.444 75.82C473.924 75.6067 473.471 75.28 473.084 74.84C472.711 74.4 472.524 73.8067 472.524 73.06C472.524 72.4467 472.698 71.8867 473.044 71.38C473.404 70.8733 473.911 70.4733 474.564 70.18C475.231 69.8867 476.011 69.74 476.904 69.74C478.224 69.74 479.278 70.0733 480.064 70.74C480.851 71.3933 481.284 72.28 481.364 73.4H478.684C478.644 72.96 478.458 72.6133 478.124 72.36C477.804 72.0933 477.371 71.96 476.824 71.96C476.318 71.96 475.924 72.0533 475.644 72.24C475.378 72.4267 475.244 72.6867 475.244 73.02C475.244 73.3933 475.431 73.68 475.804 73.88C476.178 74.0667 476.758 74.26 477.544 74.46C478.344 74.66 479.004 74.8667 479.524 75.08C480.044 75.2933 480.491 75.6267 480.864 76.08C481.251 76.52 481.451 77.1067 481.464 77.84C481.464 78.48 481.284 79.0533 480.924 79.56C480.578 80.0667 480.071 80.4667 479.404 80.76C478.751 81.04 477.984 81.18 477.104 81.18ZM483.043 75.42C483.043 74.3 483.263 73.3067 483.703 72.44C484.156 71.5733 484.763 70.9067 485.523 70.44C486.296 69.9733 487.156 69.74 488.103 69.74C488.929 69.74 489.649 69.9067 490.263 70.24C490.889 70.5733 491.389 70.9933 491.763 71.5V69.92H494.583V81H491.763V79.38C491.403 79.9 490.903 80.3333 490.263 80.68C489.636 81.0133 488.909 81.18 488.083 81.18C487.149 81.18 486.296 80.94 485.523 80.46C484.763 79.98 484.156 79.3067 483.703 78.44C483.263 77.56 483.043 76.5533 483.043 75.42ZM491.763 75.46C491.763 74.78 491.629 74.2 491.363 73.72C491.096 73.2267 490.736 72.8533 490.283 72.6C489.829 72.3333 489.343 72.2 488.823 72.2C488.303 72.2 487.823 72.3267 487.383 72.58C486.943 72.8333 486.583 73.2067 486.303 73.7C486.036 74.18 485.903 74.7533 485.903 75.42C485.903 76.0867 486.036 76.6733 486.303 77.18C486.583 77.6733 486.943 78.0533 487.383 78.32C487.836 78.5867 488.316 78.72 488.823 78.72C489.343 78.72 489.829 78.5933 490.283 78.34C490.736 78.0733 491.096 77.7 491.363 77.22C491.629 76.7267 491.763 76.14 491.763 75.46ZM496.597 75.42C496.597 74.3 496.817 73.3067 497.257 72.44C497.711 71.5733 498.318 70.9067 499.078 70.44C499.851 69.9733 500.711 69.74 501.658 69.74C502.484 69.74 503.204 69.9067 503.818 70.24C504.444 70.5733 504.944 70.9933 505.318 71.5V69.92H508.138V81H505.318V79.38C504.958 79.9 504.458 80.3333 503.818 80.68C503.191 81.0133 502.464 81.18 501.638 81.18C500.704 81.18 499.851 80.94 499.078 80.46C498.318 79.98 497.711 79.3067 497.257 78.44C496.817 77.56 496.597 76.5533 496.597 75.42ZM505.318 75.46C505.318 74.78 505.184 74.2 504.918 73.72C504.651 73.2267 504.291 72.8533 503.838 72.6C503.384 72.3333 502.898 72.2 502.378 72.2C501.858 72.2 501.378 72.3267 500.938 72.58C500.498 72.8333 500.138 73.2067 499.858 73.7C499.591 74.18 499.458 74.7533 499.458 75.42C499.458 76.0867 499.591 76.6733 499.858 77.18C500.138 77.6733 500.498 78.0533 500.938 78.32C501.391 78.5867 501.871 78.72 502.378 78.72C502.898 78.72 503.384 78.5933 503.838 78.34C504.291 78.0733 504.651 77.7 504.918 77.22C505.184 76.7267 505.318 76.14 505.318 75.46ZM514.132 72.22V77.58C514.132 77.9533 514.219 78.2267 514.392 78.4C514.579 78.56 514.886 78.64 515.312 78.64H516.612V81H514.852C512.492 81 511.312 79.8533 511.312 77.56V72.22H509.992V69.92H511.312V67.18H514.132V69.92H516.612V72.22H514.132ZM519.866 81.14C519.359 81.14 518.939 80.9867 518.606 80.68C518.286 80.36 518.126 79.9667 518.126 79.5C518.126 79.0333 518.286 78.6467 518.606 78.34C518.939 78.02 519.359 77.86 519.866 77.86C520.359 77.86 520.766 78.02 521.086 78.34C521.406 78.6467 521.566 79.0333 521.566 79.5C521.566 79.9667 521.406 80.36 521.086 80.68C520.766 80.9867 520.359 81.14 519.866 81.14ZM525.061 81.14C524.555 81.14 524.135 80.9867 523.801 80.68C523.481 80.36 523.321 79.9667 523.321 79.5C523.321 79.0333 523.481 78.6467 523.801 78.34C524.135 78.02 524.555 77.86 525.061 77.86C525.555 77.86 525.961 78.02 526.281 78.34C526.601 78.6467 526.761 79.0333 526.761 79.5C526.761 79.9667 526.601 80.36 526.281 80.68C525.961 80.9867 525.555 81.14 525.061 81.14ZM530.257 81.14C529.75 81.14 529.33 80.9867 528.997 80.68C528.677 80.36 528.517 79.9667 528.517 79.5C528.517 79.0333 528.677 78.6467 528.997 78.34C529.33 78.02 529.75 77.86 530.257 77.86C530.75 77.86 531.157 78.02 531.477 78.34C531.797 78.6467 531.957 79.0333 531.957 79.5C531.957 79.9667 531.797 80.36 531.477 80.68C531.157 80.9867 530.75 81.14 530.257 81.14Z" fill="#EA8D45" fill-opacity="0.7"/>
<path fill-rule="evenodd" clip-rule="evenodd" d="M617.181 19.0212C621.049 18.593 624.952 18.593 628.819 19.0212C630.96 19.2612 632.688 20.9475 632.939 23.0962C633.397 27.0187 633.397 30.9812 632.939 34.9037C632.688 37.0525 630.96 38.7387 628.819 38.9787C624.952 39.4069 621.049 39.4069 617.181 38.9787C615.04 38.7387 613.313 37.0525 613.061 34.9037C612.603 30.9816 612.603 27.0195 613.061 23.0975C613.188 22.0536 613.664 21.0831 614.412 20.3435C615.16 19.6039 616.135 19.1384 617.18 19.0225M618.588 24.5875C618.763 24.4119 619.002 24.3133 619.25 24.3133C619.499 24.3133 619.737 24.4119 619.913 24.5875L623 27.675L626.088 24.5875C626.173 24.4954 626.277 24.4215 626.392 24.3702C626.507 24.319 626.631 24.2914 626.757 24.2892C626.883 24.287 627.008 24.3102 627.125 24.3573C627.241 24.4045 627.347 24.4746 627.436 24.5637C627.525 24.6527 627.596 24.7587 627.643 24.8755C627.69 24.9922 627.713 25.1172 627.711 25.2431C627.709 25.369 627.681 25.4931 627.63 25.6081C627.579 25.7231 627.505 25.8266 627.413 25.9125L624.325 29L627.413 32.0875C627.578 32.2652 627.668 32.5002 627.664 32.7431C627.66 32.986 627.561 33.2177 627.39 33.3895C627.218 33.5613 626.986 33.6597 626.743 33.6639C626.5 33.6682 626.265 33.5781 626.088 33.4125L623 30.325L619.913 33.4125C619.827 33.5046 619.723 33.5785 619.608 33.6297C619.493 33.6809 619.369 33.7085 619.243 33.7107C619.117 33.7129 618.992 33.6898 618.876 33.6426C618.759 33.5955 618.653 33.5253 618.564 33.4363C618.475 33.3472 618.405 33.2412 618.358 33.1245C618.31 33.0077 618.287 32.8827 618.289 32.7568C618.292 32.6309 618.319 32.5068 618.37 32.3918C618.422 32.2768 618.496 32.1733 618.588 32.0875L621.675 29L618.588 25.9125C618.412 25.7367 618.313 25.4984 618.313 25.25C618.313 25.0015 618.412 24.7632 618.588 24.5875Z" fill="#B9B9B9"/>
</g>
<defs>
<filter id="filter0_d_132_406" x="-4" y="0.134155" width="656.097" height="126.135" filterUnits="userSpaceOnUse" color-interpolation-filters="sRGB">
<feFlood flood-opacity="0" result="BackgroundImageFix"/>
<feColorMatrix in="SourceAlpha" type="matrix" values="0 0 0 0 0 0 0 0 0 0 0 0 0 0 0 0 0 0 127 0" result="hardAlpha"/>
<feOffset dy="4"/>
<feGaussianBlur stdDeviation="2"/>
<feComposite in2="hardAlpha" operator="out"/>
<feColorMatrix type="matrix" values="0 0 0 0 0 0 0 0 0 0 0 0 0 0 0 0 0 0 0.25 0"/>
<feBlend mode="normal" in2="BackgroundImageFix" result="effect1_dropShadow_132_406"/>
<feBlend mode="normal" in="SourceGraphic" in2="effect1_dropShadow_132_406" result="shape"/>
</filter>
</defs>
</svg>
