<svg width="707" height="126" viewBox="0 0 707 126" fill="none" xmlns="http://www.w3.org/2000/svg">
<g filter="url(#filter0_d_132_258)">
<path d="M4.5 10C4.5 4.75329 8.75329 0.5 14 0.5H692C697.247 0.5 701.5 4.75329 701.5 10V107C701.5 112.247 697.247 116.5 692 116.5H14C8.75328 116.5 4.5 112.247 4.5 107V10Z" fill="white" stroke="#EA8D45"/>
<rect x="57.946" y="93.707" width="50" height="50" transform="rotate(179.846 57.946 93.707)" fill="#EA8D45"/>
<rect x="92.8303" y="50.613" width="50" height="50" transform="rotate(179.846 92.8303 50.613)" fill="#EA8D45"/>
<rect x="134.097" y="75.9999" width="50" height="36" transform="rotate(179.846 134.097 75.9999)" fill="#EA8D45" fill-opacity="0.5"/>
<rect x="652.134" y="108" width="50" height="50" transform="rotate(179.846 652.134 108)" fill="#EA8D45"/>
<rect x="702.097" y="117" width="50" height="36" transform="rotate(179.846 702.097 117)" fill="#EA8D45" fill-opacity="0.5"/>
<path d="M310.227 48.161C309.108 48.161 308.096 47.9693 307.191 47.586C306.302 47.2027 305.597 46.6507 305.075 45.93C304.554 45.2093 304.286 44.3583 304.27 43.377H307.72C307.766 44.0363 307.996 44.5577 308.41 44.941C308.84 45.3243 309.422 45.516 310.158 45.516C310.91 45.516 311.5 45.3397 311.929 44.987C312.359 44.619 312.573 44.1437 312.573 43.561C312.573 43.0857 312.428 42.6947 312.136 42.388C311.845 42.0813 311.477 41.8437 311.032 41.675C310.603 41.491 310.005 41.2917 309.238 41.077C308.196 40.7703 307.345 40.4713 306.685 40.18C306.041 39.8733 305.482 39.421 305.006 38.823C304.546 38.2097 304.316 37.397 304.316 36.385C304.316 35.4343 304.554 34.6063 305.029 33.901C305.505 33.1957 306.172 32.659 307.03 32.291C307.889 31.9077 308.87 31.716 309.974 31.716C311.63 31.716 312.972 32.1223 313.999 32.935C315.042 33.7323 315.617 34.8517 315.724 36.293H312.182C312.152 35.741 311.914 35.2887 311.469 34.936C311.04 34.568 310.465 34.384 309.744 34.384C309.116 34.384 308.61 34.545 308.226 34.867C307.858 35.189 307.674 35.6567 307.674 36.27C307.674 36.6993 307.812 37.0597 308.088 37.351C308.38 37.627 308.732 37.857 309.146 38.041C309.576 38.2097 310.174 38.409 310.94 38.639C311.983 38.9457 312.834 39.2523 313.493 39.559C314.153 39.8657 314.72 40.3257 315.195 40.939C315.671 41.5523 315.908 42.3573 315.908 43.354C315.908 44.2127 315.686 45.01 315.241 45.746C314.797 46.482 314.145 47.0723 313.286 47.517C312.428 47.9463 311.408 48.161 310.227 48.161ZM330.545 41.353C330.545 41.813 330.514 42.227 330.453 42.595H321.138C321.214 43.515 321.536 44.2357 322.104 44.757C322.671 45.2783 323.369 45.539 324.197 45.539C325.393 45.539 326.244 45.0253 326.75 43.998H330.223C329.855 45.2247 329.149 46.2367 328.107 47.034C327.064 47.816 325.784 48.207 324.266 48.207C323.039 48.207 321.935 47.9387 320.954 47.402C319.988 46.85 319.229 46.0757 318.677 45.079C318.14 44.0823 317.872 42.9323 317.872 41.629C317.872 40.3103 318.14 39.1527 318.677 38.156C319.213 37.1593 319.965 36.3927 320.931 35.856C321.897 35.3193 323.008 35.051 324.266 35.051C325.477 35.051 326.558 35.3117 327.509 35.833C328.475 36.3543 329.218 37.098 329.74 38.064C330.276 39.0147 330.545 40.111 330.545 41.353ZM327.21 40.433C327.194 39.605 326.895 38.9457 326.313 38.455C325.73 37.949 325.017 37.696 324.174 37.696C323.376 37.696 322.702 37.9413 322.15 38.432C321.613 38.9073 321.283 39.5743 321.161 40.433H327.21ZM336.115 30.98V48H332.895V30.98H336.115ZM338.468 41.583C338.468 40.295 338.721 39.1527 339.227 38.156C339.749 37.1593 340.446 36.3927 341.32 35.856C342.21 35.3193 343.199 35.051 344.287 35.051C345.238 35.051 346.066 35.2427 346.771 35.626C347.492 36.0093 348.067 36.4923 348.496 37.075V35.258H351.739V48H348.496V46.137C348.082 46.735 347.507 47.2333 346.771 47.632C346.051 48.0153 345.215 48.207 344.264 48.207C343.191 48.207 342.21 47.931 341.32 47.379C340.446 46.827 339.749 46.0527 339.227 45.056C338.721 44.044 338.468 42.8863 338.468 41.583ZM348.496 41.629C348.496 40.847 348.343 40.18 348.036 39.628C347.73 39.0607 347.316 38.6313 346.794 38.34C346.273 38.0333 345.713 37.88 345.115 37.88C344.517 37.88 343.965 38.0257 343.459 38.317C342.953 38.6083 342.539 39.0377 342.217 39.605C341.911 40.157 341.757 40.8163 341.757 41.583C341.757 42.3497 341.911 43.0243 342.217 43.607C342.539 44.1743 342.953 44.6113 343.459 44.918C343.981 45.2247 344.533 45.378 345.115 45.378C345.713 45.378 346.273 45.2323 346.794 44.941C347.316 44.6343 347.73 44.205 348.036 43.653C348.343 43.0857 348.496 42.411 348.496 41.629ZM370.708 35.074C372.272 35.074 373.53 35.557 374.48 36.523C375.446 37.4737 375.929 38.8077 375.929 40.525V48H372.709V40.962C372.709 39.9653 372.456 39.2063 371.95 38.685C371.444 38.1483 370.754 37.88 369.88 37.88C369.006 37.88 368.309 38.1483 367.787 38.685C367.281 39.2063 367.028 39.9653 367.028 40.962V48H363.808V40.962C363.808 39.9653 363.555 39.2063 363.049 38.685C362.543 38.1483 361.853 37.88 360.979 37.88C360.09 37.88 359.385 38.1483 358.863 38.685C358.357 39.2063 358.104 39.9653 358.104 40.962V48H354.884V35.258H358.104V36.799C358.518 36.2623 359.047 35.8407 359.691 35.534C360.351 35.2273 361.071 35.074 361.853 35.074C362.85 35.074 363.739 35.2887 364.521 35.718C365.303 36.132 365.909 36.73 366.338 37.512C366.752 36.776 367.35 36.1857 368.132 35.741C368.93 35.2963 369.788 35.074 370.708 35.074ZM378.157 41.583C378.157 40.295 378.41 39.1527 378.916 38.156C379.437 37.1593 380.135 36.3927 381.009 35.856C381.898 35.3193 382.887 35.051 383.976 35.051C384.927 35.051 385.755 35.2427 386.46 35.626C387.181 36.0093 387.756 36.4923 388.185 37.075V35.258H391.428V48H388.185V46.137C387.771 46.735 387.196 47.2333 386.46 47.632C385.739 48.0153 384.904 48.207 383.953 48.207C382.88 48.207 381.898 47.931 381.009 47.379C380.135 46.827 379.437 46.0527 378.916 45.056C378.41 44.044 378.157 42.8863 378.157 41.583ZM388.185 41.629C388.185 40.847 388.032 40.18 387.725 39.628C387.418 39.0607 387.004 38.6313 386.483 38.34C385.962 38.0333 385.402 37.88 384.804 37.88C384.206 37.88 383.654 38.0257 383.148 38.317C382.642 38.6083 382.228 39.0377 381.906 39.605C381.599 40.157 381.446 40.8163 381.446 41.583C381.446 42.3497 381.599 43.0243 381.906 43.607C382.228 44.1743 382.642 44.6113 383.148 44.918C383.669 45.2247 384.221 45.378 384.804 45.378C385.402 45.378 385.962 45.2323 386.483 44.941C387.004 44.6343 387.418 44.205 387.725 43.653C388.032 43.0857 388.185 42.411 388.185 41.629ZM398.322 37.903V44.067C398.322 44.4963 398.422 44.8107 398.621 45.01C398.836 45.194 399.188 45.286 399.679 45.286H401.174V48H399.15C396.436 48 395.079 46.6813 395.079 44.044V37.903H393.561V35.258H395.079V32.107H398.322V35.258H401.174V37.903H398.322ZM236.634 79.941H230.24L229.182 83H225.801L231.574 66.923H235.323L241.096 83H237.692L236.634 79.941ZM235.76 77.365L233.437 70.649L231.114 77.365H235.76ZM250.315 70.074C251.833 70.074 253.059 70.557 253.995 71.523C254.93 72.4737 255.398 73.8077 255.398 75.525V83H252.178V75.962C252.178 74.95 251.925 74.1757 251.419 73.639C250.913 73.087 250.223 72.811 249.349 72.811C248.459 72.811 247.754 73.087 247.233 73.639C246.727 74.1757 246.474 74.95 246.474 75.962V83H243.254V70.258H246.474V71.845C246.903 71.293 247.447 70.8637 248.107 70.557C248.781 70.235 249.517 70.074 250.315 70.074ZM257.632 76.583C257.632 75.295 257.885 74.1527 258.391 73.156C258.912 72.1593 259.617 71.3927 260.507 70.856C261.396 70.3193 262.385 70.051 263.474 70.051C264.302 70.051 265.091 70.235 265.843 70.603C266.594 70.9557 267.192 71.431 267.637 72.029V65.98H270.903V83H267.637V81.114C267.238 81.7427 266.678 82.2487 265.958 82.632C265.237 83.0153 264.401 83.207 263.451 83.207C262.377 83.207 261.396 82.931 260.507 82.379C259.617 81.827 258.912 81.0527 258.391 80.056C257.885 79.044 257.632 77.8863 257.632 76.583ZM267.66 76.629C267.66 75.847 267.506 75.18 267.2 74.628C266.893 74.0607 266.479 73.6313 265.958 73.34C265.436 73.0333 264.877 72.88 264.279 72.88C263.681 72.88 263.129 73.0257 262.623 73.317C262.117 73.6083 261.703 74.0377 261.381 74.605C261.074 75.157 260.921 75.8163 260.921 76.583C260.921 77.3497 261.074 78.0243 261.381 78.607C261.703 79.1743 262.117 79.6113 262.623 79.918C263.144 80.2247 263.696 80.378 264.279 80.378C264.877 80.378 265.436 80.2323 265.958 79.941C266.479 79.6343 266.893 79.205 267.2 78.653C267.506 78.0857 267.66 77.411 267.66 76.629ZM273.219 76.583C273.219 75.295 273.472 74.1527 273.978 73.156C274.5 72.1593 275.197 71.3927 276.071 70.856C276.961 70.3193 277.95 70.051 279.038 70.051C279.989 70.051 280.817 70.2427 281.522 70.626C282.243 71.0093 282.818 71.4923 283.247 72.075V70.258H286.49V83H283.247V81.137C282.833 81.735 282.258 82.2333 281.522 82.632C280.802 83.0153 279.966 83.207 279.015 83.207C277.942 83.207 276.961 82.931 276.071 82.379C275.197 81.827 274.5 81.0527 273.978 80.056C273.472 79.044 273.219 77.8863 273.219 76.583ZM283.247 76.629C283.247 75.847 283.094 75.18 282.787 74.628C282.481 74.0607 282.067 73.6313 281.545 73.34C281.024 73.0333 280.464 72.88 279.866 72.88C279.268 72.88 278.716 73.0257 278.21 73.317C277.704 73.6083 277.29 74.0377 276.968 74.605C276.662 75.157 276.508 75.8163 276.508 76.583C276.508 77.3497 276.662 78.0243 276.968 78.607C277.29 79.1743 277.704 79.6113 278.21 79.918C278.732 80.2247 279.284 80.378 279.866 80.378C280.464 80.378 281.024 80.2323 281.545 79.941C282.067 79.6343 282.481 79.205 282.787 78.653C283.094 78.0857 283.247 77.411 283.247 76.629ZM298.336 72.121C298.75 71.5077 299.317 71.0093 300.038 70.626C300.774 70.2427 301.609 70.051 302.545 70.051C303.633 70.051 304.615 70.3193 305.489 70.856C306.378 71.3927 307.076 72.1593 307.582 73.156C308.103 74.1373 308.364 75.2797 308.364 76.583C308.364 77.8863 308.103 79.044 307.582 80.056C307.076 81.0527 306.378 81.827 305.489 82.379C304.615 82.931 303.633 83.207 302.545 83.207C301.594 83.207 300.758 83.023 300.038 82.655C299.332 82.2717 298.765 81.781 298.336 81.183V83H295.116V65.98H298.336V72.121ZM305.075 76.583C305.075 75.8163 304.914 75.157 304.592 74.605C304.285 74.0377 303.871 73.6083 303.35 73.317C302.844 73.0257 302.292 72.88 301.694 72.88C301.111 72.88 300.559 73.0333 300.038 73.34C299.532 73.6313 299.118 74.0607 298.796 74.628C298.489 75.1953 298.336 75.8623 298.336 76.629C298.336 77.3957 298.489 78.0627 298.796 78.63C299.118 79.1973 299.532 79.6343 300.038 79.941C300.559 80.2323 301.111 80.378 301.694 80.378C302.292 80.378 302.844 80.2247 303.35 79.918C303.871 79.6113 304.285 79.1743 304.592 78.607C304.914 78.0397 305.075 77.365 305.075 76.583ZM322.549 76.353C322.549 76.813 322.518 77.227 322.457 77.595H313.142C313.218 78.515 313.54 79.2357 314.108 79.757C314.675 80.2783 315.373 80.539 316.201 80.539C317.397 80.539 318.248 80.0253 318.754 78.998H322.227C321.859 80.2247 321.153 81.2367 320.111 82.034C319.068 82.816 317.788 83.207 316.27 83.207C315.043 83.207 313.939 82.9387 312.958 82.402C311.992 81.85 311.233 81.0757 310.681 80.079C310.144 79.0823 309.876 77.9323 309.876 76.629C309.876 75.3103 310.144 74.1527 310.681 73.156C311.217 72.1593 311.969 71.3927 312.935 70.856C313.901 70.3193 315.012 70.051 316.27 70.051C317.481 70.051 318.562 70.3117 319.513 70.833C320.479 71.3543 321.222 72.098 321.744 73.064C322.28 74.0147 322.549 75.111 322.549 76.353ZM319.214 75.433C319.198 74.605 318.899 73.9457 318.317 73.455C317.734 72.949 317.021 72.696 316.178 72.696C315.38 72.696 314.706 72.9413 314.154 73.432C313.617 73.9073 313.287 74.5743 313.165 75.433H319.214ZM328.119 72.236C328.533 71.5613 329.07 71.0323 329.729 70.649C330.404 70.2657 331.17 70.074 332.029 70.074V73.455H331.178C330.166 73.455 329.399 73.6927 328.878 74.168C328.372 74.6433 328.119 75.4713 328.119 76.652V83H324.899V70.258H328.119V72.236ZM341.374 70.074C342.34 70.074 343.199 70.2887 343.95 70.718C344.701 71.132 345.284 71.753 345.698 72.581C346.127 73.3937 346.342 74.375 346.342 75.525V83H343.122V75.962C343.122 74.95 342.869 74.1757 342.363 73.639C341.857 73.087 341.167 72.811 340.293 72.811C339.404 72.811 338.698 73.087 338.177 73.639C337.671 74.1757 337.418 74.95 337.418 75.962V83H334.198V65.98H337.418V71.845C337.832 71.293 338.384 70.8637 339.074 70.557C339.764 70.235 340.531 70.074 341.374 70.074ZM348.576 76.583C348.576 75.295 348.829 74.1527 349.335 73.156C349.856 72.1593 350.554 71.3927 351.428 70.856C352.317 70.3193 353.306 70.051 354.395 70.051C355.346 70.051 356.174 70.2427 356.879 70.626C357.6 71.0093 358.175 71.4923 358.604 72.075V70.258H361.847V83H358.604V81.137C358.19 81.735 357.615 82.2333 356.879 82.632C356.158 83.0153 355.323 83.207 354.372 83.207C353.299 83.207 352.317 82.931 351.428 82.379C350.554 81.827 349.856 81.0527 349.335 80.056C348.829 79.044 348.576 77.8863 348.576 76.583ZM358.604 76.629C358.604 75.847 358.451 75.18 358.144 74.628C357.837 74.0607 357.423 73.6313 356.902 73.34C356.381 73.0333 355.821 72.88 355.223 72.88C354.625 72.88 354.073 73.0257 353.567 73.317C353.061 73.6083 352.647 74.0377 352.325 74.605C352.018 75.157 351.865 75.8163 351.865 76.583C351.865 77.3497 352.018 78.0243 352.325 78.607C352.647 79.1743 353.061 79.6113 353.567 79.918C354.088 80.2247 354.64 80.378 355.223 80.378C355.821 80.378 356.381 80.2323 356.902 79.941C357.423 79.6343 357.837 79.205 358.144 78.653C358.451 78.0857 358.604 77.411 358.604 76.629ZM369.868 83.207C368.825 83.207 367.89 83.023 367.062 82.655C366.234 82.2717 365.574 81.758 365.084 81.114C364.608 80.47 364.348 79.757 364.302 78.975H367.545C367.606 79.4657 367.844 79.872 368.258 80.194C368.687 80.516 369.216 80.677 369.845 80.677C370.458 80.677 370.933 80.5543 371.271 80.309C371.623 80.0637 371.8 79.7493 371.8 79.366C371.8 78.952 371.585 78.6453 371.156 78.446C370.742 78.2313 370.075 78.0013 369.155 77.756C368.204 77.526 367.422 77.2883 366.809 77.043C366.211 76.7977 365.689 76.422 365.245 75.916C364.815 75.41 364.601 74.7277 364.601 73.869C364.601 73.1637 364.8 72.5197 365.199 71.937C365.613 71.3543 366.195 70.8943 366.947 70.557C367.713 70.2197 368.61 70.051 369.638 70.051C371.156 70.051 372.367 70.4343 373.272 71.201C374.176 71.9523 374.675 72.972 374.767 74.26H371.685C371.639 73.754 371.424 73.3553 371.041 73.064C370.673 72.7573 370.174 72.604 369.546 72.604C368.963 72.604 368.511 72.7113 368.189 72.926C367.882 73.1407 367.729 73.4397 367.729 73.823C367.729 74.2523 367.943 74.582 368.373 74.812C368.802 75.0267 369.469 75.249 370.374 75.479C371.294 75.709 372.053 75.9467 372.651 76.192C373.249 76.4373 373.762 76.8207 374.192 77.342C374.636 77.848 374.866 78.5227 374.882 79.366C374.882 80.102 374.675 80.7613 374.261 81.344C373.862 81.9267 373.279 82.3867 372.513 82.724C371.761 83.046 370.88 83.207 369.868 83.207ZM379.158 68.74C378.591 68.74 378.115 68.5637 377.732 68.211C377.364 67.843 377.18 67.3907 377.18 66.854C377.18 66.3173 377.364 65.8727 377.732 65.52C378.115 65.152 378.591 64.968 379.158 64.968C379.725 64.968 380.193 65.152 380.561 65.52C380.944 65.8727 381.136 66.3173 381.136 66.854C381.136 67.3907 380.944 67.843 380.561 68.211C380.193 68.5637 379.725 68.74 379.158 68.74ZM380.745 70.258V83H377.525V70.258H380.745ZM387.146 65.98V83H383.926V65.98H387.146ZM413.311 66.946V83H410.091V72.558L405.79 83H403.352L399.028 72.558V83H395.808V66.946H399.465L404.571 78.883L409.677 66.946H413.311ZM415.667 76.583C415.667 75.295 415.92 74.1527 416.426 73.156C416.947 72.1593 417.645 71.3927 418.519 70.856C419.408 70.3193 420.397 70.051 421.486 70.051C422.436 70.051 423.264 70.2427 423.97 70.626C424.69 71.0093 425.265 71.4923 425.695 72.075V70.258H428.938V83H425.695V81.137C425.281 81.735 424.706 82.2333 423.97 82.632C423.249 83.0153 422.413 83.207 421.463 83.207C420.389 83.207 419.408 82.931 418.519 82.379C417.645 81.827 416.947 81.0527 416.426 80.056C415.92 79.044 415.667 77.8863 415.667 76.583ZM425.695 76.629C425.695 75.847 425.541 75.18 425.235 74.628C424.928 74.0607 424.514 73.6313 423.993 73.34C423.471 73.0333 422.912 72.88 422.314 72.88C421.716 72.88 421.164 73.0257 420.658 73.317C420.152 73.6083 419.738 74.0377 419.416 74.605C419.109 75.157 418.956 75.8163 418.956 76.583C418.956 77.3497 419.109 78.0243 419.416 78.607C419.738 79.1743 420.152 79.6113 420.658 79.918C421.179 80.2247 421.731 80.378 422.314 80.378C422.912 80.378 423.471 80.2323 423.993 79.941C424.514 79.6343 424.928 79.205 425.235 78.653C425.541 78.0857 425.695 77.411 425.695 76.629ZM436.959 83.207C435.916 83.207 434.981 83.023 434.153 82.655C433.325 82.2717 432.665 81.758 432.175 81.114C431.699 80.47 431.439 79.757 431.393 78.975H434.636C434.697 79.4657 434.935 79.872 435.349 80.194C435.778 80.516 436.307 80.677 436.936 80.677C437.549 80.677 438.024 80.5543 438.362 80.309C438.714 80.0637 438.891 79.7493 438.891 79.366C438.891 78.952 438.676 78.6453 438.247 78.446C437.833 78.2313 437.166 78.0013 436.246 77.756C435.295 77.526 434.513 77.2883 433.9 77.043C433.302 76.7977 432.78 76.422 432.336 75.916C431.906 75.41 431.692 74.7277 431.692 73.869C431.692 73.1637 431.891 72.5197 432.29 71.937C432.704 71.3543 433.286 70.8943 434.038 70.557C434.804 70.2197 435.701 70.051 436.729 70.051C438.247 70.051 439.458 70.4343 440.363 71.201C441.267 71.9523 441.766 72.972 441.858 74.26H438.776C438.73 73.754 438.515 73.3553 438.132 73.064C437.764 72.7573 437.265 72.604 436.637 72.604C436.054 72.604 435.602 72.7113 435.28 72.926C434.973 73.1407 434.82 73.4397 434.82 73.823C434.82 74.2523 435.034 74.582 435.464 74.812C435.893 75.0267 436.56 75.249 437.465 75.479C438.385 75.709 439.144 75.9467 439.742 76.192C440.34 76.4373 440.853 76.8207 441.283 77.342C441.727 77.848 441.957 78.5227 441.973 79.366C441.973 80.102 441.766 80.7613 441.352 81.344C440.953 81.9267 440.37 82.3867 439.604 82.724C438.852 83.046 437.971 83.207 436.959 83.207ZM456.645 70.258V83H453.402V81.39C452.988 81.942 452.443 82.379 451.769 82.701C451.109 83.0077 450.389 83.161 449.607 83.161C448.61 83.161 447.728 82.954 446.962 82.54C446.195 82.1107 445.589 81.4897 445.145 80.677C444.715 79.849 444.501 78.8677 444.501 77.733V70.258H447.721V77.273C447.721 78.285 447.974 79.067 448.48 79.619C448.986 80.1557 449.676 80.424 450.55 80.424C451.439 80.424 452.137 80.1557 452.643 79.619C453.149 79.067 453.402 78.285 453.402 77.273V70.258H456.645ZM467.366 83L463.042 77.572V83H459.822V65.98H463.042V75.663L467.32 70.258H471.506L465.894 76.652L471.552 83H467.366ZM477.417 66.67L477.049 77.779H474.335L473.944 66.67H477.417ZM475.761 83.161C475.178 83.161 474.695 82.9847 474.312 82.632C473.944 82.264 473.76 81.8117 473.76 81.275C473.76 80.7383 473.944 80.2937 474.312 79.941C474.695 79.573 475.178 79.389 475.761 79.389C476.328 79.389 476.796 79.573 477.164 79.941C477.532 80.2937 477.716 80.7383 477.716 81.275C477.716 81.8117 477.532 82.264 477.164 82.632C476.796 82.9847 476.328 83.161 475.761 83.161Z" fill="#EA8D45"/>
</g>
<defs>
<filter id="filter0_d_132_258" x="0" y="0" width="706.097" height="125.134" filterUnits="userSpaceOnUse" color-interpolation-filters="sRGB">
<feFlood flood-opacity="0" result="BackgroundImageFix"/>
<feColorMatrix in="SourceAlpha" type="matrix" values="0 0 0 0 0 0 0 0 0 0 0 0 0 0 0 0 0 0 127 0" result="hardAlpha"/>
<feOffset dy="4"/>
<feGaussianBlur stdDeviation="2"/>
<feComposite in2="hardAlpha" operator="out"/>
<feColorMatrix type="matrix" values="0 0 0 0 0 0 0 0 0 0 0 0 0 0 0 0 0 0 0.25 0"/>
<feBlend mode="normal" in2="BackgroundImageFix" result="effect1_dropShadow_132_258"/>
<feBlend mode="normal" in="SourceGraphic" in2="effect1_dropShadow_132_258" result="shape"/>
</filter>
</defs>
</svg>
