<svg width="707" height="126" viewBox="0 0 707 126" fill="none" xmlns="http://www.w3.org/2000/svg">
<g filter="url(#filter0_d_132_214)">
<path d="M4.5 10C4.5 4.75329 8.75329 0.5 14 0.5H692C697.247 0.5 701.5 4.75329 701.5 10V107C701.5 112.247 697.247 116.5 692 116.5H14C8.75328 116.5 4.5 112.247 4.5 107V10Z" fill="white" stroke="#EA8D45"/>
<rect x="57.946" y="93.707" width="50" height="50" transform="rotate(179.846 57.946 93.707)" fill="#EA8D45"/>
<rect x="92.8303" y="50.613" width="50" height="50" transform="rotate(179.846 92.8303 50.613)" fill="#EA8D45"/>
<rect x="134.097" y="75.9999" width="50" height="36" transform="rotate(179.846 134.097 75.9999)" fill="#EA8D45" fill-opacity="0.5"/>
<rect x="652.134" y="108" width="50" height="50" transform="rotate(179.846 652.134 108)" fill="#EA8D45"/>
<rect x="702.097" y="117" width="50" height="36" transform="rotate(179.846 702.097 117)" fill="#EA8D45" fill-opacity="0.5"/>
<path d="M227.122 31.946V41.882C227.122 42.9707 227.406 43.8063 227.973 44.389C228.541 44.9563 229.338 45.24 230.365 45.24C231.408 45.24 232.213 44.9563 232.78 44.389C233.348 43.8063 233.631 42.9707 233.631 41.882V31.946H236.874V41.859C236.874 43.2237 236.575 44.3813 235.977 45.332C235.395 46.2673 234.605 46.9727 233.608 47.448C232.627 47.9233 231.531 48.161 230.319 48.161C229.123 48.161 228.035 47.9233 227.053 47.448C226.087 46.9727 225.321 46.2673 224.753 45.332C224.186 44.3813 223.902 43.2237 223.902 41.859V31.946H227.122ZM244.861 48.207C243.819 48.207 242.883 48.023 242.055 47.655C241.227 47.2717 240.568 46.758 240.077 46.114C239.602 45.47 239.341 44.757 239.295 43.975H242.538C242.6 44.4657 242.837 44.872 243.251 45.194C243.681 45.516 244.21 45.677 244.838 45.677C245.452 45.677 245.927 45.5543 246.264 45.309C246.617 45.0637 246.793 44.7493 246.793 44.366C246.793 43.952 246.579 43.6453 246.149 43.446C245.735 43.2313 245.068 43.0013 244.148 42.756C243.198 42.526 242.416 42.2883 241.802 42.043C241.204 41.7977 240.683 41.422 240.238 40.916C239.809 40.41 239.594 39.7277 239.594 38.869C239.594 38.1637 239.794 37.5197 240.192 36.937C240.606 36.3543 241.189 35.8943 241.94 35.557C242.707 35.2197 243.604 35.051 244.631 35.051C246.149 35.051 247.361 35.4343 248.265 36.201C249.17 36.9523 249.668 37.972 249.76 39.26H246.678C246.632 38.754 246.418 38.3553 246.034 38.064C245.666 37.7573 245.168 37.604 244.539 37.604C243.957 37.604 243.504 37.7113 243.182 37.926C242.876 38.1407 242.722 38.4397 242.722 38.823C242.722 39.2523 242.937 39.582 243.366 39.812C243.796 40.0267 244.463 40.249 245.367 40.479C246.287 40.709 247.046 40.9467 247.644 41.192C248.242 41.4373 248.756 41.8207 249.185 42.342C249.63 42.848 249.86 43.5227 249.875 44.366C249.875 45.102 249.668 45.7613 249.254 46.344C248.856 46.9267 248.273 47.3867 247.506 47.724C246.755 48.046 245.873 48.207 244.861 48.207ZM264.364 41.353C264.364 41.813 264.333 42.227 264.272 42.595H254.957C255.033 43.515 255.355 44.2357 255.923 44.757C256.49 45.2783 257.188 45.539 258.016 45.539C259.212 45.539 260.063 45.0253 260.569 43.998H264.042C263.674 45.2247 262.968 46.2367 261.926 47.034C260.883 47.816 259.603 48.207 258.085 48.207C256.858 48.207 255.754 47.9387 254.773 47.402C253.807 46.85 253.048 46.0757 252.496 45.079C251.959 44.0823 251.691 42.9323 251.691 41.629C251.691 40.3103 251.959 39.1527 252.496 38.156C253.032 37.1593 253.784 36.3927 254.75 35.856C255.716 35.3193 256.827 35.051 258.085 35.051C259.296 35.051 260.377 35.3117 261.328 35.833C262.294 36.3543 263.037 37.098 263.559 38.064C264.095 39.0147 264.364 40.111 264.364 41.353ZM261.029 40.433C261.013 39.605 260.714 38.9457 260.132 38.455C259.549 37.949 258.836 37.696 257.993 37.696C257.195 37.696 256.521 37.9413 255.969 38.432C255.432 38.9073 255.102 39.5743 254.98 40.433H261.029ZM269.934 37.236C270.348 36.5613 270.885 36.0323 271.544 35.649C272.219 35.2657 272.985 35.074 273.844 35.074V38.455H272.993C271.981 38.455 271.214 38.6927 270.693 39.168C270.187 39.6433 269.934 40.4713 269.934 41.652V48H266.714V35.258H269.934V37.236ZM283.074 35.074C284.592 35.074 285.818 35.557 286.754 36.523C287.689 37.4737 288.157 38.8077 288.157 40.525V48H284.937V40.962C284.937 39.95 284.684 39.1757 284.178 38.639C283.672 38.087 282.982 37.811 282.108 37.811C281.218 37.811 280.513 38.087 279.992 38.639C279.486 39.1757 279.233 39.95 279.233 40.962V48H276.013V35.258H279.233V36.845C279.662 36.293 280.206 35.8637 280.866 35.557C281.54 35.235 282.276 35.074 283.074 35.074ZM290.391 41.583C290.391 40.295 290.644 39.1527 291.15 38.156C291.671 37.1593 292.369 36.3927 293.243 35.856C294.132 35.3193 295.121 35.051 296.21 35.051C297.161 35.051 297.989 35.2427 298.694 35.626C299.415 36.0093 299.99 36.4923 300.419 37.075V35.258H303.662V48H300.419V46.137C300.005 46.735 299.43 47.2333 298.694 47.632C297.973 48.0153 297.138 48.207 296.187 48.207C295.114 48.207 294.132 47.931 293.243 47.379C292.369 46.827 291.671 46.0527 291.15 45.056C290.644 44.044 290.391 42.8863 290.391 41.583ZM300.419 41.629C300.419 40.847 300.266 40.18 299.959 39.628C299.652 39.0607 299.238 38.6313 298.717 38.34C298.196 38.0333 297.636 37.88 297.038 37.88C296.44 37.88 295.888 38.0257 295.382 38.317C294.876 38.6083 294.462 39.0377 294.14 39.605C293.833 40.157 293.68 40.8163 293.68 41.583C293.68 42.3497 293.833 43.0243 294.14 43.607C294.462 44.1743 294.876 44.6113 295.382 44.918C295.903 45.2247 296.455 45.378 297.038 45.378C297.636 45.378 298.196 45.2323 298.717 44.941C299.238 44.6343 299.652 44.205 299.959 43.653C300.266 43.0857 300.419 42.411 300.419 41.629ZM322.631 35.074C324.195 35.074 325.452 35.557 326.403 36.523C327.369 37.4737 327.852 38.8077 327.852 40.525V48H324.632V40.962C324.632 39.9653 324.379 39.2063 323.873 38.685C323.367 38.1483 322.677 37.88 321.803 37.88C320.929 37.88 320.231 38.1483 319.71 38.685C319.204 39.2063 318.951 39.9653 318.951 40.962V48H315.731V40.962C315.731 39.9653 315.478 39.2063 314.972 38.685C314.466 38.1483 313.776 37.88 312.902 37.88C312.012 37.88 311.307 38.1483 310.786 38.685C310.28 39.2063 310.027 39.9653 310.027 40.962V48H306.807V35.258H310.027V36.799C310.441 36.2623 310.97 35.8407 311.614 35.534C312.273 35.2273 312.994 35.074 313.776 35.074C314.772 35.074 315.662 35.2887 316.444 35.718C317.226 36.132 317.831 36.73 318.261 37.512C318.675 36.776 319.273 36.1857 320.055 35.741C320.852 35.2963 321.711 35.074 322.631 35.074ZM342.752 41.353C342.752 41.813 342.722 42.227 342.66 42.595H333.345C333.422 43.515 333.744 44.2357 334.311 44.757C334.879 45.2783 335.576 45.539 336.404 45.539C337.6 45.539 338.451 45.0253 338.957 43.998H342.43C342.062 45.2247 341.357 46.2367 340.314 47.034C339.272 47.816 337.991 48.207 336.473 48.207C335.247 48.207 334.143 47.9387 333.161 47.402C332.195 46.85 331.436 46.0757 330.884 45.079C330.348 44.0823 330.079 42.9323 330.079 41.629C330.079 40.3103 330.348 39.1527 330.884 38.156C331.421 37.1593 332.172 36.3927 333.138 35.856C334.104 35.3193 335.216 35.051 336.473 35.051C337.685 35.051 338.766 35.3117 339.716 35.833C340.682 36.3543 341.426 37.098 341.947 38.064C342.484 39.0147 342.752 40.111 342.752 41.353ZM339.417 40.433C339.402 39.605 339.103 38.9457 338.52 38.455C337.938 37.949 337.225 37.696 336.381 37.696C335.584 37.696 334.909 37.9413 334.357 38.432C333.821 38.9073 333.491 39.5743 333.368 40.433H339.417ZM360.427 44.941H354.033L352.975 48H349.594L355.367 31.923H359.116L364.889 48H361.485L360.427 44.941ZM359.553 42.365L357.23 35.649L354.907 42.365H359.553ZM374.108 35.074C375.626 35.074 376.853 35.557 377.788 36.523C378.723 37.4737 379.191 38.8077 379.191 40.525V48H375.971V40.962C375.971 39.95 375.718 39.1757 375.212 38.639C374.706 38.087 374.016 37.811 373.142 37.811C372.253 37.811 371.547 38.087 371.026 38.639C370.52 39.1757 370.267 39.95 370.267 40.962V48H367.047V35.258H370.267V36.845C370.696 36.293 371.241 35.8637 371.9 35.557C372.575 35.235 373.311 35.074 374.108 35.074ZM381.425 41.583C381.425 40.295 381.678 39.1527 382.184 38.156C382.705 37.1593 383.411 36.3927 384.3 35.856C385.189 35.3193 386.178 35.051 387.267 35.051C388.095 35.051 388.885 35.235 389.636 35.603C390.387 35.9557 390.985 36.431 391.43 37.029V30.98H394.696V48H391.43V46.114C391.031 46.7427 390.472 47.2487 389.751 47.632C389.03 48.0153 388.195 48.207 387.244 48.207C386.171 48.207 385.189 47.931 384.3 47.379C383.411 46.827 382.705 46.0527 382.184 45.056C381.678 44.044 381.425 42.8863 381.425 41.583ZM391.453 41.629C391.453 40.847 391.3 40.18 390.993 39.628C390.686 39.0607 390.272 38.6313 389.751 38.34C389.23 38.0333 388.67 37.88 388.072 37.88C387.474 37.88 386.922 38.0257 386.416 38.317C385.91 38.6083 385.496 39.0377 385.174 39.605C384.867 40.157 384.714 40.8163 384.714 41.583C384.714 42.3497 384.867 43.0243 385.174 43.607C385.496 44.1743 385.91 44.6113 386.416 44.918C386.937 45.2247 387.489 45.378 388.072 45.378C388.67 45.378 389.23 45.2323 389.751 44.941C390.272 44.6343 390.686 44.205 390.993 43.653C391.3 43.0857 391.453 42.411 391.453 41.629ZM397.013 41.583C397.013 40.295 397.266 39.1527 397.772 38.156C398.293 37.1593 398.991 36.3927 399.865 35.856C400.754 35.3193 401.743 35.051 402.832 35.051C403.783 35.051 404.611 35.2427 405.316 35.626C406.037 36.0093 406.612 36.4923 407.041 37.075V35.258H410.284V48H407.041V46.137C406.627 46.735 406.052 47.2333 405.316 47.632C404.595 48.0153 403.76 48.207 402.809 48.207C401.736 48.207 400.754 47.931 399.865 47.379C398.991 46.827 398.293 46.0527 397.772 45.056C397.266 44.044 397.013 42.8863 397.013 41.583ZM407.041 41.629C407.041 40.847 406.888 40.18 406.581 39.628C406.274 39.0607 405.86 38.6313 405.339 38.34C404.818 38.0333 404.258 37.88 403.66 37.88C403.062 37.88 402.51 38.0257 402.004 38.317C401.498 38.6083 401.084 39.0377 400.762 39.605C400.455 40.157 400.302 40.8163 400.302 41.583C400.302 42.3497 400.455 43.0243 400.762 43.607C401.084 44.1743 401.498 44.6113 402.004 44.918C402.525 45.2247 403.077 45.378 403.66 45.378C404.258 45.378 404.818 45.2323 405.339 44.941C405.86 44.6343 406.274 44.205 406.581 43.653C406.888 43.0857 407.041 42.411 407.041 41.629Z" fill="#EA8D45"/>
<path d="M423.785 48.207C422.743 48.207 421.807 48.023 420.979 47.655C420.151 47.2717 419.492 46.758 419.001 46.114C418.526 45.47 418.265 44.757 418.219 43.975H421.462C421.524 44.4657 421.761 44.872 422.175 45.194C422.605 45.516 423.134 45.677 423.762 45.677C424.376 45.677 424.851 45.5543 425.188 45.309C425.541 45.0637 425.717 44.7493 425.717 44.366C425.717 43.952 425.503 43.6453 425.073 43.446C424.659 43.2313 423.992 43.0013 423.072 42.756C422.122 42.526 421.34 42.2883 420.726 42.043C420.128 41.7977 419.607 41.422 419.162 40.916C418.733 40.41 418.518 39.7277 418.518 38.869C418.518 38.1637 418.718 37.5197 419.116 36.937C419.53 36.3543 420.113 35.8943 420.864 35.557C421.631 35.2197 422.528 35.051 423.555 35.051C425.073 35.051 426.285 35.4343 427.189 36.201C428.094 36.9523 428.592 37.972 428.684 39.26H425.602C425.556 38.754 425.342 38.3553 424.958 38.064C424.59 37.7573 424.092 37.604 423.463 37.604C422.881 37.604 422.428 37.7113 422.106 37.926C421.8 38.1407 421.646 38.4397 421.646 38.823C421.646 39.2523 421.861 39.582 422.29 39.812C422.72 40.0267 423.387 40.249 424.291 40.479C425.211 40.709 425.97 40.9467 426.568 41.192C427.166 41.4373 427.68 41.8207 428.109 42.342C428.554 42.848 428.784 43.5227 428.799 44.366C428.799 45.102 428.592 45.7613 428.178 46.344C427.78 46.9267 427.197 47.3867 426.43 47.724C425.679 48.046 424.797 48.207 423.785 48.207ZM430.614 41.583C430.614 40.295 430.867 39.1527 431.373 38.156C431.895 37.1593 432.592 36.3927 433.466 35.856C434.356 35.3193 435.345 35.051 436.433 35.051C437.384 35.051 438.212 35.2427 438.917 35.626C439.638 36.0093 440.213 36.4923 440.642 37.075V35.258H443.885V48H440.642V46.137C440.228 46.735 439.653 47.2333 438.917 47.632C438.197 48.0153 437.361 48.207 436.41 48.207C435.337 48.207 434.356 47.931 433.466 47.379C432.592 46.827 431.895 46.0527 431.373 45.056C430.867 44.044 430.614 42.8863 430.614 41.583ZM440.642 41.629C440.642 40.847 440.489 40.18 440.182 39.628C439.876 39.0607 439.462 38.6313 438.94 38.34C438.419 38.0333 437.859 37.88 437.261 37.88C436.663 37.88 436.111 38.0257 435.605 38.317C435.099 38.6083 434.685 39.0377 434.363 39.605C434.057 40.157 433.903 40.8163 433.903 41.583C433.903 42.3497 434.057 43.0243 434.363 43.607C434.685 44.1743 435.099 44.6113 435.605 44.918C436.127 45.2247 436.679 45.378 437.261 45.378C437.859 45.378 438.419 45.2323 438.94 44.941C439.462 44.6343 439.876 44.205 440.182 43.653C440.489 43.0857 440.642 42.411 440.642 41.629ZM450.25 30.98V48H447.03V30.98H450.25ZM452.604 41.583C452.604 40.295 452.857 39.1527 453.363 38.156C453.884 37.1593 454.582 36.3927 455.456 35.856C456.345 35.3193 457.334 35.051 458.423 35.051C459.373 35.051 460.201 35.2427 460.907 35.626C461.627 36.0093 462.202 36.4923 462.632 37.075V35.258H465.875V48H462.632V46.137C462.218 46.735 461.643 47.2333 460.907 47.632C460.186 48.0153 459.35 48.207 458.4 48.207C457.326 48.207 456.345 47.931 455.456 47.379C454.582 46.827 453.884 46.0527 453.363 45.056C452.857 44.044 452.604 42.8863 452.604 41.583ZM462.632 41.629C462.632 40.847 462.478 40.18 462.172 39.628C461.865 39.0607 461.451 38.6313 460.93 38.34C460.408 38.0333 459.849 37.88 459.251 37.88C458.653 37.88 458.101 38.0257 457.595 38.317C457.089 38.6083 456.675 39.0377 456.353 39.605C456.046 40.157 455.893 40.8163 455.893 41.583C455.893 42.3497 456.046 43.0243 456.353 43.607C456.675 44.1743 457.089 44.6113 457.595 44.918C458.116 45.2247 458.668 45.378 459.251 45.378C459.849 45.378 460.408 45.2323 460.93 44.941C461.451 44.6343 461.865 44.205 462.172 43.653C462.478 43.0857 462.632 42.411 462.632 41.629ZM476.196 35.074C477.162 35.074 478.02 35.2887 478.772 35.718C479.523 36.132 480.106 36.753 480.52 37.581C480.949 38.3937 481.164 39.375 481.164 40.525V48H477.944V40.962C477.944 39.95 477.691 39.1757 477.185 38.639C476.679 38.087 475.989 37.811 475.115 37.811C474.225 37.811 473.52 38.087 472.999 38.639C472.493 39.1757 472.24 39.95 472.24 40.962V48H469.02V30.98H472.24V36.845C472.654 36.293 473.206 35.8637 473.896 35.557C474.586 35.235 475.352 35.074 476.196 35.074Z" fill="#999999"/>
<path d="M251.402 83.161C250.283 83.161 249.271 82.9693 248.366 82.586C247.477 82.2027 246.771 81.6507 246.25 80.93C245.729 80.2093 245.46 79.3583 245.445 78.377H248.895C248.941 79.0363 249.171 79.5577 249.585 79.941C250.014 80.3243 250.597 80.516 251.333 80.516C252.084 80.516 252.675 80.3397 253.104 79.987C253.533 79.619 253.748 79.1437 253.748 78.561C253.748 78.0857 253.602 77.6947 253.311 77.388C253.02 77.0813 252.652 76.8437 252.207 76.675C251.778 76.491 251.18 76.2917 250.413 76.077C249.37 75.7703 248.519 75.4713 247.86 75.18C247.216 74.8733 246.656 74.421 246.181 73.823C245.721 73.2097 245.491 72.397 245.491 71.385C245.491 70.4343 245.729 69.6063 246.204 68.901C246.679 68.1957 247.346 67.659 248.205 67.291C249.064 66.9077 250.045 66.716 251.149 66.716C252.805 66.716 254.147 67.1223 255.174 67.935C256.217 68.7323 256.792 69.8517 256.899 71.293H253.357C253.326 70.741 253.089 70.2887 252.644 69.936C252.215 69.568 251.64 69.384 250.919 69.384C250.29 69.384 249.784 69.545 249.401 69.867C249.033 70.189 248.849 70.6567 248.849 71.27C248.849 71.6993 248.987 72.0597 249.263 72.351C249.554 72.627 249.907 72.857 250.321 73.041C250.75 73.2097 251.348 73.409 252.115 73.639C253.158 73.9457 254.009 74.2523 254.668 74.559C255.327 74.8657 255.895 75.3257 256.37 75.939C256.845 76.5523 257.083 77.3573 257.083 78.354C257.083 79.2127 256.861 80.01 256.416 80.746C255.971 81.482 255.32 82.0723 254.461 82.517C253.602 82.9463 252.583 83.161 251.402 83.161ZM261.508 68.74C260.94 68.74 260.465 68.5637 260.082 68.211C259.714 67.843 259.53 67.3907 259.53 66.854C259.53 66.3173 259.714 65.8727 260.082 65.52C260.465 65.152 260.94 64.968 261.508 64.968C262.075 64.968 262.543 65.152 262.911 65.52C263.294 65.8727 263.486 66.3173 263.486 66.854C263.486 67.3907 263.294 67.843 262.911 68.211C262.543 68.5637 262.075 68.74 261.508 68.74ZM263.095 70.258V83H259.875V70.258H263.095ZM269.496 65.98V83H266.276V65.98H269.496ZM271.849 76.583C271.849 75.295 272.102 74.1527 272.608 73.156C273.13 72.1593 273.827 71.3927 274.701 70.856C275.591 70.3193 276.58 70.051 277.668 70.051C278.619 70.051 279.447 70.2427 280.152 70.626C280.873 71.0093 281.448 71.4923 281.877 72.075V70.258H285.12V83H281.877V81.137C281.463 81.735 280.888 82.2333 280.152 82.632C279.432 83.0153 278.596 83.207 277.645 83.207C276.572 83.207 275.591 82.931 274.701 82.379C273.827 81.827 273.13 81.0527 272.608 80.056C272.102 79.044 271.849 77.8863 271.849 76.583ZM281.877 76.629C281.877 75.847 281.724 75.18 281.417 74.628C281.111 74.0607 280.697 73.6313 280.175 73.34C279.654 73.0333 279.094 72.88 278.496 72.88C277.898 72.88 277.346 73.0257 276.84 73.317C276.334 73.6083 275.92 74.0377 275.598 74.605C275.292 75.157 275.138 75.8163 275.138 76.583C275.138 77.3497 275.292 78.0243 275.598 78.607C275.92 79.1743 276.334 79.6113 276.84 79.918C277.362 80.2247 277.914 80.378 278.496 80.378C279.094 80.378 279.654 80.2323 280.175 79.941C280.697 79.6343 281.111 79.205 281.417 78.653C281.724 78.0857 281.877 77.411 281.877 76.629ZM295.441 70.074C296.407 70.074 297.266 70.2887 298.017 70.718C298.769 71.132 299.351 71.753 299.765 72.581C300.195 73.3937 300.409 74.375 300.409 75.525V83H297.189V75.962C297.189 74.95 296.936 74.1757 296.43 73.639C295.924 73.087 295.234 72.811 294.36 72.811C293.471 72.811 292.766 73.087 292.244 73.639C291.738 74.1757 291.485 74.95 291.485 75.962V83H288.265V65.98H291.485V71.845C291.899 71.293 292.451 70.8637 293.141 70.557C293.831 70.235 294.598 70.074 295.441 70.074ZM311.015 83L306.691 77.572V83H303.471V65.98H306.691V75.663L310.969 70.258H315.155L309.543 76.652L315.201 83H311.015ZM316.075 76.583C316.075 75.295 316.328 74.1527 316.834 73.156C317.355 72.1593 318.053 71.3927 318.927 70.856C319.816 70.3193 320.805 70.051 321.894 70.051C322.845 70.051 323.673 70.2427 324.378 70.626C325.099 71.0093 325.674 71.4923 326.103 72.075V70.258H329.346V83H326.103V81.137C325.689 81.735 325.114 82.2333 324.378 82.632C323.657 83.0153 322.822 83.207 321.871 83.207C320.798 83.207 319.816 82.931 318.927 82.379C318.053 81.827 317.355 81.0527 316.834 80.056C316.328 79.044 316.075 77.8863 316.075 76.583ZM326.103 76.629C326.103 75.847 325.95 75.18 325.643 74.628C325.336 74.0607 324.922 73.6313 324.401 73.34C323.88 73.0333 323.32 72.88 322.722 72.88C322.124 72.88 321.572 73.0257 321.066 73.317C320.56 73.6083 320.146 74.0377 319.824 74.605C319.517 75.157 319.364 75.8163 319.364 76.583C319.364 77.3497 319.517 78.0243 319.824 78.607C320.146 79.1743 320.56 79.6113 321.066 79.918C321.587 80.2247 322.139 80.378 322.722 80.378C323.32 80.378 323.88 80.2323 324.401 79.941C324.922 79.6343 325.336 79.205 325.643 78.653C325.95 78.0857 326.103 77.411 326.103 76.629ZM339.552 70.074C341.07 70.074 342.296 70.557 343.232 71.523C344.167 72.4737 344.635 73.8077 344.635 75.525V83H341.415V75.962C341.415 74.95 341.162 74.1757 340.656 73.639C340.15 73.087 339.46 72.811 338.586 72.811C337.696 72.811 336.991 73.087 336.47 73.639C335.964 74.1757 335.711 74.95 335.711 75.962V83H332.491V70.258H335.711V71.845C336.14 71.293 336.684 70.8637 337.344 70.557C338.018 70.235 338.754 70.074 339.552 70.074ZM352.349 76.629C352.349 75.3103 352.618 74.1603 353.154 73.179C353.691 72.1823 354.435 71.4157 355.385 70.879C356.336 70.327 357.425 70.051 358.651 70.051C360.231 70.051 361.534 70.4497 362.561 71.247C363.604 72.029 364.302 73.133 364.654 74.559H361.181C360.997 74.007 360.683 73.5777 360.238 73.271C359.809 72.949 359.272 72.788 358.628 72.788C357.708 72.788 356.98 73.1253 356.443 73.8C355.907 74.4593 355.638 75.4023 355.638 76.629C355.638 77.8403 355.907 78.7833 356.443 79.458C356.98 80.1173 357.708 80.447 358.628 80.447C359.932 80.447 360.783 79.8643 361.181 78.699H364.654C364.302 80.079 363.604 81.1753 362.561 81.988C361.519 82.8007 360.215 83.207 358.651 83.207C357.425 83.207 356.336 82.9387 355.385 82.402C354.435 81.85 353.691 81.0833 353.154 80.102C352.618 79.1053 352.349 77.9477 352.349 76.629ZM372.671 83.207C371.445 83.207 370.341 82.9387 369.359 82.402C368.378 81.85 367.604 81.0757 367.036 80.079C366.484 79.0823 366.208 77.9323 366.208 76.629C366.208 75.3257 366.492 74.1757 367.059 73.179C367.642 72.1823 368.432 71.4157 369.428 70.879C370.425 70.327 371.537 70.051 372.763 70.051C373.99 70.051 375.102 70.327 376.098 70.879C377.095 71.4157 377.877 72.1823 378.444 73.179C379.027 74.1757 379.318 75.3257 379.318 76.629C379.318 77.9323 379.019 79.0823 378.421 80.079C377.839 81.0757 377.041 81.85 376.029 82.402C375.033 82.9387 373.913 83.207 372.671 83.207ZM372.671 80.401C373.254 80.401 373.798 80.263 374.304 79.987C374.826 79.6957 375.24 79.2663 375.546 78.699C375.853 78.1317 376.006 77.4417 376.006 76.629C376.006 75.4177 375.684 74.49 375.04 73.846C374.412 73.1867 373.637 72.857 372.717 72.857C371.797 72.857 371.023 73.1867 370.394 73.846C369.781 74.49 369.474 75.4177 369.474 76.629C369.474 77.8403 369.773 78.7757 370.371 79.435C370.985 80.079 371.751 80.401 372.671 80.401ZM384.9 72.121C385.314 71.5077 385.882 71.0093 386.602 70.626C387.338 70.2427 388.174 70.051 389.109 70.051C390.198 70.051 391.179 70.3193 392.053 70.856C392.943 71.3927 393.64 72.1593 394.146 73.156C394.668 74.1373 394.928 75.2797 394.928 76.583C394.928 77.8863 394.668 79.044 394.146 80.056C393.64 81.0527 392.943 81.827 392.053 82.379C391.179 82.931 390.198 83.207 389.109 83.207C388.159 83.207 387.323 83.023 386.602 82.655C385.897 82.2717 385.33 81.781 384.9 81.183V83H381.68V65.98H384.9V72.121ZM391.639 76.583C391.639 75.8163 391.478 75.157 391.156 74.605C390.85 74.0377 390.436 73.6083 389.914 73.317C389.408 73.0257 388.856 72.88 388.258 72.88C387.676 72.88 387.124 73.0333 386.602 73.34C386.096 73.6313 385.682 74.0607 385.36 74.628C385.054 75.1953 384.9 75.8623 384.9 76.629C384.9 77.3957 385.054 78.0627 385.36 78.63C385.682 79.1973 386.096 79.6343 386.602 79.941C387.124 80.2323 387.676 80.378 388.258 80.378C388.856 80.378 389.408 80.2247 389.914 79.918C390.436 79.6113 390.85 79.1743 391.156 78.607C391.478 78.0397 391.639 77.365 391.639 76.583ZM396.44 76.583C396.44 75.295 396.693 74.1527 397.199 73.156C397.72 72.1593 398.418 71.3927 399.292 70.856C400.181 70.3193 401.17 70.051 402.259 70.051C403.21 70.051 404.038 70.2427 404.743 70.626C405.464 71.0093 406.039 71.4923 406.468 72.075V70.258H409.711V83H406.468V81.137C406.054 81.735 405.479 82.2333 404.743 82.632C404.022 83.0153 403.187 83.207 402.236 83.207C401.163 83.207 400.181 82.931 399.292 82.379C398.418 81.827 397.72 81.0527 397.199 80.056C396.693 79.044 396.44 77.8863 396.44 76.583ZM406.468 76.629C406.468 75.847 406.315 75.18 406.008 74.628C405.701 74.0607 405.287 73.6313 404.766 73.34C404.245 73.0333 403.685 72.88 403.087 72.88C402.489 72.88 401.937 73.0257 401.431 73.317C400.925 73.6083 400.511 74.0377 400.189 74.605C399.882 75.157 399.729 75.8163 399.729 76.583C399.729 77.3497 399.882 78.0243 400.189 78.607C400.511 79.1743 400.925 79.6113 401.431 79.918C401.952 80.2247 402.504 80.378 403.087 80.378C403.685 80.378 404.245 80.2323 404.766 79.941C405.287 79.6343 405.701 79.205 406.008 78.653C406.315 78.0857 406.468 77.411 406.468 76.629ZM421.557 65.98V83H418.337V65.98H421.557ZM423.91 76.583C423.91 75.295 424.163 74.1527 424.669 73.156C425.19 72.1593 425.888 71.3927 426.762 70.856C427.651 70.3193 428.64 70.051 429.729 70.051C430.68 70.051 431.508 70.2427 432.213 70.626C432.934 71.0093 433.509 71.4923 433.938 72.075V70.258H437.181V83H433.938V81.137C433.524 81.735 432.949 82.2333 432.213 82.632C431.492 83.0153 430.657 83.207 429.706 83.207C428.633 83.207 427.651 82.931 426.762 82.379C425.888 81.827 425.19 81.0527 424.669 80.056C424.163 79.044 423.91 77.8863 423.91 76.583ZM433.938 76.629C433.938 75.847 433.785 75.18 433.478 74.628C433.171 74.0607 432.757 73.6313 432.236 73.34C431.715 73.0333 431.155 72.88 430.557 72.88C429.959 72.88 429.407 73.0257 428.901 73.317C428.395 73.6083 427.981 74.0377 427.659 74.605C427.352 75.157 427.199 75.8163 427.199 76.583C427.199 77.3497 427.352 78.0243 427.659 78.607C427.981 79.1743 428.395 79.6113 428.901 79.918C429.422 80.2247 429.974 80.378 430.557 80.378C431.155 80.378 431.715 80.2323 432.236 79.941C432.757 79.6343 433.171 79.205 433.478 78.653C433.785 78.0857 433.938 77.411 433.938 76.629ZM445.317 70.051C446.267 70.051 447.103 70.2427 447.824 70.626C448.544 70.994 449.112 71.477 449.526 72.075V70.258H452.769V83.092C452.769 84.2727 452.531 85.323 452.056 86.243C451.58 87.1783 450.867 87.9143 449.917 88.451C448.966 89.003 447.816 89.279 446.467 89.279C444.657 89.279 443.17 88.8573 442.005 88.014C440.855 87.1707 440.203 86.0207 440.05 84.564H443.247C443.415 85.1467 443.776 85.6067 444.328 85.944C444.895 86.2967 445.577 86.473 446.375 86.473C447.31 86.473 448.069 86.1893 448.652 85.622C449.234 85.07 449.526 84.2267 449.526 83.092V81.114C449.112 81.712 448.537 82.2103 447.801 82.609C447.08 83.0077 446.252 83.207 445.317 83.207C444.243 83.207 443.262 82.931 442.373 82.379C441.483 81.827 440.778 81.0527 440.257 80.056C439.751 79.044 439.498 77.8863 439.498 76.583C439.498 75.295 439.751 74.1527 440.257 73.156C440.778 72.1593 441.476 71.3927 442.35 70.856C443.239 70.3193 444.228 70.051 445.317 70.051ZM449.526 76.629C449.526 75.847 449.372 75.18 449.066 74.628C448.759 74.0607 448.345 73.6313 447.824 73.34C447.302 73.0333 446.743 72.88 446.145 72.88C445.547 72.88 444.995 73.0257 444.489 73.317C443.983 73.6083 443.569 74.0377 443.247 74.605C442.94 75.157 442.787 75.8163 442.787 76.583C442.787 77.3497 442.94 78.0243 443.247 78.607C443.569 79.1743 443.983 79.6113 444.489 79.918C445.01 80.2247 445.562 80.378 446.145 80.378C446.743 80.378 447.302 80.2323 447.824 79.941C448.345 79.6343 448.759 79.205 449.066 78.653C449.372 78.0857 449.526 77.411 449.526 76.629ZM457.547 68.74C456.979 68.74 456.504 68.5637 456.121 68.211C455.753 67.843 455.569 67.3907 455.569 66.854C455.569 66.3173 455.753 65.8727 456.121 65.52C456.504 65.152 456.979 64.968 457.547 64.968C458.114 64.968 458.582 65.152 458.95 65.52C459.333 65.8727 459.525 66.3173 459.525 66.854C459.525 67.3907 459.333 67.843 458.95 68.211C458.582 68.5637 458.114 68.74 457.547 68.74ZM459.134 70.258V83H455.914V70.258H459.134Z" fill="#EA8D45" fill-opacity="0.7"/>
<path fill-rule="evenodd" clip-rule="evenodd" d="M671.181 13.0212C675.049 12.593 678.951 12.593 682.819 13.0212C684.96 13.2612 686.687 14.9475 686.939 17.0962C687.397 21.0187 687.397 24.9812 686.939 28.9037C686.687 31.0525 684.96 32.7387 682.819 32.9787C678.951 33.4069 675.049 33.4069 671.181 32.9787C669.04 32.7387 667.312 31.0525 667.061 28.9037C666.603 24.9816 666.603 21.0195 667.061 17.0975C667.188 16.0536 667.664 15.0831 668.412 14.3435C669.159 13.6039 670.135 13.1384 671.18 13.0225M672.587 18.5875C672.763 18.4119 673.001 18.3133 673.25 18.3133C673.498 18.3133 673.737 18.4119 673.912 18.5875L677 21.675L680.087 18.5875C680.173 18.4954 680.277 18.4215 680.392 18.3702C680.507 18.319 680.631 18.2914 680.757 18.2892C680.883 18.287 681.008 18.3102 681.124 18.3573C681.241 18.4045 681.347 18.4746 681.436 18.5637C681.525 18.6527 681.595 18.7587 681.643 18.8755C681.69 18.9922 681.713 19.1172 681.711 19.2431C681.708 19.369 681.681 19.4931 681.63 19.6081C681.578 19.7231 681.505 19.8266 681.412 19.9125L678.325 23L681.412 26.0875C681.578 26.2652 681.668 26.5002 681.664 26.7431C681.66 26.986 681.561 27.2177 681.389 27.3895C681.218 27.5613 680.986 27.6597 680.743 27.6639C680.5 27.6682 680.265 27.5781 680.087 27.4125L677 24.325L673.912 27.4125C673.827 27.5046 673.723 27.5785 673.608 27.6297C673.493 27.6809 673.369 27.7085 673.243 27.7107C673.117 27.7129 672.992 27.6898 672.875 27.6426C672.759 27.5955 672.653 27.5253 672.564 27.4363C672.475 27.3472 672.404 27.2412 672.357 27.1245C672.31 27.0077 672.287 26.8827 672.289 26.7568C672.291 26.6309 672.319 26.5068 672.37 26.3918C672.421 26.2768 672.495 26.1733 672.587 26.0875L675.675 23L672.587 19.9125C672.412 19.7367 672.313 19.4984 672.313 19.25C672.313 19.0015 672.412 18.7632 672.587 18.5875Z" fill="#B9B9B9"/>
</g>
<defs>
<filter id="filter0_d_132_214" x="0" y="0" width="706.097" height="125.134" filterUnits="userSpaceOnUse" color-interpolation-filters="sRGB">
<feFlood flood-opacity="0" result="BackgroundImageFix"/>
<feColorMatrix in="SourceAlpha" type="matrix" values="0 0 0 0 0 0 0 0 0 0 0 0 0 0 0 0 0 0 127 0" result="hardAlpha"/>
<feOffset dy="4"/>
<feGaussianBlur stdDeviation="2"/>
<feComposite in2="hardAlpha" operator="out"/>
<feColorMatrix type="matrix" values="0 0 0 0 0 0 0 0 0 0 0 0 0 0 0 0 0 0 0.25 0"/>
<feBlend mode="normal" in2="BackgroundImageFix" result="effect1_dropShadow_132_214"/>
<feBlend mode="normal" in="SourceGraphic" in2="effect1_dropShadow_132_214" result="shape"/>
</filter>
</defs>
</svg>
