<svg width="653" height="153" viewBox="0 0 653 153" fill="none" xmlns="http://www.w3.org/2000/svg">
<g filter="url(#filter0_d_132_337)">
<path d="M95.5 10C95.5 4.7533 99.7533 0.5 105 0.5H638C643.247 0.5 647.5 4.75329 647.5 10V125C647.5 130.247 643.247 134.5 638 134.5H105C99.7533 134.5 95.5 130.247 95.5 125V10Z" fill="white" stroke="#EA8D45"/>
<rect x="598.134" y="126.134" width="50" height="50" transform="rotate(179.846 598.134 126.134)" fill="#EA8D45"/>
<rect x="648.097" y="135.134" width="50" height="36" transform="rotate(179.846 648.097 135.134)" fill="#EA8D45" fill-opacity="0.5"/>
<rect x="145.135" y="50.1342" width="50" height="50" transform="rotate(179.846 145.135 50.1342)" fill="#EA8D45"/>
<rect x="195.113" y="65.231" width="50" height="42.0968" transform="rotate(179.846 195.113 65.231)" fill="#EA8D45" fill-opacity="0.5"/>
<path d="M282.223 37.34H276.663L275.743 40H272.803L277.823 26.02H281.083L286.103 40H283.143L282.223 37.34ZM281.463 35.1L279.443 29.26L277.423 35.1H281.463ZM290.78 30.52C291.14 30.0133 291.633 29.5933 292.26 29.26C292.9 28.9133 293.626 28.74 294.44 28.74C295.386 28.74 296.24 28.9733 297 29.44C297.773 29.9067 298.38 30.5733 298.82 31.44C299.273 32.2933 299.5 33.2867 299.5 34.42C299.5 35.5533 299.273 36.56 298.82 37.44C298.38 38.3067 297.773 38.98 297 39.46C296.24 39.94 295.386 40.18 294.44 40.18C293.626 40.18 292.906 40.0133 292.28 39.68C291.666 39.3467 291.166 38.9267 290.78 38.42V45.28H287.98V28.92H290.78V30.52ZM296.64 34.42C296.64 33.7533 296.5 33.18 296.22 32.7C295.953 32.2067 295.593 31.8333 295.14 31.58C294.7 31.3267 294.22 31.2 293.7 31.2C293.193 31.2 292.713 31.3333 292.26 31.6C291.82 31.8533 291.46 32.2267 291.18 32.72C290.913 33.2133 290.78 33.7933 290.78 34.46C290.78 35.1267 290.913 35.7067 291.18 36.2C291.46 36.6933 291.82 37.0733 292.26 37.34C292.713 37.5933 293.193 37.72 293.7 37.72C294.22 37.72 294.7 37.5867 295.14 37.32C295.593 37.0533 295.953 36.6733 296.22 36.18C296.5 35.6867 296.64 35.1 296.64 34.42ZM300.814 34.42C300.814 33.3 301.034 32.3067 301.474 31.44C301.928 30.5733 302.534 29.9067 303.294 29.44C304.068 28.9733 304.928 28.74 305.874 28.74C306.701 28.74 307.421 28.9067 308.034 29.24C308.661 29.5733 309.161 29.9933 309.534 30.5V28.92H312.354V40H309.534V38.38C309.174 38.9 308.674 39.3333 308.034 39.68C307.408 40.0133 306.681 40.18 305.854 40.18C304.921 40.18 304.068 39.94 303.294 39.46C302.534 38.98 301.928 38.3067 301.474 37.44C301.034 36.56 300.814 35.5533 300.814 34.42ZM309.534 34.46C309.534 33.78 309.401 33.2 309.134 32.72C308.868 32.2267 308.508 31.8533 308.054 31.6C307.601 31.3333 307.114 31.2 306.594 31.2C306.074 31.2 305.594 31.3267 305.154 31.58C304.714 31.8333 304.354 32.2067 304.074 32.7C303.808 33.18 303.674 33.7533 303.674 34.42C303.674 35.0867 303.808 35.6733 304.074 36.18C304.354 36.6733 304.714 37.0533 305.154 37.32C305.608 37.5867 306.088 37.72 306.594 37.72C307.114 37.72 307.601 37.5933 308.054 37.34C308.508 37.0733 308.868 36.7 309.134 36.22C309.401 35.7267 309.534 35.14 309.534 34.46ZM321.649 40L317.889 35.28V40H315.089V25.2H317.889V33.62L321.609 28.92H325.249L320.369 34.48L325.289 40H321.649ZM326.049 34.42C326.049 33.3 326.269 32.3067 326.709 31.44C327.162 30.5733 327.769 29.9067 328.529 29.44C329.302 28.9733 330.162 28.74 331.109 28.74C331.935 28.74 332.655 28.9067 333.269 29.24C333.895 29.5733 334.395 29.9933 334.769 30.5V28.92H337.589V40H334.769V38.38C334.409 38.9 333.909 39.3333 333.269 39.68C332.642 40.0133 331.915 40.18 331.089 40.18C330.155 40.18 329.302 39.94 328.529 39.46C327.769 38.98 327.162 38.3067 326.709 37.44C326.269 36.56 326.049 35.5533 326.049 34.42ZM334.769 34.46C334.769 33.78 334.635 33.2 334.369 32.72C334.102 32.2267 333.742 31.8533 333.289 31.6C332.835 31.3333 332.349 31.2 331.829 31.2C331.309 31.2 330.829 31.3267 330.389 31.58C329.949 31.8333 329.589 32.2067 329.309 32.7C329.042 33.18 328.909 33.7533 328.909 34.42C328.909 35.0867 329.042 35.6733 329.309 36.18C329.589 36.6733 329.949 37.0533 330.389 37.32C330.842 37.5867 331.322 37.72 331.829 37.72C332.349 37.72 332.835 37.5933 333.289 37.34C333.742 37.0733 334.102 36.7 334.369 36.22C334.635 35.7267 334.769 35.14 334.769 34.46ZM346.563 28.76C347.403 28.76 348.15 28.9467 348.803 29.32C349.457 29.68 349.963 30.22 350.323 30.94C350.697 31.6467 350.883 32.5 350.883 33.5V40H348.083V33.88C348.083 33 347.863 32.3267 347.423 31.86C346.983 31.38 346.383 31.14 345.623 31.14C344.85 31.14 344.237 31.38 343.783 31.86C343.343 32.3267 343.123 33 343.123 33.88V40H340.323V25.2H343.123V30.3C343.483 29.82 343.963 29.4467 344.563 29.18C345.163 28.9 345.83 28.76 346.563 28.76ZM357.592 34.42C357.592 33.3 357.812 32.3067 358.252 31.44C358.705 30.5733 359.312 29.9067 360.072 29.44C360.845 28.9733 361.705 28.74 362.652 28.74C363.478 28.74 364.198 28.9067 364.812 29.24C365.438 29.5733 365.938 29.9933 366.312 30.5V28.92H369.132V40H366.312V38.38C365.952 38.9 365.452 39.3333 364.812 39.68C364.185 40.0133 363.458 40.18 362.632 40.18C361.698 40.18 360.845 39.94 360.072 39.46C359.312 38.98 358.705 38.3067 358.252 37.44C357.812 36.56 357.592 35.5533 357.592 34.42ZM366.312 34.46C366.312 33.78 366.178 33.2 365.912 32.72C365.645 32.2267 365.285 31.8533 364.832 31.6C364.378 31.3333 363.892 31.2 363.372 31.2C362.852 31.2 362.372 31.3267 361.932 31.58C361.492 31.8333 361.132 32.2067 360.852 32.7C360.585 33.18 360.452 33.7533 360.452 34.42C360.452 35.0867 360.585 35.6733 360.852 36.18C361.132 36.6733 361.492 37.0533 361.932 37.32C362.385 37.5867 362.865 37.72 363.372 37.72C363.892 37.72 364.378 37.5933 364.832 37.34C365.285 37.0733 365.645 36.7 365.912 36.22C366.178 35.7267 366.312 35.14 366.312 34.46ZM378.006 28.76C379.326 28.76 380.393 29.18 381.206 30.02C382.02 30.8467 382.426 32.0067 382.426 33.5V40H379.626V33.88C379.626 33 379.406 32.3267 378.966 31.86C378.526 31.38 377.926 31.14 377.166 31.14C376.393 31.14 375.78 31.38 375.326 31.86C374.886 32.3267 374.666 33 374.666 33.88V40H371.866V28.92H374.666V30.3C375.04 29.82 375.513 29.4467 376.086 29.18C376.673 28.9 377.313 28.76 378.006 28.76ZM384.369 34.42C384.369 33.3 384.589 32.3067 385.029 31.44C385.482 30.5733 386.096 29.9067 386.869 29.44C387.642 28.9733 388.502 28.74 389.449 28.74C390.169 28.74 390.856 28.9 391.509 29.22C392.162 29.5267 392.682 29.94 393.069 30.46V25.2H395.909V40H393.069V38.36C392.722 38.9067 392.236 39.3467 391.609 39.68C390.982 40.0133 390.256 40.18 389.429 40.18C388.496 40.18 387.642 39.94 386.869 39.46C386.096 38.98 385.482 38.3067 385.029 37.44C384.589 36.56 384.369 35.5533 384.369 34.42ZM393.089 34.46C393.089 33.78 392.956 33.2 392.689 32.72C392.422 32.2267 392.062 31.8533 391.609 31.6C391.156 31.3333 390.669 31.2 390.149 31.2C389.629 31.2 389.149 31.3267 388.709 31.58C388.269 31.8333 387.909 32.2067 387.629 32.7C387.362 33.18 387.229 33.7533 387.229 34.42C387.229 35.0867 387.362 35.6733 387.629 36.18C387.909 36.6733 388.269 37.0533 388.709 37.32C389.162 37.5867 389.642 37.72 390.149 37.72C390.669 37.72 391.156 37.5933 391.609 37.34C392.062 37.0733 392.422 36.7 392.689 36.22C392.956 35.7267 393.089 35.14 393.089 34.46ZM397.924 34.42C397.924 33.3 398.144 32.3067 398.584 31.44C399.037 30.5733 399.644 29.9067 400.404 29.44C401.177 28.9733 402.037 28.74 402.984 28.74C403.81 28.74 404.53 28.9067 405.144 29.24C405.77 29.5733 406.27 29.9933 406.644 30.5V28.92H409.464V40H406.644V38.38C406.284 38.9 405.784 39.3333 405.144 39.68C404.517 40.0133 403.79 40.18 402.964 40.18C402.03 40.18 401.177 39.94 400.404 39.46C399.644 38.98 399.037 38.3067 398.584 37.44C398.144 36.56 397.924 35.5533 397.924 34.42ZM406.644 34.46C406.644 33.78 406.51 33.2 406.244 32.72C405.977 32.2267 405.617 31.8533 405.164 31.6C404.71 31.3333 404.224 31.2 403.704 31.2C403.184 31.2 402.704 31.3267 402.264 31.58C401.824 31.8333 401.464 32.2067 401.184 32.7C400.917 33.18 400.784 33.7533 400.784 34.42C400.784 35.0867 400.917 35.6733 401.184 36.18C401.464 36.6733 401.824 37.0533 402.264 37.32C402.717 37.5867 403.197 37.72 403.704 37.72C404.224 37.72 404.71 37.5933 405.164 37.34C405.617 37.0733 405.977 36.7 406.244 36.22C406.51 35.7267 406.644 35.14 406.644 34.46ZM427.564 28.92L420.704 45.24H417.724L420.124 39.72L415.684 28.92H418.824L421.684 36.66L424.584 28.92H427.564ZM428.353 34.42C428.353 33.3 428.573 32.3067 429.013 31.44C429.467 30.5733 430.073 29.9067 430.833 29.44C431.607 28.9733 432.467 28.74 433.413 28.74C434.24 28.74 434.96 28.9067 435.573 29.24C436.2 29.5733 436.7 29.9933 437.073 30.5V28.92H439.893V40H437.073V38.38C436.713 38.9 436.213 39.3333 435.573 39.68C434.947 40.0133 434.22 40.18 433.393 40.18C432.46 40.18 431.607 39.94 430.833 39.46C430.073 38.98 429.467 38.3067 429.013 37.44C428.573 36.56 428.353 35.5533 428.353 34.42ZM437.073 34.46C437.073 33.78 436.94 33.2 436.673 32.72C436.407 32.2267 436.047 31.8533 435.593 31.6C435.14 31.3333 434.653 31.2 434.133 31.2C433.613 31.2 433.133 31.3267 432.693 31.58C432.253 31.8333 431.893 32.2067 431.613 32.7C431.347 33.18 431.213 33.7533 431.213 34.42C431.213 35.0867 431.347 35.6733 431.613 36.18C431.893 36.6733 432.253 37.0533 432.693 37.32C433.147 37.5867 433.627 37.72 434.133 37.72C434.653 37.72 435.14 37.5933 435.593 37.34C436.047 37.0733 436.407 36.7 436.673 36.22C436.94 35.7267 437.073 35.14 437.073 34.46ZM449.188 40L445.428 35.28V40H442.628V25.2H445.428V33.62L449.148 28.92H452.788L447.908 34.48L452.828 40H449.188ZM455.728 27.6C455.234 27.6 454.821 27.4467 454.488 27.14C454.168 26.82 454.008 26.4267 454.008 25.96C454.008 25.4933 454.168 25.1067 454.488 24.8C454.821 24.48 455.234 24.32 455.728 24.32C456.221 24.32 456.628 24.48 456.948 24.8C457.281 25.1067 457.448 25.4933 457.448 25.96C457.448 26.4267 457.281 26.82 456.948 27.14C456.628 27.4467 456.221 27.6 455.728 27.6ZM457.108 28.92V40H454.308V28.92H457.108ZM466.014 28.76C467.334 28.76 468.401 29.18 469.214 30.02C470.027 30.8467 470.434 32.0067 470.434 33.5V40H467.634V33.88C467.634 33 467.414 32.3267 466.974 31.86C466.534 31.38 465.934 31.14 465.174 31.14C464.401 31.14 463.787 31.38 463.334 31.86C462.894 32.3267 462.674 33 462.674 33.88V40H459.874V28.92H462.674V30.3C463.047 29.82 463.521 29.4467 464.094 29.18C464.681 28.9 465.321 28.76 466.014 28.76ZM385.096 60.52C385.456 60.0133 385.949 59.5933 386.576 59.26C387.216 58.9133 387.943 58.74 388.756 58.74C389.703 58.74 390.556 58.9733 391.316 59.44C392.089 59.9067 392.696 60.5733 393.136 61.44C393.589 62.2933 393.816 63.2867 393.816 64.42C393.816 65.5533 393.589 66.56 393.136 67.44C392.696 68.3067 392.089 68.98 391.316 69.46C390.556 69.94 389.703 70.18 388.756 70.18C387.943 70.18 387.223 70.0133 386.596 69.68C385.983 69.3467 385.483 68.9267 385.096 68.42V75.28H382.296V58.92H385.096V60.52ZM390.956 64.42C390.956 63.7533 390.816 63.18 390.536 62.7C390.269 62.2067 389.909 61.8333 389.456 61.58C389.016 61.3267 388.536 61.2 388.016 61.2C387.509 61.2 387.029 61.3333 386.576 61.6C386.136 61.8533 385.776 62.2267 385.496 62.72C385.229 63.2133 385.096 63.7933 385.096 64.46C385.096 65.1267 385.229 65.7067 385.496 66.2C385.776 66.6933 386.136 67.0733 386.576 67.34C387.029 67.5933 387.509 67.72 388.016 67.72C388.536 67.72 389.016 67.5867 389.456 67.32C389.909 67.0533 390.269 66.6733 390.536 66.18C390.816 65.6867 390.956 65.1 390.956 64.42ZM398.651 60.64C399.011 60.0533 399.477 59.5933 400.051 59.26C400.637 58.9267 401.304 58.76 402.051 58.76V61.7H401.311C400.431 61.7 399.764 61.9067 399.311 62.32C398.871 62.7333 398.651 63.4533 398.651 64.48V70H395.851V58.92H398.651V60.64ZM408.857 70.18C407.79 70.18 406.83 69.9467 405.977 69.48C405.123 69 404.45 68.3267 403.957 67.46C403.477 66.5933 403.237 65.5933 403.237 64.46C403.237 63.3267 403.483 62.3267 403.977 61.46C404.483 60.5933 405.17 59.9267 406.037 59.46C406.903 58.98 407.87 58.74 408.937 58.74C410.003 58.74 410.97 58.98 411.837 59.46C412.703 59.9267 413.383 60.5933 413.877 61.46C414.383 62.3267 414.637 63.3267 414.637 64.46C414.637 65.5933 414.377 66.5933 413.857 67.46C413.35 68.3267 412.657 69 411.777 69.48C410.91 69.9467 409.937 70.18 408.857 70.18ZM408.857 67.74C409.363 67.74 409.837 67.62 410.277 67.38C410.73 67.1267 411.09 66.7533 411.357 66.26C411.623 65.7667 411.757 65.1667 411.757 64.46C411.757 63.4067 411.477 62.6 410.917 62.04C410.37 61.4667 409.697 61.18 408.897 61.18C408.097 61.18 407.423 61.4667 406.877 62.04C406.343 62.6 406.077 63.4067 406.077 64.46C406.077 65.5133 406.337 66.3267 406.857 66.9C407.39 67.46 408.057 67.74 408.857 67.74ZM415.971 64.42C415.971 63.3 416.191 62.3067 416.631 61.44C417.084 60.5733 417.697 59.9067 418.471 59.44C419.244 58.9733 420.104 58.74 421.051 58.74C421.771 58.74 422.457 58.9 423.111 59.22C423.764 59.5267 424.284 59.94 424.671 60.46V55.2H427.511V70H424.671V68.36C424.324 68.9067 423.837 69.3467 423.211 69.68C422.584 70.0133 421.857 70.18 421.031 70.18C420.097 70.18 419.244 69.94 418.471 69.46C417.697 68.98 417.084 68.3067 416.631 67.44C416.191 66.56 415.971 65.5533 415.971 64.42ZM424.691 64.46C424.691 63.78 424.557 63.2 424.291 62.72C424.024 62.2267 423.664 61.8533 423.211 61.6C422.757 61.3333 422.271 61.2 421.751 61.2C421.231 61.2 420.751 61.3267 420.311 61.58C419.871 61.8333 419.511 62.2067 419.231 62.7C418.964 63.18 418.831 63.7533 418.831 64.42C418.831 65.0867 418.964 65.6733 419.231 66.18C419.511 66.6733 419.871 67.0533 420.311 67.32C420.764 67.5867 421.244 67.72 421.751 67.72C422.271 67.72 422.757 67.5933 423.211 67.34C423.664 67.0733 424.024 66.7 424.291 66.22C424.557 65.7267 424.691 65.14 424.691 64.46ZM440.705 58.92V70H437.885V68.6C437.525 69.08 437.052 69.46 436.465 69.74C435.892 70.0067 435.265 70.14 434.585 70.14C433.719 70.14 432.952 69.96 432.285 69.6C431.619 69.2267 431.092 68.6867 430.705 67.98C430.332 67.26 430.145 66.4067 430.145 65.42V58.92H432.945V65.02C432.945 65.9 433.165 66.58 433.605 67.06C434.045 67.5267 434.645 67.76 435.405 67.76C436.179 67.76 436.785 67.5267 437.225 67.06C437.665 66.58 437.885 65.9 437.885 65.02V58.92H440.705ZM450.028 70L446.268 65.28V70H443.468V55.2H446.268V63.62L449.988 58.92H453.628L448.748 64.48L453.668 70H450.028ZM461.333 57.6C460.84 57.6 460.427 57.4467 460.093 57.14C459.773 56.82 459.613 56.4267 459.613 55.96C459.613 55.4933 459.773 55.1067 460.093 54.8C460.427 54.48 460.84 54.32 461.333 54.32C461.827 54.32 462.233 54.48 462.553 54.8C462.887 55.1067 463.053 55.4933 463.053 55.96C463.053 56.4267 462.887 56.82 462.553 57.14C462.233 57.4467 461.827 57.6 461.333 57.6ZM462.713 58.92V70H459.913V58.92H462.713ZM471.62 58.76C472.94 58.76 474.006 59.18 474.82 60.02C475.633 60.8467 476.04 62.0067 476.04 63.5V70H473.24V63.88C473.24 63 473.02 62.3267 472.58 61.86C472.14 61.38 471.54 61.14 470.78 61.14C470.006 61.14 469.393 61.38 468.94 61.86C468.5 62.3267 468.28 63 468.28 63.88V70H465.48V58.92H468.28V60.3C468.653 59.82 469.126 59.4467 469.7 59.18C470.286 58.9 470.926 58.76 471.62 58.76ZM480.122 57.6C479.629 57.6 479.216 57.4467 478.882 57.14C478.562 56.82 478.402 56.4267 478.402 55.96C478.402 55.4933 478.562 55.1067 478.882 54.8C479.216 54.48 479.629 54.32 480.122 54.32C480.616 54.32 481.022 54.48 481.342 54.8C481.676 55.1067 481.842 55.4933 481.842 55.96C481.842 56.4267 481.676 56.82 481.342 57.14C481.022 57.4467 480.616 57.6 480.122 57.6ZM481.502 58.92V70H478.702V58.92H481.502ZM488.169 55.56C489.555 55.56 490.669 55.94 491.509 56.7C492.362 57.4467 492.789 58.48 492.789 59.8C492.789 61.1067 492.369 62.1067 491.529 62.8C490.689 63.48 489.575 63.82 488.189 63.82L488.109 65.36H485.649L485.549 61.96H486.449C487.609 61.96 488.502 61.8067 489.129 61.5C489.755 61.1933 490.069 60.6333 490.069 59.82C490.069 59.2333 489.895 58.7667 489.549 58.42C489.215 58.0733 488.755 57.9 488.169 57.9C487.555 57.9 487.075 58.0667 486.729 58.4C486.395 58.7333 486.229 59.1933 486.229 59.78H483.589C483.575 58.9667 483.749 58.24 484.109 57.6C484.469 56.96 484.995 56.46 485.689 56.1C486.395 55.74 487.222 55.56 488.169 55.56ZM486.869 70.14C486.362 70.14 485.942 69.9867 485.609 69.68C485.289 69.36 485.129 68.9667 485.129 68.5C485.129 68.0333 485.289 67.6467 485.609 67.34C485.942 67.02 486.362 66.86 486.869 66.86C487.362 66.86 487.769 67.02 488.089 67.34C488.409 67.6467 488.569 68.0333 488.569 68.5C488.569 68.9667 488.409 69.36 488.089 69.68C487.769 69.9867 487.362 70.14 486.869 70.14Z" fill="#EA8D45"/>
<path d="M265.83 58.72C267.216 58.72 268.316 59.14 269.13 59.98C269.956 60.82 270.37 61.9867 270.37 63.48V70H266.97V63.94C266.97 63.22 266.776 62.6667 266.39 62.28C266.016 61.88 265.496 61.68 264.83 61.68C264.163 61.68 263.636 61.88 263.25 62.28C262.876 62.6667 262.69 63.22 262.69 63.94V70H259.29V63.94C259.29 63.22 259.096 62.6667 258.71 62.28C258.336 61.88 257.816 61.68 257.15 61.68C256.483 61.68 255.956 61.88 255.57 62.28C255.196 62.6667 255.01 63.22 255.01 63.94V70H251.59V58.84H255.01V60.24C255.356 59.7733 255.81 59.4067 256.37 59.14C256.93 58.86 257.563 58.72 258.27 58.72C259.11 58.72 259.856 58.9 260.51 59.26C261.176 59.62 261.696 60.1333 262.07 60.8C262.456 60.1867 262.983 59.6867 263.65 59.3C264.316 58.9133 265.043 58.72 265.83 58.72ZM283.281 64.24C283.281 64.56 283.261 64.8933 283.221 65.24H275.481C275.535 65.9333 275.755 66.4667 276.141 66.84C276.541 67.2 277.028 67.38 277.601 67.38C278.455 67.38 279.048 67.02 279.381 66.3H283.021C282.835 67.0333 282.495 67.6933 282.001 68.28C281.521 68.8667 280.915 69.3267 280.181 69.66C279.448 69.9933 278.628 70.16 277.721 70.16C276.628 70.16 275.655 69.9267 274.801 69.46C273.948 68.9933 273.281 68.3267 272.801 67.46C272.321 66.5933 272.081 65.58 272.081 64.42C272.081 63.26 272.315 62.2467 272.781 61.38C273.261 60.5133 273.928 59.8467 274.781 59.38C275.635 58.9133 276.615 58.68 277.721 58.68C278.801 58.68 279.761 58.9067 280.601 59.36C281.441 59.8133 282.095 60.46 282.561 61.3C283.041 62.14 283.281 63.12 283.281 64.24ZM279.781 63.34C279.781 62.7533 279.581 62.2867 279.181 61.94C278.781 61.5933 278.281 61.42 277.681 61.42C277.108 61.42 276.621 61.5867 276.221 61.92C275.835 62.2533 275.595 62.7267 275.501 63.34H279.781ZM291.886 58.72C293.192 58.72 294.232 59.1467 295.006 60C295.792 60.84 296.186 62 296.186 63.48V70H292.786V63.94C292.786 63.1933 292.592 62.6133 292.206 62.2C291.819 61.7867 291.299 61.58 290.646 61.58C289.992 61.58 289.472 61.7867 289.086 62.2C288.699 62.6133 288.506 63.1933 288.506 63.94V70H285.086V58.84H288.506V60.32C288.852 59.8267 289.319 59.44 289.906 59.16C290.492 58.8667 291.152 58.72 291.886 58.72ZM302.802 58.68C303.589 58.68 304.276 58.84 304.862 59.16C305.462 59.48 305.922 59.9 306.242 60.42V58.84H309.662V69.98C309.662 71.0067 309.456 71.9333 309.042 72.76C308.642 73.6 308.022 74.2667 307.182 74.76C306.356 75.2533 305.322 75.5 304.082 75.5C302.429 75.5 301.089 75.1067 300.062 74.32C299.036 73.5467 298.449 72.4933 298.302 71.16H301.682C301.789 71.5867 302.042 71.92 302.442 72.16C302.842 72.4133 303.336 72.54 303.922 72.54C304.629 72.54 305.189 72.3333 305.602 71.92C306.029 71.52 306.242 70.8733 306.242 69.98V68.4C305.909 68.92 305.449 69.3467 304.862 69.68C304.276 70 303.589 70.16 302.802 70.16C301.882 70.16 301.049 69.9267 300.302 69.46C299.556 68.98 298.962 68.3067 298.522 67.44C298.096 66.56 297.882 65.5467 297.882 64.4C297.882 63.2533 298.096 62.2467 298.522 61.38C298.962 60.5133 299.556 59.8467 300.302 59.38C301.049 58.9133 301.882 58.68 302.802 58.68ZM306.242 64.42C306.242 63.5667 306.002 62.8933 305.522 62.4C305.056 61.9067 304.482 61.66 303.802 61.66C303.122 61.66 302.542 61.9067 302.062 62.4C301.596 62.88 301.362 63.5467 301.362 64.4C301.362 65.2533 301.596 65.9333 302.062 66.44C302.542 66.9333 303.122 67.18 303.802 67.18C304.482 67.18 305.056 66.9333 305.522 66.44C306.002 65.9467 306.242 65.2733 306.242 64.42ZM318.996 58.72C320.276 58.72 321.303 59.1467 322.076 60C322.85 60.84 323.236 62 323.236 63.48V70H319.836V63.94C319.836 63.1933 319.643 62.6133 319.256 62.2C318.87 61.7867 318.35 61.58 317.696 61.58C317.043 61.58 316.523 61.7867 316.136 62.2C315.75 62.6133 315.556 63.1933 315.556 63.94V70H312.136V55.2H315.556V60.34C315.903 59.8467 316.376 59.4533 316.976 59.16C317.576 58.8667 318.25 58.72 318.996 58.72ZM324.933 64.4C324.933 63.2533 325.146 62.2467 325.573 61.38C326.013 60.5133 326.606 59.8467 327.353 59.38C328.1 58.9133 328.933 58.68 329.853 58.68C330.64 58.68 331.326 58.84 331.913 59.16C332.513 59.48 332.973 59.9 333.293 60.42V58.84H336.713V70H333.293V68.42C332.96 68.94 332.493 69.36 331.893 69.68C331.306 70 330.62 70.16 329.833 70.16C328.926 70.16 328.1 69.9267 327.353 69.46C326.606 68.98 326.013 68.3067 325.573 67.44C325.146 66.56 324.933 65.5467 324.933 64.4ZM333.293 64.42C333.293 63.5667 333.053 62.8933 332.573 62.4C332.106 61.9067 331.533 61.66 330.853 61.66C330.173 61.66 329.593 61.9067 329.113 62.4C328.646 62.88 328.413 63.5467 328.413 64.4C328.413 65.2533 328.646 65.9333 329.113 66.44C329.593 66.9333 330.173 67.18 330.853 67.18C331.533 67.18 332.106 66.9333 332.573 66.44C333.053 65.9467 333.293 65.2733 333.293 64.42ZM342.607 60.42C342.941 59.9 343.401 59.48 343.987 59.16C344.574 58.84 345.261 58.68 346.047 58.68C346.967 58.68 347.801 58.9133 348.547 59.38C349.294 59.8467 349.881 60.5133 350.307 61.38C350.747 62.2467 350.967 63.2533 350.967 64.4C350.967 65.5467 350.747 66.56 350.307 67.44C349.881 68.3067 349.294 68.98 348.547 69.46C347.801 69.9267 346.967 70.16 346.047 70.16C345.274 70.16 344.587 70 343.987 69.68C343.401 69.36 342.941 68.9467 342.607 68.44V75.32H339.187V58.84H342.607V60.42ZM347.487 64.4C347.487 63.5467 347.247 62.88 346.767 62.4C346.301 61.9067 345.721 61.66 345.027 61.66C344.347 61.66 343.767 61.9067 343.287 62.4C342.821 62.8933 342.587 63.5667 342.587 64.42C342.587 65.2733 342.821 65.9467 343.287 66.44C343.767 66.9333 344.347 67.18 345.027 67.18C345.707 67.18 346.287 66.9333 346.767 66.44C347.247 65.9333 347.487 65.2533 347.487 64.4ZM363.781 58.84V70H360.361V68.48C360.015 68.9733 359.541 69.3733 358.941 69.68C358.355 69.9733 357.701 70.12 356.981 70.12C356.128 70.12 355.375 69.9333 354.721 69.56C354.068 69.1733 353.561 68.62 353.201 67.9C352.841 67.18 352.661 66.3333 352.661 65.36V58.84H356.061V64.9C356.061 65.6467 356.255 66.2267 356.641 66.64C357.028 67.0533 357.548 67.26 358.201 67.26C358.868 67.26 359.395 67.0533 359.781 66.64C360.168 66.2267 360.361 65.6467 360.361 64.9V58.84H363.781ZM370.778 70.16C369.805 70.16 368.938 69.9933 368.178 69.66C367.418 69.3267 366.818 68.8733 366.378 68.3C365.938 67.7133 365.691 67.06 365.638 66.34H369.018C369.058 66.7267 369.238 67.04 369.558 67.28C369.878 67.52 370.271 67.64 370.738 67.64C371.165 67.64 371.491 67.56 371.718 67.4C371.958 67.2267 372.078 67.0067 372.078 66.74C372.078 66.42 371.911 66.1867 371.578 66.04C371.245 65.88 370.705 65.7067 369.958 65.52C369.158 65.3333 368.491 65.14 367.958 64.94C367.425 64.7267 366.965 64.4 366.578 63.96C366.191 63.5067 365.998 62.9 365.998 62.14C365.998 61.5 366.171 60.92 366.518 60.4C366.878 59.8667 367.398 59.4467 368.078 59.14C368.771 58.8333 369.591 58.68 370.538 58.68C371.938 58.68 373.038 59.0267 373.838 59.72C374.651 60.4133 375.118 61.3333 375.238 62.48H372.078C372.025 62.0933 371.851 61.7867 371.558 61.56C371.278 61.3333 370.905 61.22 370.438 61.22C370.038 61.22 369.731 61.3 369.518 61.46C369.305 61.6067 369.198 61.8133 369.198 62.08C369.198 62.4 369.365 62.64 369.698 62.8C370.045 62.96 370.578 63.12 371.298 63.28C372.125 63.4933 372.798 63.7067 373.318 63.92C373.838 64.12 374.291 64.4533 374.678 64.92C375.078 65.3733 375.285 65.9867 375.298 66.76C375.298 67.4133 375.111 68 374.738 68.52C374.378 69.0267 373.851 69.4267 373.158 69.72C372.478 70.0133 371.685 70.16 370.778 70.16Z" fill="#999999"/>
</g>
<defs>
<filter id="filter0_d_132_337" x="-4" y="0" width="656.097" height="161" filterUnits="userSpaceOnUse" color-interpolation-filters="sRGB">
<feFlood flood-opacity="0" result="BackgroundImageFix"/>
<feColorMatrix in="SourceAlpha" type="matrix" values="0 0 0 0 0 0 0 0 0 0 0 0 0 0 0 0 0 0 127 0" result="hardAlpha"/>
<feOffset dy="4"/>
<feGaussianBlur stdDeviation="2"/>
<feComposite in2="hardAlpha" operator="out"/>
<feColorMatrix type="matrix" values="0 0 0 0 0 0 0 0 0 0 0 0 0 0 0 0 0 0 0.25 0"/>
<feBlend mode="normal" in2="BackgroundImageFix" result="effect1_dropShadow_132_337"/>
<feBlend mode="normal" in="SourceGraphic" in2="effect1_dropShadow_132_337" result="shape"/>
</filter>
</defs>
</svg>
