<svg width="707" height="126" viewBox="0 0 707 126" fill="none" xmlns="http://www.w3.org/2000/svg">
<g filter="url(#filter0_d_252_2)">
<path d="M14 0.5H692C697.247 0.5 701.5 4.75329 701.5 10V107C701.5 112.247 697.247 116.5 692 116.5H14C8.75328 116.5 4.5 112.247 4.5 107V10C4.5 4.75329 8.7533 0.5 14 0.5Z" fill="white" stroke="#EA8D45"/>
<rect x="57.9458" y="93.707" width="50" height="50" transform="rotate(179.846 57.9458 93.707)" fill="#EA8D45"/>
<rect x="92.8301" y="50.613" width="50" height="50" transform="rotate(179.846 92.8301 50.613)" fill="#EA8D45"/>
<rect x="134.097" y="75.9999" width="50" height="36" transform="rotate(179.846 134.097 75.9999)" fill="#EA8D45" fill-opacity="0.5"/>
<rect x="652.134" y="108" width="50" height="50" transform="rotate(179.846 652.134 108)" fill="#EA8D45"/>
<rect x="702.097" y="117" width="50" height="36" transform="rotate(179.846 702.097 117)" fill="#EA8D45" fill-opacity="0.5"/>
<path d="M251.531 48.161C250.412 48.161 249.4 47.9693 248.495 47.586C247.606 47.2027 246.9 46.6507 246.379 45.93C245.858 45.2093 245.589 44.3583 245.574 43.377H249.024C249.07 44.0363 249.3 44.5577 249.714 44.941C250.143 45.3243 250.726 45.516 251.462 45.516C252.213 45.516 252.804 45.3397 253.233 44.987C253.662 44.619 253.877 44.1437 253.877 43.561C253.877 43.0857 253.731 42.6947 253.44 42.388C253.149 42.0813 252.781 41.8437 252.336 41.675C251.907 41.491 251.309 41.2917 250.542 41.077C249.499 40.7703 248.648 40.4713 247.989 40.18C247.345 39.8733 246.785 39.421 246.31 38.823C245.85 38.2097 245.62 37.397 245.62 36.385C245.62 35.4343 245.858 34.6063 246.333 33.901C246.808 33.1957 247.475 32.659 248.334 32.291C249.193 31.9077 250.174 31.716 251.278 31.716C252.934 31.716 254.276 32.1223 255.303 32.935C256.346 33.7323 256.921 34.8517 257.028 36.293H253.486C253.455 35.741 253.218 35.2887 252.773 34.936C252.344 34.568 251.769 34.384 251.048 34.384C250.419 34.384 249.913 34.545 249.53 34.867C249.162 35.189 248.978 35.6567 248.978 36.27C248.978 36.6993 249.116 37.0597 249.392 37.351C249.683 37.627 250.036 37.857 250.45 38.041C250.879 38.2097 251.477 38.409 252.244 38.639C253.287 38.9457 254.138 39.2523 254.797 39.559C255.456 39.8657 256.024 40.3257 256.499 40.939C256.974 41.5523 257.212 42.3573 257.212 43.354C257.212 44.2127 256.99 45.01 256.545 45.746C256.1 46.482 255.449 47.0723 254.59 47.517C253.731 47.9463 252.712 48.161 251.531 48.161ZM261.637 33.74C261.069 33.74 260.594 33.5637 260.211 33.211C259.843 32.843 259.659 32.3907 259.659 31.854C259.659 31.3173 259.843 30.8727 260.211 30.52C260.594 30.152 261.069 29.968 261.637 29.968C262.204 29.968 262.672 30.152 263.04 30.52C263.423 30.8727 263.615 31.3173 263.615 31.854C263.615 32.3907 263.423 32.843 263.04 33.211C262.672 33.5637 262.204 33.74 261.637 33.74ZM263.224 35.258V48H260.004V35.258H263.224ZM269.625 30.98V48H266.405V30.98H269.625ZM271.978 41.583C271.978 40.295 272.231 39.1527 272.737 38.156C273.259 37.1593 273.956 36.3927 274.83 35.856C275.72 35.3193 276.709 35.051 277.797 35.051C278.748 35.051 279.576 35.2427 280.281 35.626C281.002 36.0093 281.577 36.4923 282.006 37.075V35.258H285.249V48H282.006V46.137C281.592 46.735 281.017 47.2333 280.281 47.632C279.561 48.0153 278.725 48.207 277.774 48.207C276.701 48.207 275.72 47.931 274.83 47.379C273.956 46.827 273.259 46.0527 272.737 45.056C272.231 44.044 271.978 42.8863 271.978 41.583ZM282.006 41.629C282.006 40.847 281.853 40.18 281.546 39.628C281.24 39.0607 280.826 38.6313 280.304 38.34C279.783 38.0333 279.223 37.88 278.625 37.88C278.027 37.88 277.475 38.0257 276.969 38.317C276.463 38.6083 276.049 39.0377 275.727 39.605C275.421 40.157 275.267 40.8163 275.267 41.583C275.267 42.3497 275.421 43.0243 275.727 43.607C276.049 44.1743 276.463 44.6113 276.969 44.918C277.491 45.2247 278.043 45.378 278.625 45.378C279.223 45.378 279.783 45.2323 280.304 44.941C280.826 44.6343 281.24 44.205 281.546 43.653C281.853 43.0857 282.006 42.411 282.006 41.629ZM295.57 35.074C296.536 35.074 297.395 35.2887 298.146 35.718C298.897 36.132 299.48 36.753 299.894 37.581C300.323 38.3937 300.538 39.375 300.538 40.525V48H297.318V40.962C297.318 39.95 297.065 39.1757 296.559 38.639C296.053 38.087 295.363 37.811 294.489 37.811C293.6 37.811 292.894 38.087 292.373 38.639C291.867 39.1757 291.614 39.95 291.614 40.962V48H288.394V30.98H291.614V36.845C292.028 36.293 292.58 35.8637 293.27 35.557C293.96 35.235 294.727 35.074 295.57 35.074ZM311.144 48L306.82 42.572V48H303.6V30.98H306.82V40.663L311.098 35.258H315.284L309.672 41.652L315.33 48H311.144ZM316.204 41.583C316.204 40.295 316.457 39.1527 316.963 38.156C317.484 37.1593 318.182 36.3927 319.056 35.856C319.945 35.3193 320.934 35.051 322.023 35.051C322.973 35.051 323.801 35.2427 324.507 35.626C325.227 36.0093 325.802 36.4923 326.232 37.075V35.258H329.475V48H326.232V46.137C325.818 46.735 325.243 47.2333 324.507 47.632C323.786 48.0153 322.95 48.207 322 48.207C320.926 48.207 319.945 47.931 319.056 47.379C318.182 46.827 317.484 46.0527 316.963 45.056C316.457 44.044 316.204 42.8863 316.204 41.583ZM326.232 41.629C326.232 40.847 326.078 40.18 325.772 39.628C325.465 39.0607 325.051 38.6313 324.53 38.34C324.008 38.0333 323.449 37.88 322.851 37.88C322.253 37.88 321.701 38.0257 321.195 38.317C320.689 38.6083 320.275 39.0377 319.953 39.605C319.646 40.157 319.493 40.8163 319.493 41.583C319.493 42.3497 319.646 43.0243 319.953 43.607C320.275 44.1743 320.689 44.6113 321.195 44.918C321.716 45.2247 322.268 45.378 322.851 45.378C323.449 45.378 324.008 45.2323 324.53 44.941C325.051 44.6343 325.465 44.205 325.772 43.653C326.078 43.0857 326.232 42.411 326.232 41.629ZM339.681 35.074C341.199 35.074 342.425 35.557 343.361 36.523C344.296 37.4737 344.764 38.8077 344.764 40.525V48H341.544V40.962C341.544 39.95 341.291 39.1757 340.785 38.639C340.279 38.087 339.589 37.811 338.715 37.811C337.825 37.811 337.12 38.087 336.599 38.639C336.093 39.1757 335.84 39.95 335.84 40.962V48H332.62V35.258H335.84V36.845C336.269 36.293 336.813 35.8637 337.473 35.557C338.147 35.235 338.883 35.074 339.681 35.074Z" fill="#EA8D45"/>
<path d="M356.526 30.98V48H353.306V30.98H356.526ZM371.553 41.353C371.553 41.813 371.522 42.227 371.461 42.595H362.146C362.222 43.515 362.544 44.2357 363.112 44.757C363.679 45.2783 364.377 45.539 365.205 45.539C366.401 45.539 367.252 45.0253 367.758 43.998H371.231C370.863 45.2247 370.157 46.2367 369.115 47.034C368.072 47.816 366.792 48.207 365.274 48.207C364.047 48.207 362.943 47.9387 361.962 47.402C360.996 46.85 360.237 46.0757 359.685 45.079C359.148 44.0823 358.88 42.9323 358.88 41.629C358.88 40.3103 359.148 39.1527 359.685 38.156C360.221 37.1593 360.973 36.3927 361.939 35.856C362.905 35.3193 364.016 35.051 365.274 35.051C366.485 35.051 367.566 35.3117 368.517 35.833C369.483 36.3543 370.226 37.098 370.748 38.064C371.284 39.0147 371.553 40.111 371.553 41.353ZM368.218 40.433C368.202 39.605 367.903 38.9457 367.321 38.455C366.738 37.949 366.025 37.696 365.182 37.696C364.384 37.696 363.71 37.9413 363.158 38.432C362.621 38.9073 362.291 39.5743 362.169 40.433H368.218ZM380.964 35.074C382.482 35.074 383.709 35.557 384.644 36.523C385.579 37.4737 386.047 38.8077 386.047 40.525V48H382.827V40.962C382.827 39.95 382.574 39.1757 382.068 38.639C381.562 38.087 380.872 37.811 379.998 37.811C379.109 37.811 378.403 38.087 377.882 38.639C377.376 39.1757 377.123 39.95 377.123 40.962V48H373.903V35.258H377.123V36.845C377.552 36.293 378.097 35.8637 378.756 35.557C379.431 35.235 380.167 35.074 380.964 35.074ZM394.1 35.051C395.051 35.051 395.886 35.2427 396.607 35.626C397.328 35.994 397.895 36.477 398.309 37.075V35.258H401.552V48.092C401.552 49.2727 401.314 50.323 400.839 51.243C400.364 52.1783 399.651 52.9143 398.7 53.451C397.749 54.003 396.599 54.279 395.25 54.279C393.441 54.279 391.953 53.8573 390.788 53.014C389.638 52.1707 388.986 51.0207 388.833 49.564H392.03C392.199 50.1467 392.559 50.6067 393.111 50.944C393.678 51.2967 394.361 51.473 395.158 51.473C396.093 51.473 396.852 51.1893 397.435 50.622C398.018 50.07 398.309 49.2267 398.309 48.092V46.114C397.895 46.712 397.32 47.2103 396.584 47.609C395.863 48.0077 395.035 48.207 394.1 48.207C393.027 48.207 392.045 47.931 391.156 47.379C390.267 46.827 389.561 46.0527 389.04 45.056C388.534 44.044 388.281 42.8863 388.281 41.583C388.281 40.295 388.534 39.1527 389.04 38.156C389.561 37.1593 390.259 36.3927 391.133 35.856C392.022 35.3193 393.011 35.051 394.1 35.051ZM398.309 41.629C398.309 40.847 398.156 40.18 397.849 39.628C397.542 39.0607 397.128 38.6313 396.607 38.34C396.086 38.0333 395.526 37.88 394.928 37.88C394.33 37.88 393.778 38.0257 393.272 38.317C392.766 38.6083 392.352 39.0377 392.03 39.605C391.723 40.157 391.57 40.8163 391.57 41.583C391.57 42.3497 391.723 43.0243 392.03 43.607C392.352 44.1743 392.766 44.6113 393.272 44.918C393.793 45.2247 394.345 45.378 394.928 45.378C395.526 45.378 396.086 45.2323 396.607 44.941C397.128 44.6343 397.542 44.205 397.849 43.653C398.156 43.0857 398.309 42.411 398.309 41.629ZM412.241 48L407.917 42.572V48H404.697V30.98H407.917V40.663L412.195 35.258H416.381L410.769 41.652L416.427 48H412.241ZM417.301 41.583C417.301 40.295 417.554 39.1527 418.06 38.156C418.581 37.1593 419.279 36.3927 420.153 35.856C421.042 35.3193 422.031 35.051 423.12 35.051C424.07 35.051 424.898 35.2427 425.604 35.626C426.324 36.0093 426.899 36.4923 427.329 37.075V35.258H430.572V48H427.329V46.137C426.915 46.735 426.34 47.2333 425.604 47.632C424.883 48.0153 424.047 48.207 423.097 48.207C422.023 48.207 421.042 47.931 420.153 47.379C419.279 46.827 418.581 46.0527 418.06 45.056C417.554 44.044 417.301 42.8863 417.301 41.583ZM427.329 41.629C427.329 40.847 427.175 40.18 426.869 39.628C426.562 39.0607 426.148 38.6313 425.627 38.34C425.105 38.0333 424.546 37.88 423.948 37.88C423.35 37.88 422.798 38.0257 422.292 38.317C421.786 38.6083 421.372 39.0377 421.05 39.605C420.743 40.157 420.59 40.8163 420.59 41.583C420.59 42.3497 420.743 43.0243 421.05 43.607C421.372 44.1743 421.786 44.6113 422.292 44.918C422.813 45.2247 423.365 45.378 423.948 45.378C424.546 45.378 425.105 45.2323 425.627 44.941C426.148 44.6343 426.562 44.205 426.869 43.653C427.175 43.0857 427.329 42.411 427.329 41.629ZM436.936 37.098C437.35 36.5153 437.918 36.0323 438.638 35.649C439.374 35.2503 440.21 35.051 441.145 35.051C442.234 35.051 443.215 35.3193 444.089 35.856C444.979 36.3927 445.676 37.1593 446.182 38.156C446.704 39.1373 446.964 40.2797 446.964 41.583C446.964 42.8863 446.704 44.044 446.182 45.056C445.676 46.0527 444.979 46.827 444.089 47.379C443.215 47.931 442.234 48.207 441.145 48.207C440.21 48.207 439.382 48.0153 438.661 47.632C437.956 47.2487 437.381 46.7657 436.936 46.183V54.072H433.716V35.258H436.936V37.098ZM443.675 41.583C443.675 40.8163 443.514 40.157 443.192 39.605C442.886 39.0377 442.472 38.6083 441.95 38.317C441.444 38.0257 440.892 37.88 440.294 37.88C439.712 37.88 439.16 38.0333 438.638 38.34C438.132 38.6313 437.718 39.0607 437.396 39.628C437.09 40.1953 436.936 40.8623 436.936 41.629C436.936 42.3957 437.09 43.0627 437.396 43.63C437.718 44.1973 438.132 44.6343 438.638 44.941C439.16 45.2323 439.712 45.378 440.294 45.378C440.892 45.378 441.444 45.2247 441.95 44.918C442.472 44.6113 442.886 44.1743 443.192 43.607C443.514 43.0397 443.675 42.365 443.675 41.583ZM450.937 33.74C450.37 33.74 449.895 33.5637 449.511 33.211C449.143 32.843 448.959 32.3907 448.959 31.854C448.959 31.3173 449.143 30.8727 449.511 30.52C449.895 30.152 450.37 29.968 450.937 29.968C451.505 29.968 451.972 30.152 452.34 30.52C452.724 30.8727 452.915 31.3173 452.915 31.854C452.915 32.3907 452.724 32.843 452.34 33.211C451.972 33.5637 451.505 33.74 450.937 33.74ZM452.524 35.258V48H449.304V35.258H452.524Z" fill="#999999"/>
<path d="M272.858 83.161C271.738 83.161 270.726 82.9693 269.822 82.586C268.932 82.2027 268.227 81.6507 267.706 80.93C267.184 80.2093 266.916 79.3583 266.901 78.377H270.351C270.397 79.0363 270.627 79.5577 271.041 79.941C271.47 80.3243 272.053 80.516 272.789 80.516C273.54 80.516 274.13 80.3397 274.56 79.987C274.989 79.619 275.204 79.1437 275.204 78.561C275.204 78.0857 275.058 77.6947 274.767 77.388C274.475 77.0813 274.107 76.8437 273.663 76.675C273.233 76.491 272.635 76.2917 271.869 76.077C270.826 75.7703 269.975 75.4713 269.316 75.18C268.672 74.8733 268.112 74.421 267.637 73.823C267.177 73.2097 266.947 72.397 266.947 71.385C266.947 70.4343 267.184 69.6063 267.66 68.901C268.135 68.1957 268.802 67.659 269.661 67.291C270.519 66.9077 271.501 66.716 272.605 66.716C274.261 66.716 275.602 67.1223 276.63 67.935C277.672 68.7323 278.247 69.8517 278.355 71.293H274.813C274.782 70.741 274.544 70.2887 274.1 69.936C273.67 69.568 273.095 69.384 272.375 69.384C271.746 69.384 271.24 69.545 270.857 69.867C270.489 70.189 270.305 70.6567 270.305 71.27C270.305 71.6993 270.443 72.0597 270.719 72.351C271.01 72.627 271.363 72.857 271.777 73.041C272.206 73.2097 272.804 73.409 273.571 73.639C274.613 73.9457 275.464 74.2523 276.124 74.559C276.783 74.8657 277.35 75.3257 277.826 75.939C278.301 76.5523 278.539 77.3573 278.539 78.354C278.539 79.2127 278.316 80.01 277.872 80.746C277.427 81.482 276.775 82.0723 275.917 82.517C275.058 82.9463 274.038 83.161 272.858 83.161ZM293.175 76.353C293.175 76.813 293.144 77.227 293.083 77.595H283.768C283.845 78.515 284.167 79.2357 284.734 79.757C285.301 80.2783 285.999 80.539 286.827 80.539C288.023 80.539 288.874 80.0253 289.38 78.998H292.853C292.485 80.2247 291.78 81.2367 290.737 82.034C289.694 82.816 288.414 83.207 286.896 83.207C285.669 83.207 284.565 82.9387 283.584 82.402C282.618 81.85 281.859 81.0757 281.307 80.079C280.77 79.0823 280.502 77.9323 280.502 76.629C280.502 75.3103 280.77 74.1527 281.307 73.156C281.844 72.1593 282.595 71.3927 283.561 70.856C284.527 70.3193 285.639 70.051 286.896 70.051C288.107 70.051 289.188 70.3117 290.139 70.833C291.105 71.3543 291.849 72.098 292.37 73.064C292.907 74.0147 293.175 75.111 293.175 76.353ZM289.84 75.433C289.825 74.605 289.526 73.9457 288.943 73.455C288.36 72.949 287.647 72.696 286.804 72.696C286.007 72.696 285.332 72.9413 284.78 73.432C284.243 73.9073 283.914 74.5743 283.791 75.433H289.84ZM311.349 70.074C312.913 70.074 314.171 70.557 315.121 71.523C316.087 72.4737 316.57 73.8077 316.57 75.525V83H313.35V75.962C313.35 74.9653 313.097 74.2063 312.591 73.685C312.085 73.1483 311.395 72.88 310.521 72.88C309.647 72.88 308.95 73.1483 308.428 73.685C307.922 74.2063 307.669 74.9653 307.669 75.962V83H304.449V75.962C304.449 74.9653 304.196 74.2063 303.69 73.685C303.184 73.1483 302.494 72.88 301.62 72.88C300.731 72.88 300.026 73.1483 299.504 73.685C298.998 74.2063 298.745 74.9653 298.745 75.962V83H295.525V70.258H298.745V71.799C299.159 71.2623 299.688 70.8407 300.332 70.534C300.992 70.2273 301.712 70.074 302.494 70.074C303.491 70.074 304.38 70.2887 305.162 70.718C305.944 71.132 306.55 71.73 306.979 72.512C307.393 71.776 307.991 71.1857 308.773 70.741C309.571 70.2963 310.429 70.074 311.349 70.074ZM331.655 70.258V83H328.412V81.39C327.998 81.942 327.454 82.379 326.779 82.701C326.12 83.0077 325.399 83.161 324.617 83.161C323.62 83.161 322.739 82.954 321.972 82.54C321.205 82.1107 320.6 81.4897 320.155 80.677C319.726 79.849 319.511 78.8677 319.511 77.733V70.258H322.731V77.273C322.731 78.285 322.984 79.067 323.49 79.619C323.996 80.1557 324.686 80.424 325.56 80.424C326.449 80.424 327.147 80.1557 327.653 79.619C328.159 79.067 328.412 78.285 328.412 77.273V70.258H331.655ZM334.004 76.583C334.004 75.295 334.257 74.1527 334.763 73.156C335.284 72.1593 335.982 71.3927 336.856 70.856C337.745 70.3193 338.734 70.051 339.823 70.051C340.774 70.051 341.602 70.2427 342.307 70.626C343.028 71.0093 343.603 71.4923 344.032 72.075V70.258H347.275V83H344.032V81.137C343.618 81.735 343.043 82.2333 342.307 82.632C341.586 83.0153 340.751 83.207 339.8 83.207C338.727 83.207 337.745 82.931 336.856 82.379C335.982 81.827 335.284 81.0527 334.763 80.056C334.257 79.044 334.004 77.8863 334.004 76.583ZM344.032 76.629C344.032 75.847 343.879 75.18 343.572 74.628C343.265 74.0607 342.851 73.6313 342.33 73.34C341.809 73.0333 341.249 72.88 340.651 72.88C340.053 72.88 339.501 73.0257 338.995 73.317C338.489 73.6083 338.075 74.0377 337.753 74.605C337.446 75.157 337.293 75.8163 337.293 76.583C337.293 77.3497 337.446 78.0243 337.753 78.607C338.075 79.1743 338.489 79.6113 338.995 79.918C339.516 80.2247 340.068 80.378 340.651 80.378C341.249 80.378 341.809 80.2323 342.33 79.941C342.851 79.6343 343.265 79.205 343.572 78.653C343.879 78.0857 344.032 77.411 344.032 76.629ZM359.12 72.121C359.534 71.5077 360.102 71.0093 360.822 70.626C361.558 70.2427 362.394 70.051 363.329 70.051C364.418 70.051 365.399 70.3193 366.273 70.856C367.163 71.3927 367.86 72.1593 368.366 73.156C368.888 74.1373 369.148 75.2797 369.148 76.583C369.148 77.8863 368.888 79.044 368.366 80.056C367.86 81.0527 367.163 81.827 366.273 82.379C365.399 82.931 364.418 83.207 363.329 83.207C362.379 83.207 361.543 83.023 360.822 82.655C360.117 82.2717 359.55 81.781 359.12 81.183V83H355.9V65.98H359.12V72.121ZM365.859 76.583C365.859 75.8163 365.698 75.157 365.376 74.605C365.07 74.0377 364.656 73.6083 364.134 73.317C363.628 73.0257 363.076 72.88 362.478 72.88C361.896 72.88 361.344 73.0333 360.822 73.34C360.316 73.6313 359.902 74.0607 359.58 74.628C359.274 75.1953 359.12 75.8623 359.12 76.629C359.12 77.3957 359.274 78.0627 359.58 78.63C359.902 79.1973 360.316 79.6343 360.822 79.941C361.344 80.2323 361.896 80.378 362.478 80.378C363.076 80.378 363.628 80.2247 364.134 79.918C364.656 79.6113 365.07 79.1743 365.376 78.607C365.698 78.0397 365.859 77.365 365.859 76.583ZM373.121 68.74C372.554 68.74 372.079 68.5637 371.695 68.211C371.327 67.843 371.143 67.3907 371.143 66.854C371.143 66.3173 371.327 65.8727 371.695 65.52C372.079 65.152 372.554 64.968 373.121 64.968C373.689 64.968 374.156 65.152 374.524 65.52C374.908 65.8727 375.099 66.3173 375.099 66.854C375.099 67.3907 374.908 67.843 374.524 68.211C374.156 68.5637 373.689 68.74 373.121 68.74ZM374.708 70.258V83H371.488V70.258H374.708ZM377.062 76.583C377.062 75.295 377.315 74.1527 377.821 73.156C378.342 72.1593 379.047 71.3927 379.937 70.856C380.826 70.3193 381.815 70.051 382.904 70.051C383.732 70.051 384.521 70.235 385.273 70.603C386.024 70.9557 386.622 71.431 387.067 72.029V65.98H390.333V83H387.067V81.114C386.668 81.7427 386.108 82.2487 385.388 82.632C384.667 83.0153 383.831 83.207 382.881 83.207C381.807 83.207 380.826 82.931 379.937 82.379C379.047 81.827 378.342 81.0527 377.821 80.056C377.315 79.044 377.062 77.8863 377.062 76.583ZM387.09 76.629C387.09 75.847 386.936 75.18 386.63 74.628C386.323 74.0607 385.909 73.6313 385.388 73.34C384.866 73.0333 384.307 72.88 383.709 72.88C383.111 72.88 382.559 73.0257 382.053 73.317C381.547 73.6083 381.133 74.0377 380.811 74.605C380.504 75.157 380.351 75.8163 380.351 76.583C380.351 77.3497 380.504 78.0243 380.811 78.607C381.133 79.1743 381.547 79.6113 382.053 79.918C382.574 80.2247 383.126 80.378 383.709 80.378C384.307 80.378 384.866 80.2323 385.388 79.941C385.909 79.6343 386.323 79.205 386.63 78.653C386.936 78.0857 387.09 77.411 387.09 76.629ZM392.65 76.583C392.65 75.295 392.903 74.1527 393.409 73.156C393.93 72.1593 394.628 71.3927 395.502 70.856C396.391 70.3193 397.38 70.051 398.469 70.051C399.419 70.051 400.247 70.2427 400.953 70.626C401.673 71.0093 402.248 71.4923 402.678 72.075V70.258H405.921V83H402.678V81.137C402.264 81.735 401.689 82.2333 400.953 82.632C400.232 83.0153 399.396 83.207 398.446 83.207C397.372 83.207 396.391 82.931 395.502 82.379C394.628 81.827 393.93 81.0527 393.409 80.056C392.903 79.044 392.65 77.8863 392.65 76.583ZM402.678 76.629C402.678 75.847 402.524 75.18 402.218 74.628C401.911 74.0607 401.497 73.6313 400.976 73.34C400.454 73.0333 399.895 72.88 399.297 72.88C398.699 72.88 398.147 73.0257 397.641 73.317C397.135 73.6083 396.721 74.0377 396.399 74.605C396.092 75.157 395.939 75.8163 395.939 76.583C395.939 77.3497 396.092 78.0243 396.399 78.607C396.721 79.1743 397.135 79.6113 397.641 79.918C398.162 80.2247 398.714 80.378 399.297 80.378C399.895 80.378 400.454 80.2323 400.976 79.941C401.497 79.6343 401.911 79.205 402.218 78.653C402.524 78.0857 402.678 77.411 402.678 76.629ZM416.127 70.074C417.645 70.074 418.871 70.557 419.807 71.523C420.742 72.4737 421.21 73.8077 421.21 75.525V83H417.99V75.962C417.99 74.95 417.737 74.1757 417.231 73.639C416.725 73.087 416.035 72.811 415.161 72.811C414.271 72.811 413.566 73.087 413.045 73.639C412.539 74.1757 412.286 74.95 412.286 75.962V83H409.066V70.258H412.286V71.845C412.715 71.293 413.259 70.8637 413.919 70.557C414.593 70.235 415.329 70.074 416.127 70.074ZM429.263 70.051C430.213 70.051 431.049 70.2427 431.77 70.626C432.49 70.994 433.058 71.477 433.472 72.075V70.258H436.715V83.092C436.715 84.2727 436.477 85.323 436.002 86.243C435.526 87.1783 434.813 87.9143 433.863 88.451C432.912 89.003 431.762 89.279 430.413 89.279C428.603 89.279 427.116 88.8573 425.951 88.014C424.801 87.1707 424.149 86.0207 423.996 84.564H427.193C427.361 85.1467 427.722 85.6067 428.274 85.944C428.841 86.2967 429.523 86.473 430.321 86.473C431.256 86.473 432.015 86.1893 432.598 85.622C433.18 85.07 433.472 84.2267 433.472 83.092V81.114C433.058 81.712 432.483 82.2103 431.747 82.609C431.026 83.0077 430.198 83.207 429.263 83.207C428.189 83.207 427.208 82.931 426.319 82.379C425.429 81.827 424.724 81.0527 424.203 80.056C423.697 79.044 423.444 77.8863 423.444 76.583C423.444 75.295 423.697 74.1527 424.203 73.156C424.724 72.1593 425.422 71.3927 426.296 70.856C427.185 70.3193 428.174 70.051 429.263 70.051ZM433.472 76.629C433.472 75.847 433.318 75.18 433.012 74.628C432.705 74.0607 432.291 73.6313 431.77 73.34C431.248 73.0333 430.689 72.88 430.091 72.88C429.493 72.88 428.941 73.0257 428.435 73.317C427.929 73.6083 427.515 74.0377 427.193 74.605C426.886 75.157 426.733 75.8163 426.733 76.583C426.733 77.3497 426.886 78.0243 427.193 78.607C427.515 79.1743 427.929 79.6113 428.435 79.918C428.956 80.2247 429.508 80.378 430.091 80.378C430.689 80.378 431.248 80.2323 431.77 79.941C432.291 79.6343 432.705 79.205 433.012 78.653C433.318 78.0857 433.472 77.411 433.472 76.629Z" fill="#EA8D45" fill-opacity="0.7"/>
<path fill-rule="evenodd" clip-rule="evenodd" d="M671.181 13.0213C675.049 12.5931 678.952 12.5931 682.819 13.0213C684.96 13.2613 686.688 14.9476 686.939 17.0963C687.397 21.0188 687.397 24.9813 686.939 28.9038C686.688 31.0526 684.96 32.7388 682.819 32.9788C678.952 33.407 675.049 33.407 671.181 32.9788C669.04 32.7388 667.313 31.0526 667.061 28.9038C666.603 24.9818 666.603 21.0197 667.061 17.0976C667.188 16.0537 667.664 15.0833 668.412 14.3436C669.16 13.604 670.135 13.1385 671.18 13.0226M672.588 18.5876C672.763 18.412 673.002 18.3134 673.25 18.3134C673.499 18.3134 673.737 18.412 673.913 18.5876L677 21.6751L680.088 18.5876C680.173 18.4955 680.277 18.4216 680.392 18.3704C680.507 18.3191 680.631 18.2916 680.757 18.2893C680.883 18.2871 681.008 18.3103 681.125 18.3574C681.241 18.4046 681.347 18.4748 681.436 18.5638C681.525 18.6528 681.596 18.7589 681.643 18.8756C681.69 18.9923 681.713 19.1174 681.711 19.2432C681.709 19.3691 681.681 19.4933 681.63 19.6083C681.579 19.7233 681.505 19.8268 681.413 19.9126L678.325 23.0001L681.413 26.0876C681.578 26.2653 681.668 26.5004 681.664 26.7432C681.66 26.9861 681.561 27.2178 681.39 27.3896C681.218 27.5614 680.986 27.6598 680.743 27.6641C680.5 27.6683 680.265 27.5782 680.088 27.4126L677 24.3251L673.913 27.4126C673.827 27.5047 673.723 27.5786 673.608 27.6298C673.493 27.6811 673.369 27.7086 673.243 27.7108C673.117 27.713 672.992 27.6899 672.876 27.6427C672.759 27.5956 672.653 27.5254 672.564 27.4364C672.475 27.3474 672.405 27.2413 672.358 27.1246C672.31 27.0079 672.287 26.8828 672.289 26.7569C672.292 26.6311 672.319 26.5069 672.37 26.3919C672.422 26.2769 672.496 26.1734 672.588 26.0876L675.675 23.0001L672.588 19.9126C672.412 19.7368 672.313 19.4985 672.313 19.2501C672.313 19.0017 672.412 18.7634 672.588 18.5876Z" fill="#B9B9B9"/>
</g>
<defs>
<filter id="filter0_d_252_2" x="0" y="0" width="706.097" height="125.134" filterUnits="userSpaceOnUse" color-interpolation-filters="sRGB">
<feFlood flood-opacity="0" result="BackgroundImageFix"/>
<feColorMatrix in="SourceAlpha" type="matrix" values="0 0 0 0 0 0 0 0 0 0 0 0 0 0 0 0 0 0 127 0" result="hardAlpha"/>
<feOffset dy="4"/>
<feGaussianBlur stdDeviation="2"/>
<feComposite in2="hardAlpha" operator="out"/>
<feColorMatrix type="matrix" values="0 0 0 0 0 0 0 0 0 0 0 0 0 0 0 0 0 0 0.25 0"/>
<feBlend mode="normal" in2="BackgroundImageFix" result="effect1_dropShadow_252_2"/>
<feBlend mode="normal" in="SourceGraphic" in2="effect1_dropShadow_252_2" result="shape"/>
</filter>
</defs>
</svg>
