<svg width="751" height="127" viewBox="0 0 751 127" fill="none" xmlns="http://www.w3.org/2000/svg">
<g filter="url(#filter0_d_132_284)">
<path d="M95.5 11C95.5 5.75329 99.7533 1.5 105 1.5H638C643.247 1.5 647.5 5.75329 647.5 11V108C647.5 113.247 643.247 117.5 638 117.5H105C99.7533 117.5 95.5 113.247 95.5 108V11Z" fill="white" stroke="#EA8D45"/>
<rect x="598.134" y="109.134" width="50" height="50" transform="rotate(179.846 598.134 109.134)" fill="#EA8D45"/>
<rect x="648.097" y="118.134" width="50" height="36" transform="rotate(179.846 648.097 118.134)" fill="#EA8D45" fill-opacity="0.5"/>
<rect x="146.135" y="50.1342" width="50" height="50" transform="rotate(179.846 146.135 50.1342)" fill="#EA8D45"/>
<rect x="196.113" y="65.231" width="50" height="42.0968" transform="rotate(179.846 196.113 65.231)" fill="#EA8D45" fill-opacity="0.5"/>
<path d="M233.298 37.04V45.68C233.298 46.6267 233.545 47.3533 234.038 47.86C234.532 48.3533 235.225 48.6 236.118 48.6C237.025 48.6 237.725 48.3533 238.218 47.86C238.712 47.3533 238.958 46.6267 238.958 45.68V37.04H241.778V45.66C241.778 46.8467 241.518 47.8533 240.998 48.68C240.492 49.4933 239.805 50.1067 238.938 50.52C238.085 50.9333 237.132 51.14 236.078 51.14C235.038 51.14 234.092 50.9333 233.238 50.52C232.398 50.1067 231.732 49.4933 231.238 48.68C230.745 47.8533 230.498 46.8467 230.498 45.66V37.04H233.298ZM247.284 41.52C247.644 41.0133 248.137 40.5933 248.764 40.26C249.404 39.9133 250.13 39.74 250.944 39.74C251.89 39.74 252.744 39.9733 253.504 40.44C254.277 40.9067 254.884 41.5733 255.324 42.44C255.777 43.2933 256.004 44.2867 256.004 45.42C256.004 46.5533 255.777 47.56 255.324 48.44C254.884 49.3067 254.277 49.98 253.504 50.46C252.744 50.94 251.89 51.18 250.944 51.18C250.13 51.18 249.41 51.0133 248.784 50.68C248.17 50.3467 247.67 49.9267 247.284 49.42V56.28H244.484V39.92H247.284V41.52ZM253.144 45.42C253.144 44.7533 253.004 44.18 252.724 43.7C252.457 43.2067 252.097 42.8333 251.644 42.58C251.204 42.3267 250.724 42.2 250.204 42.2C249.697 42.2 249.217 42.3333 248.764 42.6C248.324 42.8533 247.964 43.2267 247.684 43.72C247.417 44.2133 247.284 44.7933 247.284 45.46C247.284 46.1267 247.417 46.7067 247.684 47.2C247.964 47.6933 248.324 48.0733 248.764 48.34C249.217 48.5933 249.697 48.72 250.204 48.72C250.724 48.72 251.204 48.5867 251.644 48.32C252.097 48.0533 252.457 47.6733 252.724 47.18C253.004 46.6867 253.144 46.1 253.144 45.42ZM262.278 51.18C261.372 51.18 260.558 51.02 259.838 50.7C259.118 50.3667 258.545 49.92 258.118 49.36C257.705 48.8 257.478 48.18 257.438 47.5H260.258C260.312 47.9267 260.518 48.28 260.878 48.56C261.252 48.84 261.712 48.98 262.258 48.98C262.792 48.98 263.205 48.8733 263.498 48.66C263.805 48.4467 263.958 48.1733 263.958 47.84C263.958 47.48 263.772 47.2133 263.398 47.04C263.038 46.8533 262.458 46.6533 261.658 46.44C260.832 46.24 260.152 46.0333 259.618 45.82C259.098 45.6067 258.645 45.28 258.258 44.84C257.885 44.4 257.698 43.8067 257.698 43.06C257.698 42.4467 257.872 41.8867 258.218 41.38C258.578 40.8733 259.085 40.4733 259.738 40.18C260.405 39.8867 261.185 39.74 262.078 39.74C263.398 39.74 264.452 40.0733 265.238 40.74C266.025 41.3933 266.458 42.28 266.538 43.4H263.858C263.818 42.96 263.632 42.6133 263.298 42.36C262.978 42.0933 262.545 41.96 261.998 41.96C261.492 41.96 261.098 42.0533 260.818 42.24C260.552 42.4267 260.418 42.6867 260.418 43.02C260.418 43.3933 260.605 43.68 260.978 43.88C261.352 44.0667 261.932 44.26 262.718 44.46C263.518 44.66 264.178 44.8667 264.698 45.08C265.218 45.2933 265.665 45.6267 266.038 46.08C266.425 46.52 266.625 47.1067 266.638 47.84C266.638 48.48 266.458 49.0533 266.098 49.56C265.752 50.0667 265.245 50.4667 264.578 50.76C263.925 51.04 263.158 51.18 262.278 51.18ZM272.557 36.8L272.237 46.46H269.877L269.537 36.8H272.557ZM271.117 51.14C270.61 51.14 270.19 50.9867 269.857 50.68C269.537 50.36 269.377 49.9667 269.377 49.5C269.377 49.0333 269.537 48.6467 269.857 48.34C270.19 48.02 270.61 47.86 271.117 47.86C271.61 47.86 272.017 48.02 272.337 48.34C272.657 48.6467 272.817 49.0333 272.817 49.5C272.817 49.9667 272.657 50.36 272.337 50.68C272.017 50.9867 271.61 51.14 271.117 51.14ZM288.693 43.84C289.479 43.9867 290.126 44.38 290.633 45.02C291.139 45.66 291.393 46.3933 291.393 47.22C291.393 47.9667 291.206 48.6267 290.833 49.2C290.473 49.76 289.946 50.2 289.253 50.52C288.559 50.84 287.739 51 286.793 51H280.773V37.04H286.533C287.479 37.04 288.293 37.1933 288.973 37.5C289.666 37.8067 290.186 38.2333 290.533 38.78C290.893 39.3267 291.073 39.9467 291.073 40.64C291.073 41.4533 290.853 42.1333 290.413 42.68C289.986 43.2267 289.413 43.6133 288.693 43.84ZM283.573 42.8H286.133C286.799 42.8 287.313 42.6533 287.673 42.36C288.033 42.0533 288.213 41.62 288.213 41.06C288.213 40.5 288.033 40.0667 287.673 39.76C287.313 39.4533 286.799 39.3 286.133 39.3H283.573V42.8ZM286.393 48.72C287.073 48.72 287.599 48.56 287.973 48.24C288.359 47.92 288.553 47.4667 288.553 46.88C288.553 46.28 288.353 45.8133 287.953 45.48C287.553 45.1333 287.013 44.96 286.333 44.96H283.573V48.72H286.393ZM292.904 45.42C292.904 44.3 293.124 43.3067 293.564 42.44C294.017 41.5733 294.624 40.9067 295.384 40.44C296.157 39.9733 297.017 39.74 297.964 39.74C298.791 39.74 299.511 39.9067 300.124 40.24C300.751 40.5733 301.251 40.9933 301.624 41.5V39.92H304.444V51H301.624V49.38C301.264 49.9 300.764 50.3333 300.124 50.68C299.497 51.0133 298.771 51.18 297.944 51.18C297.011 51.18 296.157 50.94 295.384 50.46C294.624 49.98 294.017 49.3067 293.564 48.44C293.124 47.56 292.904 46.5533 292.904 45.42ZM301.624 45.46C301.624 44.78 301.491 44.2 301.224 43.72C300.957 43.2267 300.597 42.8533 300.144 42.6C299.691 42.3333 299.204 42.2 298.684 42.2C298.164 42.2 297.684 42.3267 297.244 42.58C296.804 42.8333 296.444 43.2067 296.164 43.7C295.897 44.18 295.764 44.7533 295.764 45.42C295.764 46.0867 295.897 46.6733 296.164 47.18C296.444 47.6733 296.804 48.0533 297.244 48.32C297.697 48.5867 298.177 48.72 298.684 48.72C299.204 48.72 299.691 48.5933 300.144 48.34C300.597 48.0733 300.957 47.7 301.224 47.22C301.491 46.7267 301.624 46.14 301.624 45.46ZM309.979 41.64C310.339 41.0533 310.805 40.5933 311.379 40.26C311.965 39.9267 312.632 39.76 313.379 39.76V42.7H312.639C311.759 42.7 311.092 42.9067 310.639 43.32C310.199 43.7333 309.979 44.4533 309.979 45.48V51H307.179V39.92H309.979V41.64ZM314.545 45.42C314.545 44.3 314.765 43.3067 315.205 42.44C315.658 41.5733 316.265 40.9067 317.025 40.44C317.798 39.9733 318.658 39.74 319.605 39.74C320.431 39.74 321.151 39.9067 321.765 40.24C322.391 40.5733 322.891 40.9933 323.265 41.5V39.92H326.085V51H323.265V49.38C322.905 49.9 322.405 50.3333 321.765 50.68C321.138 51.0133 320.411 51.18 319.585 51.18C318.651 51.18 317.798 50.94 317.025 50.46C316.265 49.98 315.658 49.3067 315.205 48.44C314.765 47.56 314.545 46.5533 314.545 45.42ZM323.265 45.46C323.265 44.78 323.131 44.2 322.865 43.72C322.598 43.2267 322.238 42.8533 321.785 42.6C321.331 42.3333 320.845 42.2 320.325 42.2C319.805 42.2 319.325 42.3267 318.885 42.58C318.445 42.8333 318.085 43.2067 317.805 43.7C317.538 44.18 317.405 44.7533 317.405 45.42C317.405 46.0867 317.538 46.6733 317.805 47.18C318.085 47.6733 318.445 48.0533 318.885 48.32C319.338 48.5867 319.818 48.72 320.325 48.72C320.845 48.72 321.331 48.5933 321.785 48.34C322.238 48.0733 322.598 47.7 322.865 47.22C323.131 46.7267 323.265 46.14 323.265 45.46ZM334.959 39.76C336.279 39.76 337.346 40.18 338.159 41.02C338.973 41.8467 339.379 43.0067 339.379 44.5V51H336.579V44.88C336.579 44 336.359 43.3267 335.919 42.86C335.479 42.38 334.879 42.14 334.119 42.14C333.346 42.14 332.733 42.38 332.279 42.86C331.839 43.3267 331.619 44 331.619 44.88V51H328.819V39.92H331.619V41.3C331.993 40.82 332.466 40.4467 333.039 40.18C333.626 39.9 334.266 39.76 334.959 39.76ZM346.382 39.74C347.209 39.74 347.935 39.9067 348.562 40.24C349.189 40.56 349.682 40.98 350.042 41.5V39.92H352.862V51.08C352.862 52.1067 352.655 53.02 352.242 53.82C351.829 54.6333 351.209 55.2733 350.382 55.74C349.555 56.22 348.555 56.46 347.382 56.46C345.809 56.46 344.515 56.0933 343.502 55.36C342.502 54.6267 341.935 53.6267 341.802 52.36H344.582C344.729 52.8667 345.042 53.2667 345.522 53.56C346.015 53.8667 346.609 54.02 347.302 54.02C348.115 54.02 348.775 53.7733 349.282 53.28C349.789 52.8 350.042 52.0667 350.042 51.08V49.36C349.682 49.88 349.182 50.3133 348.542 50.66C347.915 51.0067 347.195 51.18 346.382 51.18C345.449 51.18 344.595 50.94 343.822 50.46C343.049 49.98 342.435 49.3067 341.982 48.44C341.542 47.56 341.322 46.5533 341.322 45.42C341.322 44.3 341.542 43.3067 341.982 42.44C342.435 41.5733 343.042 40.9067 343.802 40.44C344.575 39.9733 345.435 39.74 346.382 39.74ZM350.042 45.46C350.042 44.78 349.909 44.2 349.642 43.72C349.375 43.2267 349.015 42.8533 348.562 42.6C348.109 42.3333 347.622 42.2 347.102 42.2C346.582 42.2 346.102 42.3267 345.662 42.58C345.222 42.8333 344.862 43.2067 344.582 43.7C344.315 44.18 344.182 44.7533 344.182 45.42C344.182 46.0867 344.315 46.6733 344.582 47.18C344.862 47.6733 345.222 48.0533 345.662 48.32C346.115 48.5867 346.595 48.72 347.102 48.72C347.622 48.72 348.109 48.5933 348.562 48.34C349.015 48.0733 349.375 47.7 349.642 47.22C349.909 46.7267 350.042 46.14 350.042 45.46ZM370.962 39.92L364.102 56.24H361.122L363.522 50.72L359.082 39.92H362.222L365.082 47.66L367.982 39.92H370.962ZM371.752 45.42C371.752 44.3 371.972 43.3067 372.412 42.44C372.865 41.5733 373.472 40.9067 374.232 40.44C375.005 39.9733 375.865 39.74 376.812 39.74C377.638 39.74 378.358 39.9067 378.972 40.24C379.598 40.5733 380.098 40.9933 380.472 41.5V39.92H383.292V51H380.472V49.38C380.112 49.9 379.612 50.3333 378.972 50.68C378.345 51.0133 377.618 51.18 376.792 51.18C375.858 51.18 375.005 50.94 374.232 50.46C373.472 49.98 372.865 49.3067 372.412 48.44C371.972 47.56 371.752 46.5533 371.752 45.42ZM380.472 45.46C380.472 44.78 380.338 44.2 380.072 43.72C379.805 43.2267 379.445 42.8533 378.992 42.6C378.538 42.3333 378.052 42.2 377.532 42.2C377.012 42.2 376.532 42.3267 376.092 42.58C375.652 42.8333 375.292 43.2067 375.012 43.7C374.745 44.18 374.612 44.7533 374.612 45.42C374.612 46.0867 374.745 46.6733 375.012 47.18C375.292 47.6733 375.652 48.0533 376.092 48.32C376.545 48.5867 377.025 48.72 377.532 48.72C378.052 48.72 378.538 48.5933 378.992 48.34C379.445 48.0733 379.805 47.7 380.072 47.22C380.338 46.7267 380.472 46.14 380.472 45.46ZM392.166 39.76C393.486 39.76 394.553 40.18 395.366 41.02C396.18 41.8467 396.586 43.0067 396.586 44.5V51H393.786V44.88C393.786 44 393.566 43.3267 393.126 42.86C392.686 42.38 392.086 42.14 391.326 42.14C390.553 42.14 389.94 42.38 389.486 42.86C389.046 43.3267 388.826 44 388.826 44.88V51H386.026V39.92H388.826V41.3C389.2 40.82 389.673 40.4467 390.246 40.18C390.833 39.9 391.473 39.76 392.166 39.76ZM403.589 39.74C404.416 39.74 405.142 39.9067 405.769 40.24C406.396 40.56 406.889 40.98 407.249 41.5V39.92H410.069V51.08C410.069 52.1067 409.862 53.02 409.449 53.82C409.036 54.6333 408.416 55.2733 407.589 55.74C406.762 56.22 405.762 56.46 404.589 56.46C403.016 56.46 401.722 56.0933 400.709 55.36C399.709 54.6267 399.142 53.6267 399.009 52.36H401.789C401.936 52.8667 402.249 53.2667 402.729 53.56C403.222 53.8667 403.816 54.02 404.509 54.02C405.322 54.02 405.982 53.7733 406.489 53.28C406.996 52.8 407.249 52.0667 407.249 51.08V49.36C406.889 49.88 406.389 50.3133 405.749 50.66C405.122 51.0067 404.402 51.18 403.589 51.18C402.656 51.18 401.802 50.94 401.029 50.46C400.256 49.98 399.642 49.3067 399.189 48.44C398.749 47.56 398.529 46.5533 398.529 45.42C398.529 44.3 398.749 43.3067 399.189 42.44C399.642 41.5733 400.249 40.9067 401.009 40.44C401.782 39.9733 402.642 39.74 403.589 39.74ZM407.249 45.46C407.249 44.78 407.116 44.2 406.849 43.72C406.582 43.2267 406.222 42.8533 405.769 42.6C405.316 42.3333 404.829 42.2 404.309 42.2C403.789 42.2 403.309 42.3267 402.869 42.58C402.429 42.8333 402.069 43.2067 401.789 43.7C401.522 44.18 401.389 44.7533 401.389 45.42C401.389 46.0867 401.522 46.6733 401.789 47.18C402.069 47.6733 402.429 48.0533 402.869 48.32C403.322 48.5867 403.802 48.72 404.309 48.72C404.829 48.72 405.316 48.5933 405.769 48.34C406.222 48.0733 406.582 47.7 406.849 47.22C407.116 46.7267 407.249 46.14 407.249 45.46ZM426.129 48.34H420.569L419.649 51H416.709L421.729 37.02H424.989L430.009 51H427.049L426.129 48.34ZM425.369 46.1L423.349 40.26L421.329 46.1H425.369ZM438.026 39.76C439.346 39.76 440.413 40.18 441.226 41.02C442.039 41.8467 442.446 43.0067 442.446 44.5V51H439.646V44.88C439.646 44 439.426 43.3267 438.986 42.86C438.546 42.38 437.946 42.14 437.186 42.14C436.413 42.14 435.799 42.38 435.346 42.86C434.906 43.3267 434.686 44 434.686 44.88V51H431.886V39.92H434.686V41.3C435.059 40.82 435.533 40.4467 436.106 40.18C436.693 39.9 437.333 39.76 438.026 39.76ZM444.389 45.42C444.389 44.3 444.609 43.3067 445.049 42.44C445.502 41.5733 446.115 40.9067 446.889 40.44C447.662 39.9733 448.522 39.74 449.469 39.74C450.189 39.74 450.875 39.9 451.529 40.22C452.182 40.5267 452.702 40.94 453.089 41.46V36.2H455.929V51H453.089V49.36C452.742 49.9067 452.255 50.3467 451.629 50.68C451.002 51.0133 450.275 51.18 449.449 51.18C448.515 51.18 447.662 50.94 446.889 50.46C446.115 49.98 445.502 49.3067 445.049 48.44C444.609 47.56 444.389 46.5533 444.389 45.42ZM453.109 45.46C453.109 44.78 452.975 44.2 452.709 43.72C452.442 43.2267 452.082 42.8533 451.629 42.6C451.175 42.3333 450.689 42.2 450.169 42.2C449.649 42.2 449.169 42.3267 448.729 42.58C448.289 42.8333 447.929 43.2067 447.649 43.7C447.382 44.18 447.249 44.7533 447.249 45.42C447.249 46.0867 447.382 46.6733 447.649 47.18C447.929 47.6733 448.289 48.0533 448.729 48.32C449.182 48.5867 449.662 48.72 450.169 48.72C450.689 48.72 451.175 48.5933 451.629 48.34C452.082 48.0733 452.442 47.7 452.709 47.22C452.975 46.7267 453.109 46.14 453.109 45.46ZM457.943 45.42C457.943 44.3 458.163 43.3067 458.603 42.44C459.057 41.5733 459.663 40.9067 460.423 40.44C461.197 39.9733 462.057 39.74 463.003 39.74C463.83 39.74 464.55 39.9067 465.163 40.24C465.79 40.5733 466.29 40.9933 466.663 41.5V39.92H469.483V51H466.663V49.38C466.303 49.9 465.803 50.3333 465.163 50.68C464.537 51.0133 463.81 51.18 462.983 51.18C462.05 51.18 461.197 50.94 460.423 50.46C459.663 49.98 459.057 49.3067 458.603 48.44C458.163 47.56 457.943 46.5533 457.943 45.42ZM466.663 45.46C466.663 44.78 466.53 44.2 466.263 43.72C465.997 43.2267 465.637 42.8533 465.183 42.6C464.73 42.3333 464.243 42.2 463.723 42.2C463.203 42.2 462.723 42.3267 462.283 42.58C461.843 42.8333 461.483 43.2067 461.203 43.7C460.937 44.18 460.803 44.7533 460.803 45.42C460.803 46.0867 460.937 46.6733 461.203 47.18C461.483 47.6733 461.843 48.0533 462.283 48.32C462.737 48.5867 463.217 48.72 463.723 48.72C464.243 48.72 464.73 48.5933 465.183 48.34C465.637 48.0733 465.997 47.7 466.263 47.22C466.53 46.7267 466.663 46.14 466.663 45.46ZM476.264 45.46C476.264 44.3133 476.497 43.3133 476.964 42.46C477.43 41.5933 478.077 40.9267 478.904 40.46C479.73 39.98 480.677 39.74 481.744 39.74C483.117 39.74 484.25 40.0867 485.144 40.78C486.05 41.46 486.657 42.42 486.964 43.66H483.944C483.784 43.18 483.51 42.8067 483.124 42.54C482.75 42.26 482.284 42.12 481.724 42.12C480.924 42.12 480.29 42.4133 479.824 43C479.357 43.5733 479.124 44.3933 479.124 45.46C479.124 46.5133 479.357 47.3333 479.824 47.92C480.29 48.4933 480.924 48.78 481.724 48.78C482.857 48.78 483.597 48.2733 483.944 47.26H486.964C486.657 48.46 486.05 49.4133 485.144 50.12C484.237 50.8267 483.104 51.18 481.744 51.18C480.677 51.18 479.73 50.9467 478.904 50.48C478.077 50 477.43 49.3333 476.964 48.48C476.497 47.6133 476.264 46.6067 476.264 45.46ZM488.295 45.42C488.295 44.3 488.515 43.3067 488.955 42.44C489.408 41.5733 490.015 40.9067 490.775 40.44C491.548 39.9733 492.408 39.74 493.355 39.74C494.181 39.74 494.901 39.9067 495.515 40.24C496.141 40.5733 496.641 40.9933 497.015 41.5V39.92H499.835V51H497.015V49.38C496.655 49.9 496.155 50.3333 495.515 50.68C494.888 51.0133 494.161 51.18 493.335 51.18C492.401 51.18 491.548 50.94 490.775 50.46C490.015 49.98 489.408 49.3067 488.955 48.44C488.515 47.56 488.295 46.5533 488.295 45.42ZM497.015 45.46C497.015 44.78 496.881 44.2 496.615 43.72C496.348 43.2267 495.988 42.8533 495.535 42.6C495.081 42.3333 494.595 42.2 494.075 42.2C493.555 42.2 493.075 42.3267 492.635 42.58C492.195 42.8333 491.835 43.2067 491.555 43.7C491.288 44.18 491.155 44.7533 491.155 45.42C491.155 46.0867 491.288 46.6733 491.555 47.18C491.835 47.6733 492.195 48.0533 492.635 48.32C493.088 48.5867 493.568 48.72 494.075 48.72C494.595 48.72 495.081 48.5933 495.535 48.34C495.988 48.0733 496.348 47.7 496.615 47.22C496.881 46.7267 497.015 46.14 497.015 45.46ZM505.369 41.64C505.729 41.0533 506.196 40.5933 506.769 40.26C507.356 39.9267 508.023 39.76 508.769 39.76V42.7H508.029C507.149 42.7 506.483 42.9067 506.029 43.32C505.589 43.7333 505.369 44.4533 505.369 45.48V51H502.569V39.92H505.369V41.64ZM512.075 38.6C511.582 38.6 511.169 38.4467 510.835 38.14C510.515 37.82 510.355 37.4267 510.355 36.96C510.355 36.4933 510.515 36.1067 510.835 35.8C511.169 35.48 511.582 35.32 512.075 35.32C512.569 35.32 512.975 35.48 513.295 35.8C513.629 36.1067 513.795 36.4933 513.795 36.96C513.795 37.4267 513.629 37.82 513.295 38.14C512.975 38.4467 512.569 38.6 512.075 38.6ZM513.455 39.92V51H510.655V39.92H513.455Z" fill="#EA8D45"/>
<path d="M263.251 67.04V69.3H259.531V81H256.731V69.3H253.011V67.04H263.251ZM266.714 68.6C266.221 68.6 265.807 68.4467 265.474 68.14C265.154 67.82 264.994 67.4267 264.994 66.96C264.994 66.4933 265.154 66.1067 265.474 65.8C265.807 65.48 266.221 65.32 266.714 65.32C267.207 65.32 267.614 65.48 267.934 65.8C268.267 66.1067 268.434 66.4933 268.434 66.96C268.434 67.4267 268.267 67.82 267.934 68.14C267.614 68.4467 267.207 68.6 266.714 68.6ZM268.094 69.92V81H265.294V69.92H268.094ZM270.14 75.42C270.14 74.3 270.36 73.3067 270.8 72.44C271.254 71.5733 271.867 70.9067 272.64 70.44C273.414 69.9733 274.274 69.74 275.22 69.74C275.94 69.74 276.627 69.9 277.28 70.22C277.934 70.5267 278.454 70.94 278.84 71.46V66.2H281.68V81H278.84V79.36C278.494 79.9067 278.007 80.3467 277.38 80.68C276.754 81.0133 276.027 81.18 275.2 81.18C274.267 81.18 273.414 80.94 272.64 80.46C271.867 79.98 271.254 79.3067 270.8 78.44C270.36 77.56 270.14 76.5533 270.14 75.42ZM278.86 75.46C278.86 74.78 278.727 74.2 278.46 73.72C278.194 73.2267 277.834 72.8533 277.38 72.6C276.927 72.3333 276.44 72.2 275.92 72.2C275.4 72.2 274.92 72.3267 274.48 72.58C274.04 72.8333 273.68 73.2067 273.4 73.7C273.134 74.18 273 74.7533 273 75.42C273 76.0867 273.134 76.6733 273.4 77.18C273.68 77.6733 274.04 78.0533 274.48 78.32C274.934 78.5867 275.414 78.72 275.92 78.72C276.44 78.72 276.927 78.5933 277.38 78.34C277.834 78.0733 278.194 77.7 278.46 77.22C278.727 76.7267 278.86 76.14 278.86 75.46ZM283.695 75.42C283.695 74.3 283.915 73.3067 284.355 72.44C284.808 71.5733 285.415 70.9067 286.175 70.44C286.948 69.9733 287.808 69.74 288.755 69.74C289.582 69.74 290.302 69.9067 290.915 70.24C291.542 70.5733 292.042 70.9933 292.415 71.5V69.92H295.235V81H292.415V79.38C292.055 79.9 291.555 80.3333 290.915 80.68C290.288 81.0133 289.562 81.18 288.735 81.18C287.802 81.18 286.948 80.94 286.175 80.46C285.415 79.98 284.808 79.3067 284.355 78.44C283.915 77.56 283.695 76.5533 283.695 75.42ZM292.415 75.46C292.415 74.78 292.282 74.2 292.015 73.72C291.748 73.2267 291.388 72.8533 290.935 72.6C290.482 72.3333 289.995 72.2 289.475 72.2C288.955 72.2 288.475 72.3267 288.035 72.58C287.595 72.8333 287.235 73.2067 286.955 73.7C286.688 74.18 286.555 74.7533 286.555 75.42C286.555 76.0867 286.688 76.6733 286.955 77.18C287.235 77.6733 287.595 78.0533 288.035 78.32C288.488 78.5867 288.968 78.72 289.475 78.72C289.995 78.72 290.482 78.5933 290.935 78.34C291.388 78.0733 291.748 77.7 292.015 77.22C292.282 76.7267 292.415 76.14 292.415 75.46ZM304.53 81L300.77 76.28V81H297.97V66.2H300.77V74.62L304.49 69.92H308.13L303.25 75.48L308.17 81H304.53ZM313.695 75.42C313.695 74.3 313.915 73.3067 314.355 72.44C314.808 71.5733 315.422 70.9067 316.195 70.44C316.968 69.9733 317.828 69.74 318.775 69.74C319.495 69.74 320.182 69.9 320.835 70.22C321.488 70.5267 322.008 70.94 322.395 71.46V66.2H325.235V81H322.395V79.36C322.048 79.9067 321.562 80.3467 320.935 80.68C320.308 81.0133 319.582 81.18 318.755 81.18C317.822 81.18 316.968 80.94 316.195 80.46C315.422 79.98 314.808 79.3067 314.355 78.44C313.915 77.56 313.695 76.5533 313.695 75.42ZM322.415 75.46C322.415 74.78 322.282 74.2 322.015 73.72C321.748 73.2267 321.388 72.8533 320.935 72.6C320.482 72.3333 319.995 72.2 319.475 72.2C318.955 72.2 318.475 72.3267 318.035 72.58C317.595 72.8333 317.235 73.2067 316.955 73.7C316.688 74.18 316.555 74.7533 316.555 75.42C316.555 76.0867 316.688 76.6733 316.955 77.18C317.235 77.6733 317.595 78.0533 318.035 78.32C318.488 78.5867 318.968 78.72 319.475 78.72C319.995 78.72 320.482 78.5933 320.935 78.34C321.388 78.0733 321.748 77.7 322.015 77.22C322.282 76.7267 322.415 76.14 322.415 75.46ZM327.25 75.42C327.25 74.3 327.47 73.3067 327.91 72.44C328.363 71.5733 328.97 70.9067 329.73 70.44C330.503 69.9733 331.363 69.74 332.31 69.74C333.137 69.74 333.857 69.9067 334.47 70.24C335.097 70.5733 335.597 70.9933 335.97 71.5V69.92H338.79V81H335.97V79.38C335.61 79.9 335.11 80.3333 334.47 80.68C333.843 81.0133 333.117 81.18 332.29 81.18C331.357 81.18 330.503 80.94 329.73 80.46C328.97 79.98 328.363 79.3067 327.91 78.44C327.47 77.56 327.25 76.5533 327.25 75.42ZM335.97 75.46C335.97 74.78 335.837 74.2 335.57 73.72C335.303 73.2267 334.943 72.8533 334.49 72.6C334.037 72.3333 333.55 72.2 333.03 72.2C332.51 72.2 332.03 72.3267 331.59 72.58C331.15 72.8333 330.79 73.2067 330.51 73.7C330.243 74.18 330.11 74.7533 330.11 75.42C330.11 76.0867 330.243 76.6733 330.51 77.18C330.79 77.6733 331.15 78.0533 331.59 78.32C332.043 78.5867 332.523 78.72 333.03 78.72C333.55 78.72 334.037 78.5933 334.49 78.34C334.943 78.0733 335.303 77.7 335.57 77.22C335.837 76.7267 335.97 76.14 335.97 75.46ZM344.325 71.52C344.685 71.0133 345.178 70.5933 345.805 70.26C346.445 69.9133 347.171 69.74 347.985 69.74C348.931 69.74 349.785 69.9733 350.545 70.44C351.318 70.9067 351.925 71.5733 352.365 72.44C352.818 73.2933 353.045 74.2867 353.045 75.42C353.045 76.5533 352.818 77.56 352.365 78.44C351.925 79.3067 351.318 79.98 350.545 80.46C349.785 80.94 348.931 81.18 347.985 81.18C347.171 81.18 346.451 81.0133 345.825 80.68C345.211 80.3467 344.711 79.9267 344.325 79.42V86.28H341.525V69.92H344.325V71.52ZM350.185 75.42C350.185 74.7533 350.045 74.18 349.765 73.7C349.498 73.2067 349.138 72.8333 348.685 72.58C348.245 72.3267 347.765 72.2 347.245 72.2C346.738 72.2 346.258 72.3333 345.805 72.6C345.365 72.8533 345.005 73.2267 344.725 73.72C344.458 74.2133 344.325 74.7933 344.325 75.46C344.325 76.1267 344.458 76.7067 344.725 77.2C345.005 77.6933 345.365 78.0733 345.805 78.34C346.258 78.5933 346.738 78.72 347.245 78.72C347.765 78.72 348.245 78.5867 348.685 78.32C349.138 78.0533 349.498 77.6733 349.765 77.18C350.045 76.6867 350.185 76.1 350.185 75.42ZM354.359 75.42C354.359 74.3 354.579 73.3067 355.019 72.44C355.473 71.5733 356.079 70.9067 356.839 70.44C357.613 69.9733 358.473 69.74 359.419 69.74C360.246 69.74 360.966 69.9067 361.579 70.24C362.206 70.5733 362.706 70.9933 363.079 71.5V69.92H365.899V81H363.079V79.38C362.719 79.9 362.219 80.3333 361.579 80.68C360.953 81.0133 360.226 81.18 359.399 81.18C358.466 81.18 357.613 80.94 356.839 80.46C356.079 79.98 355.473 79.3067 355.019 78.44C354.579 77.56 354.359 76.5533 354.359 75.42ZM363.079 75.46C363.079 74.78 362.946 74.2 362.679 73.72C362.413 73.2267 362.053 72.8533 361.599 72.6C361.146 72.3333 360.659 72.2 360.139 72.2C359.619 72.2 359.139 72.3267 358.699 72.58C358.259 72.8333 357.899 73.2067 357.619 73.7C357.353 74.18 357.219 74.7533 357.219 75.42C357.219 76.0867 357.353 76.6733 357.619 77.18C357.899 77.6733 358.259 78.0533 358.699 78.32C359.153 78.5867 359.633 78.72 360.139 78.72C360.659 78.72 361.146 78.5933 361.599 78.34C362.053 78.0733 362.413 77.7 362.679 77.22C362.946 76.7267 363.079 76.14 363.079 75.46ZM371.894 72.22V77.58C371.894 77.9533 371.981 78.2267 372.154 78.4C372.341 78.56 372.647 78.64 373.074 78.64H374.374V81H372.614C370.254 81 369.074 79.8533 369.074 77.56V72.22H367.754V69.92H369.074V67.18H371.894V69.92H374.374V72.22H371.894ZM380.433 75.42C380.433 74.3 380.653 73.3067 381.093 72.44C381.547 71.5733 382.16 70.9067 382.933 70.44C383.707 69.9733 384.567 69.74 385.513 69.74C386.233 69.74 386.92 69.9 387.573 70.22C388.227 70.5267 388.747 70.94 389.133 71.46V66.2H391.973V81H389.133V79.36C388.787 79.9067 388.3 80.3467 387.673 80.68C387.047 81.0133 386.32 81.18 385.493 81.18C384.56 81.18 383.707 80.94 382.933 80.46C382.16 79.98 381.547 79.3067 381.093 78.44C380.653 77.56 380.433 76.5533 380.433 75.42ZM389.153 75.46C389.153 74.78 389.02 74.2 388.753 73.72C388.487 73.2267 388.127 72.8533 387.673 72.6C387.22 72.3333 386.733 72.2 386.213 72.2C385.693 72.2 385.213 72.3267 384.773 72.58C384.333 72.8333 383.973 73.2067 383.693 73.7C383.427 74.18 383.293 74.7533 383.293 75.42C383.293 76.0867 383.427 76.6733 383.693 77.18C383.973 77.6733 384.333 78.0533 384.773 78.32C385.227 78.5867 385.707 78.72 386.213 78.72C386.733 78.72 387.22 78.5933 387.673 78.34C388.127 78.0733 388.487 77.7 388.753 77.22C389.02 76.7267 389.153 76.14 389.153 75.46ZM396.128 68.6C395.635 68.6 395.221 68.4467 394.888 68.14C394.568 67.82 394.408 67.4267 394.408 66.96C394.408 66.4933 394.568 66.1067 394.888 65.8C395.221 65.48 395.635 65.32 396.128 65.32C396.621 65.32 397.028 65.48 397.348 65.8C397.681 66.1067 397.848 66.4933 397.848 66.96C397.848 67.4267 397.681 67.82 397.348 68.14C397.028 68.4467 396.621 68.6 396.128 68.6ZM397.508 69.92V81H394.708V69.92H397.508ZM403.535 72.22V77.58C403.535 77.9533 403.621 78.2267 403.795 78.4C403.981 78.56 404.288 78.64 404.715 78.64H406.015V81H404.255C401.895 81 400.715 79.8533 400.715 77.56V72.22H399.395V69.92H400.715V67.18H403.535V69.92H406.015V72.22H403.535ZM418.328 75.22C418.328 75.62 418.302 75.98 418.248 76.3H410.148C410.215 77.1 410.495 77.7267 410.988 78.18C411.482 78.6333 412.088 78.86 412.808 78.86C413.848 78.86 414.588 78.4133 415.028 77.52H418.048C417.728 78.5867 417.115 79.4667 416.208 80.16C415.302 80.84 414.188 81.18 412.868 81.18C411.802 81.18 410.842 80.9467 409.988 80.48C409.148 80 408.488 79.3267 408.008 78.46C407.542 77.5933 407.308 76.5933 407.308 75.46C407.308 74.3133 407.542 73.3067 408.008 72.44C408.475 71.5733 409.128 70.9067 409.968 70.44C410.808 69.9733 411.775 69.74 412.868 69.74C413.922 69.74 414.862 69.9667 415.688 70.42C416.528 70.8733 417.175 71.52 417.628 72.36C418.095 73.1867 418.328 74.14 418.328 75.22ZM415.428 74.42C415.415 73.7 415.155 73.1267 414.648 72.7C414.142 72.26 413.522 72.04 412.788 72.04C412.095 72.04 411.508 72.2533 411.028 72.68C410.562 73.0933 410.275 73.6733 410.168 74.42H415.428ZM434.132 69.76C435.492 69.76 436.586 70.18 437.412 71.02C438.252 71.8467 438.672 73.0067 438.672 74.5V81H435.872V74.88C435.872 74.0133 435.652 73.3533 435.212 72.9C434.772 72.4333 434.172 72.2 433.412 72.2C432.652 72.2 432.046 72.4333 431.592 72.9C431.152 73.3533 430.932 74.0133 430.932 74.88V81H428.132V74.88C428.132 74.0133 427.912 73.3533 427.472 72.9C427.032 72.4333 426.432 72.2 425.672 72.2C424.899 72.2 424.286 72.4333 423.832 72.9C423.392 73.3533 423.172 74.0133 423.172 74.88V81H420.372V69.92H423.172V71.26C423.532 70.7933 423.992 70.4267 424.552 70.16C425.126 69.8933 425.752 69.76 426.432 69.76C427.299 69.76 428.072 69.9467 428.752 70.32C429.432 70.68 429.959 71.2 430.332 71.88C430.692 71.24 431.212 70.7267 431.892 70.34C432.586 69.9533 433.332 69.76 434.132 69.76ZM451.789 69.92V81H448.969V79.6C448.609 80.08 448.136 80.46 447.549 80.74C446.976 81.0067 446.349 81.14 445.669 81.14C444.803 81.14 444.036 80.96 443.369 80.6C442.703 80.2267 442.176 79.6867 441.789 78.98C441.416 78.26 441.229 77.4067 441.229 76.42V69.92H444.029V76.02C444.029 76.9 444.249 77.58 444.689 78.06C445.129 78.5267 445.729 78.76 446.489 78.76C447.263 78.76 447.869 78.5267 448.309 78.06C448.749 77.58 448.969 76.9 448.969 76.02V69.92H451.789ZM461.112 81L457.352 76.28V81H454.552V66.2H457.352V74.62L461.072 69.92H464.712L459.832 75.48L464.752 81H461.112ZM465.512 75.42C465.512 74.3 465.732 73.3067 466.172 72.44C466.625 71.5733 467.232 70.9067 467.992 70.44C468.765 69.9733 469.625 69.74 470.572 69.74C471.398 69.74 472.118 69.9067 472.732 70.24C473.358 70.5733 473.858 70.9933 474.232 71.5V69.92H477.052V81H474.232V79.38C473.872 79.9 473.372 80.3333 472.732 80.68C472.105 81.0133 471.378 81.18 470.552 81.18C469.618 81.18 468.765 80.94 467.992 80.46C467.232 79.98 466.625 79.3067 466.172 78.44C465.732 77.56 465.512 76.5533 465.512 75.42ZM474.232 75.46C474.232 74.78 474.098 74.2 473.832 73.72C473.565 73.2267 473.205 72.8533 472.752 72.6C472.298 72.3333 471.812 72.2 471.292 72.2C470.772 72.2 470.292 72.3267 469.852 72.58C469.412 72.8333 469.052 73.2067 468.772 73.7C468.505 74.18 468.372 74.7533 468.372 75.42C468.372 76.0867 468.505 76.6733 468.772 77.18C469.052 77.6733 469.412 78.0533 469.852 78.32C470.305 78.5867 470.785 78.72 471.292 78.72C471.812 78.72 472.298 78.5933 472.752 78.34C473.205 78.0733 473.565 77.7 473.832 77.22C474.098 76.7267 474.232 76.14 474.232 75.46ZM485.926 69.76C487.246 69.76 488.313 70.18 489.126 71.02C489.94 71.8467 490.346 73.0067 490.346 74.5V81H487.546V74.88C487.546 74 487.326 73.3267 486.886 72.86C486.446 72.38 485.846 72.14 485.086 72.14C484.313 72.14 483.7 72.38 483.246 72.86C482.806 73.3267 482.586 74 482.586 74.88V81H479.786V69.92H482.586V71.3C482.96 70.82 483.433 70.4467 484.006 70.18C484.593 69.9 485.233 69.76 485.926 69.76Z" fill="#999999"/>
<path fill-rule="evenodd" clip-rule="evenodd" d="M617.181 19.0213C621.049 18.5931 624.952 18.5931 628.819 19.0213C630.96 19.2613 632.688 20.9475 632.939 23.0963C633.397 27.0188 633.397 30.9813 632.939 34.9038C632.688 37.0525 630.96 38.7388 628.819 38.9788C624.952 39.407 621.049 39.407 617.181 38.9788C615.04 38.7388 613.313 37.0525 613.061 34.9038C612.603 30.9817 612.603 27.0196 613.061 23.0975C613.188 22.0536 613.664 21.0832 614.412 20.3436C615.16 19.604 616.135 19.1385 617.18 19.0225M618.588 24.5875C618.763 24.412 619.002 24.3134 619.25 24.3134C619.499 24.3134 619.737 24.412 619.913 24.5875L623 27.675L626.088 24.5875C626.173 24.4954 626.277 24.4215 626.392 24.3703C626.507 24.3191 626.631 24.2915 626.757 24.2893C626.883 24.2871 627.008 24.3102 627.125 24.3574C627.241 24.4045 627.347 24.4747 627.436 24.5637C627.525 24.6528 627.596 24.7588 627.643 24.8755C627.69 24.9923 627.713 25.1173 627.711 25.2432C627.709 25.3691 627.681 25.4932 627.63 25.6082C627.579 25.7232 627.505 25.8267 627.413 25.9125L624.325 29L627.413 32.0875C627.578 32.2652 627.668 32.5003 627.664 32.7432C627.66 32.9861 627.561 33.2178 627.39 33.3896C627.218 33.5613 626.986 33.6597 626.743 33.664C626.5 33.6683 626.265 33.5781 626.088 33.4125L623 30.325L619.913 33.4125C619.827 33.5046 619.723 33.5785 619.608 33.6298C619.493 33.681 619.369 33.7085 619.243 33.7108C619.117 33.713 618.992 33.6898 618.876 33.6427C618.759 33.5955 618.653 33.5253 618.564 33.4363C618.475 33.3473 618.405 33.2413 618.358 33.1245C618.31 33.0078 618.287 32.8828 618.289 32.7569C618.292 32.631 618.319 32.5069 618.37 32.3919C618.422 32.2769 618.496 32.1734 618.588 32.0875L621.675 29L618.588 25.9125C618.412 25.7367 618.313 25.4985 618.313 25.25C618.313 25.0016 618.412 24.7633 618.588 24.5875Z" fill="#B9B9B9"/>
</g>
<defs>
<filter id="filter0_d_132_284" x="-4" y="0.134338" width="759" height="126.134" filterUnits="userSpaceOnUse" color-interpolation-filters="sRGB">
<feFlood flood-opacity="0" result="BackgroundImageFix"/>
<feColorMatrix in="SourceAlpha" type="matrix" values="0 0 0 0 0 0 0 0 0 0 0 0 0 0 0 0 0 0 127 0" result="hardAlpha"/>
<feOffset dy="4"/>
<feGaussianBlur stdDeviation="2"/>
<feComposite in2="hardAlpha" operator="out"/>
<feColorMatrix type="matrix" values="0 0 0 0 0 0 0 0 0 0 0 0 0 0 0 0 0 0 0.25 0"/>
<feBlend mode="normal" in2="BackgroundImageFix" result="effect1_dropShadow_132_284"/>
<feBlend mode="normal" in="SourceGraphic" in2="effect1_dropShadow_132_284" result="shape"/>
</filter>
</defs>
</svg>
