<svg width="23" height="23" viewBox="0 0 23 23" fill="none" xmlns="http://www.w3.org/2000/svg">
<path fill-rule="evenodd" clip-rule="evenodd" d="M10.4219 3.23437C10.6204 3.23437 10.7813 3.39525 10.7813 3.59374V10.4219C10.7813 10.6203 10.6204 10.7812 10.4219 10.7812H3.59375C3.39526 10.7812 3.23438 10.6203 3.23438 10.4219V3.59374C3.23438 3.39525 3.39526 3.23437 3.59375 3.23437H10.4219ZM9.25391 4.76171H4.76172V9.2539H9.25391V4.76171ZM20.3346 6.73122C20.475 6.87156 20.475 7.09911 20.3346 7.23944L16.2688 11.3053C16.1284 11.4457 15.9009 11.4457 15.7605 11.3053L11.6947 7.23944C11.5543 7.09911 11.5543 6.87156 11.6947 6.73122L15.7605 2.66534C15.9009 2.52501 16.1284 2.52501 16.2688 2.66534L20.3346 6.73122ZM18.4288 6.98532L16.0146 4.57124L13.6005 6.98534L16.0146 9.39944L18.4288 6.98532ZM10.4219 12.2187C10.6204 12.2187 10.7813 12.3797 10.7813 12.5781V19.4062C10.7813 19.6047 10.6204 19.7656 10.4219 19.7656H3.59375C3.39526 19.7656 3.23438 19.6047 3.23438 19.4062V12.5781C3.23438 12.3797 3.39526 12.2187 3.59375 12.2187H10.4219ZM9.25391 13.7461H4.76172V18.2383H9.25391V13.7461ZM19.4063 12.2187C19.6047 12.2187 19.7656 12.3797 19.7656 12.5781V19.4062C19.7656 19.6047 19.6047 19.7656 19.4063 19.7656H12.5781C12.3796 19.7656 12.2188 19.6047 12.2188 19.4062V12.5781C12.2188 12.3797 12.3796 12.2187 12.5781 12.2187H19.4063ZM18.2383 13.7461H13.7461V18.2383H18.2383V13.7461Z" fill="#E2DDDD"/>
</svg>
