<svg width="99" height="34" viewBox="0 0 99 34" fill="none" xmlns="http://www.w3.org/2000/svg">
<g filter="url(#filter0_d_132_207)">
<rect x="4" width="91" height="26" rx="10" fill="#EA8D45"/>
<path d="M25.0089 18.105C24.2789 18.105 23.6189 17.98 23.0289 17.73C22.4489 17.48 21.9889 17.12 21.6489 16.65C21.3089 16.18 21.1339 15.625 21.1239 14.985H23.3739C23.4039 15.415 23.5539 15.755 23.8239 16.005C24.1039 16.255 24.4839 16.38 24.9639 16.38C25.4539 16.38 25.8389 16.265 26.1189 16.035C26.3989 15.795 26.5389 15.485 26.5389 15.105C26.5389 14.795 26.4439 14.54 26.2539 14.34C26.0639 14.14 25.8239 13.985 25.5339 13.875C25.2539 13.755 24.8639 13.625 24.3639 13.485C23.6839 13.285 23.1289 13.09 22.6989 12.9C22.2789 12.7 21.9139 12.405 21.6039 12.015C21.3039 11.615 21.1539 11.085 21.1539 10.425C21.1539 9.805 21.3089 9.265 21.6189 8.805C21.9289 8.345 22.3639 7.995 22.9239 7.755C23.4839 7.505 24.1239 7.38 24.8439 7.38C25.9239 7.38 26.7989 7.645 27.4689 8.175C28.1489 8.695 28.5239 9.425 28.5939 10.365H26.2839C26.2639 10.005 26.1089 9.71 25.8189 9.48C25.5389 9.24 25.1639 9.12 24.6939 9.12C24.2839 9.12 23.9539 9.225 23.7039 9.435C23.4639 9.645 23.3439 9.95 23.3439 10.35C23.3439 10.63 23.4339 10.865 23.6139 11.055C23.8039 11.235 24.0339 11.385 24.3039 11.505C24.5839 11.615 24.9739 11.745 25.4739 11.895C26.1539 12.095 26.7089 12.295 27.1389 12.495C27.5689 12.695 27.9389 12.995 28.2489 13.395C28.5589 13.795 28.7139 14.32 28.7139 14.97C28.7139 15.53 28.5689 16.05 28.2789 16.53C27.9889 17.01 27.5639 17.395 27.0039 17.685C26.4439 17.965 25.7789 18.105 25.0089 18.105ZM31.5995 8.7C31.2295 8.7 30.9195 8.585 30.6695 8.355C30.4295 8.115 30.3095 7.82 30.3095 7.47C30.3095 7.12 30.4295 6.83 30.6695 6.6C30.9195 6.36 31.2295 6.24 31.5995 6.24C31.9695 6.24 32.2745 6.36 32.5145 6.6C32.7645 6.83 32.8895 7.12 32.8895 7.47C32.8895 7.82 32.7645 8.115 32.5145 8.355C32.2745 8.585 31.9695 8.7 31.5995 8.7ZM32.6345 9.69V18H30.5345V9.69H32.6345ZM45.0293 9.57C46.0493 9.57 46.8693 9.885 47.4893 10.515C48.1193 11.135 48.4343 12.005 48.4343 13.125V18H46.3343V13.41C46.3343 12.76 46.1693 12.265 45.8393 11.925C45.5093 11.575 45.0593 11.4 44.4893 11.4C43.9193 11.4 43.4643 11.575 43.1243 11.925C42.7943 12.265 42.6293 12.76 42.6293 13.41V18H40.5293V13.41C40.5293 12.76 40.3643 12.265 40.0343 11.925C39.7043 11.575 39.2543 11.4 38.6843 11.4C38.1043 11.4 37.6443 11.575 37.3043 11.925C36.9743 12.265 36.8093 12.76 36.8093 13.41V18H34.7093V9.69H36.8093V10.695C37.0793 10.345 37.4243 10.07 37.8443 9.87C38.2743 9.67 38.7443 9.57 39.2543 9.57C39.9043 9.57 40.4843 9.71 40.9943 9.99C41.5043 10.26 41.8993 10.65 42.1793 11.16C42.4493 10.68 42.8393 10.295 43.3493 10.005C43.8693 9.715 44.4293 9.57 45.0293 9.57ZM52.5271 10.89C52.7971 10.51 53.1671 10.195 53.6371 9.945C54.1171 9.685 54.6621 9.555 55.2721 9.555C55.9821 9.555 56.6221 9.73 57.1921 10.08C57.7721 10.43 58.2271 10.93 58.5571 11.58C58.8971 12.22 59.0671 12.965 59.0671 13.815C59.0671 14.665 58.8971 15.42 58.5571 16.08C58.2271 16.73 57.7721 17.235 57.1921 17.595C56.6221 17.955 55.9821 18.135 55.2721 18.135C54.6621 18.135 54.1221 18.01 53.6521 17.76C53.1921 17.51 52.8171 17.195 52.5271 16.815V21.96H50.4271V9.69H52.5271V10.89ZM56.9221 13.815C56.9221 13.315 56.8171 12.885 56.6071 12.525C56.4071 12.155 56.1371 11.875 55.7971 11.685C55.4671 11.495 55.1071 11.4 54.7171 11.4C54.3371 11.4 53.9771 11.5 53.6371 11.7C53.3071 11.89 53.0371 12.17 52.8271 12.54C52.6271 12.91 52.5271 13.345 52.5271 13.845C52.5271 14.345 52.6271 14.78 52.8271 15.15C53.0371 15.52 53.3071 15.805 53.6371 16.005C53.9771 16.195 54.3371 16.29 54.7171 16.29C55.1071 16.29 55.4671 16.19 55.7971 15.99C56.1371 15.79 56.4071 15.505 56.6071 15.135C56.8171 14.765 56.9221 14.325 56.9221 13.815ZM60.0531 13.815C60.0531 12.975 60.2181 12.23 60.5481 11.58C60.8881 10.93 61.3431 10.43 61.9131 10.08C62.4931 9.73 63.1381 9.555 63.8481 9.555C64.4681 9.555 65.0081 9.68 65.4681 9.93C65.9381 10.18 66.3131 10.495 66.5931 10.875V9.69H68.7081V18H66.5931V16.785C66.3231 17.175 65.9481 17.5 65.4681 17.76C64.9981 18.01 64.4531 18.135 63.8331 18.135C63.1331 18.135 62.4931 17.955 61.9131 17.595C61.3431 17.235 60.8881 16.73 60.5481 16.08C60.2181 15.42 60.0531 14.665 60.0531 13.815ZM66.5931 13.845C66.5931 13.335 66.4931 12.9 66.2931 12.54C66.0931 12.17 65.8231 11.89 65.4831 11.7C65.1431 11.5 64.7781 11.4 64.3881 11.4C63.9981 11.4 63.6381 11.495 63.3081 11.685C62.9781 11.875 62.7081 12.155 62.4981 12.525C62.2981 12.885 62.1981 13.315 62.1981 13.815C62.1981 14.315 62.2981 14.755 62.4981 15.135C62.7081 15.505 62.9781 15.79 63.3081 15.99C63.6481 16.19 64.0081 16.29 64.3881 16.29C64.7781 16.29 65.1431 16.195 65.4831 16.005C65.8231 15.805 66.0931 15.525 66.2931 15.165C66.4931 14.795 66.5931 14.355 66.5931 13.845ZM75.3641 9.57C76.3541 9.57 77.1541 9.885 77.7641 10.515C78.3741 11.135 78.6791 12.005 78.6791 13.125V18H76.5791V13.41C76.5791 12.75 76.4141 12.245 76.0841 11.895C75.7541 11.535 75.3041 11.355 74.7341 11.355C74.1541 11.355 73.6941 11.535 73.3541 11.895C73.0241 12.245 72.8591 12.75 72.8591 13.41V18H70.7591V9.69H72.8591V10.725C73.1391 10.365 73.4941 10.085 73.9241 9.885C74.3641 9.675 74.8441 9.57 75.3641 9.57Z" fill="white"/>
</g>
<defs>
<filter id="filter0_d_132_207" x="0" y="0" width="99" height="34" filterUnits="userSpaceOnUse" color-interpolation-filters="sRGB">
<feFlood flood-opacity="0" result="BackgroundImageFix"/>
<feColorMatrix in="SourceAlpha" type="matrix" values="0 0 0 0 0 0 0 0 0 0 0 0 0 0 0 0 0 0 127 0" result="hardAlpha"/>
<feOffset dy="4"/>
<feGaussianBlur stdDeviation="2"/>
<feComposite in2="hardAlpha" operator="out"/>
<feColorMatrix type="matrix" values="0 0 0 0 0 0 0 0 0 0 0 0 0 0 0 0 0 0 0.25 0"/>
<feBlend mode="normal" in2="BackgroundImageFix" result="effect1_dropShadow_132_207"/>
<feBlend mode="normal" in="SourceGraphic" in2="effect1_dropShadow_132_207" result="shape"/>
</filter>
</defs>
</svg>
