<svg width="25" height="26" viewBox="0 0 25 26" fill="none" xmlns="http://www.w3.org/2000/svg">
<path d="M5.125 11.75L12 0.5L18.875 11.75H5.125ZM18.875 25.5C17.3125 25.5 15.9846 24.9533 14.8912 23.86C13.7979 22.7667 13.2508 21.4383 13.25 19.875C13.2492 18.3117 13.7962 16.9837 14.8912 15.8912C15.9862 14.7987 17.3142 14.2517 18.875 14.25C20.4358 14.2483 21.7642 14.7954 22.86 15.8912C23.9558 16.9871 24.5025 18.315 24.5 19.875C24.4975 21.435 23.9508 22.7633 22.86 23.86C21.7692 24.9567 20.4408 25.5033 18.875 25.5ZM0.75 24.875V14.875H10.75V24.875H0.75Z" fill="#EA8D45"/>
</svg>
