<svg width="17" height="17" viewBox="0 0 17 17" fill="none" xmlns="http://www.w3.org/2000/svg">
<path d="M8.49992 6.375C7.93633 6.375 7.39583 6.59888 6.99732 6.9974C6.5988 7.39591 6.37492 7.93641 6.37492 8.5C6.37492 9.06358 6.5988 9.60409 6.99732 10.0026C7.39583 10.4011 7.93633 10.625 8.49992 10.625C9.0635 10.625 9.60401 10.4011 10.0025 10.0026C10.401 9.60409 10.6249 9.06358 10.6249 8.5C10.6249 7.93641 10.401 7.39591 10.0025 6.9974C9.60401 6.59888 9.0635 6.375 8.49992 6.375ZM8.49992 12.0417C7.56061 12.0417 6.65977 11.6685 5.99558 11.0043C5.33139 10.3401 4.95825 9.43931 4.95825 8.5C4.95825 7.56069 5.33139 6.65985 5.99558 5.99566C6.65977 5.33147 7.56061 4.95833 8.49992 4.95833C9.43923 4.95833 10.3401 5.33147 11.0043 5.99566C11.6684 6.65985 12.0416 7.56069 12.0416 8.5C12.0416 9.43931 11.6684 10.3401 11.0043 11.0043C10.3401 11.6685 9.43923 12.0417 8.49992 12.0417ZM8.49992 3.1875C4.95825 3.1875 1.93367 5.39042 0.708252 8.5C1.93367 11.6096 4.95825 13.8125 8.49992 13.8125C12.0416 13.8125 15.0662 11.6096 16.2916 8.5C15.0662 5.39042 12.0416 3.1875 8.49992 3.1875Z" fill="#CBF3F0"/>
</svg>
